<?xml version="1.0" encoding="utf-8"?>
<!-- Generator: Adobe Illustrator 28.1.0, SVG Export Plug-In . SVG Version: 6.00 Build 0)  -->
<svg version="1.1"
	 id="svg2" xmlns:cc="http://creativecommons.org/ns#" xmlns:inkscape="http://www.inkscape.org/namespaces/inkscape" xmlns:dc="http://purl.org/dc/elements/1.1/" xmlns:svg="http://www.w3.org/2000/svg" xmlns:rdf="http://www.w3.org/1999/02/22-rdf-syntax-ns#" xmlns:sodipodi="http://sodipodi.sourceforge.net/DTD/sodipodi-0.dtd"
	 xmlns="http://www.w3.org/2000/svg" xmlns:xlink="http://www.w3.org/1999/xlink" x="0px" y="0px" viewBox="0 0 500 500"
	 style="enable-background:new 0 0 500 500;" xml:space="preserve">
<style type="text/css">
	.st0{opacity:0.2;}
	.st1{fill:#87000C;}
</style>
<sodipodi:namedview  bordercolor="#666666" borderopacity="1.0" gridtolerance="10" guidetolerance="14" id="base" inkscape:current-layer="layer2" inkscape:cx="378.98059" inkscape:cy="253.73207" inkscape:document-units="px" inkscape:guide-bbox="true" inkscape:pageopacity="0.0" inkscape:pageshadow="2" inkscape:window-height="852" inkscape:window-maximized="1" inkscape:window-width="1440" inkscape:window-x="0" inkscape:window-y="0" inkscape:zoom="0.35355339" objecttolerance="12" pagecolor="#ffffff" showgrid="false" showguides="true">
	</sodipodi:namedview>
<g id="layer2" transform="translate(0,-552.36218)" inkscape:groupmode="layer" inkscape:label="Logo" class="st0">
	<g id="g4515">
		<path id="path4010" class="st1" d="M414.2,701.2L337,723.5l-7.4-4.9v169.9l6.3-4.3l79,22.8L362.8,847v-86.8L414.2,701.2z
			 M85.8,701.2l51.4,59.1V847l-52.1,59.8l79-22.8l6.3,4.3V718.5l-7.4,4.9L85.8,701.2z M250,610l-19.8,68.8l-47.5,31.7v186.6
			l47.7,32.9l19.7,68l19.7-68l47.7-32.9V710.4l-47.5-31.7L250,610z M204.2,757.1c2.4-0.1,4.6,2.1,4.5,4.5v31.2c0,0.2,0,0.3,0,0.5
			c0.2,2.2,0.5,2.2,1.9,3.9c0.7,0.9,2,2.3,3.8,3.6v-39.1c0-2.3,2-4.5,4.3-4.5c2.3,0,4.4,2.2,4.3,4.5v39.1c1.8-1.2,3-2.7,3.8-3.6
			c1.4-1.7,1.7-1.8,1.9-3.9c0-0.2,0-0.3,0-0.5v-31.2c0-2.4,2.2-4.6,4.5-4.5c2.3,0,4.4,2.2,4.3,4.5v31.2c0,0.4-0.1,0.9-0.2,1.3l0.2,0
			c-0.3,3-1.3,7.7-4,10.9c-2.3,2.7-5.6,6.5-10.5,9.2v17c0,0.7,0.9,1.4,1.3,1.6c2.3,1,5.8,1.4,9.2,1.4c2.4-0.1,4.6,2.1,4.6,4.5
			c0,2.4-2.3,4.5-4.7,4.3c-0.1,0-0.2,0-0.3,0h-14.4h-14.4c-0.1,0-0.2,0-0.3,0c-2.4,0.2-4.7-1.9-4.7-4.3s2.2-4.6,4.6-4.5
			c3.4,0,6.9-0.4,9.2-1.4c0.4-0.2,1.3-0.9,1.3-1.6v-17c-4.9-2.7-8.2-6.5-10.5-9.2c-2.7-3.2-3.7-7.9-4-10.9l0.2,0
			c-0.1-0.4-0.2-0.9-0.2-1.3v-31.2C199.8,759.3,201.8,757.2,204.2,757.1L204.2,757.1z M261.1,757.7h2.5h34.4c2.4-0.1,4.7,2,4.7,4.4
			s-2.3,4.5-4.7,4.4h-34.7c-2.6-0.1-3,0.2-3.8,1.7c-0.8,1.4-1.6,4.8-1.5,9.9H258l0,7.5l32.4-0.5c5.8,0.1,11.5,0.2,10.7,11.4
			c-0.4,3.4-1.6,5.2-3.2,7.2l-12.8,12.5l11.4,20.5c1,2.2,0.1,4.9-2.2,5.9c-2,0.9-4.3,0.2-5.6-1.6l-10.2-18.4l-4.3,4.2
			c-1.6,1.7-4.7,1.7-6.3,0c-1.6-1.7-1.6-4.7,0.1-6.3l6.1-5.9l-3.3-6c-1.2-2.1-0.5-4.8,1.6-6c0.7-0.4,1.4-0.6,2.1-0.6
			c1.7,0,3.2,0.9,4,2.3l2.2,3.9l10.4-10.2c0.5-2,0.6-3-2.1-4.1l-30.8,0.5l0.3,44.7c0,2.3-2.1,4.4-4.4,4.4s-4.4-2.1-4.4-4.4
			l-0.4-63.1c0-0.4,0-0.7,0.1-1.1c0,0,0,0,0-0.1c0.1-4.3,0.1-9.8,1.2-12.8C252.7,758.1,253.6,757.8,261.1,757.7L261.1,757.7z"/>
		<path id="path3990" class="st1" d="M270.6,566.9c0.3,0,0.5,0,0.8,0.1c113.1,10.8,202.8,100.5,213.7,213.7
			c0.7,7.6,1.1,15.1,1.1,22.6c0,7.5-0.4,15-1.1,22.6c-10.8,113.1-100.6,202.8-213.7,213.7c-0.3,0-0.5,0-0.8,0.1
			c-6.4,0.2-11.8-4.9-12-11.3c-0.2-6.1,4.4-11.4,10.6-11.9c3.3-0.3,6.5-0.7,9.8-1.2c6.2-56.6,56.6-98.5,113.8-93.9
			c4.8,0.3,8.5,4.5,8.1,9.3c-0.1,1.5-0.6,3-1.5,4.3c-1.8,2.7-4.9,4.1-8.1,3.8c-46.1-3.7-86.6,28.4-94.2,73.1
			c66.9-15.4,121.6-62,148.2-123.7c-47.2-33.9-58.4-99.8-24.7-147.3c2.7-4,8.2-5,12.2-2.3c1.3,0.9,2.3,2.1,3,3.5
			c1.4,2.9,1,6.3-0.9,8.9c-27.3,38.5-19.5,91.1,16.9,120.1c5-15.1,8.4-30.9,10-47.3c0.7-6.9,1-13.7,1-20.4c0-6.7-0.3-13.6-1-20.4
			c-4-41.3-19.5-79.2-43.5-110.2c-52.5,24.6-115.4,2.2-140.4-50.2c-2.2-4.3-0.4-9.6,4-11.7c1.4-0.7,2.9-1,4.5-0.9
			c3.2,0.2,6,2.2,7.4,5.1c20.3,42.5,69.8,61.2,112.9,43.8c-34.8-37.9-83.1-63.2-137.4-68.4c-6.4-0.6-11.1-6.3-10.5-12.7
			C259.2,571.4,264.5,566.8,270.6,566.9L270.6,566.9z M229.4,566.9c-0.3,0-0.5,0-0.8,0.1C115.5,577.8,25.8,667.5,14.9,780.7
			c-0.7,7.6-1.1,15.1-1.1,22.6c0,7.5,0.4,15,1.1,22.6c10.8,113.1,100.6,202.8,213.7,213.7c0.3,0,0.5,0,0.8,0.1
			c6.4,0.2,11.8-4.9,12-11.3c0.2-6.1-4.4-11.4-10.6-11.9c-3.3-0.3-6.5-0.7-9.8-1.2c-6.2-56.6-56.6-98.5-113.8-93.9
			c-4.8,0.3-8.5,4.5-8.1,9.3c0.1,1.5,0.6,3,1.5,4.3c1.8,2.7,4.9,4.1,8.1,3.8c46.1-3.7,86.6,28.4,94.2,73.1
			c-66.9-15.4-121.6-62-148.2-123.7c47.2-33.9,58.4-99.8,24.7-147.3c-2.7-4-8.2-5-12.2-2.3c-1.3,0.9-2.3,2.1-3,3.5
			c-1.4,2.9-1,6.3,0.9,8.9C92.4,789.4,84.6,842,48.2,871c-5-15.1-8.4-30.9-10-47.3c-0.7-6.9-1-13.7-1-20.4c0-6.7,0.3-13.6,1-20.4
			c4-41.3,19.5-79.2,43.5-110.2c52.5,24.6,115.4,2.2,140.4-50.2c2.2-4.3,0.4-9.6-4-11.7c-1.4-0.7-2.9-1-4.5-0.9
			c-3.2,0.2-6,2.2-7.4,5.1c-20.3,42.5-69.8,61.2-112.9,43.8c34.8-37.9,83.1-63.2,137.4-68.4c6.4-0.6,11.1-6.3,10.5-12.7
			C240.8,571.4,235.6,566.8,229.4,566.9L229.4,566.9z"/>
	</g>
</g>
</svg>
