<?xml version="1.0" encoding="UTF-8"?>
<svg id="_レイヤー_2" data-name="レイヤー 2" xmlns="http://www.w3.org/2000/svg" xmlns:xlink="http://www.w3.org/1999/xlink" viewBox="0 0 560.36 623.62">
  <defs>
    <style>
      .cls-1 {
        fill: none;
      }

      .cls-1, .cls-2, .cls-3, .cls-4, .cls-5, .cls-6, .cls-7, .cls-8, .cls-9, .cls-10 {
        stroke-width: 0px;
      }

      .cls-11 {
        filter: url(#drop-shadow-1);
      }

      .cls-2 {
        fill: url(#_新規パターンスウォッチ_4-2);
      }

      .cls-2, .cls-3, .cls-4 {
        opacity: .5;
      }

      .cls-3 {
        fill: url(#_新規パターンスウォッチ_7);
      }

      .cls-4 {
        fill: url(#_新規パターンスウォッチ_4);
      }

      .cls-5 {
        opacity: .9;
      }

      .cls-5, .cls-6, .cls-9 {
        fill: #fff;
      }

      .cls-6 {
        opacity: 0;
      }

      .cls-7 {
        fill: #d4e0ff;
      }

      .cls-8 {
        fill: #99001a;
      }

      .cls-10 {
        fill: #fff8f0;
      }
    </style>
    <pattern id="_新規パターンスウォッチ_4" data-name="新規パターンスウォッチ 4" x="0" y="0" width="17.01" height="623.62" patternTransform="translate(1900.83 -16364.97) rotate(-90)" patternUnits="userSpaceOnUse" viewBox="0 0 17.01 623.62">
      <g>
        <rect class="cls-1" width="17.01" height="623.62"/>
        <rect class="cls-6" x="8.5" width="8.5" height="623.62"/>
        <rect class="cls-10" width="8.5" height="623.62"/>
      </g>
    </pattern>
    <pattern id="_新規パターンスウォッチ_4-2" data-name="新規パターンスウォッチ 4" patternTransform="translate(5075.76 -8012.86) rotate(-45)" xlink:href="#_新規パターンスウォッチ_4"/>
    <pattern id="_新規パターンスウォッチ_7" data-name="新規パターンスウォッチ 7" x="0" y="0" width="17.01" height="623.62" patternTransform="translate(-6569.08 2560.13) rotate(45)" patternUnits="userSpaceOnUse" viewBox="0 0 17.01 623.62">
      <g>
        <rect class="cls-1" y="0" width="17.01" height="623.62"/>
        <rect class="cls-6" x="8.5" y="0" width="8.5" height="623.62"/>
        <rect class="cls-7" y="0" width="8.5" height="623.62"/>
      </g>
    </pattern>
    <filter id="drop-shadow-1" filterUnits="userSpaceOnUse">
      <feOffset dx="7" dy="7"/>
      <feGaussianBlur result="blur" stdDeviation="5"/>
      <feFlood flood-color="#333335" flood-opacity=".53"/>
      <feComposite in2="blur" operator="in"/>
      <feComposite in="SourceGraphic"/>
    </filter>
  </defs>
  <g id="_レイヤー_1-2" data-name="レイヤー 1">
    <g>
      <circle class="cls-8" cx="296.63" cy="359.89" r="263.73"/>
      <circle class="cls-4" cx="378.35" cy="182.01" r="182.01"/>
      <circle class="cls-2" cx="45.6" cy="245.3" r="45.6"/>
      <circle class="cls-3" cx="115.85" cy="533.37" r="90.25"/>
      <g class="cls-11">
        <path class="cls-9" d="M138.67,181.57c.67.31,1.53.67,2.51,1.22,1.04.55,1.77,1.04,2.33,1.65.55.61.86,1.47.86,2.57-.18.8-.49,1.84-.86,2.94-.37,1.16-.61,1.84-.67,2.08.61-.31,1.41-.67,2.51-1.04,1.04-.43,1.77-.55,2.14-.55,1.04,0,2.2.25,3.37.61,1.16.37,1.65.92,1.65,1.59s-.18,1.22-.73,1.59c-.55.49-1.41.92-2.39,1.35-1.04.37-2.26.8-3.61,1.22-1.29.37-2.75.8-4.34,1.29-.37,1.04-.67,2.26-.92,3.73-.31,1.47-.55,3-.67,4.59.43-.25,1.04-.37,1.84-.61.67-.12,1.53-.31,2.45-.37.25-.49.37-.98.43-1.59.12-.55.18-1.1.18-1.53s-.06-.8-.18-1.22c-.06-.43-.18-.86-.43-1.35l.12-.12c1.71.24,3.06.73,4.1,1.59.98.86,1.53,1.71,1.53,2.63,0,.06,0,.18-.12.43-.06.24-.06.49-.06.67,1.41,0,2.94.24,4.53.8,1.59.55,3.12,1.35,4.59,2.45,1.47,1.04,2.69,2.39,3.61,3.98.8,1.59,1.29,3.61,1.29,6.12s-.49,4.89-1.29,6.79c-.92,1.9-2.14,3.55-3.61,4.77-1.53,1.22-3.3,2.14-5.2,2.63-1.9.49-4.04.8-6.43.8-.61,0-1.22-.06-1.77-.12-.55-.06-1.16-.25-1.84-.37,4.34-1.53,7.83-3.49,10.34-5.87,2.51-2.39,3.73-5.57,3.73-9.55,0-2.33-.25-3.92-.67-4.9-.49-.98-1.1-1.77-1.84-2.39-.86-.61-1.59-1.04-2.33-1.35-.73-.25-1.71-.43-3.06-.43h-.98c-.37.12-.61.18-.67.25-1.22,2.75-2.45,5.26-3.67,7.53-1.28,2.2-2.69,4.16-4.28,5.94,0,.61.06,1.59.31,3.06.24,1.47.31,2.51.31,3.3,0,.37-.18.73-.37,1.22-.25.55-.61.73-1.04.73-.49,0-1.35-.43-2.33-1.35-1.04-.86-1.53-1.59-1.53-2.33v-1.35c-1.35.98-2.45,1.77-3.61,2.26-1.16.61-2.14.92-3,.92-.92,0-1.53-.37-1.9-1.22-.37-.8-.61-1.9-.61-3.18,0-.49-.18-1.53-.55-3.12-.37-1.65-.61-2.69-.61-3.37,0-1.16.31-2.14.98-3,.61-.86,1.47-1.71,2.63-2.51,1.04-.86,2.08-1.53,2.88-2.08.86-.55,1.96-1.1,3.3-1.59.06-1.84.25-3.55.37-5.02.18-1.41.43-2.75.61-3.98-.06,0-.31,0-.67.12-.37.06-.67.12-.86.12-.98,0-1.9-.43-2.82-1.35-.98-.92-2.08-2.39-3.37-4.47l.06-.06c.73.12,1.41.25,1.96.31.49.06,1.1.12,1.65.12.67,0,1.41-.06,2.08-.18s1.53-.31,2.69-.55c.18-1.16.37-2.63.61-4.22.12-1.59.18-2.57.18-3.12,0-.67-.12-1.47-.43-2.45-.37-.92-.8-1.77-1.29-2.51l.06-.25c1.16.12,2.08.37,2.82.61ZM132.3,215.35c-1.1.86-1.9,1.41-2.45,1.71-.31.12-.49.31-.61.37-.06.06-.12.25-.12.37,0,.86.12,1.77.55,2.69.37.98.73,1.47,1.1,1.47.55,0,1.16-.25,2.02-.8.73-.49,1.47-1.04,2.14-1.71-.06-.92-.06-1.96-.06-3-.12-1.1-.12-2.02-.12-2.69-.49.24-1.29.79-2.45,1.59ZM139.04,213.52c0,.73.12,1.41.24,2.02.55-.67,1.1-1.47,1.59-2.45.55-.92,1.1-2.02,1.65-3.3-.55.06-1.04.31-1.53.61-.55.31-1.16.67-1.71,1.1-.12.67-.24,1.35-.24,2.02Z"/>
        <path class="cls-9" d="M198.65,184.14c1.59.86,2.45,1.77,2.45,2.94,0,.73-.31,1.84-.86,3.18-.61,1.41-.98,2.39-1.1,2.94.31-.18.73-.49,1.29-.86.55-.37.92-.55,1.04-.55,1.35,0,2.57.18,3.67.49,1.16.31,1.71.73,1.71,1.28.06,1.16-.98,2.2-3.12,3.37-2.14,1.16-4.22,1.9-6.12,2.33-.18.31-.61,1.65-1.41,4.1-.73,2.51-1.35,4.53-1.9,6.06-.37,1.35-.86,2.57-1.41,3.61-.61,1.04-1.35,1.59-2.26,1.59-.8,0-1.29-.61-1.71-1.9-.37-1.22-.61-2.39-.61-3.55,0-.86.18-1.53.49-2.2.31-.67.61-1.41.92-2.08.24-.67.55-1.47.92-2.39.31-.92.55-1.53.73-1.9-1.41,0-2.75-.31-3.98-.86-1.29-.49-2.45-1.53-3.55-2.81l.31-.43c.49.06.98.06,1.29.06.24.06.55.06.86.06.98,0,1.9-.12,2.88-.37.98-.25,2.2-.55,3.67-.98.37-1.84.8-3.49,1.1-4.9.31-1.41.43-2.45.43-3.18,0-.43-.24-1.04-.61-1.9-.43-.73-.98-1.53-1.59-2.26v-.31c2.69.12,4.83.61,6.49,1.41ZM212.17,202.13c-.61,1.84-.98,3.86-1.22,6-.18,2.2-.37,4.71-.37,7.65.31,0,.98.12,2.02.43.98.37,1.65.55,2.14.55.8,0,1.71.73,2.88,2.2,1.1,1.47,1.59,2.75,1.59,3.73,0,.55-.18.92-.61,1.22-.43.31-.92.49-1.35.49-.98,0-2.33-.55-3.92-1.53s-2.69-1.53-3.18-1.71c-.25,1.16-.49,2.14-.8,3s-.67,1.71-1.22,2.69-1.04,1.84-1.77,2.45c-.67.67-1.53.98-2.51.98s-1.84-.37-2.45-1.04c-.61-.73-1.29-1.71-2.08-3-.8-1.29-1.35-2.33-1.71-3.12-.43-.86-.61-1.71-.61-2.69,0-.86.31-1.59.98-2.2.61-.55,1.35-1.1,2.39-1.53.92-.43,1.71-.73,2.51-.86.73-.18,1.53-.25,2.39-.25.06-.55.31-1.59.61-3.37.31-1.77.67-3.12,1.04-4.28.37-1.16.92-2.2,1.71-3.3.73-.98,1.84-1.9,3.12-2.63l.43.12ZM200.73,222.88c.61.55,1.16.73,1.59.73.24,0,.61-.31.98-.92.43-.61.8-1.41,1.04-2.45-.92-.06-1.96,0-2.94.31-1.04.43-1.59.8-1.59,1.22,0,.25.31.55.92,1.1ZM217.8,192.83c1.1.06,2.45.31,3.79.67,1.41.37,2.63.92,3.67,1.77.98.8,1.53,2.02,1.53,3.49,0,.55-.31.92-.86,1.16-.49.31-1.04.43-1.53.43-.8,0-1.9-.12-3.12-.43-1.28-.31-2.2-.49-2.81-.49-.8,0-1.77.18-2.94.55-1.1.37-1.9.61-2.14.67,1.47-1.04,2.45-1.9,3.18-2.57.67-.67.98-1.16.98-1.41,0-.31-.61-.8-1.84-1.59-1.22-.67-2.14-1.35-2.75-2.08l.37-.18c1.77-.12,3.24-.12,4.47,0Z"/>
        <path class="cls-9" d="M262.91,182.92c1.59.61,2.39,1.47,2.39,2.45,0,.61-.18,1.53-.55,2.75-.37,1.22-.92,2.75-1.53,4.53.31-.12.8-.37,1.41-.67.61-.31,1.22-.49,1.71-.49,1.04,0,2.08.25,3.24.61,1.16.49,1.65,1.04,1.65,1.53,0,.86-.18,1.53-.67,2.02-.55.43-1.22.92-2.14,1.28-.98.37-1.96.86-3.06,1.22-1.04.37-2.26.86-3.67,1.22-1.22,4.34-2.88,10.4-4.96,17.99-.18.37-.49,1.47-.98,3.06-.55,1.59-1.04,2.88-1.47,3.92-.49.98-.98,1.84-1.53,2.45-.55.67-1.22.98-1.9.98-.92,0-1.53-.8-1.84-2.2-.31-1.47-.43-3.18-.31-5.02.06-.37.37-1.22,1.04-2.33.61-.73,1.1-1.47,1.47-2.33.31-.73.67-1.77,1.04-2.88.43-1.16.8-2.63,1.22-4.22.49-1.59,1.22-4.47,2.33-8.57-1.53,0-3-.49-4.34-1.41-1.41-.92-2.26-2.14-2.63-3.73l.06-.31c.55.24,1.1.31,1.71.37.55.12,1.29.18,2.2.18.55,0,1.16-.06,2.02-.31.73-.24,1.41-.37,2.02-.61.31-1.41.61-3,1.04-4.83.31-1.84.43-3.12.43-3.79,0-.55-.24-1.16-.61-2.02-.43-.73-.98-1.47-1.59-2.08v-.18c3,.37,5.2.92,6.79,1.41ZM282.67,202.01c.98.43,1.53.98,1.53,1.59-.12.86-.49,1.53-1.22,1.9-.8.49-1.84.8-3.24.92-1.53.25-2.75.55-3.73.86-.98.37-1.77.67-2.45,1.04-.67.43-1.29.86-1.77,1.22-.55.43-1.47,1.22-2.82,2.45.67-1.29,1.22-2.33,1.59-3.06.37-.67.55-1.1.55-1.22-.86-.12-1.71-.37-2.51-.61-.86-.18-1.65-.73-2.45-1.59v-.31c1.04-.37,3.12-1.04,6.12-2.2,2.94-1.1,5.39-1.59,7.16-1.59,1.1,0,2.14.18,3.24.61ZM271.66,218.9c1.41.98,3.24,1.47,5.51,1.47.12,0,.49-.18,1.22-.43.67-.18,1.22-.37,1.65-.37.24-.06.67,0,1.41.37.67.43,1.35.8,2.14,1.35.73.49,1.35,1.1,1.84,1.65.43.61.67,1.28.67,2.02,0,.49-.55.92-1.59,1.22-1.16.37-2.26.49-3.24.49-1.28,0-2.51-.06-3.61-.18s-2.2-.31-3.37-.73c-1.1-.31-2.14-.73-3.12-1.35-.98-.61-1.84-1.41-2.45-2.33-.67-.92-1.04-2.02-1.29-3.37-.25-1.28-.18-2.75.12-4.28h.61c.86,2.08,2.02,3.55,3.49,4.47Z"/>
        <path class="cls-9" d="M317.68,189.96c1.59.55,2.94,1.22,3.92,2.26.98.98,1.77,2.2,2.26,3.67.55,1.41,1.04,3.06,1.22,4.65,1.47-.92,3.3-2.2,5.39-3.86,2.08-1.59,3.12-2.51,3.12-2.75,0-.37-.06-.8-.31-1.35-.24-.55-.37-.98-.61-1.41l.24-.37c.98.06,1.84.31,2.57.67.73.43,1.65.86,2.69,1.53.98.73,1.84,1.41,2.39,2.02.55.67.86,1.53.86,2.51,0,.86-.31,1.41-1.04,1.77-.67.37-1.65.67-3.12.98-2.39.86-4.53,1.77-6.43,2.63-1.96.8-3.92,1.84-5.75,2.82-1.9.98-3.37,2.14-4.34,3.43-1.04,1.29-1.59,2.94-1.59,4.9,0,2.08.73,3.55,2.39,4.47,1.59.92,3.43,1.35,5.57,1.35.24,0,.61-.12,1.16-.43.43-.24.73-.43.98-.43.98,0,1.84.12,2.69.24.8.25,1.65.55,2.63.98.92.49,1.71.92,2.33,1.47.61.55.92,1.22.92,2.08,0,.67-.92,1.28-2.81,1.84-1.96.55-3.79.86-5.45.86-4.47,0-8.14-1.1-11.01-3.18-3-2.02-4.47-4.71-4.47-8.14,0-2.14.61-4.16,1.96-6.06,1.22-1.84,2.75-3.61,4.59-5.2-.73-.86-1.41-2.14-2.02-3.86-.67-1.65-1.16-2.88-1.47-3.55-.37-.74-1.1-1.96-2.26-3.61-1.22-1.71-2.02-2.81-2.39-3.43l.06-.25c1.77,0,3.55.25,5.14.73Z"/>
        <path class="cls-9" d="M382.92,184.08c-.73,1.16-1.22,1.84-1.35,2.14l1.77.31,1.41-.06c.73-.18,1.22-.06,1.77.31.55.37,1.16.92,1.84,1.59.67.8,1.28,1.41,1.71,1.9.37.55.61,1.22.61,2.02,0,.37-.18.73-.43,1.16-.18.37-.49.49-.92.49-.67,0-1.65-.31-2.82-.98-1.22-.67-2.08-1.16-2.57-1.47-.55-.18-1.47-.61-2.69-1.1-1.22-.55-2.08-.86-2.51-1.1-.49.55-.92,1.1-1.35,1.59-.43.55-.92,1.1-1.29,1.53.86,0,1.59,0,2.33.12.61.06,1.22.31,1.84.67.49.37,1.04.92,1.53,1.59.37.67.61,1.41.61,1.9,0,.43-.18.73-.55,1.04-.37.37-.86.49-1.29.49-1.1,0-2.33-.49-3.79-1.53-1.41-.98-2.45-1.53-2.94-1.59-2.02,1.77-3.61,3.12-4.83,4.16-1.29.98-2.45,1.71-3.61,2.26s-2.26.98-3.43,1.22c-1.22.24-2.63.49-4.22.55,3.24-2.51,6.49-5.81,9.97-9.85,3.37-4.1,6.24-8.2,8.75-12.48.12-.49-.06-.92-.31-1.41-.18-.37-.67-1.04-1.35-2.02l.73-.25c1.65.25,3.49.73,5.45,1.59,2.02.92,3,1.84,3,2.69,0,.61-.37,1.47-1.1,2.51ZM382.8,198.03h.98c.49,0,.98.06,1.53.31.55.18,1.16.61,1.9.98.73.37,1.22.73,1.65,1.04.37.43.49.86.49,1.41,0,.31-.06.61-.12.98-.18.37-.31.67-.49,1.1-.31.43-.67,1.29-1.22,2.51-.49,1.22-1.1,2.81-1.84,4.9-.67,1.59-1.1,2.81-1.53,3.61-.37.73-.8,1.1-1.41,1.1s-1.22-.12-1.96-.43c-.67-.31-1.35-.8-1.96-1.28-.55-.12-1.29.06-2.2.43-.92.37-1.65.61-2.14.61-.31,0-.55-.06-.8-.12-.24-.12-.31-.18-.37-.25-.24.37-.55.98-.86,1.84-.37.86-.61,1.53-.73,1.9.37.06.67.06,1.04.18.31.06.61.12.98.31.31-.12.73-.18,1.1-.25s.73-.18,1.29-.25c.49-.06.98-.24,1.53-.37.55-.06,1.22-.25,2.02-.49.67-.12,1.28-.31,1.84-.37.43-.06.98-.12,1.59-.12,1.04,0,2.26.31,3.73.92,1.41.67,2.08,1.28,2.08,1.84,0,.43-.06.92-.24,1.29-.12.43-.37.92-.61,1.28-.24.49-.67,1.16-1.22,2.02-.61.92-1.04,1.65-1.47,2.33.31.24.61.49.86.8.24.37.37.73.37,1.22,0,.43-.31.73-.92.86-.67.12-1.53.18-2.63.18-1.16.12-2.08.12-2.75.18-.8.06-1.71.31-2.75.67-.12.06-.18.49-.31,1.16-.24.73-.49,1.1-.8,1.1-.92,0-1.84-.31-2.69-.98-.8-.67-1.41-1.35-1.71-2.14-.18-.49-.49-1.71-.86-3.55-.37-1.77-.8-3.18-1.16-3.98-1.47,2.2-2.81,3.79-4.22,4.96-1.41,1.16-3.43,1.77-5.94,1.9,2.51-2.88,4.59-6.49,6.24-10.83,1.71-4.41,3.06-9,4.1-13.89-.24-.37-.55-.73-1.04-.98-.43-.24-1.22-.67-2.2-1.22l-.06-.67c2.2-.67,3.98-1.16,5.32-1.47,1.41-.25,2.69-.55,3.92-.73,1.22-.25,2.39-.55,3.37-.8.98-.25,1.77-.37,2.45-.55.24-.06.55-.12.86-.18ZM376.13,208.31c-.31-.06-.55-.06-.73-.12-.25.43-.43.92-.49,1.28-.12.49-.31.98-.43,1.59.8-.18,1.65-.43,2.51-.67.86-.12,1.65-.25,2.51-.31.18-.37.31-.86.49-1.28.12-.49.31-.92.43-1.47-.55.37-1.04.61-1.59.8-.55.18-1.16.31-1.77.31-.31,0-.61,0-.92-.12ZM375.58,204.15c.25.31.31.67.43,1.04.49-.31,1.04-.55,1.53-.67.43-.06.92-.18,1.35-.18.37,0,.8,0,1.1.12.31.06.61.31.98.49.06-.37.25-.92.37-1.59.18-.67.31-1.22.37-1.53-1.1.06-2.2.31-3.37.61-1.1.31-2.14.67-3.12,1.16,0,.06.18.25.37.55ZM378.52,221.41c-1.29.37-2.39.67-3.06,1.1.06.18.24.92.55,1.9s.61,1.84.92,2.45l1.96-.49c.61-1.28,1.1-2.33,1.47-3.18.31-.86.55-1.59.67-2.45-.37.06-1.22.31-2.51.67ZM407.22,183.78c2.33,1.16,3.49,2.39,3.49,3.67,0,.55-.12,1.71-.43,3.55-.31,1.9-.55,3.49-.8,4.89-.25,1.35-.37,3.18-.55,5.57-.18,2.39-.31,4.96-.31,7.65,0,3.3.43,7.47,1.1,12.67.67,5.32.98,8.14.98,8.69,0,1.04-.12,2.08-.37,3.06-.31.98-.8,1.53-1.28,1.53-1.53,0-4.1-.86-7.53-2.57-3.49-1.84-6.18-3.73-7.96-5.81l-1.35-2.45c2.82.86,4.77,1.41,6,1.65,1.16.31,2.69.43,4.53.43.24-.55.37-1.96.61-4.35.18-2.39.25-4.47.25-6.36v-14.63c0-6.3-.18-10.53-.55-12.73-.37-2.26-1.47-4.1-3.12-5.63l.43-.61c2.14.12,4.47.73,6.85,1.77ZM393.75,192.65c1.59,1.29,2.75,2.82,3.37,4.59.49,1.84.8,3.86.8,5.87v3.49c-.06.67-.12,1.41-.31,2.14-.12.73-.37,1.41-.61,1.96-.31.55-.61.86-.98.86s-.86-.24-1.22-.61c-.37-.37-.73-.86-1.16-1.47-.37-.61-.67-1.22-.92-1.84-.18-.61-.31-1.22-.31-1.84,0-.92.18-2.26.49-4.1.24-1.77.37-3.18.37-4.1v-1.84c-.06-.92-.06-1.84,0-2.75l.49-.37Z"/>
        <path class="cls-9" d="M454.4,187.51c1.22.73,1.84,1.47,1.84,2.14,0,.61-.55,1.47-1.59,2.63-1.1,1.16-1.77,1.84-2.08,2.2-1.41,1.53-2.82,3.24-4.28,5.14-1.53,1.9-3,4.04-4.47,6.24.31-.06,1.1-.18,2.33-.43s2.26-.31,3.12-.31c1.59,0,3.24.12,4.77.43,1.53.43,2.94,1.04,4.34,1.84,1.35.92,2.51,2.08,3.43,3.49.92,1.41,1.29,2.88,1.22,4.41.06,3.55-1.29,6.42-4.1,8.75-2.94,2.33-6.55,3.49-10.83,3.49-.98,0-1.84-.12-2.63-.55-.86-.31-1.71-.73-2.57-1.29-.8-.55-1.41-1.16-1.96-1.84-.55-.67-.8-1.47-.86-2.26-.06-.8.06-1.47.49-2.02.37-.55.92-.98,1.59-1.53.67-.55,1.35-.92,1.96-1.22.61-.25,1.41-.31,2.26-.25,1.1-.06,2.26.31,3.24,1.04,1.04.67,1.84,1.84,2.63,3.43,1.53-.55,2.69-1.47,3.49-2.75.86-1.22,1.22-2.45,1.22-3.67,0-1.71-.67-3.12-1.96-4.47-1.41-1.22-3.24-1.84-5.51-1.84-1.59,0-3.12.31-4.77.86-1.59.61-3.12,1.71-4.59,3.24-1.96,2.2-3.37,3.73-4.16,4.47-.86.86-1.53,1.22-2.26,1.22-.61,0-1.22-.43-1.71-1.35-.61-.92-.92-1.84-.92-2.69,0-.55.12-1.04.49-1.59.31-.49.86-.92,1.53-1.28.73-.49,2.33-2.33,4.77-5.45,2.39-3.12,4.9-6.73,7.4-10.77-.55.06-.98.12-1.35.18-.43.12-.86.18-1.35.18-1.1,0-2.2-.61-3.24-1.84-1.16-1.16-1.84-2.39-2.08-3.67l.12-.31c.73.25,1.35.37,2.02.43.67.18,1.28.25,1.9.25.86,0,2.14-.31,3.92-.86,1.65-.49,2.81-1.1,3.43-1.65.31-.49.67-.8,1.16-.92.43-.18,1.04-.25,1.77-.25.67,0,1.59.31,2.82.98ZM443.63,220.37c-.73.43-1.1.8-1.1,1.1,0,.24.31.49.92.61.61.25,1.22.31,1.84.31.31,0,.67-.06,1.1-.12.37-.06.8-.18,1.22-.25-.49-.67-.92-1.22-1.35-1.65-.37-.49-.73-.73-1.04-.73-.37,0-.92.25-1.59.73Z"/>
      </g>
      <g>
        <path class="cls-5" d="M87.46,355.93c-1.04,0-1.63-.74-1.63-1.33,0-1.04.44-1.63,1.19-2.52,9.34-10.38,14.68-18.84,16.91-24.77,1.04-2.82,1.33-4.89,1.33-6.08s-.3-2.52-.89-4.15c0-1.33.74-2.08,2.52-2.08,2.37,0,5.49.74,10.83,4.15,3.71,2.37,5.34,5.04,5.34,6.67,0,2.08-.59,2.97-2.97,4.9-7.56,10.23-17.8,18.99-29.67,24.47-.89.44-2.23.74-2.97.74ZM144.72,291.11c-.15-4.3-.45-6.38-2.08-9.94-.59-1.19-1.19-2.67-1.19-3.86,0-1.04,1.33-1.78,2.82-1.78,2.82,0,10.38,2.37,13.79,4,2.97,1.33,4.15,2.97,4.15,4.75,0,1.48-.74,2.82-1.33,4.15-.89,1.63-1.63,5.04-1.63,8.01-.44,21.21-.44,33.82-.44,44.35,0,7.27.15,16.32.44,27.89-.59,11.27-4.89,18.24-9.34,18.24-2.23,0-4.45-1.33-9.05-5.49-5.79-5.19-9.64-9.49-11.87-12.16-.89-1.04-1.33-2.08-1.33-2.82s.59-1.33,1.33-1.33c1.19,0,3.86.59,7.56,1.33,2.82.59,6.08,1.04,8.31,1.19l-.15-76.54ZM197.08,339.32c-6.97-10.23-10.83-17.65-12.46-22.1-.59-1.63-.89-2.82-.89-3.86s.45-1.63,1.48-1.63,2.37.44,4.45,1.33c6.97,3.26,12.9,7.56,18.54,13.2,6.53,6.67,8.16,10.68,8.16,14.98,0,3.56-2.37,7.27-7.27,7.27-3.71,0-6.82-1.48-12.01-9.2Z"/>
        <path class="cls-5" d="M268.43,304.61c2.37-.45,4.15-1.04,5.64-1.93,6.08.89,10.23,3.86,10.23,6.97,0,2.37-1.78,3.41-5.19,3.71-3.56.45-7.27.89-10.83,1.33l-.3,22.55c4.45-2.23,8.9-4.75,13.05-7.27.74-.45,1.33-.59,1.93-.59,1.19,0,1.93.74,1.93,1.63,0,.59-.3,1.33-.89,1.93-9.94,9.64-20.47,18.54-30.11,25.36-2.97,2.08-4.75,3.26-6.38,5.04-1.04,1.04-2.23,1.63-3.41,1.63-2.08-.15-4.3-2.22-6.97-5.93-2.37-3.26-3.56-6.23-3.56-7.57,0-.89.74-1.48,1.63-1.63,6.23-.59,8.9-1.48,12.9-3.11,2.52-1.04,5.34-2.37,8.46-3.71l-.45-26.4c-4.75.89-9.49,1.78-14.24,2.82-1.78,0-2.97-.59-5.19-3.71-2.23-3.12-2.82-4-2.82-5.04,0-.89.59-1.19,2.08-1.33,6.97-.74,13.65-1.78,20.02-2.82l-.15-17.8c0-5.19-.89-9.2-1.93-11.57-.59-1.19-1.04-2.52-1.04-3.56,0-.89.74-1.48,2.08-1.48,2.08,0,6.97,1.19,9.94,2.37,3.71,1.48,5.93,3.26,5.93,4.89,0,1.78-.45,2.97-1.04,4.15-.59,1.33-1.19,4-1.19,8.6l-.15,12.46ZM292.46,291.55c-1.63,0-2.52-.44-3.41-1.33-2.82-2.82-5.49-6.38-5.49-7.56,0-.74.3-1.04,1.19-1.19,17.35-1.78,42.57-4.9,50.28-6.23,3.86-.59,6.08-1.19,9.79-2.97,4.75,0,13.35,4.45,13.35,8.45,0,2.97-1.78,3.86-6.08,4.15-13.94,1.04-32.63,2.97-47.76,4.9,2.52,1.04,3.26,2.97,3.26,4.15,0,.59,0,1.33-.3,3.56-.3,1.93-.45,3.26-.59,4.45-.15,3.12-.45,6.08-.89,9.05,9.34-1.33,16.17-2.08,24.47-3.12,1.93-.3,3.71-.89,6.38-2.52,3.41,1.04,5.78,2.67,8.75,5.04,2.67,2.08,4.6,3.86,4.6,5.64,0,1.19-.59,2.23-2.23,4-1.19,1.19-1.78,3.41-2.67,6.23-2.82,9.79-6.97,18.84-12.46,26.85,5.19,5.04,11.12,10.24,18.1,16.02,2.22,1.78,10.98,7.27,18.54,11.87,1.48.89,2.52,1.78,2.52,2.82,0,1.19-1.04,2.08-2.82,2.37-6.08,1.04-15.72,1.93-19.88,1.93-2.82,0-4.3-1.04-6.67-4.15-5.34-6.82-11.12-14.39-16.76-21.8-9.35,10.09-21.8,18.39-38.57,23.88-.45.15-.89.15-1.19.15-1.33,0-2.22-.74-2.22-1.63,0-.74.59-1.48,1.63-2.08,14.09-7.86,25.36-17.5,33.67-29.37-3.86-5.04-7.42-10.09-10.83-14.68-1.19-1.63-2.37-3.41-4.75-5.64-.59-.45-1.04-1.04-1.19-1.48-5.93,23.44-18.39,41.09-41.09,54.59-.59.45-1.33.59-1.78.59-1.19,0-2.08-.74-2.08-1.78,0-.74.44-1.63,1.33-2.37,15.57-13.2,25.51-29.96,30.56-48.5,2.67-10.09,4.45-23.44,4.45-34.86,0-2.67-.15-4.6-.74-7.56l-.44.15ZM302.69,330.12c.44-.59,1.78-1.04,3.71-1.04,4.75,0,6.38.59,7.71,3.26,3.26,4.3,6.53,8.31,10.23,12.16,4.3-8.01,7.27-17.06,8.9-27-8.9.59-18.1,1.93-28.78,3.56-.44,3.11-1.04,6.08-1.78,9.05Z"/>
        <path class="cls-5" d="M454.14,302.38c0,1.78-.3,4.01-2.52,8.01-8.16,20.32-18.54,41.68-27.44,55.77-4,6.38-7.56,9.05-13.2,9.05s-8.31-3.41-11.57-11.12c-2.08-4.89-3.56-7.86-6.53-11.12-3.12-3.56-4.3-7.12-4.3-15.28,0-27.59,27.44-51.77,62.15-51.77,28.92,0,51.62,18.84,51.62,48.06,0,30.85-24.18,46.43-53.99,49.69-2.67,0-4.45-.45-4.45-2.67,0-1.19,1.19-1.93,2.97-2.52,29.07-9.34,39.9-26.11,39.9-47.02,0-23.14-14.83-37.82-38.71-38.27,3.86,4,6.08,6.97,6.08,9.2ZM400.74,339.02c0,8.16,2.97,14.69,7.56,19.28,1.63,1.63,2.22,1.78,2.97,1.78s2.37-.59,3.56-2.67c9.05-15.87,17.06-33.23,24.33-52.06,1.19-2.82,1.93-6.38,1.93-8.6,0-1.04,0-1.93-.15-2.67-22.25,4-40.2,23.58-40.2,44.94Z"/>
        <path class="cls-5" d="M268.06,472.59c-12.01,0-24.18.3-36.64,1.19,10.98,11.42,21.36,20.62,34.12,29.22,3.56,2.37,9.34,5.64,12.9,7.42,4.45,2.22,8.16,4.15,10.09,5.34,1.33.74,2.08,1.63,2.08,2.67,0,1.19-.89,1.93-2.37,2.22-6.53,1.04-13.35,1.63-19.58,1.63-4.3,0-5.78-.59-9.94-5.19-10.09-11.12-20.77-23.58-30.56-35.6.15,22.99.3,40.05.3,54.29,0,6.38-1.78,9.2-6.08,9.2-2.37,0-4.15-1.48-6.38-5.34-1.48-2.67-2.82-6.67-2.82-8.9,1.33-3.41,2.08-9.2,2.67-44.5-14.83,18.54-32.78,30.7-52.06,38.71-1.78.74-3.11,1.04-4.45,1.04-1.19,0-2.08-.59-2.08-1.63,0-.89.3-1.48,1.78-2.37,16.46-10.83,36.19-27.59,48.36-46.28-10.38,1.04-20.77,2.37-30.85,4-1.63,0-2.67-.59-5.04-3.12-2.97-3.26-3.86-5.04-3.86-6.23,0-.74.3-1.04,3.26-1.33,16.17-1.63,30.85-2.97,44.8-4.15v-17.5c-9.49.89-18.69,1.93-25.96,2.82-1.48,0-2.52-.59-4.75-3.41-2.97-3.71-3.71-5.34-3.71-6.53,0-.74.59-1.04,2.67-1.19,11.72-.89,22.25-1.63,31.74-2.52v-4.45c0-8.01-.59-13.94-1.78-17.21-.44-1.33-1.04-2.67-1.04-3.56s.74-1.48,2.37-1.48c3.11,0,8.01,1.63,12.61,4,2.52,1.33,3.26,2.67,3.26,4,0,1.19-.59,2.52-1.33,3.86-1.19,1.93-1.48,6.08-1.48,9.79v4l10.23-1.04c4.15-.45,7.56-1.48,11.27-2.97,9.05,1.33,13.5,5.34,13.5,8.6,0,2.67-2.37,4-6.38,4.15-8.01.3-18.1,1.04-28.63,1.93v17.65c8.01-.59,15.87-1.19,23.88-1.63,3.41-.15,7.42-.74,11.87-2.97,9.2,1.04,15.57,5.04,15.57,9.64,0,2.22-1.93,3.71-8.31,3.71h-3.26Z"/>
        <path class="cls-5" d="M376.04,472.15c9.05-.74,17.21-1.33,24.47-1.93,3.41-.3,7.42-.74,11.57-3.26,7.12.59,14.54,4.89,14.54,9.49,0,2.22-.89,3.56-8.31,3.71-12.01.3-23.73.74-35.45,1.48,10.98,9.05,20.91,15.58,32.19,22.84,3.56,2.37,9.34,5.19,12.9,6.97,4.45,2.23,8.16,4.15,10.09,5.34,1.33.74,2.08,1.63,2.08,2.67,0,1.19-.89,1.93-2.37,2.23-6.53,1.04-13.35,1.63-19.58,1.63-4.3,0-5.19-.44-7.42-2.67-11.72-12.01-22.84-23.58-34.86-35.75.15,20.32.3,36.34.3,50.14,0,6.38-2.52,9.2-5.78,9.2s-5.04-2.22-6.67-5.34c-1.33-2.52-2.23-4.89-2.52-8.9,1.34-3.26,2.08-9.05,2.52-39.46-14.24,17.35-31,27.89-49.99,35.75-1.78.74-3.11,1.04-4.45,1.04-1.19,0-2.08-.59-2.08-1.63,0-.89.3-1.48,1.78-2.37,15.57-9.64,32.04-22.84,43.91-39.16-8.6.89-17.21,2.08-25.96,3.26-1.63,0-2.52-.45-3.86-1.93-3.86-4-5.34-5.64-5.34-6.67,0-.74.3-1.33,3.26-1.63,14.98-1.63,29.52-2.97,42.72-4v-27.74c-10.38.89-20.47,2.08-29.81,3.12-1.48,0-2.97-.89-5.04-3.41-2.97-3.71-3.41-4.75-3.41-6.08,0-.89.59-1.19,2.67-1.33,12.46-.74,24.92-1.78,35.6-2.67v-5.19c0-7.86-.3-11.27-1.78-15.28-.44-1.33-1.04-2.23-1.04-3.26,0-.74.74-1.33,2.23-1.33,2.97,0,8.75,1.93,12.46,3.86,2.52,1.33,3.26,2.52,3.26,3.86,0,1.19-.59,2.52-1.33,3.86-1.19,1.93-1.48,6.08-1.48,9.79v2.52c5.78-.59,10.53-1.04,14.24-1.48,4.15-.44,7.56-1.48,11.27-2.97,9.2.74,13.5,5.04,13.5,8.31,0,2.67-2.37,3.86-6.38,4.15-10.83.59-21.8,1.48-32.63,2.37v27.89ZM341.19,464.43c-1.63-3.26-3.41-9.49-3.41-11.27,0-1.93.74-2.82,2.08-2.82,2.08,0,8.01,4.3,10.09,6.82,2.97,3.26,4.3,6.53,4.3,9.2,0,3.56-1.48,5.64-4.6,5.79-4.15,0-6.38-3.41-8.46-7.71ZM401.26,459.54c-4.45,3.86-9.49,7.71-14.83,10.38-.59.3-1.19.44-1.63.44-1.19,0-1.93-.74-1.93-1.78,0-.45.3-1.04.59-1.63,2.82-4.6,5.19-8.6,7.12-13.65.74-1.78.89-2.37.89-6.53,0-1.48.74-2.22,2.08-2.22,1.63,0,5.49,1.63,8.6,4,2.52,1.93,4.45,3.71,4.45,5.34,0,.89-.59,1.78-1.93,2.82-1.04.74-2.08,1.63-3.41,2.82Z"/>
      </g>
    </g>
  </g>
</svg>