<?xml version="1.0" encoding="UTF-8"?>
<svg id="_レイヤー_2" data-name="レイヤー 2" xmlns="http://www.w3.org/2000/svg" viewBox="0 0 778.65 419.05">
  <defs>
    <style>
      .cls-1, .cls-2, .cls-3, .cls-4, .cls-5, .cls-6, .cls-7 {
        stroke-width: 0px;
      }

      .cls-2 {
        fill: #211715;
      }

      .cls-3 {
        fill: #a98a75;
      }

      .cls-4 {
        fill: #b3b3b3;
      }

      .cls-5 {
        fill: #a095c1;
      }

      .cls-6 {
        fill: #87000c;
      }

      .cls-7 {
        fill: #fff;
      }
    </style>
  </defs>
  <g id="_レイヤー_1-2" data-name="レイヤー 1">
    <g>
      <path class="cls-7" d="M521.03,152.97c2.14-2.24,4.03-4.21,5.13-5.32h2.67c1.95,1.97,6.42,6.68,10.33,10.76l-.58.28c-3.36,1.57-7.03,2.39-10.74,2.41-4.12-.05-8.19-1-11.9-2.8,1.68-1.75,3.46-3.61,5.09-5.32Z"/>
      <path class="cls-7" d="M571.24,74.23c1.36-1.21,3.15-1.83,4.97-1.72,2.34-.04,4.5,1.22,5.64,3.26,1.88,3.39,1.69,9.57.33,13.37-.96,2.69-2.54,6.81-6.22,9.72-1.64,1.32-3.75,1.89-5.83,1.57l-.55-.1c-.58,1.84-1.28,3.64-2.09,5.39-1.43,3.69-8.74,15.89-18.08,21.88v3.07c-6.49,6.09-13.36,11.76-20.57,16.99h-2.67c-7.2-5.23-14.07-10.9-20.57-16.99v-2.85c-4.42-2.64-8.31-6.1-11.45-10.19-4.42-5.53-7.67-11.92-9.53-18.75-2.23.43-4.54-.19-6.25-1.68-3.58-3.03-5.01-7.2-5.89-9.93-1.23-3.85-1.21-10.03.78-13.35,1.2-2,3.41-3.18,5.75-3.06,1.82-.05,3.59.63,4.9,1.89,0,0-10.4-35.33,43.53-35.33s43.81,36.82,43.81,36.82Z"/>
      <path class="cls-7" d="M730.89,98.5c1.32-1.23,3.07-1.87,4.87-1.8,2.31-.08,4.47,1.12,5.63,3.11,1.92,3.31,1.85,9.41.58,13.19-.9,2.68-2.38,6.77-5.96,9.71-1.59,1.33-3.67,1.94-5.73,1.67l-.55-.09c-.54,1.83-1.19,3.62-1.96,5.36-1.33,3.63-8.19,15.63-17.18,21.77.38,3.03,1.32,5.96,2.78,8.65,1.89,3.07,6.6,5.72,11.71,8.04l-.42,4.38c-.06,1.01-.11,2.04-.17,3.1-14.78,3.71-22.6,4.88-34.75,4.88-20.35,0-25.29-2.43-32.69-4.86,0-3.36,0-6.4-.01-9.05,3.27-.98,6.41-2.35,9.36-4.08.54-.25,1.01-.62,1.4-1.07.18-.35.3-.73.35-1.13.38-2.18.78-4.38,1.16-6.56-5.01-2.18-9.48-5.87-13.72-10.92-4.47-5.38-7.8-11.62-9.77-18.34-2.19.47-4.48-.1-6.2-1.54-3.59-2.93-5.09-7.01-6-9.69-1.29-3.77-1.38-9.88.52-13.19,1.15-2,3.31-3.21,5.61-3.14,1.8-.08,3.55.56,4.88,1.77,0,0-7.46-41.9,44.55-41.9s41.71,41.72,41.71,41.72Z"/>
      <path class="cls-3" d="M441.94,173c-.81,1.34-1.51,2.75-2.1,4.2-3.12,8.15-5.48,16.57-7.05,25.15-3.54,21.9-6.91,51.51-10.24,82.45h198.92v-89.75l-9.42-19.46c-1.98-4.74-4.08-7.71-8.4-12.3-3.51-3.9-7.63-7.2-12.2-9.76-10.31-5.73-22.04-8.36-32.77-12.06l-20.11,17.22c-3.36,1.57-7.03,2.39-10.74,2.41-4.12-.05-8.19-1-11.9-2.8l-21.13-17.89c-11.42,3.88-22.57,8.51-33.39,13.85-4.53,2.52-8.68,5.67-12.33,9.35-2.71,2.87-5.1,6.02-7.14,9.4Z"/>
      <path class="cls-7" d="M597.08,286.42c.93-8.47,1.44-13.9,2.66-21.37,2.53-16.67,4.8-37.61,9.98-59.38,2.03-8.48,5.26-17.15,11.7-23.02,3.53-3.2,7.87-5.32,12.17-7.39,6.28-3.02,16.22-6.79,23.45-9.62,0,23.75.31,81.33,0,120.78h-59.96Z"/>
      <path class="cls-7" d="M723.59,286.58c0-37.62-.52-86.53,1.06-114.1l.42-4.38.03-.27c13.94,5.98,29.01,12.71,36.53,25.94,4.42,7.8,5.65,16.94,6.79,25.84,1.88,14.63,7.12,58.54,7.82,66.82l-52.65.16Z"/>
      <path class="cls-5" d="M723.59,286.58c0-36.25-.48-82.99.9-110.99-14.78,3.71-22.6,4.88-34.75,4.88-20.35,0-25.29-2.43-32.7-4.86.05,27.39.26,76.12-.01,110.81l66.56.16Z"/>
      <path class="cls-2" d="M424.95,284.8c2.65-24.69,5.29-49.4,8.94-73.97.76-5.1,1.52-10.19,2.74-15.21,1.26-5.18,2.79-10.29,4.59-15.31,3.45-9.55,10.61-17.31,19.12-22.68,2.48-1.45,5.05-2.75,7.69-3.88,3.04-1.42,6.1-2.79,9.19-4.11,5.98-2.55,12.08-4.81,18.22-6.93,2.9-1,1.66-5.64-1.28-4.63-11.62,3.93-22.97,8.64-33.96,14.09-4.26,2.25-8.16,5.11-11.6,8.49-4.19,3.97-7.64,8.66-10.19,13.84-2.06,4.68-3.74,9.53-5,14.49-1.47,5.23-2.62,10.55-3.45,15.92-1.79,11.49-3.29,23.04-4.7,34.58-1.84,15.08-3.5,30.19-5.12,45.29,0,1.32,1.08,2.39,2.4,2.4,1.31-.03,2.37-1.09,2.4-2.4Z"/>
      <path class="cls-2" d="M558.04,143.78c8.28,2.84,16.8,4.99,24.91,8.32,3.98,1.58,7.77,3.59,11.31,6.01,3.28,2.41,6.28,5.17,8.95,8.24,2.83,3.07,5.12,6.6,6.76,10.45.67,1.14,2.14,1.52,3.28.86,1.12-.69,1.49-2.13.86-3.28-3.18-7.54-9.08-14-15.5-18.97-7.24-5.61-16.03-8.83-24.66-11.6-4.88-1.56-9.8-2.99-14.64-4.65-2.93-1-4.19,3.63-1.28,4.63h0Z"/>
      <path class="cls-7" d="M526.16,147.65c-7.2-5.23-14.07-10.9-20.57-16.99-3.35,2.86-6.48,5.95-9.38,9.26,4.73,7.19,9.83,15.29,15.57,22.68,4.21-4.29,11.68-12.22,14.37-14.94Z"/>
      <path class="cls-7" d="M528.83,147.65c7.2-5.23,14.07-10.9,20.57-16.99,3.35,2.86,6.48,5.95,9.38,9.26-4.73,7.19-9.84,15.29-15.57,22.68-4.21-4.29-11.68-12.22-14.38-14.94Z"/>
      <path class="cls-2" d="M527.37,145.58c-7.02-5.14-13.72-10.68-20.08-16.61-.95-.91-2.45-.91-3.39,0-3.33,2.87-6.47,5.96-9.38,9.26-.75.78-.9,1.96-.38,2.91,5.15,7.84,10.2,15.74,15.95,23.16.94.93,2.45.93,3.39,0,4.83-4.94,9.52-10.02,14.38-14.94,2.17-2.2-1.22-5.6-3.4-3.39-4.85,4.92-9.54,10-14.37,14.94h3.39c-5.49-7.09-10.27-14.7-15.2-22.19l-.38,2.91c2.91-3.3,6.05-6.39,9.38-9.26h-3.39c6.67,6.2,13.7,12,21.05,17.36,1.15.66,2.61.28,3.28-.86.64-1.15.26-2.59-.86-3.28Z"/>
      <path class="cls-2" d="M530.04,149.72c7.35-5.37,14.38-11.16,21.05-17.36h-3.39c3.33,2.87,6.47,5.96,9.38,9.26l-.38-2.91c-4.92,7.49-9.71,15.1-15.2,22.19h3.39c-4.83-4.94-9.52-10.02-14.38-14.94-2.17-2.2-5.57,1.19-3.39,3.39,4.86,4.92,9.54,10,14.38,14.94.94.93,2.45.93,3.39,0,5.75-7.42,10.79-15.32,15.95-23.16.53-.95.38-2.13-.38-2.91-2.91-3.3-6.05-6.39-9.38-9.26-.95-.91-2.45-.91-3.39,0-6.36,5.93-13.06,11.48-20.08,16.61-1.11.69-1.49,2.13-.86,3.28.67,1.14,2.14,1.52,3.29.86Z"/>
      <path class="cls-2" d="M514.72,160.37c7.86,3.94,17.09,4.08,25.07.38,1.14-.68,1.52-2.14.86-3.28-.69-1.12-2.14-1.5-3.28-.86-6.46,2.9-13.87,2.76-20.22-.38-1.15-.64-2.59-.26-3.28.86-.66,1.15-.27,2.61.86,3.28h0Z"/>
      <path class="cls-2" d="M459.88,203.85c-.17,20.93-1.38,41.85-2.16,62.76-.21,5.73-.39,11.46-.73,17.18-.18,3.09,4.62,3.08,4.8,0,.62-10.37.8-20.77,1.28-31.14.5-10.78.91-21.56,1.24-32.35.16-5.48.32-10.96.37-16.45.03-3.09-4.78-3.09-4.8,0h0Z"/>
      <path class="cls-4" d="M579.93,45.03c-.94-5.14-2.59-10.12-4.9-14.8-8.66-17.16-27.55-27.47-46.43-27.8-12.43-.21-23.08,3.08-31.96,9.65-4.01,2.78-7.14,6.65-9.01,11.16,0,0-1.41.1-3.15.21-6.47,6.44-10.06,18.37-9.92,30.53-.14,5.82.47,11.64,1.83,17.31.84-.29,1.72-.45,2.61-.45,2.11-.07,4.12.86,5.44,2.5,1.15-6.54,1.15-15.05,9.36-24.4,1.7-1.94,6.43-3.6,10.78-5.26,4.14-1.58,17.13-1.39,22.34-1.05,10.9-1.45,25.07.18,32.84,6.9,2.36,1.9,4.48,4.07,6.32,6.49,3.59,5.36,4.37,10.86,4.63,18.79,1.37-1.6,3.41-2.46,5.51-2.32.81.03,1.61.19,2.38.46,2.83-8.4,3.12-18.52,1.34-27.93Z"/>
      <path class="cls-2" d="M485.6,71.04c-2.88-2.65-7.06-3.33-10.63-1.73-2.49,1.22-4.3,3.47-4.96,6.16-1.91,6.38-.33,13.93,3.26,19.45,2.39,3.68,6.19,6.99,10.87,6.44,1.31-.04,2.36-1.09,2.4-2.4,0-1.32-1.08-2.39-2.4-2.4-3.62.42-6.04-2.6-7.58-5.5-1.42-2.6-2.26-5.46-2.48-8.41-.12-1.64-.02-3.28.3-4.89.13-.67.33-1.33.59-1.96.12-.28.3-.54.44-.81.06-.1.13-.2.2-.29-.16.2-.19.23-.08.1,1.76-1.9,4.72-2.06,6.67-.35,2.26,2.11,5.66-1.28,3.4-3.39h0Z"/>
      <path class="cls-2" d="M572.94,75.93c1.17-.94,2.72-1.27,4.18-.89.61.12,1.18.38,1.68.74-.18-.13.38.36.45.43s.45.6.16.17c1.6,2.33,1.59,5.64,1.31,8.35-.35,2.81-1.27,5.52-2.7,7.97-1.39,2.46-3.99,5.91-7.25,5.41-1.27-.31-2.57.43-2.95,1.68-.34,1.28.4,2.59,1.68,2.95,7.99,1.21,12.73-6.43,15.01-12.97,1.12-3.39,1.43-6.99.9-10.52-.41-2.92-1.51-5.69-3.95-7.47-3.67-2.49-8.56-2.18-11.89.75-2.34,2.03,1.07,5.41,3.39,3.39h0Z"/>
      <path class="cls-2" d="M568.13,96.5c-.42,1.81-.96,3.59-1.62,5.33-.23.62-.48,1.27-.71,1.82-.12.29-.27.56-.39.85-.11.24-.52,1.17-.19.46-.85,1.82-1.82,3.59-2.91,5.29-3.17,5.23-7.21,9.88-11.94,13.74-2.56,2.1-5.56,3.59-8.78,4.36-3.02.65-1.74,5.27,1.28,4.63,6.7-1.43,12.35-6.24,16.79-11.24,3.8-4.14,6.99-8.79,9.47-13.83.09-.19.18-.39.26-.59.05-.11.57-1.24.25-.58.41-.86.78-1.76,1.13-2.65.82-2.05,1.49-4.17,1.99-6.32.67-3.01-3.95-4.29-4.63-1.28h0Z"/>
      <path class="cls-2" d="M481.48,96.14c1.36,6.55,3.91,12.81,7.51,18.44,3.86,5.99,8.97,11.6,15.18,15.19,3.19,1.84,6.68,3.1,10.32,3.71,1.27.31,2.56-.42,2.95-1.67.34-1.28-.4-2.59-1.68-2.95-7.95-1.32-14.18-6.02-19.26-12.09-5.21-6.33-8.78-13.85-10.4-21.89-.63-3.02-5.26-1.74-4.63,1.28h0Z"/>
      <path class="cls-2" d="M483.95,20.68c-4.72,4.07-7.62,9.97-9.41,15.84-1.94,6.91-2.73,14.09-2.35,21.26.11,4.55.69,9.07,1.71,13.5.71,3,5.34,1.73,4.63-1.28-1.04-4.57-1.56-9.25-1.57-13.94-.12-4.18.15-8.37.83-12.5,1.29-7.12,3.93-14.64,9.56-19.49,2.34-2.02-1.07-5.41-3.39-3.39h0Z"/>
      <path class="cls-2" d="M503.93,41.38c-3.56.92-6.96,2.4-10.06,4.38-2.9,2.06-5.08,5.42-6.75,8.51-2.85,5.26-3.86,10.89-4.73,16.73-.31,1.27.43,2.57,1.68,2.95,1.28.34,2.59-.41,2.95-1.68.76-5.11,1.5-10.22,3.88-14.88,1.31-2.57,3.07-5.72,5.4-7.5,2.54-1.94,5.9-2.98,8.91-3.89,2.95-.9,1.69-5.53-1.28-4.63h0Z"/>
      <path class="cls-2" d="M558.06,51.25c3.35,2.85,6.46,5.85,8.11,10.01,1.57,3.96,1.92,8.23,2.1,12.45.13,3.08,4.93,3.09,4.8,0-.2-4.73-.6-9.61-2.39-14.04-1.97-4.85-5.26-8.46-9.22-11.82-.95-.9-2.44-.9-3.39,0-.93.94-.93,2.45,0,3.39h0Z"/>
      <path class="cls-2" d="M514.88,42.97c.1-.4.22-.8.37-1.18-.18.49.04-.07.09-.18.09-.19.19-.37.29-.55.2-.36.42-.72.65-1.06.12-.17.24-.34.36-.51.08-.12.38-.51.13-.18.72-.95,1.51-1.86,2.37-2.7.4-.39.83-.74,1.25-1.1.16-.14-.45.32,0,.01.13-.09.25-.18.38-.27.27-.19.55-.37.83-.54.63-.38,1.28-.73,1.96-1.03.06-.03.63-.28.37-.17s.34-.13.4-.16c.46-.18.93-.34,1.4-.5,1.28-.35,2.03-1.67,1.68-2.95-.35-1.28-1.67-2.03-2.95-1.68-3.24.97-6.22,2.68-8.7,4.98-.97.97-1.86,2.01-2.68,3.11-1.3,1.58-2.25,3.41-2.8,5.38-.35,1.28.4,2.6,1.68,2.95,1.28.35,2.6-.4,2.95-1.68h0Z"/>
      <path class="cls-2" d="M524.43,44.93c2.41-1.66,5.14-2.8,8.02-3.33,1.1-.24,2.21-.47,3.32-.65.31-.05.62-.1.93-.15.21-.03.41-.06.62-.09-.26.04.06,0,.15-.02.89-.11,1.79-.2,2.69-.28,1.31-.03,2.37-1.09,2.4-2.4,0-1.32-1.08-2.39-2.4-2.4-6.28.54-12.83,1.56-18.14,5.17-1.11.69-1.49,2.13-.86,3.28.68,1.13,2.14,1.52,3.28.86h0Z"/>
      <path class="cls-2" d="M581.09,73.04c3.16-10.06,2.97-21.14.58-31.34-2.2-9.83-7.19-18.81-14.37-25.87-14.52-13.99-36.56-19.19-55.9-13.65-10.61,3.04-21.22,9.47-25.85,19.85-.63,1.15-.25,2.59.86,3.28,1.15.66,2.61.27,3.28-.86,1.71-3.98,4.42-7.46,7.87-10.09,3.74-2.84,7.89-5.09,12.31-6.67,8.98-3.1,18.63-3.75,27.95-1.88,8.81,1.71,17.04,5.64,23.9,11.42,6.84,5.87,11.84,13.6,14.38,22.25,3.1,10.36,3.62,21.89.35,32.27-.93,2.95,3.7,4.22,4.63,1.28h0Z"/>
      <path class="cls-2" d="M518.78,110.41c2.61,1.4,5.53,2.13,8.49,2.13,2.81.05,6.13-.35,8.46-2.1,1.12-.69,1.49-2.13.86-3.28-.68-1.13-2.14-1.52-3.28-.86-.29.21-.59.41-.91.57-.09.05-.18.09-.28.14-.35.18-.01-.03.14-.05-.27.08-.53.17-.79.28-.63.19-1.27.33-1.92.43.55-.08-.2.01-.25.02-.2.02-.4.03-.6.04-.48.03-.96.03-1.44.03-.44,0-.88-.03-1.32-.06-.24-.02-.48-.04-.72-.07.34.04.04,0-.14-.02-.65-.11-1.3-.26-1.93-.45-.27-.08-.54-.18-.8-.28-.45-.17.07.09.13.06-.12-.04-.23-.09-.34-.15-.33-.15-.65-.33-.96-.5-1.14-.67-2.61-.28-3.28.86-.67,1.14-.28,2.61.86,3.28h0Z"/>
      <path class="cls-2" d="M526.46,90.26c.34,1.41.65,2.84.86,4.27l-.09-.64c.03.22.04.45.02.67l.08-.64c-.01.09-.04.18-.07.27l.24-.57c-.03.06-.06.12-.1.17l.38-.49c-.04.05-.09.1-.14.14l.49-.38c-.11.07-.23.12-.35.18l.57-.24c-.19.08-.38.13-.58.16l.64-.09c-.18.02-.36.01-.54-.01l.64.09c-.2-.03-.4-.08-.61-.12-.63-.15-1.28-.06-1.85.24-1.14.67-1.53,2.14-.86,3.28.31.55.83.94,1.43,1.1.48.07.94.19,1.44.22.74.01,1.48-.16,2.14-.5.86-.39,1.49-1.14,1.73-2.05.16-.72.16-1.48,0-2.2-.22-1.4-.51-2.79-.85-4.16-.36-1.27-1.68-2.02-2.95-1.68-1.26.37-2,1.68-1.68,2.95h0Z"/>
      <path class="cls-2" d="M503.84,77.51c-.76,2.34-.38,7.75,4.06,8.29,5.89.07,6.31-6.47,4.38-9.57-1.58-2.54-6.33-3.67-8.44,1.28Z"/>
      <path class="cls-2" d="M551.15,78.32c.68,2.36.12,7.76-4.34,8.15-5.88-.14-6.09-6.68-4.05-9.72,1.66-2.49,6.45-3.45,8.39,1.57Z"/>
      <path class="cls-2" d="M542.56,105.01c.22.22.42.45.61.69l-.38-.49c.44.59.8,1.22,1.08,1.9l-.24-.57c.13.32.26.64.37.97.18.6.57,1.11,1.1,1.43.27.17.58.27.89.29.32.07.65.06.96-.04.6-.17,1.12-.56,1.43-1.1.33-.56.41-1.23.24-1.85-.52-1.73-1.44-3.31-2.67-4.62-.46-.44-1.06-.69-1.7-.7-.64,0-1.25.25-1.7.7-.45.45-.7,1.06-.7,1.7,0,.64.26,1.24.7,1.7h0Z"/>
      <path class="cls-2" d="M701.61,129.04c.22.22.42.45.61.69l-.38-.49c.44.59.8,1.22,1.08,1.9l-.24-.57c.13.32.26.65.37.97.18.6.57,1.11,1.1,1.43.27.17.58.27.89.29.32.07.65.06.96-.04.6-.17,1.12-.56,1.43-1.1.33-.56.41-1.23.24-1.85-.52-1.73-1.44-3.31-2.67-4.62-.46-.44-1.06-.69-1.7-.7-.64,0-1.25.25-1.7.7-.45.45-.7,1.06-.7,1.7,0,.63.26,1.24.7,1.7h0Z"/>
      <path class="cls-2" d="M599.48,286.42c.52-4.71.99-9.43,1.6-14.13.55-4.24,1.26-8.47,1.87-12.7,1.36-9.57,2.64-19.15,4.22-28.69.88-5.33,1.85-10.65,2.95-15.93.94-4.97,2.14-9.88,3.61-14.71,1.3-4.25,3.26-8.27,5.8-11.91,2.77-3.62,6.34-6.55,10.42-8.57,8.86-4.75,18.39-8.15,27.73-11.81,1.25-.38,1.99-1.68,1.68-2.95-.36-1.27-1.68-2.02-2.95-1.68-8.59,3.37-17.29,6.56-25.58,10.62-4.54,2.22-9.01,4.71-12.52,8.41-3.18,3.47-5.7,7.48-7.44,11.85-1.82,4.6-3.24,9.36-4.23,14.21-1.21,5.35-2.27,10.73-3.22,16.13-1.77,10.03-3.16,20.11-4.58,30.19-.72,5.13-1.55,10.24-2.26,15.37-.74,5.43-1.29,10.88-1.89,16.32,0,1.32,1.08,2.39,2.4,2.4,1.31-.03,2.37-1.09,2.4-2.4h0Z"/>
      <path class="cls-2" d="M724.53,170.18c9.91,4.26,20.27,8.72,28.21,16.23,4.05,3.76,7.18,8.4,9.16,13.57,2.2,5.88,3.16,12.13,3.96,18.32,2.08,15.98,3.95,32,5.8,48.01.77,6.7,1.62,13.4,2.2,20.12.03,1.31,1.09,2.37,2.4,2.4,1.32,0,2.39-1.08,2.4-2.4-1.26-14.74-3.26-29.44-5.03-44.12-.89-7.4-1.78-14.8-2.73-22.19-.8-6.22-1.56-12.5-3.39-18.51-1.72-5.82-4.67-11.2-8.65-15.78-8.4-9.53-20.46-14.88-31.9-19.79-1.15-.62-2.59-.25-3.28.86-.66,1.15-.28,2.61.86,3.28h0Z"/>
      <path class="cls-2" d="M628.89,221.1c-.18,2.51-.48,5.01-.61,7.52-.24,4.45-.12,8.91,0,13.36.26,9.38.44,18.75.71,28.13.13,4.61.28,9.22.5,13.83.15,3.08,4.95,3.09,4.8,0-.43-8.77-.61-17.54-.82-26.32-.22-9.19-.82-18.46-.46-27.64.12-2.97.46-5.92.67-8.88-.01-1.32-1.08-2.39-2.4-2.4-1.31.03-2.37,1.09-2.4,2.4h0Z"/>
      <path class="cls-2" d="M740.1,218.98c.83,16.93,1.17,33.88.93,50.83-.07,5.01-.2,10.02-.37,15.03-.11,3.09,4.69,3.08,4.8,0,.6-17.18.61-34.37.03-51.57-.15-4.77-.35-9.53-.59-14.3-.15-3.07-4.95-3.09-4.8,0h0Z"/>
      <path class="cls-2" d="M725.99,286.58c0-17.2-.09-34.4-.08-51.6.01-16.32.07-32.65.57-48.96.18-5.99.42-11.95.99-17.92,0-1.32-1.08-2.39-2.4-2.4-1.31.03-2.37,1.09-2.4,2.4-1.2,12.56-1.24,25.25-1.4,37.86-.21,17.35-.18,34.71-.14,52.06.02,9.52.04,19.04.05,28.56,0,3.09,4.8,3.09,4.8,0h0Z"/>
      <path class="cls-2" d="M708.27,152.05c.58,3.26,1.33,6.75,3.22,9.53,1.53,2.07,3.46,3.8,5.68,5.09,5.04,3.18,10.74,5.25,16.23,7.51,1.28.34,2.59-.4,2.95-1.68.32-1.27-.42-2.57-1.68-2.95-4.92-2.02-9.95-3.92-14.52-6.68-.91-.53-1.78-1.13-2.61-1.78-.4-.33-.78-.68-1.14-1.04-.25-.25-.49-.51-.7-.79-1.73-2.45-2.3-5.59-2.81-8.48-.36-1.27-1.68-2.02-2.96-1.67-1.26.38-2,1.68-1.68,2.95h0Z"/>
      <path class="cls-2" d="M652.78,170.5c4.34-1.26,8.59-2.84,12.7-4.73,1.79-.89,4.07-1.99,4.77-3.98.32-1.14.55-2.31.68-3.49.23-1.31.47-2.63.7-3.94.31-1.27-.42-2.57-1.68-2.95-1.28-.34-2.59.41-2.95,1.68-.2,1.15-.4,2.3-.61,3.45-.26,1.12-.47,2.26-.61,3.41,0,.08-.1.27-.05.26.38-.34.46-.42.23-.26-.11.07-.22.14-.33.2-.32.19-.63.4-.94.59-.66.4-1.35.77-2.05,1.1-.37.18-.74.34-1.12.51-.18.08.07-.02-.26.11-.21.09-.41.17-.62.25-.92.37-1.86.71-2.79,1.04-2.1.74-4.22,1.43-6.34,2.12-1.26.38-2,1.68-1.68,2.95.36,1.27,1.68,2.01,2.95,1.68h0Z"/>
      <path class="cls-4" d="M639.6,57.62c6.35-13.3,18.03-23.28,32.16-27.49,5.05-1.5,10.31-2.13,15.57-1.87,7.84.25,14.7,1.29,20.79,3.63,3.28,1.33,6.42,2.96,9.39,4.88l.38.25,7.81,6.89c3.87,3.64,6.98,7.99,9.17,12.83,1.63,3.33,2.84,6.85,3.6,10.48,1.49,7.14,3.35,21.32-.08,30-.84-.32-1.72-.5-2.62-.51-1.12-.04-2.23.19-3.24.67-1.48-.54-3.92-1.44-3.92-1.44-6.02-1.78-13.61-12.11-16.1-16.82-1.73-3.27-3.82-10.05-5.32-15.51-8.16,11.25-19.71,19.57-32.96,23.74l-9.64-.64c-6.08,4.74-12.43,9.13-19.02,13.15-1.28-1.94-3.49-3.05-5.81-2.92-.14,0-.27.01-.41.03-1.39-2.53-2.37-5.26-2.91-8.1-1.18-4.84-1.33-15.25-.09-21.33.69-3.41,1.78-6.74,3.25-9.89Z"/>
      <path class="cls-2" d="M732.58,100.2c1.14-.97,2.67-1.33,4.12-.98.62.11,1.21.37,1.72.75-.21-.16.29.28.29.28.11.11.21.22.31.34q-.15-.21,0,0c1.55,2.26,1.59,5.43,1.38,8.06-.28,2.72-1.1,5.35-2.41,7.75-1.56,2.95-4.04,6.07-7.72,5.59-1.32,0-2.39,1.08-2.4,2.4.03,1.31,1.09,2.37,2.4,2.4,7.64.99,12.3-7.41,14.14-13.59,1.62-5.43,1.62-13.8-3.56-17.38-3.67-2.33-8.44-1.93-11.66.99-2.3,2.07,1.1,5.46,3.39,3.39h0Z"/>
      <path class="cls-2" d="M728.22,120.49c-.71,3.05-1.69,6.04-2.92,8.92,0,0,.2-.43-.01.01-.09.2-.18.4-.27.59-.2.43-.42.85-.64,1.27-.52,1-1.08,1.97-1.66,2.94-3.04,5.21-6.94,9.87-11.54,13.78-2.46,2.11-5.36,3.63-8.5,4.44-3.01.7-1.73,5.33,1.28,4.63,6.6-1.54,12.08-6.37,16.38-11.39,3.66-4.14,6.71-8.77,9.08-13.76.15-.35.3-.7.45-1.05.04-.1.27-.66.13-.34-.14.34.01-.02.04-.07.16-.35.3-.7.45-1.05.16-.38.31-.77.45-1.15.81-2.11,1.46-4.28,1.93-6.49.32-1.27-.42-2.57-1.68-2.95-1.28-.34-2.59.41-2.95,1.68h0Z"/>
      <path class="cls-2" d="M642.64,121.8c1.46,6.42,4.07,12.52,7.72,18.01,3.91,5.83,9.02,11.29,15.21,14.74,3.21,1.8,6.73,3,10.37,3.54,1.27.31,2.57-.43,2.95-1.68.34-1.28-.4-2.59-1.68-2.95-7.93-1.16-14.21-5.73-19.36-11.68-5.21-6.12-8.84-13.41-10.58-21.25-.69-3.01-5.32-1.74-4.63,1.28h0Z"/>
      <path class="cls-2" d="M678.17,135.11c2.65,1.36,5.59,2.04,8.57,1.97,3.1.12,6.15-.79,8.68-2.59.94-.94.94-2.46,0-3.39-.95-.9-2.44-.9-3.39,0,.74-.58.21-.16.02-.04-.17.11-.34.21-.52.3-.09.05-.19.09-.28.14-.19.1-.4.07.14-.05-.24.08-.49.16-.72.26-.66.21-1.34.36-2.02.46.36-.06.05,0-.14.01s-.4.04-.6.05c-.48.03-.96.04-1.44.04-.43,0-.86-.01-1.29-.04-.2-.01-.4-.03-.59-.05-.06,0-.78-.12-.23-.02-.64-.1-1.27-.24-1.89-.41-.27-.08-.53-.17-.78-.26-.08-.03-.17-.07-.25-.1-.46-.16.52.25.12.05-.32-.16-.64-.31-.96-.48-1.14-.67-2.61-.28-3.28.86-.67,1.14-.28,2.61.86,3.28h0Z"/>
      <path class="cls-2" d="M685.39,115.03c.39,1.41.71,2.83.94,4.28l-.08-.64c.03.2.03.39.02.59l.09-.64c-.01.09-.03.18-.07.27l.24-.57c-.03.06-.06.12-.09.17l.38-.49c-.04.05-.09.1-.14.14l.48-.38c-.11.07-.22.13-.34.18l.57-.24c-.18.08-.37.14-.57.17l.64-.09c-.18.02-.36.02-.54,0l.64.08c-.42-.06-.82-.13-1.24-.19-.64,0-1.25.25-1.7.7-.94.94-.94,2.46,0,3.39,0,0,0,0,0,0l.49.38c.37.21.79.33,1.21.33h.05s-.64-.08-.64-.08c.48.1.96.17,1.45.2.75-.01,1.49-.2,2.15-.56.83-.41,1.43-1.17,1.64-2.08.13-.71.12-1.45-.04-2.15-.24-1.36-.55-2.72-.91-4.06-.17-.6-.57-1.11-1.1-1.43-1.14-.67-2.61-.29-3.28.86-.33.56-.41,1.23-.24,1.85h0Z"/>
      <path class="cls-2" d="M662.94,102.92c-.71,2.32-.23,7.66,4.17,8.11,5.81-.05,6.11-6.5,4.14-9.53-1.6-2.48-6.32-3.51-8.31,1.43Z"/>
      <path class="cls-2" d="M709.49,102.82c.72,2.32.27,7.66-4.13,8.12-5.81-.02-6.14-6.48-4.19-9.52,1.6-2.49,6.3-3.53,8.32,1.39Z"/>
      <path class="cls-2" d="M718.72,34.71c-4.24-2.78-8.86-4.92-13.71-6.37-4.94-1.35-10.01-2.14-15.13-2.35-4.47-.32-8.96-.12-13.39.59-4.18.75-8.26,2.01-12.13,3.76-15.07,6.67-27.68,20.94-30.5,37.44-.76,4.75-.98,9.58-.67,14.39.16,5.07,1.3,10.06,3.36,14.7.68,1.13,2.14,1.52,3.28.86,1.12-.69,1.5-2.13.86-3.28-1.55-3.55-2.44-7.35-2.63-11.22-.31-4.11-.25-8.24.18-12.35.97-7.46,3.89-14.53,8.46-20.5,9.06-12.26,24.21-20.19,39.54-19.75,5.3.06,10.58.68,15.75,1.87,5.09,1.32,9.93,3.46,14.32,6.36,2.6,1.68,5.01-2.47,2.42-4.15h0Z"/>
      <path class="cls-2" d="M646.32,97c-2.96-2.64-7.23-3.22-10.79-1.46-2.47,1.37-4.21,3.78-4.72,6.56-1.37,6.53,0,13.34,3.78,18.83,2.7,3.9,6.48,6.62,11.39,5.96,1.27-.36,2.02-1.67,1.68-2.95-.38-1.26-1.68-1.99-2.95-1.68-3.25.44-5.8-3.17-7.11-5.63-1.35-2.45-2.19-5.14-2.46-7.93-.2-2.61-.16-5.75,1.4-7.97.1-.13.07-.11-.06.07.1-.12.2-.23.31-.34,0,0,.5-.44.29-.28.51-.38,1.1-.64,1.72-.76,1.45-.36,2.98,0,4.13.96,2.3,2.05,5.7-1.33,3.39-3.39h0Z"/>
      <path class="cls-2" d="M704.97,64.62c1.94,6.93,3.92,13.9,8.05,19.87,2,2.95,4.27,5.71,6.78,8.24,2.33,2.31,5,4.52,8.17,5.51,2.95.93,4.22-3.71,1.28-4.63-1.2-.43-2.32-1.06-3.32-1.85-1.15-.89-2.22-1.87-3.22-2.92-2.18-2.25-4.15-4.69-5.89-7.29-3.71-5.49-5.45-11.89-7.22-18.22-.83-2.97-5.46-1.71-4.63,1.28h0Z"/>
      <path class="cls-2" d="M676.01,72.97c-8.37,9.39-18.98,16.84-29.57,23.5-2.61,1.64-.2,5.8,2.42,4.14,5.56-3.5,10.97-7.24,16.17-11.26,5.18-3.88,9.99-8.23,14.37-12.99,2.05-2.3-1.33-5.71-3.39-3.39h0Z"/>
      <path class="cls-2" d="M705.19,62.28c-7.9,10.7-18.95,18.65-31.61,22.75-2.93.94-1.68,5.57,1.28,4.63,13.83-4.49,25.89-13.22,34.48-24.96.66-1.15.28-2.61-.86-3.28-1.15-.64-2.6-.26-3.28.86h0Z"/>
      <path class="cls-2" d="M724,45.62c6.01,5.37,10.07,13.33,11.9,21.11,1.47,6.24,2.14,12.65,2.01,19.06.01,3.68-.61,7.33-1.85,10.79-.34,1.28.4,2.59,1.68,2.95,1.27.32,2.58-.42,2.95-1.68,2.59-6.72,2.33-14.52,1.59-21.56-.82-7.79-2.46-15.26-6.09-22.27-2.19-4.44-5.17-8.44-8.79-11.81-2.3-2.05-5.7,1.33-3.39,3.4h0Z"/>
      <path class="cls-2" d="M723.79,173.29c-5.6,1.4-11.22,2.72-16.92,3.61-4.78.71-9.59,1.1-14.42,1.15-8.94.15-17.94.07-26.45-2.12-2.83-.73-5.57-1.73-8.34-2.64-2.94-.97-4.2,3.67-1.28,4.63,2.52.83,5.01,1.73,7.57,2.43,3.38.89,6.82,1.51,10.3,1.85,10.58,1.16,21.26,1.03,31.82-.36,6.4-.96,12.75-2.26,19.01-3.91,3-.75,1.73-5.38-1.28-4.63h0Z"/>
      <path class="cls-2" d="M659.44,286.42c.13-17.12.15-34.24.13-51.37-.01-16.47-.04-32.94-.1-49.41-.02-6.67-.03-13.33-.04-20,0-3.09-4.8-3.09-4.8,0,0,13.39.05,26.78.09,40.16.04,17.51.05,35.03.04,52.55-.02,9.36-.06,18.71-.12,28.07-.02,3.09,4.77,3.09,4.8,0h0Z"/>
      <path class="cls-7" d="M735.41,122.24c-3.36-.07-6.13,2.6-6.2,5.96,0,.07,0,.14,0,.2,0,3.85,2.4,6.28,6.2,6.28s6.2-2.43,6.2-6.28c.05-3.36-2.63-6.12-5.99-6.16-.07,0-.14,0-.21,0Z"/>
      <path class="cls-7" d="M640.61,122.24c-3.36-.07-6.13,2.6-6.2,5.96,0,.07,0,.14,0,.2,0,3.85,2.4,6.28,6.2,6.28s6.2-2.43,6.2-6.28c.05-3.36-2.63-6.12-5.99-6.16-.07,0-.14,0-.21,0Z"/>
      <path class="cls-2" d="M735.41,119.84c-3.82,0-7.18,2.5-8.27,6.16-1,3.39.1,7.06,2.81,9.33,2.92,2.08,6.77,2.35,9.95.68,4.15-2.65,5.36-8.17,2.71-12.32-.37-.58-.81-1.12-1.31-1.6-1.62-1.45-3.71-2.25-5.89-2.26-1.33,0-2.4,1.07-2.4,2.4s1.07,2.4,2.4,2.4c.18,0,.36.02.54.02.59.01-.52-.12.05,0,.28.05.55.12.82.21l.16.05c.25.09.21.07-.12-.06.1.04.2.08.29.14.14.07.28.15.42.24.09.06.18.11.27.18.21.15.17.12-.11-.09.07-.03.51.48.57.54l.11.12c.13.16.14.16.01,0l-.09-.12c.06.08.12.17.18.26.16.24.26.53.43.75.19.26-.18-.55-.02-.06.07.2.14.4.19.61.03.1.05.21.07.31l.03.16c.04.27.04.22-.02-.15.07.03.03.73.03.84,0,.17,0,.34-.02.51v.17c-.04.27-.04.22,0-.15.01,0-.19.86-.2.91-.04.14-.1.28-.14.43-.1.29-.1-.04.07-.17-.16.11-.3.57-.42.75-.06.07-.11.15-.16.23.15-.43.24-.29.02-.06-.08.09-.16.17-.24.25-.05.05-.1.1-.15.14-.19.16-.14.12.16-.12-.21.11-.41.24-.6.38-.14.05-.27.11-.39.19l.3-.13c-.09.04-.19.07-.28.1-.24.08-.49.15-.74.2-.19.04-.63.02,0,.02-.16,0-.34.04-.5.04-.34.02-.69.02-1.03,0-.11,0-.22-.02-.33-.03-.57-.04.54.12,0,0-.25-.06-.5-.11-.75-.18-.13-.07-.27-.12-.42-.15.35.15.4.17.17.07-.07-.03-.13-.06-.19-.1-.21-.16-.43-.3-.66-.41.37.1.33.29.11.07-.08-.08-.17-.16-.25-.24-.1-.1-.19-.21-.28-.31-.27-.3.12.12.12.15,0-.19-.41-.68-.5-.86-.15-.29.12.03.07.17-.03-.15-.08-.29-.15-.43-.08-.25-.12-.5-.18-.76-.13-.54.03.57,0,0-.01-.17-.03-.34-.03-.5-.03-.33-.02-.67.03-1,0,0-.12.57,0,.08.04-.18.08-.37.13-.55.04-.15.1-.3.15-.45.17-.5-.25.46,0,0,.17-.3.36-.58.53-.87s-.39.42-.04.06c.15-.15.28-.31.44-.45.07-.07.15-.14.24-.21-.28.21-.32.24-.11.09.09-.06.17-.12.26-.18.11-.07.23-.14.35-.2.07-.04.14-.08.21-.11.24-.11.2-.09-.12.04.13-.17.74-.24.96-.29l.17-.03c.27-.04.23-.04-.12.01.24-.06.48-.07.72-.04,1.33,0,2.4-1.07,2.4-2.4s-1.07-2.4-2.4-2.4h0Z"/>
      <path class="cls-2" d="M640.61,119.84c-3.82,0-7.18,2.5-8.27,6.16-1,3.39.1,7.06,2.81,9.34,2.92,2.08,6.77,2.35,9.95.68,4.15-2.65,5.36-8.17,2.71-12.32-.37-.58-.81-1.12-1.31-1.6-1.62-1.45-3.71-2.25-5.88-2.26-1.33,0-2.4,1.07-2.4,2.4s1.07,2.4,2.4,2.4h0c.18,0,.36.02.54.02.59.01-.52-.12.05,0,.28.05.55.12.82.21l.16.05c.25.09.21.07-.12-.06.1.04.2.08.29.14.14.07.28.15.42.24.09.06.18.11.26.18.21.15.17.12-.11-.09.07-.03.51.48.57.54l.1.12c.13.16.13.16.01,0l-.09-.12c.06.08.12.17.18.26.16.24.26.53.43.75.19.26-.18-.55-.02-.06.07.2.14.4.19.61.03.1.05.21.07.31l.03.16c.04.27.04.22-.02-.15.07.03.03.73.03.84,0,.17,0,.34-.02.51v.17c-.04.27-.04.22,0-.15.01,0-.19.86-.2.91-.04.14-.1.28-.14.43-.1.29-.1-.04.07-.17-.16.11-.3.57-.41.75-.06.07-.11.15-.16.23.15-.43.24-.29.02-.06-.08.09-.16.17-.24.25-.05.05-.1.1-.15.14-.19.16-.14.12.16-.12-.21.11-.41.24-.6.38-.14.05-.27.11-.39.19l.3-.13c-.09.04-.19.07-.28.1-.24.08-.49.15-.74.2-.19.04-.63.02,0,.02-.16,0-.34.04-.5.04-.34.02-.69.02-1.03,0-.11,0-.22-.02-.33-.03-.57-.04.54.12,0,0-.25-.06-.5-.11-.75-.18-.13-.07-.27-.12-.42-.15.35.15.41.17.17.07-.07-.03-.13-.06-.19-.1-.21-.16-.43-.3-.66-.41.37.1.33.29.11.07-.08-.08-.17-.16-.25-.24-.1-.1-.19-.21-.28-.31-.27-.3.12.12.12.15,0-.19-.41-.68-.5-.86-.15-.29.12.03.07.17-.03-.15-.08-.29-.15-.43-.08-.25-.12-.5-.18-.76-.13-.54.03.57,0,0,0-.17-.03-.34-.03-.5-.03-.33-.02-.67.03-1,0,0-.12.57,0,.08.04-.18.08-.37.13-.55.04-.15.1-.3.15-.45.17-.5-.25.46,0,0,.17-.3.37-.58.53-.87s-.39.42-.04.06c.15-.15.28-.31.44-.45.07-.07.15-.14.24-.21-.28.21-.32.24-.11.09.09-.06.18-.12.26-.18.11-.07.23-.14.35-.2.07-.04.14-.08.21-.11.24-.11.19-.09-.12.04.13-.17.74-.24.96-.29l.17-.03c.27-.04.23-.04-.12.01.24-.06.48-.07.72-.04,1.33,0,2.4-1.07,2.4-2.4s-1.07-2.4-2.4-2.4h0Z"/>
      <g>
        <path class="cls-6" d="M8.05,93.66c2.46.28,4.08.47,8.15.56-3.22-3.58-5.97-5.93-10.24-8.85,5.88-5.08,9.57-9.6,13.36-16.1,2.08-3.58,3.41-6.87,4.26-10.26l14.97,3.2q-.28.66-1.71,3.77c-1.42,3.01-1.71,3.58-2.56,5.37h9.95v-2.54c0-4.33-.09-6.78-.57-10.17h16.11c-.47,3.39-.57,5.56-.57,10.17v2.54h17.25c4.93,0,8.25-.19,11.28-.56v14.6c-3.03-.38-6.44-.56-11.28-.56h-17.25v9.42h23.31c5.02,0,8.43-.19,11.47-.56v14.69c-3.22-.38-6.54-.56-11.47-.56h-16.21v22.98c0,1.69,1.04,2.07,5.12,2.07,4.74,0,6.44-.28,7.3-1.32,1.23-1.41,1.8-6.21,1.9-14.78,5.78,2.64,8.62,3.67,14.12,4.8-.66,10.17-1.8,15.82-3.89,18.93-3.03,4.61-7.68,5.93-21.42,5.93-6.63,0-9.38-.19-11.85-.94-3.7-1.13-5.31-3.48-5.31-7.82v-29.85h-6.82c-.76,11.11-3.13,18.46-8.06,24.86-5.31,6.78-12.79,11.77-23.98,15.91-3.03-6.97-3.6-7.82-8.15-13.65,9.38-2.64,15.73-6.21,20-11.39,3.32-4.05,5.02-9.04,5.4-15.73h-11.18c-4.83,0-8.25.19-11.47.56v-14.69ZM19.51,94.22h24.74v-9.42h-18.01c-2.65,3.58-4.74,6.03-8.15,9.42h1.42Z"/>
        <path class="cls-6" d="M112.39,102.51c-5.02,0-6.63.09-9.1.38v-10.36c2.65.38,4.74.47,9.1.47h7.87c-2.27-1.41-3.03-1.88-5.4-2.92,3.89-1.22,5.5-1.88,7.87-3.39-3.32.56-4.17.66-15.92,2.07-2.18.28-3.03.38-4.45.66l-1.04-8.38c1.33.19,1.9.19,3.13.19,6.54,0,16.3-.47,23.98-1.22.28-.66.28-.85.57-1.51h-14.78c-5.88,0-7.3.09-9.48.28v-6.97c2.37.28,3.79.38,9.48.38h15.92c.09-.75.19-1.04.19-1.98h-17.53c-4.74,0-6.92.09-9.48.28v-8.57c2.84.38,4.45.47,9.48.47h17.53c-.19-1.98-.19-2.45-.47-3.86h14.5c-.28,2.35-.28,3.39-.28,8.76-.09,12.9-3.79,20.72-12.13,25.71h6.07c-.09-1.88-.09-2.73-.38-4.33h9.67c.09-1.22.09-2.73.09-4.24v-17.89c0-4.61-.09-5.84-.38-8h14.41c-.19,1.6-.28,2.17-.38,3.95h16.77c4.93,0,6.82-.09,9.48-.38v8.66c-2.75-.28-4.64-.38-9.48-.38h-16.87v2.17h15.16c5.59,0,6.73,0,9.38-.28v7.16c-2.56-.38-3.7-.38-9.38-.38h-15.16v2.64h18.2c5.78,0,6.82,0,9.48-.38v8.1c-2.37-.28-3.6-.38-9.48-.38h-18.01c.09,1.04.09,1.22.28,2.07h-9.29c-.09.85-.09,1.04-.09,1.88h26.25c5.12,0,6.63-.09,9-.38v10.26c-2.46-.28-4.08-.38-9-.38h-26.35v2.17h21.13c4.27,0,6.35-.09,8.81-.38-.28,2.26-.38,3.95-.38,7.63v7.82c0,3.96.09,5.93.38,8.1-2.37-.19-4.45-.28-8.72-.28h-21.23v2.26h24.93c5.88,0,9.38-.09,11.75-.47v11.58c-3.51-.38-7.39-.56-11.75-.56h-24.93c.1,3.2.19,4.9.57,7.16h-14.97c.38-2.17.47-3.67.57-7.16h-24.45c-4.27,0-8.44.19-11.85.56v-11.58c2.37.28,5.97.47,11.85.47h24.45v-2.26h-20.19c-4.45,0-6.73.09-9.1.28.28-2.64.38-4.61.38-8.38v-7.82c0-3.3-.09-4.9-.38-7.34,2.37.28,4.26.38,8.81.38h20.47v-2.17h-25.68ZM123.01,111.36v2.35h15.07v-2.35h-15.07ZM123.01,118.71v2.35h15.07v-2.35h-15.07ZM151.91,113.71h15.73v-2.35h-15.73v2.35ZM151.91,121.06h15.73v-2.35h-15.73v2.35Z"/>
        <path class="cls-6" d="M205.94,72c0-4.99-.19-8.57-.57-12.62h15.45c-.38,3.11-.57,6.87-.57,12.52v7.06h12.23v-8.85c0-4.43-.19-7.44-.57-10.83h15.16c-.38,3.58-.47,6.5-.47,10.64v9.04h12.04v-9.13c0-4.71-.09-7.25-.47-10.55h15.26c-.38,3.3-.57,6.4-.57,10.64v9.04h.85c4.83,0,7.96-.19,11.09-.56v14.12c-3.32-.38-6.44-.56-11.09-.56h-.85v19.49c0,2.54.09,5.84.38,9.42-2.75-.19-5.12-.28-8.25-.28h-23.98c-3.13,0-5.69.09-8.81.28.19-2.45.28-5.27.28-8.47v-20.43h-12.23v37.85h46.82c5.78,0,9.19-.09,13.74-.56v14.6c-4.64-.47-8.72-.66-13.74-.66h-46.82v4.05h-14.97c.47-4.8.66-9.7.66-14.97v-40.3c-5.21.09-7.49.19-10.71.56v-14.12c3.32.38,5.21.47,10.71.56v-6.97ZM246.6,91.96v15.63h12.04v-15.63h-12.04Z"/>
        <path class="cls-6" d="M301.28,114.09c0-5.08,0-7.06.19-10.08-3.6,4.8-4.26,5.65-7.11,8.47-1.9-7.53-3.03-10.64-5.97-16.38,7.77-8.38,12.7-16.2,16.68-26.37,1.9-4.61,3.03-8.57,3.51-11.96l14.78,4.8q-2.75,7.91-7.58,18.83v53.86c0,4.99.19,8,.57,11.68h-15.64c.38-3.48.57-6.69.57-11.68v-21.19ZM350.09,96.67c1.14,7.91,2.94,14.12,5.5,19.96,1.8,3.96,3.98,7.44,6.44,10.26.76.94,2.37,2.26,2.75,2.26,1.23,0,2.37-5.93,3.03-16.1,5.02,4.14,7.39,5.65,12.51,8.1-1.23,10.73-2.75,16.38-5.5,20.81-2.18,3.39-5.02,5.08-8.72,5.08-4.83,0-9.57-3.01-14.97-9.51-8.06-9.79-13.27-22.88-15.73-40.11l-7.49.47c-4.74.28-6.63.47-9.57.94l-.1-14.41c2.75.09,3.03.09,4.08.09,1.52,0,4.93-.09,6.54-.19l5.12-.28q-.38-5.65-.66-16.48c0-3.01-.19-5.56-.57-8l15.92-.28c-.38,2.26-.47,4.14-.47,8,0,5.37.09,9.04.57,15.82l13.27-.75c-3.41-5.08-7.68-10.17-12.6-15.25l11.56-7.72c5.02,4.71,8.43,8.38,13.84,15.25l-10.42,7.53,2.56-.09c5.5-.38,8.25-.66,11.18-1.22l.09,14.69c-1.8-.19-2.75-.19-4.08-.19-1.9,0-2.94,0-6.07.28l-18.01,1.04Z"/>
        <path class="cls-1" d="M402.24,92.03c.23,3.79,1.93,11.92,3.75,17.69q3.7-1.36,14.73-4.97c1.02-.34,1.31-.45,2.16-.85l2.45,7.12c-4.95.96-12.4,3.11-18.77,5.42-8.3,3.05-12.45,6.67-12.45,10.74s3.87,5.88,13.02,5.88c7.11,0,14.1-.85,18.37-2.32l.63,7.74c-1.25,0-1.54.06-4.61.4-6.14.62-9.33.85-13.31.85-7.9,0-12.85-.96-16.49-3.11-3.13-1.86-4.95-5.37-4.95-9.44,0-3.79,1.82-7.4,5.06-10.11,2.22-1.86,4.04-2.99,7.73-4.86-1.42-4.58-2.39-8.36-3.81-15.31-.57-2.71-.63-2.83-.91-3.67l7.39-1.19Z"/>
        <path class="cls-1" d="M57.09,187.58c-2.62-.28-5.23-.4-8.64-.4H14.78c-3.18,0-6.14.17-8.7.4v-7.46c2.45.28,5,.4,8.7.4h33.67c3.81,0,6.43-.11,8.64-.4v7.46Z"/>
        <path class="cls-1" d="M69.82,191.53c-.4,7.18-1.08,11.64-2.5,16.55l-4.95-2.37c1.54-4.29,2.05-7.85,2.45-15.31l5,1.13ZM67.15,182.6q1.76-2.37,3.01-4.18c-2.56-3.39-4.55-5.54-7.56-8.42l3.07-4.86,1.76,1.87c2.05-3.33,3.7-6.84,4.15-8.93l5.52,1.98c-.34.57-.63,1.07-1.14,2.03-1.99,3.84-3.58,6.61-5.06,8.81,1.08,1.24,1.42,1.64,2.39,2.77,2.9-4.52,4.61-7.68,5.35-9.66l5.23,2.77c-.51.62-.74,1.02-1.54,2.32-2.45,3.96-6.48,9.89-9.1,13.33,1.65-.06,3.53-.17,5.63-.34-.68-1.92-.85-2.32-1.65-4.24l3.92-1.36c1.99,4.46,2.67,6.33,3.75,10.11l-4.27,1.47-.28-1.13c-1.99.23-2.16.23-3.41.34v17.57c0,2.94.06,4.12.34,5.99h-6.2c.28-1.75.34-3.17.34-5.99v-17.23c-.63.06-1.65.11-3.01.17q-4.44.17-5.4.4l-.57-5.76c1.02.17,1.54.23,2.96.23h.68l1.08-.06ZM82.22,190.4c1.02,4.86,1.37,7.4,1.88,13.45l-4.44,1.13c-.34-5.82-.8-10-1.59-13.73l4.15-.85ZM87.85,180.63c-1.76,0-3.19.06-4.55.23v-5.71c1.36.23,2.62.28,5,.28h4.27v-5.54h-2.96c-2.1,0-3.41.06-4.83.23v-5.65c1.37.23,2.73.28,4.83.28h2.96v-1.92c0-1.81-.11-2.99-.34-4.24h6.54c-.23,1.19-.34,2.26-.34,4.29v1.86h3.18c1.65,0,2.73-.06,3.7-.23v3.9c2.45-3.96,3.58-6.1,4.21-7.85l5.63,2.94c-.57.68-.8,1.07-1.82,2.66-1.93,3.11-4.38,6.5-6.65,9.27h2.9c2.67,0,3.98-.06,5.29-.23v5.71c-1.48-.23-2.5-.28-5.17-.28h-7.68c-1.71,1.7-2.73,2.66-4.32,4.12h8.87c2.79,0,4.38-.06,5.63-.23-.17,1.53-.23,2.94-.23,5.88v14.29c0,2.71.06,4.18.34,6.1h-6.14v-2.6h-12.91v2.54h-6.03c.23-1.75.34-3.39.34-6.05v-12.15c-.85.57-1.31.85-2.62,1.58-.63-2.03-1.25-3.28-2.73-5.25,3.47-1.69,4.72-2.43,7.51-4.46,2.1-1.53,3.24-2.43,4.83-3.79h-6.71ZM93.25,193.9h12.97v-4.29h-12.97v4.29ZM93.25,203.23h12.97v-4.52h-12.97v4.52ZM99.85,175.43c1.65-1.87,2.9-3.45,4.38-5.48-1.08-.06-1.65-.06-2.39-.06h-3.41v5.54h1.42Z"/>
        <path class="cls-1" d="M123.79,208.03c-.06-1.02-.11-1.36-.28-2.66-1.08-6.84-1.48-11.19-1.48-16.89,0-7.29.68-13.73,2.33-22.09.63-3.16.74-3.73.85-5.25l7.51.79c-1.37,3.33-2.67,9.66-3.58,16.89-.57,4.24-.8,7.57-.85,12.49,0,1.24-.06,1.7-.11,3.11.63-1.98.74-2.37,2.96-7.46l4.55,2.03c-3.13,6.55-5.06,13.11-5.06,17.12,0,.34,0,.79.06,1.53l-6.88.4ZM148.01,185.71c-2.84,3.28-4.04,5.71-4.04,8.14,0,3.22,3.13,4.92,9.04,4.92,5,0,9.95-.79,13.54-2.15l.57,7.18c-.8.06-1.02.11-2.33.34-4.55.74-8.02,1.07-11.77,1.07-7.05,0-11.6-1.58-14.1-4.92-1.08-1.41-1.71-3.5-1.71-5.54,0-3.67,1.71-7.46,5.23-11.64l5.57,2.6ZM138.63,167.01c2.56.68,5.57.9,10.52.9,6.31,0,11.72-.51,15.47-1.53l.34,6.84c-.45.06-1.31.17-4.04.51-3.64.45-7.96.68-12.17.68s-4.21,0-10.24-.62l.11-6.78Z"/>
        <path class="cls-1" d="M181.39,198.93c0-.73,0-1.07-.06-1.64-1.02,4.69-2.45,8.31-4.89,12.54-1.59-2.15-2.9-3.56-4.61-4.97,3.92-5.93,5.35-12.43,5.35-24.41,0-2.26-.06-3.33-.17-5.03-.34.23-.51.34-1.02.68-1.36-2.32-2.16-3.33-4.09-5.14,4.21-2.32,6.54-4.01,9.44-6.67,2.22-2.03,3.47-3.39,4.72-5.2h6.31c3.13,3.62,6.48,5.99,12.45,8.81-1.48,2.15-2.1,3.28-2.96,5.48-2.33-1.3-3.24-1.87-4.66-2.83v2.6c-1.02-.11-1.93-.17-3.24-.17h-7.96c-1.71,0-2.33.06-3.3.17v-1.98c-1.82,1.53-3.64,2.88-4.89,3.73,1.76.11,2.62.11,4.66.11h14.44c2.05,0,2.9-.06,4.49-.17-.11,1.24-.17,2.54-.17,4.24v9.32c0,1.98.06,3.05.17,4.24-1.59-.06-2.39-.11-3.92-.11h-15.3c-.11,1.07-.23,1.58-.34,2.2.97.06,1.65.06,3.01.06h13.25c1.54,0,2.62-.06,3.92-.17-.17,1.41-.17,2.32-.17,4.12v6.72c0,1.92.06,3.16.23,4.52h-5.97v-1.7h-9.1v2.49h-5.91c.17-1.3.28-2.6.28-4.52v-7.35ZM182.82,185.88c0,.85-.06,1.19-.17,2.26h12.74v-2.26h-12.57ZM195.38,181.76v-2.32h-12.4v2.32h12.4ZM193.79,168.7h.8c-2.27-1.81-3.07-2.54-5-4.63-1.65,2.09-2.33,2.88-4.15,4.63h8.36ZM187.08,203.79h8.99v-4.52h-8.99v4.52ZM211.93,163.05c-.23,1.47-.28,2.99-.28,5.88v22.6c0,3.39,0,4.46.23,5.99h-6.43c.23-1.64.28-2.83.28-6.05v-22.43c0-2.77-.11-4.41-.28-5.99h6.48ZM223.53,159.21c-.28,1.58-.34,3.39-.34,6.84v37.46c0,5.31-1.54,6.5-8.47,6.5-1.25,0-1.42,0-5.29-.17-.4-2.88-.63-3.84-1.48-5.99,2.16.34,4.95.57,6.65.57,2.1,0,2.62-.34,2.62-1.75v-36.44c0-3.39-.11-5.2-.34-7.01h6.65Z"/>
        <path class="cls-1" d="M247.42,182.94c5.17-2.03,7.68-2.6,11.94-2.6,9.72,0,15.98,4.97,15.98,12.71,0,5.37-2.67,9.66-7.73,12.49-3.7,2.09-8.53,3.22-13.76,3.22-4.78,0-8.76-.9-11.03-2.6-2.16-1.58-3.41-3.96-3.41-6.5,0-4.69,4.09-8.08,9.78-8.08,3.98,0,7.45,1.64,9.84,4.63,1.14,1.41,1.76,2.66,2.62,5.08,4.72-1.75,6.77-4.18,6.77-8.19,0-4.41-4.38-7.29-11.26-7.29-8.3,0-16.61,3.33-23.43,9.49l-3.87-6.1c1.99-.96,4.27-2.49,8.02-5.31,5.29-4.01,12.68-10.34,17-14.69.11-.11.68-.68,1.02-1.02l-.06-.06c-2.16.28-5.8.51-16.09.96-1.25.06-1.65.11-2.73.28l-.28-6.78c1.93.23,3.58.34,6.71.34,4.83,0,11.77-.28,17.29-.68,1.99-.17,2.62-.28,3.53-.74l3.53,4.97c-.97.51-1.36.85-2.96,2.32-2.84,2.6-7,6.27-8.93,7.91-1.02.85-5.12,3.9-6.26,4.63q-1.42.96-2.33,1.47l.11.11ZM249.12,197.01c-2.05,0-3.36,1.02-3.36,2.6,0,2.26,2.56,3.56,6.77,3.56,1.08,0,1.36,0,2.96-.23-1.02-3.9-3.18-5.93-6.37-5.93Z"/>
        <path class="cls-1" d="M305.14,193.11c-3.24,7.29-6.88,10.62-11.54,10.62-6.48,0-11.15-6.55-11.15-15.65,0-6.21,2.22-12.04,6.26-16.44,4.78-5.2,11.49-7.91,19.56-7.91,13.65,0,22.52,8.25,22.52,20.96,0,9.77-5.12,17.57-13.82,21.08-2.73,1.13-4.95,1.7-8.93,2.37-.97-2.99-1.65-4.24-3.47-6.61,5.23-.68,8.64-1.58,11.32-3.11,4.95-2.71,7.9-8.08,7.9-14.13,0-5.42-2.45-9.83-7-12.54-1.76-1.02-3.24-1.47-5.74-1.7-1.08,8.87-3.07,16.67-5.91,23.05ZM296.78,172.88c-4.78,3.39-7.73,9.21-7.73,15.26,0,4.63,1.99,8.31,4.49,8.31,1.88,0,3.81-2.37,5.86-7.23,2.16-5.08,4.04-12.71,4.72-19.1-2.96.34-5,1.13-7.34,2.77Z"/>
        <path class="cls-1" d="M340.85,208.37c-.06-.57-.06-.9-.28-2.2-1.08-6.61-1.54-12.04-1.54-17.97,0-5.08.34-10.06,1.08-14.97q.28-1.7,1.54-8.08c.4-1.98.63-3.62.63-4.18v-.23l7.68.79c-2.33,4.92-4.49,18.53-4.55,28.37q-.06,2.03-.06,2.94v.9c0,.45,0,.57-.06,1.19h.06q.28-.62.68-1.64c.11-.4.4-1.02.68-1.92q.51-1.19,1.08-2.54c.11-.17.17-.34.68-1.75l4.72,2.09c-3.36,6.55-5.63,13.56-5.63,17.29,0,.4,0,.45.11,1.53l-6.82.4ZM353.7,171.36c2.67.68,5.63.9,10.29.9,1.99,0,3.24,0,5.23-.11,0-3.33-.06-6.16-.06-8.48,0-1.24-.06-2.09-.17-2.71l7.11-.17c-.28,1.58-.4,4.29-.4,8.31v2.6c2.96-.34,5.46-.79,7.68-1.36q.34-.11,1.25-.45l.45-.11.23,6.38c-.57.06-.63.06-1.65.28-1.93.4-4.89.9-7.9,1.24v1.24c0,3.16,0,3.28.57,12.77,4.09,1.92,5.52,2.71,8.93,5.14.74.51,1.02.68,1.59.96l-2.73,6.84c-.97-1.13-2.67-2.6-4.27-3.62-1.93-1.24-3.24-2.09-3.58-2.32v.79c0,1.24-.17,2.37-.46,3.16-1.31,3.33-5.29,5.31-10.81,5.31-7.45,0-12-3.5-12-9.27s4.83-9.32,11.72-9.32c2.1,0,3.53.23,5.06.79-.17-1.41-.23-4.18-.45-12.04-2.27.06-3.64.11-5.12.11-2.1,0-4.38-.06-7.05-.28-.8,0-1.42-.06-1.71-.06-.51-.06-.85-.06-.97-.06-.28-.06-.45-.06-.57-.06-.06,0-.17,0-.34.06l.11-6.5ZM365.24,195.03c-3.64,0-5.91,1.41-5.91,3.73,0,2.09,2.05,3.5,5.23,3.5,2.1,0,3.75-.62,4.61-1.75.51-.68.74-1.53.74-3.05v-1.53c-1.88-.68-2.96-.9-4.66-.9Z"/>
      </g>
      <g>
        <rect class="cls-6" y="255.86" width="778.65" height="163.2" rx="10.48" ry="10.48"/>
        <g>
          <path class="cls-7" d="M96.99,284.36c-.6,2.27-1.3,3.99-3.96,9.77v29.62c0,3.02.11,5.07.33,7.34h-8.63c.22-2.32.33-4.48.33-7.28v-12.36c0-2.81,0-3.24.11-5.5-.92,1.29-2.01,2.64-3.15,3.88-1.08-4.21-1.74-6.04-3.47-9.39,3.2-3.24,5.64-6.8,7.76-11.33,1.57-3.45,2.6-6.58,2.98-9.28l7.71,3.18v-1.03c2.01.22,4.02.32,6.73.32h19.64c2.71,0,4.67-.11,6.73-.32v8.09c-1.36-.16-1.68-.16-3.42-.22v33.61c0,3.56-1.03,5.34-3.69,6.31-1.46.54-4.29.81-8.52.81-.11,0-.92,0-3.47-.05-.38-3.51-.87-5.29-2.12-8.31,2.5.16,5.37.32,7.16.32,1.95,0,2.44-.27,2.44-1.46v-31.24h-14.6c-3.15,0-5.32.05-6.89.22v-5.72ZM96.55,319.86c.16-1.51.22-2.86.22-4.42v-17.64c0-1.73-.05-2.8-.22-4.15,1.19.11,2.39.16,4.02.16h11.34c2.22,0,2.71,0,3.74-.11-.11,1.13-.11,1.83-.11,4.05v14.68c0,2.32,0,2.97.11,4.21-1.14-.11-1.79-.11-3.96-.11h-7.38v3.35h-7.76ZM104.31,309.28h3.85v-8.31h-3.85v8.31Z"/>
          <path class="cls-7" d="M183.32,296.28c-1.25-.16-2.17-.22-3.91-.27.38.86.49,1.08.76,1.83,1.68-.05,1.79-.11,2.98-.16v6.64c-1.52-.11-3.15-.16-5.53-.16h-1.74l6.02,2.86c-.22.43-.76,1.78-1.57,3.56-1.25,2.91-2.82,5.77-4.83,8.79.43.65,1.03,1.57,1.41,2.05.16.27.87.86.98.86.49,0,.98-1.89,1.52-5.77,1.79,1.78,3.04,2.75,5.32,4.15-.49,3.88-1.14,6.15-2.17,7.77-1.09,1.67-2.71,2.59-4.61,2.59-2.39,0-4.72-1.73-7.43-5.45-2.39,2.43-4.34,3.99-7.05,5.67-1.68-2.43-2.6-3.56-4.88-5.72-.16,1.83-.38,2.48-.98,3.24-.92,1.03-2.55,1.46-5.53,1.46-.43,0-1.09,0-1.95-.05-.22-2.37-.49-3.83-1.09-5.72-.49,1.35-.65,1.94-1.41,3.72-1.79-1.13-2.98-1.73-4.99-2.48,2.12-4.21,2.88-6.91,3.58-12.41l4.88,1.35c-.6,4.1-.92,5.88-1.68,8.63.65.05,1.25.11,1.63.11.87,0,1.09-.22,1.09-1.03v-10.25h-3.69c-1.14,0-2.01.05-2.93.16v-6.58c.71.11,1.47.16,2.93.16h12.37c1.3,0,1.74,0,2.82-.16v6.58c-.71-.11-1.25-.16-2.5-.16h-2.5v2.37l4.29-1.29c1.52,3.88,1.57,4.1,2.39,7.07l-4.5,1.67c-.76-3.4-1.14-4.69-2.17-7.18v9.5l-.05,1.03c3.42-1.73,5.86-3.56,8.46-6.26-1.68-4.21-2.66-8.58-3.31-14.84h-18.94l-.16,3.94c-.16,6.53-.98,12.03-2.28,16.13-.92,2.75-1.84,4.59-3.53,6.85-2.22-2.7-3.64-4.15-6.29-6.21,2.06-2.97,3.04-5.45,3.74-9.71.6-3.4.87-7.61.87-12.95,0-1.67-.05-2.91-.22-4.59,1.68.16,2.71.22,4.72.22h21.65l-.11-1.83h-22.9c-2.88,0-4.07.05-5.75.27v-7.01c1.63.22,3.04.27,6.08.27h2.17v-3.4c0-1.51-.11-2.75-.27-3.88h8.46c-.16,1.03-.22,2.27-.22,3.94v3.34h5.75v-5.29c0-1.57-.05-2.7-.27-3.88h8.57c-.11.7-.16,1.08-.22,2.16h9.71c2.66,0,3.85-.05,5.48-.16v5.83c-1.57-.11-2.98-.16-5.48-.16h-9.71v1.51h12.97c2.88,0,4.12-.05,5.75-.27v7.01ZM170.67,296.01l.05,1.83h3.47c-.43-.97-.49-1.19-.87-1.83h-2.66ZM171.11,304.16c.38,3.24.65,5.13,1.14,7.28,1.08-2.21,2.17-5.07,2.77-7.28h-3.91Z"/>
          <path class="cls-7" d="M203.67,283.33c-2.12,6.15-3.74,16.24-4.12,26.06l4.18,1.4c-1.41,4.86-2.12,9.71-2.12,15.11,0,1.03,0,1.51.16,2.64l-9.33.43c-.05-1.03-.05-1.46-.27-2.86-1.03-7.23-1.41-11.92-1.41-17.05,0-6.21.65-13,2.06-20.77.65-3.78.71-4.15.81-5.77l10.04.81ZM218.64,306.91c-2.5,3.18-3.64,5.5-3.64,7.45,0,2.48,2.44,3.83,7.05,3.83s9.39-.75,13.51-2.21l.54,9.55q-1.41.16-4.61.65c-2.93.43-6.29.7-9.39.7-5.05,0-8.41-.7-11.23-2.27-3.04-1.73-4.99-5.07-4.99-8.58,0-2.64.92-5.61,2.6-8.42.76-1.24,1.08-1.78,2.55-3.88l7.6,3.18ZM208.01,287.43c2.55.54,5.43.81,9.66.81,7.22,0,12.53-.43,16.17-1.35l.38,9.23c-.49,0-1.03.05-4.02.38-3.74.38-7.71.59-11.45.59-3.31,0-6.02-.11-9.33-.43-.43-.05-.81-.05-1.57-.11l.16-9.12Z"/>
          <path class="cls-7" d="M263.73,281.66c-.33.97-.38.97-1.03,4.32-.27,1.29-.38,1.78-.65,3.02,3.47-.38,5.81-.76,7.54-1.29l.16,8.74q-1.3.11-4.02.43c-1.47.16-4.45.43-5.81.54-1.95,6.37-3.36,10.09-5.91,15.65-1.14,2.48-1.63,3.45-3.74,7.66q-.71,1.35-1.03,2.1l-8.84-4.8c3.85-5.13,7.6-12.79,10.04-20.39h-3.04q-1.25,0-2.5-.05h-2.12v-8.63c2.06.38,4.56.54,7.92.54.6,0,.87,0,1.95-.05q.05-.43.49-2.27c.43-1.83.76-4.48.81-6.42l9.77.92ZM287.07,327.14c-2.01-2.32-4.07-4.05-7-5.88-.16,2.54-.81,4.1-2.28,5.61-2.12,2.1-5.91,3.35-10.26,3.35s-8.03-1.29-10.26-3.56c-1.79-1.83-2.71-4.15-2.71-6.69,0-6.26,5.26-10.63,12.81-10.63,1.14,0,2.01.05,3.8.32-.16-2.05-.22-3.08-.22-4.32,0-2.21.11-3.94.33-6.37l8.95.38c-.43,1.89-.6,3.51-.6,6.1,0,1.94.11,3.56.43,6.26,3.31,1.46,5.86,2.91,8.36,4.8.16.11,1.03.81,2.66,2.1l-4.02,8.52ZM267.64,317c-2.55,0-4.18,1.08-4.18,2.75,0,1.57,1.52,2.59,3.85,2.59,2.71,0,4.12-1.19,4.12-3.45,0-.38-.05-1.13-.11-1.19-1.47-.54-2.39-.7-3.69-.7ZM287.61,301.84c-5.1-3.18-10.42-5.61-16.88-7.77l4.5-7.45c6.84,2.43,11.29,4.37,16.33,7.28l-3.96,7.93Z"/>
          <path class="cls-7" d="M297.05,299.25q1.9-.22,6.24-1.03c7.49-1.51,12.64-2.16,17.04-2.16,5.32,0,8.95,1.03,11.88,3.35s4.5,5.88,4.5,10.2c0,8.26-5.37,14.41-15.03,17.32-3.74,1.13-4.72,1.29-12.32,2.16-.65-3.35-1.3-5.13-3.31-8.63,5.1,0,9.12-.54,13.19-1.78,3.69-1.13,6.67-3.34,7.76-5.83.43-.92.65-2.05.65-3.18,0-3.4-2.88-5.4-7.81-5.4-3.64,0-8.14.65-14.22,2-3.64.81-4.83,1.13-6.78,1.89l-1.79-8.9Z"/>
          <path class="cls-7" d="M341.49,286.89c.92.05,1.63.05,2.06.05,1.41,0,3.36-.11,9.28-.49,8.46-.54,12.43-.76,28.98-1.35,4.5-.16,4.99-.22,5.97-.43l.49,9.77c-.76-.11-.98-.11-1.52-.11-3.8,0-8.68,1.46-12.43,3.78-5.43,3.29-8.63,7.88-8.63,12.3,0,3.08,1.47,5.18,4.56,6.64,2.22,1.08,6.84,1.94,10.36,1.94.54,0,.87,0,1.63-.11l-1.25,10.31c-.76-.16-1.03-.16-2.01-.27-6.19-.59-10.26-1.46-13.73-3.02-6.4-2.97-9.71-7.93-9.71-14.78,0-4.48,1.52-8.52,4.61-12.19,1.41-1.73,2.71-2.81,5.32-4.59l-18.77,1.67c-2.12.22-2.66.27-4.67.7l-.54-9.82Z"/>
          <path class="cls-7" d="M425.06,304.91c4.02-.27,5.37-.54,8.95-1.73,3.15,4.05,4.5,7.66,4.5,12.09,0,4.1-2.06,8.15-5.53,10.68-3.36,2.54-7.87,3.83-13.19,3.83-5.59,0-9.98-1.46-13.08-4.26-2.6-2.43-3.8-5.61-3.8-10.04,0-1.19.05-2.37.16-3.99-1.68-.11-3.96-.49-7-1.08-1.09-.22-1.41-.27-2.33-.32l.65-8.63c2.5.92,4.5,1.29,9.44,1.89.05-.54.33-2.37.76-5.4-2.17-.22-3.96-.54-7.49-1.24-.81-.16-1.14-.22-1.95-.38l.6-8.36c2.39.81,5.53,1.4,9.82,1.83.6-3.56.81-5.88.81-7.72v-.76l10.04.81c-.6,1.73-.81,2.91-1.57,7.88,5.32-.16,8.46-.54,11.77-1.35l-.33,8.96q-1.25.11-3.91.32c-3.58.32-5.26.38-8.9.38q-.05.7-.38,2.64c-.11.7-.16,1.13-.38,2.91h1.14c4.23,0,8.08-.43,11.23-1.24l-.05,2.27ZM424.89,311.33c-.54.05-.6.05-1.74.22-2.5.32-5.81.54-8.52.54-.54,0-.92,0-2.44-.05-.05.7-.11,1.73-.11,2.59,0,2.16.54,3.62,1.68,4.64,1.3,1.19,3.31,1.78,5.86,1.78,5.91,0,9.44-2.59,9.44-6.91,0-2.75-1.36-5.67-4.02-8.58l-.16,5.77Z"/>
          <path class="cls-7" d="M455.39,297.79c-2.22,4.42-4.45,7.82-7.43,11.17-2.06-3.45-2.88-4.42-5.43-7.01,4.99-4.86,9.06-13.38,9.5-20.02l8.46,2q-.65,1.83-1.09,3.29c-.27,1.08-.54,1.89-.92,3.08h6.51v-2.48c0-3.29-.11-5.4-.33-7.23h9.28c-.27,1.89-.33,3.72-.33,7.23v2.48h9.44c3.2,0,5.86-.11,8.46-.32v8.15c-2.71-.22-5.26-.32-8.19-.32h-9.71v8.09h7.98c3.04,0,5.48-.11,7.6-.32v8.15c-2.44-.22-4.67-.32-7.54-.32h-8.03v8.79h11.18c3.42,0,6.08-.11,8.63-.38v8.36c-3.09-.27-5.37-.38-8.36-.38h-31.63c-3.09,0-5.81.11-8.95.38v-8.36c2.77.27,5.48.38,8.63.38h11.88v-8.79h-6.73c-2.88,0-5.1.11-7.43.32v-8.09c2.12.22,3.96.27,7.27.27h6.89v-8.09h-9.6Z"/>
          <path class="cls-7" d="M501.19,287.65c1.9.21,3.69.27,6.19.27,3.09,0,7.27-.16,9.71-.38-1.14-2.97-1.79-4.42-2.28-5.4l9.5-1.13c.27,1.73.65,2.97,1.68,5.61,5.21-.7,11.56-2,14.7-3.02l.76,7.88q-1.03.22-4.02.81c-3.15.65-3.2.7-8.63,1.56.43,1.03,1.03,2.43,1.25,2.81,7.54-1.35,10.15-1.94,12.64-2.86l.81,7.93q-1.25.16-6.67,1.29c-.05,0-2.55.43-3.26.59,2.22,3.88,3.74,6.04,6.95,9.93l-7.98,4.1c-3.2-1.67-6.67-2.37-11.4-2.37-6.02,0-9.33,1.24-9.33,3.51,0,2,2.82,2.97,8.57,2.97,6.24,0,12.91-1.29,17.25-3.35l1.25,9.12q-1.14.16-3.8.76c-5.15,1.13-10.15,1.67-15.19,1.67-8.25,0-13.78-1.73-16.44-5.13-1.25-1.62-2.01-3.83-2.01-5.94,0-3.78,2.5-7.23,6.46-8.9,3.2-1.35,6.89-2,11.61-2,2.88,0,5.05.16,7.49.65-.6-.81-1.41-2.1-2.5-3.83-4.61.59-10.85.97-18.67,1.19-3.26.11-3.42.11-4.72.27l-.38-7.99c1.57.16,2.6.22,5.59.22,5.21,0,10.42-.27,14.81-.76-.16-.43-.6-1.4-1.25-2.86-4.77.49-7.27.59-14.16.59-2.44.05-2.82.05-4.07.11l-.49-7.93Z"/>
          <path class="cls-7" d="M560.76,297.79c-2.22,4.42-4.45,7.82-7.43,11.17-2.06-3.45-2.88-4.42-5.43-7.01,4.99-4.86,9.06-13.38,9.5-20.02l8.46,2q-.65,1.83-1.09,3.29c-.27,1.08-.54,1.89-.92,3.08h6.51v-2.48c0-3.29-.11-5.4-.33-7.23h9.28c-.27,1.89-.33,3.72-.33,7.23v2.48h9.44c3.2,0,5.86-.11,8.46-.32v8.15c-2.71-.22-5.26-.32-8.19-.32h-9.71v8.09h7.98c3.04,0,5.48-.11,7.6-.32v8.15c-2.44-.22-4.67-.32-7.54-.32h-8.03v8.79h11.18c3.42,0,6.08-.11,8.63-.38v8.36c-3.09-.27-5.37-.38-8.36-.38h-31.63c-3.09,0-5.81.11-8.95.38v-8.36c2.77.27,5.48.38,8.63.38h11.88v-8.79h-6.73c-2.88,0-5.1.11-7.43.32v-8.09c2.12.22,3.96.27,7.27.27h6.89v-8.09h-9.6Z"/>
          <path class="cls-7" d="M606.56,287.65c1.9.21,3.69.27,6.19.27,3.09,0,7.27-.16,9.71-.38-1.14-2.97-1.79-4.42-2.28-5.4l9.5-1.13c.27,1.73.65,2.97,1.68,5.61,5.21-.7,11.56-2,14.7-3.02l.76,7.88q-1.03.22-4.02.81c-3.15.65-3.2.7-8.63,1.56.43,1.03,1.03,2.43,1.25,2.81,7.54-1.35,10.15-1.94,12.64-2.86l.81,7.93q-1.25.16-6.67,1.29c-.05,0-2.55.43-3.25.59,2.22,3.88,3.74,6.04,6.95,9.93l-7.98,4.1c-3.2-1.67-6.67-2.37-11.39-2.37-6.02,0-9.33,1.24-9.33,3.51,0,2,2.82,2.97,8.57,2.97,6.24,0,12.91-1.29,17.25-3.35l1.25,9.12q-1.14.16-3.8.76c-5.15,1.13-10.15,1.67-15.19,1.67-8.25,0-13.78-1.73-16.44-5.13-1.25-1.62-2.01-3.83-2.01-5.94,0-3.78,2.5-7.23,6.46-8.9,3.2-1.35,6.89-2,11.61-2,2.88,0,5.05.16,7.49.65-.6-.81-1.41-2.1-2.5-3.83-4.61.59-10.85.97-18.67,1.19-3.26.11-3.42.11-4.72.27l-.38-7.99c1.57.16,2.6.22,5.59.22,5.21,0,10.42-.27,14.81-.76-.16-.43-.6-1.4-1.25-2.86-4.78.49-7.27.59-14.16.59-2.44.05-2.82.05-4.07.11l-.49-7.93Z"/>
          <path class="cls-7" d="M674.22,281.07c.22,3.56,1.46,10.04,3.09,15.97,2.44-.86,4.02-1.4,6.24-2q5.15-1.51,7.11-2.1c1.25-.38,1.47-.43,2.22-.81l3.09,9.6c-5.37.81-12.97,2.81-19.42,5.02-6.95,2.43-10.53,5.29-10.53,8.47s3.26,4.75,10.8,4.75c4.94,0,10.96-.65,15.9-1.73.81-.16,1.36-.32,2.88-.81l.71,10.25c-1.36.05-1.95.11-4.72.43-6.02.65-9.71.92-13.67.92-7.81,0-13.29-1.13-16.88-3.4-3.09-2-4.99-5.88-4.99-10.14s2.06-8.31,5.59-11.11c1.9-1.51,3.47-2.43,6.78-4.1-1.3-4.69-1.57-5.99-3.2-14.19-.54-2.48-.6-2.81-.87-3.56l9.88-1.46Z"/>
          <path class="cls-7" d="M215.23,371.81c-3.96-3.18-6.19-4.69-10.31-7.07l4.67-6.21c4.07,2.1,6.29,3.45,9.93,6.15v-5.29c1.9.22,3.8.32,6.46.32h6.89v-4.42c-3.36.38-5.53.49-9.93.7-.65-2.97-1.25-4.48-2.77-7.23,7.81-.22,15.19-.97,21.6-2.21,4.34-.81,5.53-1.13,7.65-2.1l5.43,7.45q-.43.11-1.09.22c-3.26.86-7.05,1.51-12.48,2.27v5.34h8.3c2.71,0,4.67-.11,6.51-.32v8.31c-1.63-.22-3.64-.32-6.46-.32h-8.36v4.96h7.71c2.06,0,3.42-.05,4.45-.16-.16,1.57-.22,3.02-.22,4.8v12.73c0,2.27.11,4.21.27,5.83h-8.57v-2.27h-15.36v2.27h-8.3c.11-1.83.22-4.05.22-5.88v-12.95c0-1.62-.05-3.24-.16-4.53,1.3.11,2.55.16,4.61.16h6.95v-4.96h-6.84c-2.6,0-4.67.11-6.51.32v-2.32l-4.29,6.42ZM219.51,377.64c-1.63,5.18-2.71,8.15-4.56,12.36-.16.32-1.03,2.16-2.71,5.45l-7.22-5.99c2.5-3.02,5.05-8.47,7.76-16.46l6.73,4.64ZM211.43,344.78c4.5,2.81,6.19,3.99,9.88,7.01l-4.99,6.47c-3.64-3.24-5.75-4.8-9.98-7.5l5.1-5.99ZM229.6,385.84h15.36v-6.15h-15.36v6.15Z"/>
          <path class="cls-7" d="M268.02,365.45h-2.98c-1.36,0-2.44.05-3.91.16.11-1.73.16-3.08.16-5.56v-8.25c0-2.97-.05-3.99-.16-5.4,1.63.16,2.55.22,4.61.22h7.38c2.39,0,3.69-.05,5.1-.22-.11,1.4-.16,3.13-.16,5.56v9.06l.05,2.38v.97c0,.22,0,.54.05,1.24-.98-.11-1.68-.16-3.2-.16v4.96c1.63,0,2.17-.05,2.98-.16v1.73c2.22-2.1,3.96-4.53,5.15-7.18h-.33c-1.47,0-2.22.05-3.42.16v-5.5c.98.11,1.41.11,3.42.11h3.96v-1.51h-2.66c-1.68,0-2.93.05-4.18.11v-4.42c1.25.11,2.22.16,4.18.16h2.66v-1.46h-3.96c-1.36,0-2.28.05-3.42.16v-5.94c.98.16,2.33.22,4.34.22h5.48c2.71,0,3.36,0,4.61-.16-.11,1.03-.11,1.19-.11,4.59v8.85c0,3.08,0,3.83.11,4.75-1.57-.11-2.01-.11-4.61-.11h-2.5l4.02,1.19c-.33.59-.81,1.35-1.19,1.89h5.37c.81-1.08,1.36-2,1.84-3.08-.76.05-.92.05-1.84.11v-5.45c.87.11,1.46.11,3.58.11h4.12v-1.51h-2.77c-1.63,0-2.82.05-4.29.11v-4.42c1.3.11,2.44.16,4.29.16h2.77v-1.46h-4.12c-1.36,0-2.33.05-3.53.16v-5.94c.98.16,2.39.22,4.5.22h5.64c2.82,0,3.31,0,4.72-.16-.11,1.08-.16,2.37-.16,4.64v8.74c0,2.59.05,3.56.16,4.86-1.52-.16-2.33-.16-5.15-.16h-4.88l4.29,1.13c-.6.86-.76,1.19-1.36,1.94h2.98c2.22,0,3.31-.05,4.56-.22v5.83c-.98-.11-2.5-.16-4.56-.16h-4.56v1.67h3.69c2.5,0,3.15,0,4.07-.16v5.18c-1.14-.16-1.74-.16-4.07-.16h-3.69v1.73h3.69c2.55,0,3.2-.05,4.12-.16v5.18c-.98-.11-1.74-.16-4.12-.16h-3.69v1.73h4.4c2.88,0,4.29-.05,5.32-.22v6.8c-1.46-.22-3.74-.32-5.64-.32h-17.04v1.62h-7.92c.27-1.67.33-3.02.33-6.26v-7.88c0-1.73.05-2.86.05-3.4-.43.7-1.03,1.35-1.84,2.1-.43-1.46-.6-1.89-1.09-3.08-.6-.11-1.57-.16-2.71-.16v6.26c1.03-.27,1.79-.54,3.47-1.08l.05,7.39c-7.27,2.48-7.76,2.64-12.21,3.88-4.07,1.13-4.67,1.29-5.97,1.78l-.92-8.31c.65-.05.87-.05,1.9-.27v-13.76c0-2.21-.05-3.51-.27-4.96h5.7c-.11,1.57-.16,2.86-.16,4.86v12.73c.65-.16.87-.22,1.47-.32v-20.12ZM268.18,358.43h3.36v-4.64h-3.36v4.64ZM293.69,375v-1.67h-5.53v1.67h5.53ZM288.15,381.58h5.53v-1.73h-5.53v1.73ZM288.15,388.16h5.53v-1.73h-5.53v1.73Z"/>
          <path class="cls-7" d="M313.98,351.53c.92.05,1.63.05,2.06.05,1.41,0,3.36-.11,9.28-.49,7.81-.49,13.08-.75,23.39-1.13l5.59-.22,2.28-.11c1.85-.05,2.17-.11,2.44-.11.38,0,.6-.05,1.25-.22l.49,9.77c-.76-.11-.98-.11-1.52-.11-3.8,0-8.68,1.46-12.43,3.78-5.43,3.29-8.63,7.82-8.63,12.25,0,3.13,1.46,5.23,4.56,6.69,2.17,1.08,6.95,1.94,10.36,1.94.43,0,.81,0,1.63-.05l-1.25,10.25c-.76-.16-.92-.16-2.01-.27-6.19-.54-10.26-1.46-13.73-3.02-6.4-2.97-9.71-7.93-9.71-14.78,0-4.48,1.52-8.53,4.61-12.19,1.41-1.73,2.71-2.81,5.32-4.59l-2.55.27c-1.19.11-3.09.27-13.24,1.08-5.05.54-5.32.54-7.65,1.03l-.54-9.82ZM352.45,363.83c2.17,2.48,3.8,4.86,5.26,7.82l-5.21,2.37c-1.68-3.4-3.09-5.5-5.26-7.99l5.21-2.21ZM359.72,360.7c1.95,2.16,3.47,4.26,5.32,7.61l-5.05,2.32c-1.95-3.62-3.31-5.67-5.15-7.77l4.88-2.16Z"/>
          <path class="cls-7" d="M369.76,352.39c1.9.22,3.69.27,6.19.27,3.09,0,7.27-.16,9.71-.38-1.14-2.97-1.79-4.42-2.28-5.4l9.5-1.13c.27,1.73.65,2.97,1.68,5.61,5.21-.7,11.56-2,14.7-3.02l.76,7.88q-1.03.22-4.02.81c-3.15.65-3.2.7-8.63,1.56.43,1.03,1.03,2.43,1.25,2.81,7.54-1.35,10.15-1.94,12.64-2.86l.81,7.93q-1.25.16-6.67,1.29c-.05,0-2.55.43-3.26.59,2.22,3.88,3.74,6.04,6.95,9.93l-7.98,4.1c-3.2-1.67-6.67-2.38-11.39-2.38-6.02,0-9.33,1.24-9.33,3.51,0,2,2.82,2.97,8.57,2.97,6.24,0,12.91-1.29,17.25-3.34l1.25,9.12q-1.14.16-3.8.76c-5.15,1.13-10.15,1.67-15.19,1.67-8.25,0-13.78-1.73-16.44-5.12-1.25-1.62-2.01-3.83-2.01-5.94,0-3.78,2.5-7.23,6.46-8.9,3.2-1.35,6.89-2,11.61-2,2.88,0,5.05.16,7.49.65-.6-.81-1.41-2.1-2.5-3.83-4.61.59-10.85.97-18.67,1.19-3.26.11-3.42.11-4.72.27l-.38-7.99c1.57.16,2.6.22,5.59.22,5.21,0,10.42-.27,14.81-.76-.16-.43-.6-1.4-1.25-2.86-4.77.49-7.27.59-14.16.59-2.44.05-2.82.05-4.07.11l-.49-7.93Z"/>
          <path class="cls-7" d="M423.64,348.07c2.28.27,4.29.38,7.81.38,4.83,0,10.85-.22,16.33-.65,2.39-.16,3.09-.32,4.12-.75l4.45,6.53q-1.41.81-8.74,7.07c-2.88,2.43-3.85,3.24-7.49,5.88,3.04-.76,4.61-.97,7.43-.97,5.1,0,8.74,1.19,11.61,3.67,2.6,2.32,3.96,5.45,3.96,9.33,0,5.45-2.55,9.77-7.49,12.68-3.74,2.16-8.95,3.4-14.38,3.4-9.17,0-14.76-3.61-14.76-9.6,0-5.02,4.5-8.63,10.8-8.63,3.91,0,7.38,1.51,9.71,4.15,1.09,1.19,1.68,2.27,2.5,4.26,2.93-1.29,4.29-3.13,4.29-5.88,0-3.78-3.69-6.1-9.71-6.1s-11.83,1.78-16.71,4.96c-1.68,1.08-3.42,2.43-5.21,4.05l-5.05-8.2c4.99-2.32,16.44-11.17,23.17-17.81-2.88.32-5.05.43-12.7.81-1.47.05-2.5.16-3.58.27l-.38-8.85ZM437.1,383.25c-1.25,0-2.12.7-2.12,1.78,0,1.46,1.74,2.37,4.67,2.37.65,0,.76,0,1.79-.16-.71-2.59-2.23-3.99-4.34-3.99Z"/>
          <path class="cls-7" d="M484.63,358.6c-.33,1.4-.54,2.48-.71,3.29-1.09,5.02-2.01,8.42-3.42,12.3-1.68,4.59-2.82,6.91-5.64,11.82-2.82-2.37-5.21-3.99-7.81-5.29,3.15-4.64,5.21-9.06,6.84-14.73.92-3.18,1.46-6.04,1.84-9.77l8.9,2.37ZM498.58,345.7c-.27,1.89-.38,4.48-.38,7.66v34.15c0,3.18-.87,5.23-2.6,6.37-1.41.92-3.42,1.29-7.11,1.29-1.84,0-4.45-.11-6.57-.22-.43-3.24-1.03-5.29-2.5-8.47,3.53.43,5.26.54,7.43.54,1.79,0,2.33-.32,2.33-1.35v-32.37c0-3.08-.11-5.83-.38-7.61h9.77ZM510.46,356.17c.43,3.45,1.03,5.94,2.33,9.71,1.95,5.77,4.12,9.98,7.27,14.24-3.09,1.67-5.21,3.24-7.65,5.56-4.88-7.34-7.87-14.78-10.04-25.09-.22-.92-.27-1.19-.49-2l8.57-2.43Z"/>
          <path class="cls-7" d="M571.83,363.18c-.27.65-.33.7-.87,2.86-1.46,5.83-3.64,10.79-6.78,15.65,2.98,2.48,5.86,4.21,9.82,5.88-2.22,3.02-3.26,4.86-4.72,8.31-4.56-2.48-7.33-4.48-10.58-7.66-3.31,3.13-6.29,5.18-11.18,7.72-1.3-2.54-2.44-4.26-4.07-6.04-1.52,2.37-2.28,3.4-4.45,5.94-2.17-2.32-3.8-3.78-6.78-5.77,3.09-3.08,4.45-4.91,5.97-8.25-3.26,1.73-6.08,2.91-11.99,5.07-1.46.54-1.95.76-2.66,1.13l-1.79-8.74c1.52-.22,3.31-.65,6.02-1.46v-12.03h-1.36c-1.84,0-2.71.05-3.91.22v-7.88c1.19.16,2.01.22,3.85.22h1.41v-6.47c0-3.18-.05-4.48-.33-6.26h8.68c-.27,1.78-.33,3.02-.33,6.21v6.53h1.74c1.63,0,2.12,0,2.88-.16v7.77c-.92-.11-1.79-.16-3.26-.16h-1.36v9.23c1.41-.54,1.74-.7,3.36-1.46v5.77c.92-2.7,1.46-5.29,1.84-8.25.38-3.02.71-9.87.71-14.68,0-6.74,0-7.61-.16-9.77,1.57.16,3.36.22,6.02.22h18.12c2.71,0,4.83-.11,6.67-.32v8.42c-1.9-.22-3.91-.32-6.62-.32h-15.95v4.86h14.22c2.22,0,3.31-.05,4.34-.22l3.47,3.94ZM544.54,387.95c3.36-1.56,6.19-3.45,8.95-5.93-1.95-2.91-3.31-5.45-4.5-8.53-.92,5.94-2.28,10.25-4.45,14.46ZM554.79,366.85c1.08,3.45,2.17,5.93,4.02,8.69,1.74-2.86,2.77-5.4,3.53-8.69h-7.54Z"/>
        </g>
      </g>
    </g>
  </g>
</svg>