<?xml version="1.0" encoding="utf-8"?>
<!-- Generator: Adobe Illustrator 28.1.0, SVG Export Plug-In . SVG Version: 6.00 Build 0)  -->
<svg version="1.1" id="_レイヤー_2" xmlns="http://www.w3.org/2000/svg" xmlns:xlink="http://www.w3.org/1999/xlink" x="0px"
	 y="0px" viewBox="0 0 778.7 419.1" style="enable-background:new 0 0 778.7 419.1;" xml:space="preserve">
<style type="text/css">
	.st0{clip-path:url(#SVGID_00000023250613361729239180000007923814164174641085_);fill:#FFFFFF;}
	.st1{clip-path:url(#SVGID_00000023250613361729239180000007923814164174641085_);fill:#7A7473;}
	.st2{clip-path:url(#SVGID_00000023250613361729239180000007923814164174641085_);fill:#211715;}
	.st3{clip-path:url(#SVGID_00000023250613361729239180000007923814164174641085_);fill:#3D8DCC;}
	.st4{clip-path:url(#SVGID_00000023250613361729239180000007923814164174641085_);fill:#85807F;}
	.st5{clip-path:url(#SVGID_00000023250613361729239180000007923814164174641085_);fill:#FEBE69;}
	.st6{clip-path:url(#SVGID_00000160890667616030165780000003917767349042198953_);fill:#FFFFFF;}
	.st7{clip-path:url(#SVGID_00000160890667616030165780000003917767349042198953_);fill:#211715;}
	.st8{clip-path:url(#SVGID_00000160890667616030165780000003917767349042198953_);fill:#BD957A;}
	.st9{clip-path:url(#SVGID_00000160890667616030165780000003917767349042198953_);fill:#F2635F;}
	.st10{clip-path:url(#SVGID_00000160890667616030165780000003917767349042198953_);fill:#F8B1AF;}
	.st11{clip-path:url(#SVGID_00000160890667616030165780000003917767349042198953_);fill:#FFDA71;}
	.st12{fill:none;}
	.st13{fill:#87000C;}
	.st14{fill:#FFFFFF;}
</style>
<g>
	<defs>
		<rect id="SVGID_1_" x="565.7" width="215.3" height="257"/>
	</defs>
	<clipPath id="SVGID_00000111879458707648473140000009230580641448716680_">
		<use xlink:href="#SVGID_1_"  style="overflow:visible;"/>
	</clipPath>
	<path style="clip-path:url(#SVGID_00000111879458707648473140000009230580641448716680_);fill:#FFFFFF;" d="M767.4,347.7l-0.2-0.7
		c-6.4,0.7-15.6,1.4-22.9,1.7c0.1,1.6,0.1,2.8,0.1,2.8c0.2,5,0.1,12.5,0.4,17.4c0.2,4.4,0.6,8.7,1.2,13c0.5,2,1.8,3.8,3.6,4.8
		c0.8,0.3,1.7,0.5,2.5,0.4c1.2-0.1,2.3-0.6,3.1-1.4c1.8-2.2,1.5-5,1.4-8.3v-0.1c0.4,1,0.6,1.6,0.6,1.6c2,5.7,4.4,11.3,7.2,16.7
		c0.8,1.9,2.1,3.6,3.6,5.1c1.6,1.5,3.8,2,5.8,1.4c2.9-1.1,3.7-3.6,3.9-6.7c0.4-6.7-1.8-15-3.7-22.7
		C771.9,363.7,769.9,355.1,767.4,347.7z"/>
	<path style="clip-path:url(#SVGID_00000111879458707648473140000009230580641448716680_);fill:#7A7473;" d="M702.1,620.4
		c-0.9-0.4-1.9-0.7-2.9-1.1c-4-1.6-7.6-3.8-10.9-6.6c-2.2-1.8-6.5-6.4-7.3-8.9c-1.2-4-1.1-9.8,0.8-13.3c1.3-2.4,1.8-3.5,4.6-4
		c1.5-0.1,3.1,0.2,4.4,1.1c3.1,1.6,6.3,3,9.6,4c4.4,1.4,9.7,0.5,17.9-2.5c4.2-1.5,9.4,4.4,12.9,7.8c6.6,5.6,12.9,11.6,18.8,17.9
		c1.3,1.6,2.3,3.3,2.9,5.3c0.6,1.9,0.9,3.8,0.9,5.7c0.1,4.1-0.5,8.6-3.4,11.5c-1.7,1.5-3.8,2.6-6.1,3.1c-4.8,1.3-9.9,1.3-14.7,0
		c-9.2-2.5-16.4-9.3-22.8-16.3c-0.9-1-1.9-2-3-2.8C703.2,621,702.6,620.7,702.1,620.4z"/>
	<path style="clip-path:url(#SVGID_00000111879458707648473140000009230580641448716680_);fill:#7A7473;" d="M648.1,620.4
		c0.9-0.4,1.9-0.7,2.9-1.1c4-1.6,7.6-3.8,10.9-6.6c2.2-1.8,6.5-6.4,7.3-8.9c1.2-4,1.1-9.8-0.8-13.3c-1.3-2.4-1.8-3.5-4.6-4
		c-1.5-0.1-3.1,0.2-4.4,1.1c-3.1,1.6-6.3,3-9.6,4c-4.4,1.4-9.7,0.5-17.9-2.5c-4.2-1.5-9.4,4.4-12.9,7.8
		c-6.6,5.6-12.9,11.6-18.8,17.9c-1.3,1.6-2.3,3.3-2.9,5.3c-0.6,1.9-0.9,3.8-0.9,5.7c-0.1,4.1,0.5,8.6,3.4,11.5
		c1.7,1.5,3.8,2.6,6.1,3.1c4.8,1.3,9.9,1.3,14.7,0c9.2-2.5,16.4-9.3,22.8-16.3c0.9-1,1.9-2,3-2.8C647,621,647.5,620.7,648.1,620.4z"
		/>
	<path style="clip-path:url(#SVGID_00000111879458707648473140000009230580641448716680_);fill:#211715;" d="M648.9,623.5
		c3.6-1.3,7.1-3,10.4-4.9c2.8-1.8,5.4-3.9,7.7-6.3c2.2-2.1,4-4.7,5.2-7.5c1-3.5,1.2-7.3,0.5-10.9c-0.4-3.2-1.9-6.1-4.2-8.4
		c-2.8-2.2-6.6-2.6-9.7-1c-5.5,2.5-10.5,5.6-16.7,4.4c-1.6-0.3-3.1-0.7-4.6-1.1c-1.9-0.8-3.9-1.4-5.9-1.8c-3.3-0.5-6.2,1.3-8.7,3.3
		c-2.7,2.1-5,4.7-7.6,7c-3.1,2.8-6.3,5.5-9.4,8.4c-3.1,2.8-6,5.8-8.6,9.1c-2.4,3.4-3.7,7.3-3.8,11.4c-0.3,3.7,0.3,7.3,1.7,10.7
		c1.7,3.4,4.6,6,8.2,7.1c8.7,3.2,18.7,1.5,26.6-3c3.8-2.2,7.2-4.9,10.4-8c1.5-1.4,2.9-2.9,4.3-4.4c1.4-1.8,3.1-3.2,5-4.3
		c1.5-0.9,2-2.8,1.1-4.3c-0.9-1.5-2.8-2-4.3-1.1c-3.2,1.5-5.3,4.3-7.6,6.8c-2.2,2.4-4.6,4.6-7.2,6.7c-5,4.3-11.4,6.8-18,7.1
		c-3.4,0.2-6.8-0.5-9.9-2c-2.3-1.4-3.8-3.9-4-6.7c-0.5-3.2-0.2-6.5,1-9.6c1.3-3,3.9-5.4,6.2-7.7c5-5,10.6-9.4,15.6-14.4
		c1.8-2.1,3.9-3.8,6.3-5.3c2.3-1.2,4.7,0.4,7,1.1c5.2,1.5,10.6,2.4,15.8,0.6c3-1,5.9-2.2,8.7-3.7c1.7-0.9,3.4-1.6,4.5,0.1
		c1.5,2.6,2.2,5.6,1.9,8.6c-0.1,2.7-1.2,5.2-3.1,7.1c-2,2.3-4.3,4.3-6.7,6c-3,2-6.3,3.6-9.7,4.8c-1.6,0.5-2.6,2.2-2.2,3.9
		C645.5,622.9,647.3,623.9,648.9,623.5z"/>
	<path style="clip-path:url(#SVGID_00000111879458707648473140000009230580641448716680_);fill:#211715;" d="M702.9,617.4
		c-3-1.1-5.9-2.5-8.6-4.1c-2.3-1.5-4.4-3.2-6.3-5.1c-1.7-1.6-3.1-3.5-4.1-5.6c-0.7-2.7-0.8-5.4-0.2-8.1c0.4-1.6,1.2-4.4,3-4.7
		c1.1,0,2.1,0.3,3,1c1.2,0.6,2.4,1.2,3.6,1.7c2.7,1.3,5.6,2.3,8.6,2.9c2.6,0.3,5.2,0.2,7.8-0.3c1.4-0.3,2.9-0.6,4.3-1
		c1.7-0.7,3.4-1.2,5.2-1.7c1.9-0.3,3.8,1.6,5.1,2.7c2.3,2,4.4,4.2,6.6,6.2c2.7,2.4,5.4,4.8,8,7.2c4.9,4.6,10.9,9.3,11.4,16.4
		c0.4,2.9,0,5.9-1.2,8.7c-1.4,2.8-4.4,3.7-7.3,4.3c-7.7,1.6-15.2-0.8-21.5-5.2c-3-2.1-5.7-4.5-8.2-7.2c-2.7-2.7-5-6-8.5-7.7
		c-1.5-0.8-3.4-0.3-4.3,1.1c-0.9,1.5-0.4,3.4,1.1,4.3c3.4,1.6,5.8,5.3,8.4,7.9c2.7,2.7,5.7,5.2,8.9,7.4c6.7,4.7,14.8,6.8,22.9,5.9
		c4.1-0.3,8.1-1.8,11.3-4.3c2.5-2.4,4.1-5.7,4.5-9.1c0.7-4.1,0.4-8.2-0.9-12.1c-1.6-3.8-3.9-7.1-6.9-9.9
		c-5.6-5.8-11.8-10.7-17.5-16.3c-2.3-2.6-5.1-4.6-8.2-6.1c-3.5-1.4-6.5,0.1-9.9,1.1c-2.9,1-5.9,1.5-8.9,1.5
		c-3.1-0.4-6.2-1.3-8.9-2.8c-3-1.3-5.8-3.4-9.2-2.8c-3.1,0.5-5.7,2.6-6.9,5.5c-1.7,3.6-2.4,7.6-1.9,11.6c0.4,3.6,1.9,7.1,4.3,9.8
		c2.4,2.8,5.2,5.3,8.3,7.4c3.6,2.3,7.4,4.2,11.4,5.7c1.7,0.5,3.4-0.5,3.9-2.2C705.5,619.6,704.5,617.9,702.9,617.4z"/>
	<path style="clip-path:url(#SVGID_00000111879458707648473140000009230580641448716680_);fill:#FFFFFF;" d="M621.1,554
		c-2.4-65.6-4.1-128.6-7-197.4c10,0.7,29.9,0.8,34.9,0.7c5.7,0,11.2-1.9,15.8-5.3c4.1-3.4,5.8-8.7,7.3-13.7c0.9-3,1.9-10,2.6-13.4
		c0.6,3.4,1.7,10.4,2.6,13.4c1.6,5,3.3,10.2,7.3,13.7c4.6,3.4,10.1,5.3,15.8,5.3c4.8,0.1,24.8-0.2,35.4-0.9
		c-3.2,79.2-5,150.6-8.1,227.2c-7.8,2.3-15.9,3.6-24,3.7c-8.7-0.1-22.4-0.8-28.8-2.5c-6.4,1.6-20.1,2.4-28.8,2.5
		c-8.1-0.1-16.2-1.4-24-3.7C621.8,573.6,621.4,563.8,621.1,554z"/>
	<path style="clip-path:url(#SVGID_00000111879458707648473140000009230580641448716680_);fill:#211715;" d="M732.8,354.3
		c-1.2,30.2-2.4,60.5-3.3,90.7c-1,29.4-2,58.8-3,88.2c-0.6,16.8-1.2,33.5-1.9,50.3l2.3-3c-8.7,2.6-17.8,3.8-26.8,3.5
		c-8-0.2-16.5-0.3-24.3-2.3c-3.9-1-5.6,5.1-1.7,6.1c8.4,2.1,17.4,2.3,26,2.5c9.6,0.3,19.3-1,28.5-3.7c1.3-0.4,2.3-1.6,2.3-3
		c1.2-29.6,2.3-59.2,3.2-88.8c1-29.6,2-59.1,3-88.7c0.6-17.2,1.3-34.5,2-51.7C739.3,350.2,733,350.2,732.8,354.3L732.8,354.3z"/>
	<path style="clip-path:url(#SVGID_00000111879458707648473140000009230580641448716680_);fill:#211715;" d="M610.9,354.3
		c1.2,30.2,2.4,60.5,3.3,90.7c1,29.4,2,58.8,3,88.2c0.6,16.8,1.2,33.5,1.9,50.3c0,1.4,1,2.6,2.3,3c9.2,2.8,18.9,4.1,28.5,3.7
		c8.6-0.2,17.6-0.4,26-2.5c3.9-1,2.3-7.1-1.7-6.1c-7.8,2-16.3,2.1-24.3,2.3c-9.1,0.3-18.1-0.9-26.8-3.5l2.3,3
		c-1.2-29.6-2.3-59.2-3.2-88.8c-1-29.6-2-59.1-3-88.7c-0.6-17.2-1.3-34.5-2-51.7C617,350.2,610.7,350.2,610.9,354.3L610.9,354.3z"/>
	<path style="clip-path:url(#SVGID_00000111879458707648473140000009230580641448716680_);fill:#211715;" d="M671.8,373.9v210.5
		c0,4.1,6.3,4.1,6.3,0V373.9C678.1,369.9,671.8,369.9,671.8,373.9z"/>
	<path style="clip-path:url(#SVGID_00000111879458707648473140000009230580641448716680_);fill:#3D8DCC;" d="M767.3,347
		c0.5-0.1,0.9-0.1,1.3-0.2c2-0.1,3.9-0.9,5.4-2.2c1.1-1.3,1.6-2.9,1.5-4.6c-1.2-17.4-6.8-104.8-9.1-128.7
		c-1.4-15.2-3.7-25.1-9.8-32.8c-7.5-9.3-21.4-16.3-38.7-23.3c-4.2-4.1-8.8-7.7-13.7-10.8c-4.5,20.1-10.4,41.6-16.8,61.1
		c-5,15.2-6.4,19.9-13.3,36.6c-6.8-16.8-8.3-21.4-13.3-36.6c-6.4-19.5-12.3-41-16.8-61.1c-3.7,2.4-7.1,5-10.4,7.8l-5.9,2.4
		c-6,2.5-12.6,3.3-18.3,6.3c-3.5,1.7-6.7,3.9-9.6,6.6c-3.4,3.5-5.4,8-7.3,12.5c-9.1,21.8-16.3,44.3-21.3,67.4
		c-1.7,7.7-3.2,15.6-2,23.4c1.1,7.8,5.2,15.6,12.2,19.2c6,3.1,12.9,2.7,19.5,0.6l10.2-3.8c-0.7,27.8-1.3,54.8-1.4,69.3
		c6.3,1.1,33.4,1.3,39.3,1.1c5.7,0,11.2-1.9,15.8-5.3c4.1-3.4,5.8-8.7,7.3-13.7c0.9-3,1.9-10,2.6-13.4c0.6,3.4,1.7,10.4,2.6,13.4
		c1.6,5,3.3,10.2,7.3,13.7c4.6,3.4,10.1,5.3,15.8,5.3c6.1,0.2,36.4-0.4,41.4-1.6c0-2,0-4.3-0.1-6.8l2.4-0.1
		C751.6,348.4,760.9,347.7,767.3,347z"/>
	<path style="clip-path:url(#SVGID_00000111879458707648473140000009230580641448716680_);fill:#FFFFFF;" d="M720,75.5
		c1.4-1.3,3.2-2,5.1-1.9c2.4-0.1,4.7,1.2,5.9,3.3c2,3.5,1.9,9.9,0.6,13.9c-1.1,3.9-3.3,7.5-6.3,10.2c-1.7,1.4-3.9,2-6,1.7l-0.6-0.1
		c-0.6,1.9-1.3,3.8-2.1,5.6c-1.6,4.3-10.4,19.5-21.5,24.8v3.2c-0.9,0.7-18.2,14.4-19.5,15.3h-3.1c-1.3-0.9-18.7-14.6-19.5-15.3v-3.9
		c-4.8-2.7-9-6.2-12.4-10.5c-4.7-5.7-8.2-12.2-10.2-19.3c-2.3,0.5-4.7-0.1-6.5-1.6c-3-2.7-5.2-6.3-6.3-10.2
		c-1.3-4-1.4-10.4,0.6-13.9c1.2-2.1,3.5-3.4,5.9-3.3c1.9-0.1,3.7,0.6,5.1,1.9c0,0-3.7-38.1,42.7-38.1C718.4,37.4,720,75.5,720,75.5z
		"/>
	<path style="clip-path:url(#SVGID_00000111879458707648473140000009230580641448716680_);fill:#85807F;" d="M664.2,4
		c-8,1.4-15.6,4.6-22.1,9.5c-13.7,9.9-22,25.6-22.5,42.5c-0.2,6.1,0.6,12.1,2.2,17.9c0.7-0.2,1.5-0.3,2.2-0.4
		c1.9-0.1,3.7,0.6,5.1,1.9l7.2-6.1c5.4-6.1,15.1-15.2,21.8-18.8c0.8-0.4,1.8,0.1,2.1,1.5c0.3,1,0.3,2.1,0.2,3.2
		c-0.2,0.9,0.4,1.8,1.3,1.9c0.3,0.1,0.7,0,1-0.1c4.8-2.7,13.4-8.1,19.5-10.6c3-0.2,6.1,0.2,9,1.1c3,1.3,5.9,3,8.3,5.2
		c5.5,4.7,10.7,11.2,13,17l7.2,5.7c1.4-1.3,3.2-2,5.1-1.9c0.7,0,1.4,0.1,2,0.3c1.7-5.8,2.4-11.8,2.2-17.9
		c-0.9-21.5-11.7-34.8-22.2-42.4c-9.4-7-20.9-10.7-32.7-10.5C671.1,3.1,667.6,3.4,664.2,4z"/>
	<path style="clip-path:url(#SVGID_00000111879458707648473140000009230580641448716680_);fill:#FFFFFF;" d="M673.1,239.8
		c-6-14.9-7.6-19.8-12.3-34.3c-5.8-17.9-11.3-37.5-15.7-56.1c-0.3-1.9,0.2-3.8,1.4-5.3c2-2.3,4.4-5.6,6.4-7.8
		c0.8,0.7,18.2,14.4,19.5,15.3h3.1c1.3-0.9,18.7-14.6,19.5-15.3c2,2.2,4.5,5.5,6.4,7.8c1.2,1.5,1.8,3.4,1.4,5.3
		c-4.4,18.6-9.8,38.2-15.7,56.1c-4.7,14.5-6.3,19.4-12.3,34.3L673.1,239.8z"/>
	<path style="clip-path:url(#SVGID_00000111879458707648473140000009230580641448716680_);fill:#FEBE69;" d="M667.9,226.4
		c1.4,3.8,3,7.9,5.2,13.4h1.9c5.5-13.7,7.3-18.9,11.2-31c-1.9-16.3-4.4-35.7-4.4-36.2c0-1,0.2-2.1,0.5-3c0.1-0.5,0.2-0.9,0.3-1.4
		c0.5-2.3,0.6-3.4,1.2-5.8l0-0.1c-2.8-3.8-6.2-8.3-8.2-10.6h-3.1c-2,2.3-5.4,6.7-8.2,10.5c0.2,0.4,0.3,0.7,0.3,0.7
		c0.6,1.5,1.1,3.1,1.4,4.7c0.6,1.7,1,3.5,1.1,5.4c0,1-2.6,19.3-5.1,36.6C664.4,216.3,665.9,221,667.9,226.4z"/>
	<path style="clip-path:url(#SVGID_00000111879458707648473140000009230580641448716680_);fill:#211715;" d="M628,163.4
		c2-3.4,4.7-6.5,7.8-8.9c3.1-2.7,6.4-5.1,9.8-7.3l-4.6-1.9c5.9,26.1,13.3,51.9,22.1,77.1c2.1,6.1,4.5,12.2,7,18.2
		c0.5,1.6,2.2,2.6,3.9,2.2c1.7-0.5,2.7-2.2,2.2-3.9c-9.3-23.4-17.1-47.4-23.3-71.8c-2.1-7.8-4-15.7-5.8-23.5
		c-0.5-1.7-2.2-2.7-3.9-2.2c-0.2,0.1-0.5,0.2-0.7,0.3c-3.9,2.5-7.6,5.3-11.1,8.3c-3.5,2.8-6.5,6.3-8.8,10.2
		C620.8,163.9,626.2,167.1,628,163.4L628,163.4z"/>
	<path style="clip-path:url(#SVGID_00000111879458707648473140000009230580641448716680_);fill:#211715;" d="M661,238.8
		c-2-3.4-3.9-6.8-5.9-10.2c-0.9-1.5-2.8-2-4.3-1.1c-1.5,0.9-2,2.8-1.1,4.3c2,3.4,3.9,6.8,5.9,10.2c0.9,1.5,2.8,2,4.3,1.1
		C661.3,242.3,661.8,240.3,661,238.8z"/>
	<path style="clip-path:url(#SVGID_00000111879458707648473140000009230580641448716680_);fill:#211715;" d="M681.2,167.6
		c-4.5,0-9-0.1-13.6-0.1c-1.7,0-3.2,1.4-3.2,3.2s1.4,3.2,3.2,3.2c4.5,0,9,0.1,13.6,0.1c1.7,0,3.2-1.4,3.2-3.2
		C684.4,169.1,683,167.6,681.2,167.6z"/>
	<path style="clip-path:url(#SVGID_00000111879458707648473140000009230580641448716680_);fill:#211715;" d="M680.8,161.5
		c-0.6,2.4-1,4.8-1.5,7.2c-0.4,1.4-0.6,2.8-0.5,4.2c0.2,2.4,0.6,4.9,0.9,7.3c1.2,9.6,2.4,19.1,3.5,28.7c0.1,1.7,1.4,3.1,3.2,3.2
		c1.7,0,3.1-1.4,3.2-3.2c-1.1-9.4-2.3-18.8-3.4-28.2c-0.3-2.5-0.7-5-0.9-7.5c-0.1-1,0-1.9,0.3-2.8c0.5-2.4,0.9-4.8,1.5-7.2
		C687.8,159.2,681.7,157.6,680.8,161.5L680.8,161.5z"/>
	<path style="clip-path:url(#SVGID_00000111879458707648473140000009230580641448716680_);fill:#211715;" d="M665.3,209.5
		c1.4-9.6,2.7-19.1,4.1-28.7c0.3-2.5,0.8-5,1-7.4c0-1.6-0.2-3.2-0.6-4.7c-0.6-2.5-1.4-5-2.3-7.4c-0.9-1.5-2.8-2-4.3-1.1
		c-1.5,0.9-2,2.8-1.1,4.3c0.8,2.1,1.4,4.3,1.9,6.6c0.2,0.9,0.3,1.8,0.2,2.7c-0.3,2.4-0.6,4.5-0.9,6.9c-1.3,9.1-2.6,18.1-3.9,27.2
		c-0.4,1.7,0.6,3.4,2.2,3.9C663.1,212.2,664.8,211.2,665.3,209.5L665.3,209.5z"/>
	<path style="clip-path:url(#SVGID_00000111879458707648473140000009230580641448716680_);fill:#211715;" d="M650.8,134.1
		c-1.7,1.9-3.3,3.9-4.9,5.9c-1.7,1.7-3,3.8-3.8,6.1c-0.8,3.3,0.6,5.7,2.3,8.3c2,3.1,4.1,6,6.4,8.9c2.1,2.9,4.6,5.4,7.5,7.5
		c1.5,0.8,3.4,0.3,4.3-1.1c4-5.3,7.7-10.9,12.1-15.9c1.2-1.3,1.2-3.3-0.1-4.5c-0.2-0.2-0.3-0.3-0.5-0.4c-0.4-0.3-0.8-0.6-1.2-0.9
		c0.8,0.6-0.4-0.3-0.7-0.5l-1.2-0.9c-2.1-1.7-4.3-3.4-6.4-5c-3.2-2.5-6.3-4.9-9.5-7.5C654,132.9,652.1,132.9,650.8,134.1
		c-1.2,1.2-1.2,3.2,0,4.4c6.6,5.3,13.2,10.8,20.2,15.8l-0.6-4.9c-4.8,5.4-8.8,11.4-13.1,17.1l4.3-1.1c-1-0.7-1.9-1.5-2.7-2.4
		c-1.1-1.1-2.1-2.3-3-3.5c-1.9-2.4-3.7-4.9-5.4-7.5c-0.6-0.9-1.2-1.8-1.8-2.8c-0.2-0.3-0.4-0.6-0.5-0.8c-0.1-0.1-0.1-0.2-0.1-0.3
		c0.2,0.8,0.2-0.3,0.2-0.3c0.2-0.7,0.5-1.3,0.9-1.9c0.6-0.8,1.3-1.5,1.9-2.3c1.4-1.7,2.8-3.5,4.2-5.1
		C658,135.5,653.5,131.1,650.8,134.1z"/>
	<path style="clip-path:url(#SVGID_00000111879458707648473140000009230580641448716680_);fill:#211715;" d="M692.7,242
		c7.5-13.1,15-26.2,22.2-39.4c3.5-6.5,7-13,10.4-19.6c1-1.5,1.6-3.1,1.8-4.9c-0.1-1.7-0.9-3.2-2.1-4.4c-2.6-2.9-5.4-5.5-8.2-8.1
		l-0.6,5l5.9-3.4c1.8-1,4.2-2.1,4.2-4.5c0.1-3-3-6.2-4.9-8.3c-4.6-4.9-9.9-9.1-15.6-12.7c-1.5-0.9-3.5-0.3-4.3,1.2
		c-0.1,0.2-0.2,0.5-0.3,0.7c-5.9,26.1-13.3,51.9-22.1,77.1c-2.1,6.1-4.5,12.2-7,18.2c-0.5,1.7,0.5,3.4,2.2,3.9
		c1.7,0.4,3.4-0.6,3.9-2.2c9.3-23.4,17.1-47.4,23.3-71.8c2.1-7.8,4-15.7,5.8-23.5l-4.6,1.9c3.4,2.2,6.7,4.7,9.8,7.3
		c1.6,1.4,3.2,2.9,4.7,4.5c0.6,0.7,1.2,1.4,1.7,2.1c0.2,0.3,0.4,0.6,0.6,1c0.2,0.3,0.5,1.4,0.5,0.6l0.4-1.6l-0.3,0.4l1.1-1.1
		c-2.6,1.8-5.5,3.2-8.3,4.8c-1.5,0.9-2,2.9-1.1,4.4c0.1,0.2,0.3,0.4,0.5,0.6c2.5,2.3,4.9,4.6,7.2,7.1c0.3,0.3,0.7,0.7,1,1
		c0.4,0.6,0.5,0.5,0.3-0.3c-0.2,0.7-0.6,1.3-1,1.9c-0.8,1.5-1.5,3-2.3,4.4c-3.2,6.2-6.5,12.3-9.9,18.4
		c-6.7,12.1-13.5,24.2-20.4,36.2C685.2,242.4,690.6,245.5,692.7,242L692.7,242z"/>
	<path style="clip-path:url(#SVGID_00000111879458707648473140000009230580641448716680_);fill:#211715;" d="M692.9,138.6
		c1.5,1.7,2.8,3.4,4.2,5.1c1.2,1.2,2.1,2.6,2.8,4.1c0,0.1,0.1,0.9,0.1,0.5c0-0.2,0-0.1,0,0.1c-0.2,0.3-0.3,0.6-0.5,0.9
		c-0.6,0.9-1.2,1.9-1.8,2.8c-1.6,2.5-3.4,5-5.2,7.3c-1,1.2-2,2.5-3.2,3.6c-0.5,0.5-1,1-1.5,1.4c-0.2,0.2-0.5,0.4-0.7,0.6
		c0.5-0.4-0.4,0.3-0.5,0.3l4.3,1.1c-4.3-5.7-8.3-11.7-13.1-17.1l-0.6,4.9c6.9-5,13.5-10.5,20.2-15.8c1.2-1.2,1.2-3.2,0-4.5
		c-1.2-1.2-3.2-1.2-4.5,0c-3.1,2.5-6.3,5-9.5,7.5c-2.1,1.7-4.3,3.4-6.4,5l-1.2,0.9c-0.2,0.2-1.5,1.2-0.7,0.5
		c-0.4,0.3-0.8,0.6-1.2,0.9c-1.5,0.9-2,2.9-1,4.4c0.1,0.2,0.3,0.4,0.4,0.5c4.4,5,8.1,10.5,12.1,15.9c0.9,1.5,2.8,2,4.3,1.1
		c2.9-2.1,5.4-4.6,7.5-7.5c2.2-2.9,4.4-5.8,6.3-8.9c1.7-2.6,3.2-5,2.3-8.3c-0.8-2.3-2.1-4.4-3.8-6.1c-1.6-2-3.2-4-4.9-5.9
		C694.7,131.1,690.2,135.5,692.9,138.6z"/>
	<path style="clip-path:url(#SVGID_00000111879458707648473140000009230580641448716680_);fill:#211715;" d="M665.8,114.5
		c2.9,1.5,6.1,2.2,9.3,2.2c3.4,0.1,6.8-0.9,9.6-2.9c1.2-1.2,1.2-3.2,0-4.5c-1.3-1.2-3.2-1.2-4.5,0c1.1-0.8-0.1,0-0.4,0.2
		c-0.3,0.1-1,0.4,0,0c-0.3,0.1-0.5,0.2-0.8,0.3c-0.3,0.1-0.7,0.2-1,0.3c-0.4,0-0.8,0.1-1.1,0.2c0.3-0.1,0.5-0.1,0,0
		c-0.2,0-0.4,0-0.6,0.1c-0.5,0-1,0-1.5,0c-0.5,0-0.9,0-1.4,0c-0.2,0-0.4,0-0.6-0.1c-0.1,0-0.2,0-0.4,0c-0.2,0-0.2,0,0.3,0
		c-0.2,0.1-0.8-0.1-1-0.2c-0.3-0.1-0.6-0.2-1-0.3c-0.3-0.1-0.5-0.2-0.8-0.3c-0.7-0.2,0.7,0.3,0,0c-0.3-0.2-0.7-0.3-1-0.5
		c-1.5-0.9-3.4-0.4-4.3,1.1C663.8,111.7,664.3,113.7,665.8,114.5L665.8,114.5L665.8,114.5z"/>
	<path style="clip-path:url(#SVGID_00000111879458707648473140000009230580641448716680_);fill:#211715;" d="M673.1,93.1
		c0.4,1.5,0.7,3,1,4.5l-0.1-0.8c0,0.2,0,0.4,0,0.6l0.1-0.8c0,0.1,0,0.2-0.1,0.3l0.3-0.8c0,0.1-0.1,0.1-0.1,0.2l0.5-0.6
		c0,0.1-0.1,0.1-0.1,0.1l0.6-0.5c-0.1,0.1-0.2,0.1-0.4,0.2l0.8-0.3c-0.2,0.1-0.4,0.1-0.6,0.2l0.8-0.1c-0.2,0-0.4,0-0.6,0l0.8,0.1
		c-0.2,0-0.4-0.1-0.6-0.1c-0.4-0.1-0.8-0.2-1.3-0.1c-0.4,0-0.8,0.1-1.2,0.4c-1.5,0.9-2,2.8-1.1,4.3c0,0,0,0,0,0
		c0.4,0.7,1.1,1.2,1.9,1.4c0.6,0.1,1.1,0.2,1.7,0.2c0.9,0,1.8-0.2,2.6-0.6c1-0.5,1.8-1.4,2.1-2.5c0.2-0.9,0.2-1.8,0-2.6
		c-0.2-1.4-0.6-2.9-1-4.3c-0.5-1.7-2.2-2.7-3.9-2.2c0,0,0,0,0,0c-0.8,0.2-1.5,0.7-1.9,1.4C673.1,91.4,672.9,92.2,673.1,93.1
		L673.1,93.1z"/>
	<path style="clip-path:url(#SVGID_00000111879458707648473140000009230580641448716680_);fill:#211715;" d="M650.1,80.1
		c-0.8,2.4-0.3,8.1,4.4,8.5c6.1,0,6.4-6.8,4.4-10C657.1,76,652.2,74.9,650.1,80.1z"/>
	<path style="clip-path:url(#SVGID_00000111879458707648473140000009230580641448716680_);fill:#211715;" d="M699.2,80.1
		c0.8,2.4,0.3,8.1-4.4,8.5c-6.1,0-6.4-6.8-4.4-10C692.2,76,697.1,74.9,699.2,80.1z"/>
	<path style="clip-path:url(#SVGID_00000111879458707648473140000009230580641448716680_);fill:#211715;" d="M631.5,73.3
		c-3.2-2.9-7.9-3.6-11.9-1.8c-2.8,1.4-4.7,4-5.4,7c-1.7,7.1-0.3,14.5,3.8,20.5c2.7,4,6.9,7.5,12,6.9c1.7-0.1,3.1-1.4,3.2-3.2
		c0-1.7-1.4-3.1-3.2-3.2c-3.6,0.5-6-2.5-7.5-5.4c-1.4-2.4-2.2-5.1-2.6-7.9c-0.4-2.8,0-5.7,1.4-8.3c-0.5,0.8,0.8-0.7,0.4-0.4
		c0.4-0.4,1-0.6,1.5-0.7c1.3-0.4,2.8-0.1,3.9,0.8C630,80.4,634.5,76,631.5,73.3z"/>
	<path style="clip-path:url(#SVGID_00000111879458707648473140000009230580641448716680_);fill:#211715;" d="M722.3,77.7
		c1-0.8,2.4-1.2,3.7-0.9c0.6,0.1,1.2,0.3,1.7,0.7c-0.4-0.3,0.9,1.2,0.4,0.4c0.6,1,1.1,2.2,1.2,3.3c0.3,1.6,0.3,3.3,0.1,4.9
		c-0.3,2.8-1.2,5.5-2.5,7.9c-1.6,2.9-3.9,5.9-7.5,5.4c-1.7,0-3.1,1.4-3.2,3.2c0,1.7,1.4,3.1,3.2,3.2c8.3,1.1,13.4-7.9,15.5-14.6
		c1.9-6,1.8-15.4-4.1-19.2c-4.1-2.5-9.3-2-12.9,1.2C714.8,76,719.2,80.4,722.3,77.7L722.3,77.7z"/>
	<path style="clip-path:url(#SVGID_00000111879458707648473140000009230580641448716680_);fill:#211715;" d="M716.6,98.5
		c-0.5,2.3-1.2,4.7-2.1,6.9c-0.3,0.8-0.6,1.3-0.9,2.2c-0.3,0.8,0.2-0.4-0.1,0.1c-0.1,0.2-0.2,0.4-0.3,0.6c-1.4,2.9-3.1,5.7-5,8.4
		c-4.4,6.2-10.4,13-18.1,14.8c-3.9,0.9-2.3,7,1.7,6.1c9.1-2.1,16.1-9.8,21.4-17.1c2.1-2.8,3.9-5.8,5.5-9c0.3-0.7,0.6-1.4,0.9-2
		c0.3-0.8-0.2,0.5,0.1-0.3c0.2-0.5,0.5-1.1,0.7-1.6c1-2.4,1.8-4.9,2.3-7.5C723.5,96.2,717.4,94.5,716.6,98.5L716.6,98.5z"/>
	<path style="clip-path:url(#SVGID_00000111879458707648473140000009230580641448716680_);fill:#211715;" d="M626.5,100
		c3.9,17.2,16.8,35.9,35.4,38.7c1.7,0.4,3.4-0.6,3.9-2.2c0.4-1.7-0.5-3.4-2.2-3.9c-16.5-2.5-27.5-19-31-34.3
		C631.7,94.3,625.6,96,626.5,100L626.5,100z"/>
	<path style="clip-path:url(#SVGID_00000111879458707648473140000009230580641448716680_);fill:#211715;" d="M706.4,9.3
		C689.6-1.4,668.6-3,650.3,5c-14.7,6.7-25.9,19.2-30.9,34.6c-3.5,11.2-3.7,23.1-0.7,34.4c1,3.9,7.1,2.3,6.1-1.7
		c-4.2-16.5-1.2-34.4,9.9-47.5c17.1-20.1,46.4-24.4,68.5-10C706.6,17,709.8,11.5,706.4,9.3L706.4,9.3z"/>
	<path style="clip-path:url(#SVGID_00000111879458707648473140000009230580641448716680_);fill:#211715;" d="M730.4,74
		c3-11.7,2.7-24-1-35.4c-3-8.9-8.3-17-15.3-23.3c-3-2.7-7.5,1.7-4.5,4.5c6.2,5.6,10.9,12.7,13.7,20.5c3.4,10.4,3.8,21.5,1,32.1
		C723.4,76.2,729.4,77.9,730.4,74z"/>
	<path style="clip-path:url(#SVGID_00000111879458707648473140000009230580641448716680_);fill:#211715;" d="M689.9,50.3
		c4.4,2,8.3,4.9,11.6,8.4c1.7,1.8,3.3,3.7,4.8,5.7c0.7,1.1,1.4,2.1,2.1,3.3c0.3,0.5,0.6,1,0.8,1.5c0.2,0.3,0.3,0.6,0.4,0.9
		c0.1,0.1,0.2,0.3,0.2,0.5c0.5,1.6,2.2,2.6,3.9,2.2c1.7-0.5,2.7-2.2,2.2-3.9c-2.3-5.4-5.6-10.3-9.7-14.5c-3.7-4.1-8.1-7.4-13.1-9.7
		c-1.5-0.8-3.4-0.3-4.3,1.1C687.9,47.5,688.4,49.4,689.9,50.3L689.9,50.3z"/>
	<path style="clip-path:url(#SVGID_00000111879458707648473140000009230580641448716680_);fill:#211715;" d="M638.7,71.6
		c3.6-4,7.5-7.8,11.6-11.3c1.8-1.6,3.8-3.1,5.8-4.6c1-0.6,2-1.2,3-1.9c1.1-0.5,0.5-0.7-1.7-0.9c0.1,0.2,0.1,0.5,0.1,0.7
		c-0.1,0.5-0.1,1,0,1.6c-0.1,2.7,2,4.9,4.6,5.1c0.3,0,0.6,0,0.9,0c2.2-0.4,4.5-2.2,6.4-3.3c4.7-2.9,9.6-5.5,14.6-7.8
		c1.5-0.9,2-2.8,1.1-4.3c-0.9-1.5-2.8-2-4.3-1.1c-5,2.3-9.9,4.9-14.6,7.8c-1.1,0.6-2.2,1.3-3.2,1.9l-0.8,0.5
		c-1.1,0.5-0.5,0.9,1.6,1.4c0.1-0.5,0.1-1,0.1-1.4c-0.1-2.9-1.4-6.3-4.8-6.5c-2.3-0.1-4.7,1.9-6.5,3.2c-2.3,1.6-4.5,3.4-6.6,5.2
		c-4.1,3.5-7.9,7.3-11.6,11.3C631.6,70.2,636,74.6,638.7,71.6L638.7,71.6z"/>
	<path style="clip-path:url(#SVGID_00000111879458707648473140000009230580641448716680_);fill:#211715;" d="M735.4,205.2
		c0.3,18.2,0.8,36.3,1.3,54.5c0.6,22.1,1.2,44.2,1.6,66.4c0.2,9.4,0.4,18.8,0.4,28.3c0,4.1,6.3,4.1,6.3,0
		c-0.1-18.8-0.6-37.5-1.1-56.3c-0.5-22-1.2-43.9-1.7-65.9c-0.2-9-0.4-18-0.6-27C741.6,201.1,735.3,201.1,735.4,205.2L735.4,205.2z"
		/>
	<path style="clip-path:url(#SVGID_00000111879458707648473140000009230580641448716680_);fill:#211715;" d="M610.8,359.4
		c10.1,1.2,20.5,1,30.7,1c4.9,0.3,9.9-0.1,14.7-1c7.3-1.5,13.4-6.4,16.4-13.3c2.9-6.6,3.8-13.4,5.2-20.4h-6.1
		c1.2,6.4,2,12.7,4.5,18.8c1.3,3.7,3.4,6.9,6.3,9.6c3.1,2.5,6.6,4.3,10.5,5.2c5,1,10.1,1.4,15.2,1c5.7-0.1,11.5-0.2,17.2-0.4
		c5.4-0.1,10.9-0.4,16.3-1.1c1.7-0.5,2.7-2.2,2.2-3.9c-0.5-1.7-2.2-2.6-3.9-2.2c0.9-0.1-0.3,0-0.5,0c-0.4,0-0.8,0.1-1.2,0.1
		c-1,0.1-2.1,0.2-3.1,0.2c-2.5,0.2-5,0.3-7.5,0.4c-5.5,0.2-11.1,0.4-16.6,0.4c-3.9,0.1-8,0.3-11.9,0c-3.5-0.2-6.9-1.2-10-2.8
		c-2.9-1.7-5.2-4.3-6.5-7.4c-2.9-6.2-3.7-13.1-4.9-19.7c-0.6-3-5.5-3-6.1,0c-0.8,5.6-2.1,11.1-3.6,16.5c-0.9,3.1-2.5,5.9-4.6,8.3
		c-2.5,2.3-5.6,3.8-8.9,4.5c-4.2,0.8-8.6,1-12.9,0.8c-5.2,0-10.4-0.1-15.6-0.2c-5.1-0.1-10.2-0.2-15.3-0.8c-1.7,0-3.1,1.4-3.2,3.2
		C607.7,358,609.1,359.4,610.8,359.4L610.8,359.4z"/>
	<path style="clip-path:url(#SVGID_00000111879458707648473140000009230580641448716680_);fill:#211715;" d="M717,158.3
		c10.1,4.1,20.3,8.4,29.2,14.8c6.7,4.7,11.6,11.5,13.9,19.3c2,7.7,3.2,15.6,3.6,23.5c0.5,5.8,0.9,11.5,1.4,17.3
		c1.2,15.6,2.3,31.2,3.3,46.7c1,14.6,2,29.3,2.9,43.9c0.3,4.7,0.6,9.4,0.9,14c0.1,1,0.2,1.9,0.1,2.9c-0.3,2.2-2.2,2.6-4.2,2.9
		c-5.2,0.7-10.5,1-15.8,1.3c-2.7,0.2-5.4,0.3-8.1,0.5c-4,0.2-4.1,6.5,0,6.3c5.8-0.3,11.5-0.7,17.3-1.2c4.8-0.4,11.6-0.1,14.9-4.2
		c3.4-4.2,1.9-11,1.5-16c-0.9-14.3-1.9-28.5-2.9-42.8c-1.1-16.5-2.3-33-3.5-49.5c-0.5-6.5-1-13-1.5-19.5c-0.5-7.8-1.4-15.5-2.9-23.2
		c-1.9-8.8-5.6-17-12.2-23.2c-7.9-7.3-17.9-12.2-27.6-16.4c-2.9-1.3-5.8-2.5-8.8-3.7c-1.7-0.5-3.4,0.5-3.9,2.2
		C714.4,156.1,715.3,157.8,717,158.3L717,158.3z"/>
	<path style="clip-path:url(#SVGID_00000111879458707648473140000009230580641448716680_);fill:#211715;" d="M608.4,268.2
		c-0.6,23.9-1.3,47.8-1.7,71.7c-0.1,4.8-0.1,9.6-0.2,14.3c0,4.1,6.3,4.1,6.3,0c0.1-21.5,0.8-42.9,1.3-64.4
		c0.2-7.2,0.4-14.5,0.6-21.7C614.8,264.2,608.5,264.2,608.4,268.2L608.4,268.2z"/>
	<path style="clip-path:url(#SVGID_00000111879458707648473140000009230580641448716680_);fill:#211715;" d="M600.1,287.6
		c-5.3,1.7-11.2,2.4-16.4,0.1c-4.2-2.1-7.4-5.5-9.2-9.8c-4.9-10.6-1.7-23.1,0.8-33.9c2.7-11.6,5.9-23.1,9.7-34.4
		c1.9-5.9,4-11.7,6.3-17.5c1.9-5.4,4.1-10.6,6.6-15.8c1.3-2.8,3.1-5.3,5.3-7.4c2.2-1.9,4.7-3.5,7.3-4.8c5.7-3,12.2-3.9,18.1-6.3
		c1.6-0.5,2.6-2.2,2.2-3.9c-0.5-1.7-2.2-2.7-3.9-2.2c-5.8,2.3-12.1,3.3-17.8,6c-5.6,2.4-10.5,6.2-14.2,11.1c-3.5,5-5.6,11-7.9,16.7
		c-2.5,6.2-4.8,12.5-7,18.9c-4.3,12.6-7.9,25.4-10.9,38.3c-2.8,12.3-5.7,25.5-0.5,37.6c2.3,5.7,6.6,10.3,12.1,13
		c6.7,3,14.1,2.6,21,0.4C605.6,292.4,603.9,286.4,600.1,287.6L600.1,287.6z"/>
	<path style="clip-path:url(#SVGID_00000111879458707648473140000009230580641448716680_);fill:#7A7473;" d="M615.9,159L615.9,159
		c2,4.5,3.6,9,4.7,13.7c3.1,11.9,3.6,19.7,4.7,27.8c0.4,7.8,0.6,18.5,0.5,24.5c-0.1,8.3-1.1,21.1-1.8,25.7l0,0.6
		c3,0.1,6,0.6,8.9,1.5c2.9,1,5.1,3.4,5.8,6.4c0.1,0.3,0.1,0.6,0.2,0.9c1.4-7.7,2.4-15.5,2.8-23.3c0.5-13.5-0.3-27.1-2.3-40.4
		c-1-7.1-2.4-13.7-5-25c-1.1-4.9-3-12.2-6.2-17.1c-0.9-1.2-2.4-1.8-3.9-1.6c-2.5,0.6-5,1.5-7.2,2.7
		C615.8,156.3,615.4,157.7,615.9,159z"/>
	<path style="clip-path:url(#SVGID_00000111879458707648473140000009230580641448716680_);fill:#211715;" d="M628.4,200.6
		c-1.8-13.4-3.1-27-8.3-39.7c-0.3-0.9-0.7-1.9-1.2-2.8c-0.2-0.4,0-0.2-0.4,0.1c1.6-0.9,3.2-1.6,5-2c1.3-0.4,1.7-0.5,2.4,0.7
		c0.8,1.4,1.5,2.9,2.1,4.5c2.2,6.4,3.9,13,5.2,19.6c1.3,6.2,2.5,12.4,3.4,18.7c0.5,1.7,2.2,2.7,3.9,2.2c1.6-0.5,2.6-2.2,2.2-3.9
		c-0.9-6.3-2-12.5-3.4-18.7c-1.6-7.6-3.1-15.3-6.3-22.4c-1.5-3.5-3.5-7.1-7.7-7.3c-1.9,0-3.9,0.5-5.6,1.3c-2,0.6-3.9,1.5-5.5,2.8
		c-3.3,3.3-0.8,7.3,0.5,10.8c1.4,3.9,2.6,7.9,3.5,12c1.9,7.9,2.7,16,3.8,24c0.1,1.7,1.4,3.1,3.2,3.2
		C626.7,203.7,628.6,202.3,628.4,200.6L628.4,200.6z"/>
	<path style="clip-path:url(#SVGID_00000111879458707648473140000009230580641448716680_);fill:#211715;" d="M638.5,236.3
		c-0.4,8.4-1.5,16.8-3.2,25c-0.4,1.7,0.6,3.4,2.2,3.9c1.7,0.4,3.4-0.5,3.9-2.2c1.8-8.8,3-17.7,3.4-26.7c0-1.7-1.4-3.2-3.2-3.2
		C639.9,233.2,638.5,234.6,638.5,236.3L638.5,236.3z"/>
	<path style="clip-path:url(#SVGID_00000111879458707648473140000009230580641448716680_);fill:#7A7473;" d="M591.3,360.6
		c-2.7-0.1-5.1-2.5-6.3-4.7c-2.1-3.6-0.9-8.8-0.5-10.7c4.8-22.1,8.1-34.9,12.3-52.9c1.4-6.1,4.9-21.6,8.5-33.7
		c1.3-4.3,6.2-7.5,10.8-7.5c7.9,0,13.6,0.6,16.8,1.7c2.9,1,5.1,3.4,5.8,6.4c1,4.6,0.7,8.9,0.4,14.2c-1.4,26.5-4.5,65-5.5,79.7
		c-0.1,3.7-2.4,6.9-5.7,8.4c-3.1,1.3-4.3,2.2-9.7,1.2C608.5,361,602.9,360.9,591.3,360.6z"/>
	<path style="clip-path:url(#SVGID_00000111879458707648473140000009230580641448716680_);fill:#211715;" d="M592.1,357.6
		c-4.6-0.7-5.6-5.5-5-9.4c0.7-5,2.1-9.9,3.2-14.8c2.1-9.3,4.3-18.6,6.6-27.9c1.9-8.1,3.8-16.2,5.7-24.3c1.2-5,2.4-10,3.8-15
		c1.1-4.3,1.6-9,6-11.1c2.1-0.8,4.3-1.1,6.5-0.8c2.5,0,5,0.2,7.5,0.4c3.2,0.3,7.3,0.9,8.8,4.3c0.7,2.2,1,4.4,0.9,6.7
		c0,2.9-0.2,5.9-0.3,8.8c-0.2,4.4-0.5,8.8-0.8,13.2c-1.2,18.4-2.5,36.8-3.9,55.2c-0.2,3.3-0.4,6.6-0.7,9.9c-0.4,3.6-3.3,6.5-6.9,6.8
		c-2.5,0.2-4.9,0.1-7.4-0.2c-2.7-0.2-5.5-0.3-8.2-0.5c-5.5-0.4-11-0.9-16.6-1.5c-1.7,0-3.1,1.4-3.2,3.2c0,1.7,1.4,3.1,3.2,3.2
		c5.3,0.5,10.7,1.1,16,1.4c5.1,0.6,10.2,0.8,15.3,0.8c4.4-0.1,8.6-2.1,11.4-5.5c2.6-3.4,2.7-7.5,3-11.6c1.4-19.2,2.9-38.4,4.2-57.6
		c0.3-5.1,0.6-10.1,0.9-15.2c0.3-5.7,0.9-11.5-0.3-17.2c-2.2-11.2-16-11-25-11c-5.3-0.1-10.3,2.5-13.3,6.9c-1.2,2.3-2.1,4.9-2.6,7.5
		c-0.8,2.7-1.5,5.5-2.2,8.2c-2.3,9.2-4.4,18.5-6.6,27.7c-2.4,10.1-4.8,20.1-7.1,30.2c-1.3,5.6-2.6,11.2-3.7,16.8
		c-1,5-1,10.1,2.4,14.2c1.7,2.2,4.1,3.6,6.8,4.1c1.7,0.4,3.4-0.6,3.9-2.2C594.8,359.8,593.8,358.1,592.1,357.6z"/>
	<path style="clip-path:url(#SVGID_00000111879458707648473140000009230580641448716680_);fill:#211715;" d="M605.5,302.2l21.3,2.5
		c1.7,0,3.1-1.4,3.2-3.2c0-1.7-1.4-3.1-3.2-3.2l-21.3-2.5c-1.7,0-3.1,1.4-3.2,3.2C602.3,300.8,603.7,302.1,605.5,302.2z"/>
	<path style="clip-path:url(#SVGID_00000111879458707648473140000009230580641448716680_);fill:#211715;" d="M619.3,265.5
		c-0.8,4.7-1.6,9.3-2.3,14c-0.5,3-1,5.9-1.4,8.9c-0.2,1.5-0.5,2.9-0.7,4.4c-0.1,1.4-0.3,2.7-0.7,4.1l1.4-1.9l-0.1,0.1l4.3,1.1
		l-0.1-0.1l-1.1,4.3l0.1,0c3.3-2.3,0.2-7.7-3.2-5.4l-0.1,0c-1.5,0.9-2,2.8-1.1,4.3l0.1,0.1c0.9,1.5,2.8,2,4.3,1.1
		c1.6-1,1.7-2.5,1.9-4.1c0.2-1.5,0.5-3,0.7-4.5c0.5-3.2,1-6.4,1.5-9.6c0.8-5,1.6-10,2.5-15c0.4-1.7-0.6-3.4-2.2-3.9
		C621.5,262.9,619.8,263.9,619.3,265.5L619.3,265.5z"/>
	<path style="clip-path:url(#SVGID_00000111879458707648473140000009230580641448716680_);fill:#FFFFFF;" d="M649.5,199.5
		c-1.3-0.6-2.7-0.8-4.1-0.4c-6.8,1.7-12.4,3.5-20.1,6.1c-1.9-4.3-5.1-2.6-7.4-1c-7.1,5.1-12.2,10.7-17.6,13.2
		c-0.1,0.6-0.2,1.1-0.2,1.7c0.7,10.6,3.1,20.1,6.2,31.3l1.6-0.7c1.9-0.8,6.5-2.7,8.5-3.5c1.4-0.6,2.9-0.9,4.5-0.7
		c3.2,0.3,6.3,0,9.4-0.9c6-1.8,8.6-3.3,15.5-7.2c1.4-0.7,2.7-1.7,3.8-2.9c0.8-0.9,1-2.2,0.7-3.3c-0.4-1.5-1.5-2.8-3-3.4
		c0.7-0.3,1.3-0.6,1.9-0.9c1.4-0.7,2.5-2,2.8-3.6c0.8-2.9,0.2-4.6-3.1-6.3c2.1-0.6,3.5-2.5,3.3-4.7c-0.2-1-0.6-1.9-1.2-2.7
		c-0.6-0.7-1.5-1-3-1.6c2.7-0.6,4.3-3.3,3.7-6c0-0.1,0-0.2-0.1-0.3C651.2,200.7,650.5,199.9,649.5,199.5z"/>
	<path style="clip-path:url(#SVGID_00000111879458707648473140000009230580641448716680_);fill:#211715;" d="M602.9,219.6
		c3.6-1.8,6.8-4.2,9.7-7c1.7-1.5,3.4-3,5.2-4.4c0.8-0.7,1.7-1.3,2.6-1.9c0.4-0.2,0.8-0.5,1.2-0.6c0.1,0,0.5-0.2,0.2-0.1
		c0.4-0.1,0.3,0.1,0-0.1c1.5,0.8,3.4,0.3,4.3-1.1c0.9-1.5,0.4-3.4-1.1-4.3c-3.1-1.4-6-0.5-8.7,1.4c-2.3,1.7-4.5,3.4-6.7,5.3
		c-1.7,1.5-3.4,3-5.1,4.4c-0.1,0-0.7,0.5-0.4,0.3c0.3-0.2-0.3,0.3-0.4,0.3c-0.4,0.3-0.8,0.6-1.2,0.8c-0.9,0.6-1.9,1.1-2.8,1.5
		c-1.5,0.9-2,2.8-1.1,4.3C599.5,220,601.4,220.5,602.9,219.6L602.9,219.6z"/>
	<path style="clip-path:url(#SVGID_00000111879458707648473140000009230580641448716680_);fill:#211715;" d="M624.7,208.7
		c4.5-1.5,9-3,13.5-4.4c1.9-0.6,3.9-1.1,5.8-1.7c0.6-0.2,1.2-0.3,1.7-0.5c0.3-0.1,0.5-0.1,0.8-0.2c-0.3,0-0.2,0,0.2,0
		c0.5-0.1,1,0.1,1.4,0.3c0.2,0.1,0.4,0.4,0.3,0.2c0.2,0.2,0.1,0.3,0.1,0.3c0.1,0.3,0.1,0.2,0-0.2c0,0.2,0,0.3,0,0.5
		c0,0.2-0.2,1.2,0,0.5c-0.1,0.3-0.1,0.5-0.2,0.8c0.3-0.7-0.5,0.6-0.1,0.2c-0.4,0.3-0.8,0.6-1.3,0.7c-3.5,1.3-7.1,2.6-10.7,3.7
		c-3.9,1.2-2.2,7.3,1.7,6.1c3.3-1,6.6-2.2,9.8-3.4c1.9-0.5,3.6-1.4,5-2.8c1.3-1.4,2-3.2,2.1-5.1c0.2-3.7-2.3-7-5.9-7.6
		c-3.9-0.8-8.1,1-11.8,2.1c-4.7,1.4-9.5,3-14.1,4.6c-1.7,0.5-2.6,2.2-2.2,3.9C621.3,208.2,623,209.1,624.7,208.7L624.7,208.7z"/>
	<path style="clip-path:url(#SVGID_00000111879458707648473140000009230580641448716680_);fill:#211715;" d="M647.5,211.2
		c0.3,0.1,0.5,0.2,0.8,0.3c0.1,0,0.2,0.1,0.3,0.1c-0.5-0.2-0.6-0.2-0.3-0.1c0.2,0.1,0.3,0.2,0.5,0.3c-0.4-0.4-0.5-0.4-0.3-0.2
		c0.1,0.1,0.1,0.1,0.2,0.2c-0.3-0.4-0.4-0.5-0.2-0.2c0.1,0.1,0.1,0.2,0.2,0.3c0.1,0.1,0.1,0.2,0.2,0.3c0.1,0.3,0.1,0.2-0.1-0.2
		c0,0.1,0.2,0.5,0.2,0.5c0,0.1,0.1,0.2,0.1,0.3c-0.1-0.6-0.1-0.7-0.1-0.4c0,0.1,0,0.2,0,0.3c0,0.3,0,0.2,0.1-0.4
		c-0.1,0.2-0.1,0.4-0.2,0.6c-0.1,0.3-0.1,0.2,0.1-0.3c0,0.1-0.1,0.2-0.2,0.3s-0.1,0.2-0.2,0.3c0.3-0.4,0.4-0.5,0.2-0.2
		c-0.1,0.1-0.3,0.3-0.4,0.4c-0.4,0.4,0.6-0.4-0.1,0.1c-0.2,0.2-0.5,0.3-0.7,0.4c-0.3,0.2-0.6,0.3-1,0.5c-0.2,0.1-1.4,0.6-0.4,0.2
		c-0.9,0.3-1.7,0.7-2.6,1c-1.5,0.6-3.1,1.2-4.7,1.7c-0.8,0.2-1.5,0.8-1.9,1.4c-0.4,0.7-0.5,1.6-0.3,2.4c0.5,1.7,2.2,2.6,3.9,2.2
		c3-1.2,6.1-2.2,9.1-3.6c1.7-0.7,3.1-1.8,4.2-3.2c1.3-1.8,1.6-4.2,0.8-6.3c-0.4-1.3-1.1-2.5-2.1-3.4c-1.1-0.8-2.3-1.4-3.6-1.8
		c-1.7-0.5-3.4,0.5-3.9,2.2C644.9,209,645.9,210.7,647.5,211.2L647.5,211.2z"/>
	<path style="clip-path:url(#SVGID_00000111879458707648473140000009230580641448716680_);fill:#211715;" d="M647.6,219.9
		c0.4,0.2,0.7,0.4,1.1,0.6c0.6,0.4-0.3-0.3-0.1-0.1c0.1,0.1,0.3,0.2,0.4,0.4c0.1,0.1,0.3,0.3,0.3,0.3c0-0.1-0.5-0.7-0.2-0.2
		c0.1,0.1,0.1,0.2,0.2,0.3c-0.4-0.7-0.2-0.6-0.1-0.3c0,0.1,0.1,0.3,0.1,0.4c-0.3-0.9-0.1-0.6-0.1-0.3c0,0.1,0,0.3,0,0.4
		s-0.1,0.8,0,0.2c0.1-0.6,0,0,0,0.1c0,0.2-0.1,0.4-0.1,0.6c-0.1,0.3-0.2,0.6-0.3,0.9c-0.2,0.6,0.3-0.7,0.1-0.1
		c-0.1,0.1-0.2,0.3-0.2,0.4c-0.1,0.1-0.1,0.2-0.2,0.3l0.3-0.4c-0.1,0-0.3,0.3-0.4,0.4c-0.4,0.4,0.6-0.4,0,0
		c-0.2,0.1-0.3,0.2-0.5,0.3c-0.4,0.2-0.8,0.3-1.1,0.5c-1.7,0.8-3.5,1.5-5.2,2.3c-0.7,0.4-1.2,1.1-1.4,1.9c-0.2,0.8-0.1,1.7,0.3,2.4
		c0.4,0.7,1.1,1.2,1.9,1.4c0.8,0.2,1.7,0.1,2.4-0.3c2-0.9,3.9-1.7,5.9-2.6c2.1-1,3.8-2.9,4.4-5.2c0.7-1.8,0.7-3.7,0.2-5.5
		c-0.8-2-2.3-3.7-4.3-4.6c-1.5-0.9-3.4-0.4-4.3,1.1C645.6,217.1,646.1,219,647.6,219.9z"/>
	<path style="clip-path:url(#SVGID_00000111879458707648473140000009230580641448716680_);fill:#211715;" d="M646,230.6
		c0.5,0.3,1.2,0.8,1.2,1.4c0,0.7-0.7,1.2-1.3,1.6c-1.9,1.3-3.9,2.5-6,3.5c-3.3,1.9-6.8,3.4-10.4,4.4c-1.8,0.5-3.7,0.8-5.6,0.9
		c-2.1-0.2-4.3-0.1-6.4,0.1c-3.8,1.1-7.6,2.6-11.1,4.4c-1.5,0.9-2,2.8-1.1,4.3c0.9,1.5,2.8,2,4.3,1.1c2-0.9,4-1.7,5.9-2.5
		c1-0.5,2-0.9,3.1-1.2c1.3-0.2,2.5-0.2,3.8,0c4.8,0,9.5-0.9,13.9-2.8c4.7-1.8,9.1-4.2,13.3-7.1c2.3-1.7,4.3-4,4.1-7.1
		c-0.3-2.8-1.9-5.3-4.4-6.7C645.7,223.1,642.5,228.6,646,230.6L646,230.6z"/>
	<path style="clip-path:url(#SVGID_00000111879458707648473140000009230580641448716680_);fill:#211715;" d="M601.2,210
		c-5.9,4.8-4,13.1-3,19.6c1.4,8,3.3,15.9,5.7,23.7c1.1,3.9,7.2,2.2,6.1-1.7c-2-7-3.9-13.9-5.2-21c-0.6-3.3-1.1-6.7-1.4-10.1
		c-0.4-2.3,0.5-4.6,2.3-6.1c1.2-1.2,1.2-3.2,0-4.5C604.4,208.8,602.5,208.8,601.2,210L601.2,210z"/>
	<path style="clip-path:url(#SVGID_00000111879458707648473140000009230580641448716680_);fill:#211715;" d="M753.4,367.3
		c0.1,3.4,0.1,6.8,0.1,10.2c0.1,1.3,0.1,2.7,0,4c0,0.4-0.1,0.8-0.2,1.2c-0.1,0.3-0.8,1.3-0.3,0.9c-1.3,1.1-2.6,0.3-3.4-1
		c-0.7-1.3-1-2.7-1-4.1c-0.9-9-0.9-17.9-1.1-26.9c-0.1-4-6.4-4.1-6.3,0c0.2,8.5,0.2,17,1,25.5c0.3,3.9,0.7,8,3.6,10.9
		c3.6,3.5,10.1,3.3,12.7-1.4c1.5-2.7,1.3-5.8,1.3-8.7c0-3.5,0-7-0.1-10.5C759.6,363.2,753.3,363.2,753.4,367.3L753.4,367.3z"/>
	<path style="clip-path:url(#SVGID_00000111879458707648473140000009230580641448716680_);fill:#211715;" d="M764.4,348.7
		c2.3,7,4,14.1,5.8,21.2c1.7,7.3,4.1,14.7,4.5,22.2c0.1,1.9,0.6,5.6-1.2,6.9c-2.3,1.6-4.5-1.8-5.4-3.4c-3-5.6-5.6-11.4-7.6-17.3
		c-1.3-3.8-7.4-2.2-6.1,1.7c1.9,5.5,4.2,10.9,6.9,16.1c1.2,3,3.1,5.6,5.5,7.7c2.5,2,5.9,2.5,8.9,1.3c5.6-2.5,5.8-9.2,5.3-14.5
		c-0.9-7-2.3-13.9-4.2-20.7c-1.8-7.6-3.6-15.2-6.1-22.7C769.2,343.1,763.1,344.8,764.4,348.7L764.4,348.7z"/>
</g>
<g>
	<defs>
		<rect id="SVGID_00000050637820593988900220000011111417415823553433_" x="410" y="52.6" width="226.6" height="223.6"/>
	</defs>
	<clipPath id="SVGID_00000163755022376273240420000017274541881376356020_">
		<use xlink:href="#SVGID_00000050637820593988900220000011111417415823553433_"  style="overflow:visible;"/>
	</clipPath>
	<path style="clip-path:url(#SVGID_00000163755022376273240420000017274541881376356020_);fill:#FFFFFF;" d="M487.6,122.3
		c-2.4,1.3-5,2.3-7.7,2.8c0,0-1.5,0.2-2.7,0.3c-1.1-0.5-2.4-0.7-3.7-0.5c-1.8,0.3-3.4,1.3-4.4,2.9c-0.5,1.1-0.8,2.3-0.9,3.5
		c-0.4,4.7,0.5,9.4,2.6,13.6c1,2.1,2.4,4,4.2,5.5c1.4,1.5,3.5,2.2,5.6,1.8l1.1-0.3c2,5.7,5.1,11,9.2,15.6c4,4.7,9,8.3,14.6,10.8
		c-0.1,0.6-0.2,1.2-0.3,1.9c-0.6,3.2-1.4,6.7-5.6,9.1c-0.3,0.1-5.8,2.7-6.2,2.9c0,0,2.9,25.3,28.1,25.3s33-25.3,33-25.3
		c-0.4-0.2-5.9-2.8-6.2-2.9c-4.2-2.3-5.1-5.9-5.6-9.1c-0.2-1.2-0.4-2.2-0.5-3c10.4-4.7,18.7-18,20.2-21.7c0.3-0.8,0.9-2.3,1.3-4.1
		l0.7,0.2c1.7,0.6,3.6,0.1,4.9-1.2c1.8-1.5,3.2-3.4,4.2-5.5c2.1-4.2,3-8.9,2.6-13.6c-0.1-1.2-0.4-2.4-0.9-3.5
		c-0.9-1.6-2.5-2.6-4.4-2.9c-1-0.2-2.1,0-3.1,0.3l-1.9-1.1c-2.2-1.3-7.7-4.7-9.6-6.1c-0.6-0.3-1.1-0.7-1.6-1c-0.5-0.3-0.9-0.6-1.4-1
		c-6.8-4.9-12.4-11.7-14.4-18c-6,7-14.6,11.9-21.1,12.2c-1.7,0.3,0.9-6.6,2.1-9.7C510,107.1,498.1,117,487.6,122.3"/>
	<path style="clip-path:url(#SVGID_00000163755022376273240420000017274541881376356020_);fill:#211715;" d="M487.6,122.3
		c-2.4,1.3-5,2.3-7.7,2.8c0,0-1.5,0.2-2.7,0.3c-0.8-0.4-1.6-0.6-2.4-0.6c0.3,2.8-1.4-7.6-1.2-13.7c0.5-14.7,7.9-28.2,20-36.6
		c8.4-5.9,18.5-9.1,28.9-8.9c5.8,0,11.6,0.9,17,2.8c2.5,0.9,4.9,2,7.2,3.2c2.9,1.6,5.6,3.4,8.2,5.5c1,0.9,2.4,2.3,3.4,3.2
		c2.4,2.4,4.5,5,6.3,7.9c4.2,6.9,6.5,14.8,6.8,22.9c0.2,4.5-0.1,9-0.8,13.4l-0.1,0.3c-0.9-0.1-1.8,0-2.7,0.3
		c-1.1-0.6-1.9-1.1-1.9-1.1c-2.2-1.3-7.7-4.7-9.6-6.1c-0.6-0.3-1.1-0.7-1.6-1c-0.5-0.3-0.9-0.6-1.4-1c-6.8-4.9-12.4-11.7-14.4-18
		c-6,7-14.6,11.9-21.1,12.2c-1.7,0.3,0.9-6.6,2.1-9.7C510,107.1,498.1,117,487.6,122.3"/>
	<path style="clip-path:url(#SVGID_00000163755022376273240420000017274541881376356020_);fill:#FFFFFF;" d="M608,294.4
		c1.1,2.8,2.4,5.5,3.9,8.1c4.1,5.7,8.7,10.9,13.8,15.7c3.7,3.5,8,7.5,7.9,12.6c0.2,2.1-1.3,3.9-3.4,4.1c-0.1,0-0.2,0-0.3,0
		c-3.3,0.4-6.5-1.1-9.3-2.8c-3.4-2-6.6-4.2-9.6-6.6c-0.7,3.3-4.5,4.9-7.8,4.4c-2.1-0.3-3.6-2-3.9-4.1c-0.7-3.5-1.2-6.6-1.4-8.1
		c-0.3-1.6-0.9-5.2-1.4-6.8l-3.2-14.8"/>
	<path style="clip-path:url(#SVGID_00000163755022376273240420000017274541881376356020_);fill:#FFFFFF;" d="M438.5,294.4
		c-1.1,2.8-2.4,5.5-3.9,8.1c-4.1,5.7-8.7,10.9-13.8,15.7c-3.7,3.5-8,7.5-7.9,12.6c0,1.1,0.4,2.1,1.1,3c0.7,0.6,1.6,1,2.6,1.1
		c3.3,0.4,6.5-1.1,9.3-2.8c3.4-2,6.6-4.2,9.6-6.6c0.7,3.3,4.5,4.9,7.8,4.4c2.1-0.3,3.6-2,3.9-4.1c0.7-3.5,1.2-6.6,1.4-8.1
		c0.3-1.6,0.9-5.2,1.4-6.8l3.2-14.8"/>
	<path style="clip-path:url(#SVGID_00000163755022376273240420000017274541881376356020_);fill:#FFFFFF;" d="M495.2,463.2
		c-2.1,2.1-4.5,4-7.1,5.5c-4.3,2.2-9.1,3-13.9,2.3c-2.5-0.3-4.9-1.2-7-2.8c-2.2-1.7-3.6-4.2-3.8-6.9c-0.3-4,1.8-7.7,4.4-10.5
		c5.9-6.6,12.1-13,17.5-20.1c0.7-1.1,2.1-1.5,3.3-1c3.1,1.4,6.9,1.3,11.3,1.4c4,0,8-1.3,11.1-3.9c3.4-2.6,4,8.9,4.1,11.4
		c0.1,3.9,0.7,9-2.1,11.9c-2,2.1-5.4,3.5-7.8,4.9C501.6,457.6,498.2,460.2,495.2,463.2z"/>
	<path style="clip-path:url(#SVGID_00000163755022376273240420000017274541881376356020_);fill:#FFFFFF;" d="M555.9,463.2
		c2.1,2.1,4.4,4,6.9,5.5c4.2,2.1,8.9,3,13.5,2.3c2.5-0.3,4.8-1.2,6.8-2.8c2.1-1.7,3.5-4.2,3.7-6.9c0.3-4-1.8-7.7-4.3-10.5
		c-5.7-6.6-11.8-13-17-20.1c-0.7-1.1-2-1.5-3.2-1c-3.1,1.4-6.7,1.3-11,1.4c-3.9,0-7.8-1.3-10.8-3.9c-3.3-2.6-3.9,8.9-4,11.4
		c-0.1,3.9-0.7,9,2,11.9c1.9,2.1,5.3,3.5,7.6,4.9C549.7,457.6,553,460.2,555.9,463.2z"/>
	<path style="clip-path:url(#SVGID_00000163755022376273240420000017274541881376356020_);fill:#FFFFFF;" d="M487.3,427.3
		c0.7-6.3,0.9-20.2,1-31.2c7.6,0.1,19.5,0.1,27.1,0c-0.1,0.6-0.1,1-0.1,1c-0.6,5.9-2.4,20.2-3.4,29.4c-3.3,3-7.6,4.7-12,4.6
		c-5.2-0.1-9.4,0-12.8-2.2C487.2,428.5,487.2,427.9,487.3,427.3z"/>
	<path style="clip-path:url(#SVGID_00000163755022376273240420000017274541881376356020_);fill:#FFFFFF;" d="M562.6,428.3
		c-0.8-5.4-1.5-20.6-1.7-31.7c0,0,0-0.2,0-0.5c-7.9,0.1-19,0-26,0c0.1,0.6,0.1,1.1,0.1,1.1c0.6,5.3,1.5,18,2.4,27.4
		c3.8,4,8.2,6.8,13.8,6.6c4.6-0.1,8.5,0,11.6-1.7C562.8,429.1,562.7,428.7,562.6,428.3z"/>
	<path style="clip-path:url(#SVGID_00000163755022376273240420000017274541881376356020_);fill:#BD957A;" d="M468.5,155
		c0.6-2.8,2.7-5,5.5-5.6c0.4,0.4,0.7,0.7,1.1,1c1.4,1.5,3.5,2.2,5.6,1.8l1.1-0.3c2,5.7,5.1,11,9.2,15.6c1.1,1.2,2.2,2.3,3.4,3.4
		c-4,4.6-7.5,7.5-14.6,8.2c-7.2,0.8-14.5-1.9-19.3-4.4c3.1-1.2,5.7-3.4,7.3-6.3c0.5-1,0.9-2,1-3.1c0.4-1.7-0.3-3.5-0.5-5.3
		C468,158.3,468.1,156.6,468.5,155z"/>
	<path style="clip-path:url(#SVGID_00000163755022376273240420000017274541881376356020_);fill:#F2635F;" d="M475.7,383.9
		c0.4-3.1,0.9-6.1,1.4-9.2c3.7,0.4,7.2,0.6,9.9,0.6c10.4,0.2,38.7,1.1,39.1,1.1c8.7,0,23.3-0.3,36.3-0.7c3.1-0.1,6.3-0.4,9.4-0.7
		c0.7,5.1,1.3,10.5,1.9,16.3c0,0,0,0.2,0,0.5l-0.3,0.3c-1.4,1.6-12.1,3.1-21.4,3.6c-9.5,0.5-20,0.5-26.3,0.5
		c-5.5,0-18.5-0.3-28.2-1.1c-9.9-0.7-19.9-1.4-22.8-3.1c0-0.4,0.1-0.7,0.1-0.7C475,388.8,475.3,386.4,475.7,383.9z"/>
	<path style="clip-path:url(#SVGID_00000163755022376273240420000017274541881376356020_);fill:#F8B1AF;" d="M435.6,291.4
		c-0.9-0.5-1.8-0.9-2.6-1.4c6-14.8,11.4-31.9,17.4-46.7c4.3-10.6,8.6-23.1,14.9-32.7s21.7-17.2,33.3-20.3
		c14.1,12.7,35.6,12.2,49.1-1.2c12.8,4.6,27.1,12.9,33.5,22.6c6.3,9.6,10.7,20.9,15,31.6c6,14.8,11.4,31.9,17.4,46.7
		c-8.7,4.9-18.2,8.2-28,9.7l-5.7,1.1c0.9,6.3,1.9,12.9,3,19.8c2.5,15.9,6.3,32.7,7.9,49.2c0.3,0.9-0.3,1.9-1.2,2.1
		c-0.1,0-0.1,0-0.2,0c-8.9,2.2-18.1,3.5-27.3,3.9c-13.1,0.4-27.6,0.7-36.3,0.7c-0.4,0-28.8-0.9-39.1-1.1c-7.8-0.2-22.2-1.7-27.5-3.9
		c-1.2-0.6-1.9-1.9-2-3.2c0.3-10.5,2.1-19.2,3.5-29.7c1.6-12.2,3.6-25.5,5.5-37.8c-2.7-0.5-5.2-1.1-5.2-1.1
		C452.1,298.4,443.5,295.6,435.6,291.4z"/>
	<path style="clip-path:url(#SVGID_00000163755022376273240420000017274541881376356020_);fill:#FFFFFF;" d="M558.6,193.9
		c-3.6-1.8-7.2-3.4-11-4.7c-13.4,13.3-35,13.9-49,1.2c-4.9,1.3-9.7,3.1-14.3,5.4c2.2,7,6.3,13.3,11.8,18.2l0.2,0.1
		c1.2,1,2.5,1.9,4,2.5c4.2,1.6,8.9,1.4,13-0.5c3.6-1.7,6.8-3.9,9.6-6.8c2.8,2.8,6,5.1,9.6,6.8c4.1,1.9,8.8,2.1,13,0.5
		c1.5-0.7,3-1.6,4.2-2.7l-0.1,0.1c5.6-4.9,9.7-11.3,11.9-18.4C560.6,194.9,559.6,194.4,558.6,193.9z"/>
	<path style="clip-path:url(#SVGID_00000163755022376273240420000017274541881376356020_);fill:#211715;" d="M473.3,146.5
		c-6,1.6-8.7,7.3-8.1,13.2c0.4,1.6,0.6,3.2,0.6,4.8c-0.2,1.3-0.7,2.6-1.6,3.6c-1.4,1.8-3.3,3.1-5.4,4c-1.4,0.9-1.9,2.7-1,4.1
		c0.3,0.4,0.6,0.8,1,1c6.7,3.5,14.3,5.7,21.9,4.7c3.1-0.3,6.1-1.3,8.8-2.9c2.5-1.7,4.8-3.7,6.7-6c2.5-2.9-1.7-7.1-4.2-4.2
		c-3.3,3.8-6.8,6.5-11.9,7.3c-6.3,0.9-12.8-1.1-18.4-3.9v5.2c5-2.4,9.1-6.5,9.9-12.2c0.4-2.9-1-5.7-0.6-8.7c0.2-2,1.7-3.7,3.7-4.2
		C478.6,151.2,477.1,145.5,473.3,146.5z"/>
	<path style="clip-path:url(#SVGID_00000163755022376273240420000017274541881376356020_);fill:#211715;" d="M468.5,261.2
		c-1.3,14.2-3.4,28.3-5.6,42.4c-2.2,14.5-4.2,29.1-6.3,43.6c-0.5,3.5-1,7-1.4,10.6c-0.6,3.6-0.9,7.3-0.7,11
		c0.5,5.9,7.5,6.7,12.1,7.5c9.5,1.4,19.1,2.2,28.7,2.2c8.8,0.2,17.6,0.5,26.4,0.8c8.6,0.3,17.3,0,25.9-0.2
		c6.9-0.1,13.9-0.2,20.8-0.8c6-0.6,12-1.5,17.9-2.7c1.4-0.2,2.7-0.5,4.1-0.9c3.2-1,3.9-3.4,3.6-6.5c-0.8-7.6-2-15.2-3.3-22.8
		c-2.6-14.9-5.2-29.7-7.4-44.7c-1.8-12.3-3.6-24.7-5.7-37c-0.4-2.2-0.8-4.4-1.2-6.7c-0.7-3.8-6.5-2.2-5.8,1.6
		c4.7,24.4,7.2,49.2,11.6,73.6c1.3,7.3,2.7,14.5,3.8,21.8c0.6,3.5,1.1,7,1.5,10.5c0.1,0.9,0.2,1.9,0.3,2.8c0,0.4,0,2.1,0.2,2.3
		c0.3,0.3,0.5-0.9,0.6-0.9c-0.2,0-0.5,0.1-0.7,0.2c-10.7,2.5-21.7,3.7-32.7,3.8c-10.1,0.3-20.3,0.7-30.3,0.4
		c-7.4-0.2-14.8-0.4-22.2-0.7c-8.6-0.2-17.2-0.2-25.7-1.1c-4.9-0.4-9.8-1.2-14.6-2.4c-0.7-0.1-1.3-0.4-1.9-0.7c-0.6-1,0-3.2,0-4.3
		c0.2-3.5,0.6-7,1.1-10.5c1.9-14,3.9-27.9,6-41.9c2.1-13.7,4.3-27.3,5.8-41c0.4-3.3,0.7-6.5,1-9.8c0-1.6-1.3-3-3-3
		C469.8,258.3,468.5,259.6,468.5,261.2L468.5,261.2z"/>
	<path style="clip-path:url(#SVGID_00000163755022376273240420000017274541881376356020_);fill:#211715;" d="M494.2,195
		c2.1-0.9,4.2-1.9,6.2-2.9l0.5-0.2c0.4-0.2-0.8,0.3-0.5,0.2c0.3-0.1,0.6-0.2,0.9-0.4c1-0.6,2-1.3,2.8-2.1c1.5-1.4,2.6-3.2,3.2-5.2
		c0.6-1.8,1-3.7,1.2-5.5c0.2-0.8,0.1-1.6-0.3-2.3c-0.8-1.4-2.7-1.9-4.1-1.1c-0.7,0.4-1.2,1-1.4,1.8c-0.2,1.6-0.5,3.1-0.9,4.6
		c-0.1,0.3-0.2,0.7-0.3,1c0,0.1-0.1,0.2-0.1,0.2c0,0,0.3-0.6,0.1-0.3c-0.1,0.2-0.2,0.4-0.3,0.6c-0.2,0.3-0.4,0.7-0.6,1
		c-0.1,0.1-0.4,0.6-0.1,0.2s-0.2,0.2-0.3,0.3c-0.3,0.3-0.6,0.6-0.9,0.8c-0.4,0.4,0.4-0.3-0.1,0.1c-0.2,0.1-0.4,0.3-0.7,0.4
		c-0.6,0.3,0,0,0.2,0c-0.3,0.1-0.5,0.2-0.8,0.3l-0.4,0.2c-1,0.4-2,0.9-3,1.4l-1.7,0.8c-0.4,0.2-1.8,0.8-0.4,0.2
		c-0.7,0.2-1.4,0.7-1.8,1.4c-0.8,1.4-0.4,3.3,1.1,4.1C492.6,195.1,493.4,195.2,494.2,195L494.2,195z"/>
	<path style="clip-path:url(#SVGID_00000163755022376273240420000017274541881376356020_);fill:#211715;" d="M539.2,177.2
		c0.5,3.9,1,7.9,3.5,11.1c0.7,0.9,1.5,1.7,2.4,2.3c0.5,0.4,1,0.7,1.5,1c0.3,0.2,0.6,0.3,1,0.4c0.2,0.1-0.9-0.4-0.5-0.2
		c1,0.5,2,0.9,3,1.4s2,1,3,1.4c0.7,0.4,1.5,0.5,2.3,0.3c1.6-0.4,2.5-2.1,2.1-3.7c-0.2-0.8-0.7-1.4-1.4-1.8c-1.1-0.5-2.2-1-3.3-1.5
		c-0.7-0.3-1.4-0.6-2-1c-0.2-0.1-0.4-0.2-0.7-0.3c-0.3-0.1-0.6-0.3-0.9-0.4c-0.2,0,0.6,0.4,0.3,0.1c-0.2-0.2-0.5-0.3-0.7-0.5
		c-0.3-0.2-0.3-0.2,0,0c-0.1-0.1-0.2-0.2-0.3-0.3c-0.3-0.3-1-0.8-1.2-1.2c0.3,0.3,0.3,0.4,0.1,0.1c-0.1-0.1-0.1-0.2-0.2-0.3
		c-0.1-0.2-0.3-0.4-0.4-0.7c0-0.1-0.3-0.7-0.3-0.7c0.2,0.4,0.2,0.5,0.1,0.2c0-0.1-0.1-0.2-0.1-0.3c-0.3-0.9-0.6-1.8-0.7-2.8
		c-0.1-0.6-0.2-1.2-0.3-1.7c0-0.3-0.1-0.6-0.1-0.9c0-0.1,0-0.3-0.1-0.4c0.1,0.5,0.1,0.5,0,0.2c0-1.6-1.4-2.9-3-3
		C540.7,174.3,539,175.5,539.2,177.2L539.2,177.2z"/>
	<path style="clip-path:url(#SVGID_00000163755022376273240420000017274541881376356020_);fill:#211715;" d="M567.9,128.5
		c1.4-1.1,3.5-0.9,4.7,0.6c0.1,0.1,0.1,0.1,0.2,0.2c0.5,1.1,0.7,2.4,0.6,3.6c0,1.4-0.1,2.9-0.3,4.3c-0.5,2.9-1.5,5.6-3.1,8.1
		c-0.6,1.1-1.5,2-2.4,2.8c-0.6,0.7-1.5,0.9-2.3,0.6c-3.7-1-5.3,4.8-1.6,5.8c4.7,1.3,8.4-1.8,11-5.4c2.5-3.7,4-8,4.5-12.4
		c0.5-4.1,0.5-9.4-2.9-12.4c-3.6-3.1-9-3.1-12.5,0.1c-1.2,1.2-1.2,3.1,0,4.2C564.8,129.6,566.7,129.6,567.9,128.5L567.9,128.5z"/>
	<path style="clip-path:url(#SVGID_00000163755022376273240420000017274541881376356020_);fill:#211715;" d="M561.2,147.6
		c-0.2,2.1-0.6,4.1-1.4,6c-0.1,0.4-0.3,0.7-0.4,1.1c-0.2,0.5,0.3-0.6,0.1-0.1c-0.2,0.4-0.4,0.8-0.6,1.2c-1.4,2.5-2.9,4.9-4.7,7.2
		c-4.2,5.5-9.8,11.2-16.9,12.7c-3.8,0.8-2.2,6.6,1.6,5.8c8.3-1.8,14.9-8.3,20-14.8c4.3-5.6,8-11.8,8.4-19
		C567.4,143.7,561.4,143.7,561.2,147.6L561.2,147.6z"/>
	<path style="clip-path:url(#SVGID_00000163755022376273240420000017274541881376356020_);fill:#211715;" d="M480.8,124.3
		c-3.6-3.2-8.9-3.2-12.5-0.1c-3.4,3.1-3.4,8.5-2.8,12.7c0.5,4.5,2.1,8.7,4.7,12.4c2.7,3.6,6.6,6.7,11.4,5.7c1.6-0.4,2.5-2.1,2.1-3.7
		s-2.1-2.5-3.7-2.1l0,0c-2,0.4-4.2-2.2-5.1-3.7c-1.6-2.5-2.7-5.3-3.2-8.2c-0.3-1.4-0.4-2.8-0.4-4.2c-0.1-1.3,0.1-2.6,0.6-3.9
		c1-1.5,3.1-2,4.6-1c0.1,0.1,0.2,0.1,0.2,0.2c1.2,1.1,3,1.1,4.2,0C482,127.3,482,125.4,480.8,124.3z"/>
	<path style="clip-path:url(#SVGID_00000163755022376273240420000017274541881376356020_);fill:#211715;" d="M477.3,146.7
		c1.8,8.4,5.7,16.2,11.4,22.6c6,6.8,14,12.4,23,13.7c1.6,0.4,3.2-0.5,3.7-2.1c0.4-1.6-0.5-3.2-2.1-3.7
		c-15.7-2.2-27.2-17.3-30.2-32.1C482.3,141.4,476.5,143,477.3,146.7L477.3,146.7z"/>
	<path style="clip-path:url(#SVGID_00000163755022376273240420000017274541881376356020_);fill:#211715;" d="M573.4,125.3
		c2.2-13.4,0.8-27.5-6.6-39.1c-7.1-10.9-18.1-18.7-30.8-21.9c-12.8-3.2-26.4-1.7-38.2,4.2c-8.8,4.6-16.1,11.6-21,20.2
		c-3.2,5.8-5.2,12.1-5.9,18.6c-0.6,6-0.3,12.1,0.8,18c0.4,1.6,2.1,2.5,3.7,2.1c1.6-0.5,2.5-2.1,2.1-3.7c-1.6-9.6-1.4-19.6,2.7-28.6
		c3.6-7.8,9.3-14.5,16.5-19.1c19.5-12.8,47-8.6,62,9.2c9,10.7,11.1,25.1,9,38.6c-0.4,1.6,0.5,3.2,2.1,3.7
		C571.3,127.8,573,126.9,573.4,125.3L573.4,125.3z"/>
	<path style="clip-path:url(#SVGID_00000163755022376273240420000017274541881376356020_);fill:#211715;" d="M514.6,160.6
		c2.5,2.1,5.7,3.1,8.9,2.9c3.2,0.2,6.4-0.9,8.9-2.9c1.1-1.2,1.1-3.1-0.1-4.2c-1.2-1.1-3-1.1-4.1,0c-0.1,0.1-0.6,0.5-0.1,0.1
		c0.5-0.4-0.1,0-0.2,0.1c-0.2,0.1-0.4,0.2-0.5,0.3c-0.1,0.1-0.3,0.1-0.4,0.2c0.1-0.1,0.7-0.3,0.2-0.1c-0.6,0.2-1.2,0.4-1.8,0.5
		c-0.2,0-0.7,0.3,0,0c-0.2,0-0.4,0.1-0.6,0.1c-0.4,0-0.9,0.1-1.3,0.1c-0.4,0-0.8,0-1.2,0c-0.2,0-0.4-0.1-0.7-0.1
		c0.3,0,0.5,0.1,0.1,0c-0.6-0.1-1.2-0.3-1.8-0.5c-0.2-0.1-0.6-0.3,0.1,0.1c-0.1-0.1-0.2-0.1-0.3-0.1c-0.2-0.1-0.4-0.2-0.6-0.3
		c-0.1-0.1-0.3-0.2-0.4-0.3c0.9,0.5,0.4,0.3,0.2,0.1c-1.2-1.1-3.1-1.1-4.2,0.1C513.5,157.6,513.5,159.4,514.6,160.6L514.6,160.6z"/>
	<path style="clip-path:url(#SVGID_00000163755022376273240420000017274541881376356020_);fill:#211715;" d="M522,141.8
		c0.4,1.4,0.7,2.8,0.9,4.2l-0.1-0.8c0,0.2,0,0.4,0,0.6l0.1-0.8c0,0.1,0,0.2-0.1,0.3l0.3-0.7c0,0.1-0.1,0.1-0.1,0.2l0.5-0.6
		c0,0.1-0.1,0.1-0.1,0.1l0.6-0.5c-0.1,0.1-0.2,0.1-0.3,0.2l0.7-0.3c-0.2,0.1-0.4,0.1-0.6,0.2l0.8-0.1c-0.2,0-0.4,0-0.5,0l0.8,0.1
		c-0.2,0-0.4-0.1-0.6-0.1c-0.4-0.1-0.8-0.1-1.2-0.1c-0.4,0-0.8,0.1-1.1,0.4c-1.4,0.8-1.9,2.7-1.1,4.1c0,0,0,0,0,0
		c0.4,0.7,1,1.2,1.8,1.4c0.5,0.1,1,0.2,1.6,0.2c0.8,0,1.7-0.2,2.4-0.6c1-0.5,1.7-1.3,2-2.4c0.2-0.8,0.2-1.7,0-2.5
		c-0.2-1.4-0.5-2.7-0.9-4c-0.2-0.7-0.7-1.4-1.4-1.8c-0.7-0.4-1.5-0.5-2.3-0.3c-0.7,0.2-1.4,0.7-1.8,1.4
		C521.9,140.2,521.8,141,522,141.8L522,141.8z"/>
	<path style="clip-path:url(#SVGID_00000163755022376273240420000017274541881376356020_);fill:#211715;" d="M500.7,130.5
		c-0.7,2.2-0.2,7.4,4,7.8c5.6,0,5.9-6.3,4-9.2C507.2,126.7,502.7,125.7,500.7,130.5z"/>
	<path style="clip-path:url(#SVGID_00000163755022376273240420000017274541881376356020_);fill:#211715;" d="M545.5,130.5
		c0.7,2.2,0.2,7.4-4,7.8c-5.6,0-5.9-6.3-4-9.2C539,126.7,543.6,125.7,545.5,130.5z"/>
	<path style="clip-path:url(#SVGID_00000163755022376273240420000017274541881376356020_);fill:#211715;" d="M496.7,192.4
		c14.5,13.2,36.6,13.4,51.4,0.6c2.9-2.5-1.3-6.7-4.2-4.2c-12.5,10.3-30.7,10.1-42.9-0.6C498.1,185.7,493.8,189.9,496.7,192.4z"/>
	<path style="clip-path:url(#SVGID_00000163755022376273240420000017274541881376356020_);fill:#211715;" d="M493,461.1
		c-3.6,3.3-7.1,5.9-12,6.8c-4.5,0.9-10.8,0.5-13.6-3.7c-2.9-4.3,0.4-9.1,3.3-12.3c3.9-4.3,7.9-8.6,11.7-13c0.9-1.1,1.8-2.1,2.7-3.2
		c0.4-0.5,0.9-1.1,1.3-1.6c0.2-0.3,0.8-1.4,1.2-1.5c-0.5,0.1,0.4,0.3,0.5,0.4c0.5,0.2,1,0.4,1.6,0.5c1.4,0.3,2.8,0.5,4.2,0.6
		c5.1,0.4,10.2,0.4,15-1.9c1.1-0.5,2.1-1.1,3-1.8c0.9-0.7,0.5-0.3,0.4-0.4l-0.4,0.1c-0.5,0-1-0.2-1.3-0.5c0.4,0.1-0.2-0.3,0.1,0.1
		c0.4,0.7-0.2-0.6,0.1,0.3c0.3,0.7,0.5,1.5,0.6,2.3c0.4,2.3,0.6,4.7,0.7,7.1c0.3,2.4,0.2,4.8-0.2,7.1c-0.6,2.4-2.4,3.4-4.4,4.6
		c-2.5,1.3-4.8,2.7-7.1,4.2C497.8,456.9,495.4,458.9,493,461.1c-2.8,2.6,1.4,6.8,4.2,4.2c2.4-2.3,5-4.4,7.8-6.3
		c2.3-1.5,4.9-2.6,7.2-4.1c2.4-1.4,4.2-3.6,5.2-6.1c0.8-2.6,1-5.4,0.7-8.1c-0.2-4.1-0.2-19.8-7.9-16.4c-1,0.6-2,1.2-3,1.9
		c-1.2,0.7-2.5,1.3-3.9,1.6c-3.1,0.5-6.2,0.6-9.3,0.2c-2.7-0.2-5.4-1.9-8.1-1.2c-3,0.9-4.9,4.5-6.8,6.8c-4.4,5.3-9.2,10.2-13.7,15.4
		c-4.1,4.8-6.7,11.2-3.7,17.3c3.2,6.5,11.2,8.5,17.9,7.9c3.6-0.3,7.1-1.3,10.3-3c2.7-1.6,5.1-3.6,7.3-5.8
		C500.1,462.7,495.9,458.5,493,461.1z"/>
	<path style="clip-path:url(#SVGID_00000163755022376273240420000017274541881376356020_);fill:#211715;" d="M485.3,396
		c-0.1,6.2-0.2,12.4-0.4,18.6c-0.1,2.7-0.2,5.3-0.3,8c-0.1,1.1-0.1,2.3-0.2,3.4c0,0.4-0.1,0.8-0.1,1.3c0,0.2-0.1,0.5-0.1,0.7
		c-0.1,0.5,0.1-0.7,0,0.1c-0.4,1.6,0.5,3.2,2.1,3.7c1.6,0.4,3.2-0.5,3.7-2.1c0.6-4.8,0.9-9.6,0.9-14.4c0.2-6.4,0.3-12.8,0.4-19.1
		C491.4,392.1,485.4,392.1,485.3,396L485.3,396z"/>
	<path style="clip-path:url(#SVGID_00000163755022376273240420000017274541881376356020_);fill:#211715;" d="M512.3,397.1
		c-1.1,10.1-2.4,20.1-3.5,30.1c0,1.6,1.3,3,3,3c1.6,0,2.9-1.4,3-3c1.1-10.1,2.4-20.1,3.5-30.1c0-1.6-1.3-3-3-3
		C513.7,394.2,512.3,395.5,512.3,397.1z"/>
	<path style="clip-path:url(#SVGID_00000163755022376273240420000017274541881376356020_);fill:#211715;" d="M553.8,465.3
		c4.3,4,8.7,7.3,14.6,8.4c6.1,1.1,13.5,0.4,18-4.3c4.5-4.7,4.4-11.5,1.2-16.9c-1.7-2.7-3.7-5.1-6-7.4c-2.2-2.5-4.5-5-6.6-7.5
		c-2.2-2.5-4.3-5.1-6.3-7.8c-0.8-1.3-2-2.3-3.4-3c-1.5-0.4-3.1-0.3-4.6,0.4c-2.7,0.7-5.5,1-8.3,0.9c-2.8,0.2-5.5-0.4-7.9-1.8
		c-1.9-1.1-3.5-2.9-5.9-2.3c-1.7,0.6-3,2.1-3.5,3.9c-1,3.2-1.5,6.6-1.5,10c-0.3,5.3-0.8,11.7,3.6,15.5c2.5,1.9,5.2,3.5,8,4.9
		C548.3,460.4,551.2,462.7,553.8,465.3c2.8,2.6,7-1.6,4.2-4.2c-3.8-3.7-8.1-6.9-12.8-9.5c-1.7-0.9-4-1.9-5-3.7
		c-0.8-1.8-1.1-3.7-0.9-5.6c0-3,0.2-5.9,0.5-8.9c0.2-1.1,0.4-2.3,0.7-3.4c0,0,0.3-1,0.1-0.4c0.2-0.7,0.2-0.1,0-0.2l0.1-0.1
		c-0.4,0.3-0.8,0.5-1.3,0.5c-0.7,0-1-0.3-0.1,0.3c4.4,3.2,9.1,4,14.5,3.9c2.2,0,4.5-0.2,6.7-0.6c0.9-0.4,1.8-0.7,2.7-0.9
		c-0.5,0,0.3,0.6,0.5,0.9c0.6,0.7,1.2,1.5,1.7,2.3c3.4,4.4,7.1,8.5,10.8,12.7c3.1,3.5,8.1,7.8,7.5,13.1c-0.7,5.8-7.4,7.2-12.2,6.9
		c-5.7-0.4-9.8-3.4-13.7-7.1C555.2,458.4,551,462.7,553.8,465.3z"/>
	<path style="clip-path:url(#SVGID_00000163755022376273240420000017274541881376356020_);fill:#211715;" d="M558.1,396.6
		c0.1,6.2,0.3,12.4,0.7,18.6c0.3,4.7,0.5,9.5,1.2,14.2c0.4,1.6,2.1,2.5,3.7,2.1c1.6-0.5,2.5-2.1,2.1-3.7c0-0.2-0.1-0.3-0.1-0.5
		c0-0.4-0.1-0.9-0.1-1.3c-0.1-1-0.2-2.1-0.3-3.1c-0.2-2.7-0.4-5.4-0.5-8.2c-0.3-6-0.5-12.1-0.6-18.1
		C564,392.7,558,392.7,558.1,396.6L558.1,396.6z"/>
	<path style="clip-path:url(#SVGID_00000163755022376273240420000017274541881376356020_);fill:#211715;" d="M532.2,397.1
		c1.1,10.4,1.6,20.9,2.8,31.3c0,1.6,1.4,2.9,3,3c1.6,0,3-1.3,3-3c-1.1-10.4-1.6-20.9-2.8-31.3c0-1.6-1.4-2.9-3-3
		C533.5,394.2,532.2,395.5,532.2,397.1z"/>
	<path style="clip-path:url(#SVGID_00000163755022376273240420000017274541881376356020_);fill:#211715;" d="M498,187.4
		c-14.1,3.7-29,11.3-36.7,24.2c-4.2,7.5-7.7,15.3-10.6,23.3c-3.2,8.2-6.5,16.4-9.5,24.6c-3.6,9.9-7,19.8-10.9,29.6
		c-0.4,1.3,0.2,2.7,1.4,3.4c8.9,5.1,18.6,8.4,28.7,10c1.6,0.4,3.2-0.5,3.7-2.1c0.4-1.6-0.5-3.2-2.1-3.7c-9.6-1.4-18.9-4.6-27.3-9.4
		l1.4,3.4c6.6-16.4,12.1-33.2,18.6-49.6c2.8-7.6,6-15.1,9.6-22.5c1.5-3.3,3.5-6.3,5.8-9.1c2.2-2.5,4.8-4.6,7.5-6.5
		c6.7-4.5,14.2-7.9,22.1-10C503.3,192.2,501.7,186.4,498,187.4L498,187.4z"/>
	<path style="clip-path:url(#SVGID_00000163755022376273240420000017274541881376356020_);fill:#211715;" d="M547.5,192.1
		c7.2,2.6,14,6.1,20.2,10.4c2.9,2,5.6,4.2,8,6.8c2.3,2.6,4.4,5.5,6,8.6c3.9,7.3,7.4,14.8,10.4,22.5c3.1,7.7,6.1,15.5,8.9,23.4
		c3.2,9,6.4,18.1,10,27l1.4-3.4c-8.5,4.8-17.7,8-27.3,9.4c-1.6,0.4-2.5,2.1-2.1,3.7c0.5,1.6,2.1,2.5,3.7,2.1
		c10.1-1.5,19.8-4.9,28.7-10c1.2-0.7,1.7-2.1,1.4-3.4c-6.6-16.4-12-33.3-18.7-49.7c-3.1-8-6.6-15.8-10.6-23.4
		c-1.8-3.5-4-6.7-6.5-9.8c-2.4-2.7-5.1-5.2-8.1-7.3c-7.3-5.3-15.3-9.6-23.9-12.6C545.4,185.1,543.9,190.8,547.5,192.1L547.5,192.1z"
		/>
	<path style="clip-path:url(#SVGID_00000163755022376273240420000017274541881376356020_);fill:#211715;" d="M435.9,292.9
		c-1.2,3-2.6,5.9-4.3,8.6c-2.1,2.9-4.4,5.7-6.8,8.3c-2.4,2.6-4.9,5-7.4,7.4c-2.3,2-4.2,4.4-5.8,7c-1.6,2.7-2,5.9-1.3,8.9
		c1.1,3.6,4.7,4.9,8.2,4.7c3.6-0.5,7.1-1.8,10.1-3.9c3.1-1.9,6.1-4.1,9-6.4l-5-1.3c1.7,6.5,11.8,9.4,16,3.6c2-2.7,2.1-6.7,2.6-9.9
		c0.5-2.8,0.9-5.6,1.6-8.3c1-3.7-4.8-5.3-5.8-1.6c-1.1,4.2-1.6,8.6-2.4,12.9c-0.3,1.7-0.2,3.9-2.3,4c-1.7,0.3-3.3-0.7-4-2.3
		c-0.5-1.6-2.2-2.5-3.8-2c-0.5,0.1-0.9,0.4-1.2,0.7c-2.3,1.8-4.7,3.5-7.2,5.1c-2.3,1.4-4.9,3.1-7.6,3.5c-1,0.1-2.3,0.3-2.6-0.8
		c-0.1-0.9,0-1.9,0.4-2.7c1-2.2,2.5-4.2,4.3-5.8c4.1-3.9,8.1-8,11.8-12.3c2-2.2,3.7-4.6,5.3-7.1c1.2-2.3,2.4-4.7,3.4-7.2
		c0.8-1.4,0.3-3.2-1.1-4.1C438.6,291,436.8,291.5,435.9,292.9L435.9,292.9z"/>
	<path style="clip-path:url(#SVGID_00000163755022376273240420000017274541881376356020_);fill:#211715;" d="M605.4,295.9
		c1.1,2.3,1.9,4.7,3.2,6.9c1.6,2.5,3.3,4.9,5.3,7.1c3.8,4.4,7.8,8.6,12,12.6c1.8,1.6,3.2,3.5,4.2,5.7c0.4,0.9,0.5,1.9,0.4,2.9
		c-0.3,1.1-1.3,0.9-2.3,0.9c-2.8-0.2-5.3-1.9-7.7-3.3c-2.6-1.6-5.1-3.4-7.5-5.3c-1.2-1.2-3.1-1.1-4.3,0.1c-0.3,0.3-0.6,0.8-0.7,1.2
		c-0.6,1.6-2.3,2.6-4,2.3c-2.1-0.1-2-2.4-2.3-4c-0.8-4.3-1.3-8.7-2.4-12.9c-1-3.7-6.8-2.1-5.8,1.6c0.7,2.7,1.1,5.4,1.6,8.1
		c0.6,3.3,0.6,7.3,2.6,10.1c4.2,5.8,14.3,2.9,16-3.6l-5,1.3c2.9,2.3,5.9,4.4,9,6.4c3,2.1,6.4,3.4,10.1,3.9c3.5,0.2,7.1-1.1,8.2-4.7
		c0.7-3,0.3-6.2-1.3-8.9c-1.6-2.6-3.5-5-5.8-7c-2.5-2.4-5-4.8-7.4-7.4c-2.4-2.6-4.7-5.4-6.8-8.3c-1.7-2.7-3.1-5.6-4.3-8.6
		c-0.8-1.4-2.7-1.9-4.1-1.1C605.1,292.7,604.6,294.5,605.4,295.9L605.4,295.9z"/>
	<path style="clip-path:url(#SVGID_00000163755022376273240420000017274541881376356020_);fill:#211715;" d="M482.3,198.6
		c3.1,8,8.7,17,16.7,20.5c9.5,4.2,19.3-1.1,26.2-7.7H521c4.1,3.9,8.9,7.5,14.6,8.7c5.8,1.4,12-0.2,16.5-4.2l-4.7-3.6l-0.1,0.1
		c-0.8,1.5-0.3,3.3,1.2,4.1c1.1,0.6,2.5,0.4,3.5-0.4c5.3-4.7,9.4-10.7,11.9-17.4c0.4-1.6-0.5-3.2-2.1-3.7c-1.6-0.4-3.2,0.5-3.7,2.1
		c-2.2,5.7-5.8,10.8-10.4,14.8l4.7,3.6l0.1-0.1c0.8-1.5,0.3-3.3-1.2-4.1c-1.1-0.6-2.5-0.4-3.5,0.4c-7.4,6.3-16.6,1.2-22.6-4.5
		c-1.2-1.1-3-1.1-4.2,0c-5.1,4.8-12.9,10-20,6.2c-6-3.2-10.4-10.2-12.9-16.4c-0.5-1.6-2.1-2.5-3.7-2.1
		C482.8,195.3,481.9,197,482.3,198.6L482.3,198.6z"/>
	<path style="clip-path:url(#SVGID_00000163755022376273240420000017274541881376356020_);fill:#FFDA71;" d="M514.2,305.5
		c-15.9-25.7-32.4-77.7-35.6-108.9c1.8-1.7,10.8-6.6,13.1-6.6c2.2,25.7,21.7,89.1,35.9,108.1"/>
	<path style="clip-path:url(#SVGID_00000163755022376273240420000017274541881376356020_);fill:#211715;" d="M516.7,304
		c-7.5-12.1-13-25.4-17.8-38.7c-5.5-15.1-10.1-30.5-13.6-46.1c-1.7-7.5-3-15-3.9-22.6l-0.9,2.1c0.4-0.4-0.4,0.2,0,0
		c0.2-0.1,0.4-0.3,0.6-0.4c0.5-0.3,1-0.6,1.5-0.9c1.2-0.7,2.3-1.3,3.5-2c1.1-0.6,2.2-1.1,3.3-1.6c0.5-0.2,1-0.4,1.6-0.6
		c0.2-0.1,0.4-0.1,0.5-0.1c0.7-0.2-0.5,0,0,0l-3-3c1.3,14.6,5.2,29.1,9.2,43.1c4.6,16.5,10.3,32.6,17.2,48.3
		c2.6,6.4,6,12.5,9.9,18.2c0.9,1.4,2.7,1.9,4.1,1.1c1.4-0.8,1.9-2.7,1.1-4.1c-3.4-4.8-6.3-10-8.6-15.4c-3.3-7.1-6.1-14.4-8.8-21.7
		c-5.8-15.8-10.6-32-14.4-48.4c-1.7-6.9-2.9-14-3.7-21.1c0-1.6-1.3-3-3-3c-3.4,0.1-6.8,2.2-9.6,3.8c-1.4,0.8-2.8,1.6-4.2,2.5
		c-0.7,0.4-1.4,1-1.9,1.7c-0.4,1.1-0.5,2.3-0.2,3.4c1.1,8.8,2.7,17.6,4.8,26.2c4.5,19.3,10.6,38.1,18.2,56.4
		c3.6,9,7.9,17.6,12.9,25.9C513.6,310.3,518.8,307.3,516.7,304z"/>
	<path style="clip-path:url(#SVGID_00000163755022376273240420000017274541881376356020_);fill:#FFDA71;" d="M522.5,341.8
		c-1-0.7-1.9-1.5-2.6-2.6c-3.1-4.9-6.7-19.1-6.5-29.3c0-3.7,4-9,8.5-10.3c17.9-5.3,31.4-7.3,48.9-12.4c3-0.8,6.2,0.4,7.7,3.1
		c3.3,4.2,6.2,9.2,8.1,18.6c1.4,7.4,0.6,23.1-6.5,25.4c-14.3,4.3-28.9,7.5-43.7,9.5l-2,0.2C530.2,344.6,526.1,343.8,522.5,341.8z"/>
	<path style="clip-path:url(#SVGID_00000163755022376273240420000017274541881376356020_);fill:#211715;" d="M517.9,298.9
		c-2.4,1-4.5,2.8-5.8,5.1c-1.5,2.6-2.1,5.6-1.7,8.5c0.3,5.9,1.2,11.8,2.8,17.5c1.1,4.3,2.5,9.4,5.7,12.7c4,4,10.3,4.8,15.7,4.3
		c6.3-0.7,12.6-1.7,18.8-3c6.9-1.3,13.7-2.8,20.4-4.7c5-1.4,10-2.3,12.8-7c2.1-4.1,3.3-8.6,3.4-13.2c0.7-11.1-2.6-22.1-9.4-30.9
		c-1.2-1.2-3.1-1.2-4.2,0c-1.1,1.2-1.1,3,0,4.2c4.9,6.5,7.6,14.3,7.8,22.4c0.2,3.8-0.3,7.6-1.3,11.3c-0.4,1.4-1,2.8-1.9,4
		c-0.3,0.5-0.8,0.9-1.3,1.1c-1,0.4-1.9,0.7-2.9,1c-11.4,3.4-23.1,6-34.8,7.8c-4.7,0.8-9.7,1.9-14.4,0.7c-1.9-0.4-3.6-1.3-4.9-2.8
		c-0.8-1.3-1.5-2.7-2-4.1c-1.8-5.1-3.1-10.5-3.8-15.9c-0.5-2.7-0.6-5.5-0.5-8.2c0.2-1.2,0.7-2.3,1.4-3.2c0.5-0.6,1.1-1.2,1.8-1.7
		C523.1,303.4,521.5,297.6,517.9,298.9L517.9,298.9z"/>
	<path style="clip-path:url(#SVGID_00000163755022376273240420000017274541881376356020_);fill:#211715;" d="M552.4,310.8l5.1-1
		c1.6-0.4,2.5-2.1,2.1-3.7c-0.2-0.8-0.7-1.4-1.4-1.8l-0.7-0.3c-0.5-0.1-1.1-0.1-1.6,0l-5.1,1c-1.6,0.4-2.5,2.1-2.1,3.7
		c0.2,0.8,0.7,1.4,1.4,1.8l0.7,0.3C551.4,311,551.9,311,552.4,310.8L552.4,310.8z"/>
	<path style="clip-path:url(#SVGID_00000163755022376273240420000017274541881376356020_);fill:#211715;" d="M543.3,324.8
		c5.9-1.3,11.8-2.7,17.6-4.4c2.9-0.9,5.7-1.8,8.5-2.9c3.1-1,6-2.3,8.8-4c2.3-1.4,4.3-3.2,5.8-5.4c1.2-2.4,1.7-5.2,1.3-7.9
		c-0.5-4.1-2.2-7.9-4.8-11.1c-1.2-1.8-2.9-3.3-4.9-4.4c-3-1.4-5.6-0.6-8.6,0.3c-6.3,1.8-12.7,3.3-19.1,4.8
		c-6.3,1.5-12.6,2.9-18.9,4.5c-4.8,1.3-15.7,2.8-12.4,10.3c2.3,5.6,5.3,10.9,8.9,15.8C530,326,537,326.1,543.3,324.8
		c3.8-0.8,2.2-6.6-1.6-5.8c-4.1,0.9-8.8,1.2-11.5-2.5c-2.7-3.8-5-7.8-6.9-12.1c-0.3-0.8-0.7-1.7-1.2-2.4c0,0,1,3,0,0.4
		c0.6,1.5-0.3,0.1,0,0.3c0.5-0.2,1-0.3,1.5-0.6c2.8-0.8,5.6-1.6,8.4-2.3c5.3-1.4,10.7-2.6,16-3.8c5.2-1.2,10.5-2.4,15.7-3.8
		c1.4-0.4,2.9-0.8,4.3-1.2c1.3-0.5,2.6-0.9,4-1.1c1.3,0.2,2.5,0.9,3.2,2c1.9,2.1,3.2,4.6,4,7.4c0.2,0.9,0.2,1.8,0.1,2.8
		c0,0.6-0.1,1.1-0.2,1.7c0,0.3-0.1,0.7-0.2,1c0.1-0.3,0.2-0.3,0,0c-1.1,1.5-2.5,2.8-4.1,3.7c-2.6,1.5-5.4,2.8-8.3,3.7
		c-2.6,0.9-5.2,1.8-7.8,2.6c-5.6,1.7-11.4,3-17.1,4.3C538,319.9,539.6,325.7,543.3,324.8z"/>
	<path style="clip-path:url(#SVGID_00000163755022376273240420000017274541881376356020_);fill:#211715;" d="M568.7,375
		c0.7,5.6,1.4,11.2,2,16.8l0.9-2.1l-0.3,0.3c0,0,0.2-0.1,0.1-0.1c-0.1,0-0.5,0.2-0.2,0.1c0.4-0.1-0.3,0.1-0.3,0.1
		c-1.2,0.4-2.4,0.7-3.6,0.9c-3.3,0.6-6.7,1.1-10,1.3c-7.5,0.6-15.1,0.7-22.6,0.8c-12.4,0.1-24.7-0.1-37.1-1
		c-4.4-0.3-8.8-0.6-13.1-1.1c-1.7-0.2-3.5-0.4-5.2-0.7c-1-0.2-2-0.5-3-0.9l1.5,2.6c0.6-5.5,1.4-11,2.3-16.5c0.4-1.6-0.5-3.2-2.1-3.7
		c-1.6-0.4-3.2,0.5-3.7,2.1c-1,6-1.8,12.1-2.5,18.1c0,1.1,0.6,2.1,1.5,2.6c2.9,1.6,6.5,1.9,9.6,2.3c4.7,0.6,9.5,0.9,14.3,1.3
		c8.1,0.6,16.2,0.9,24.2,1c7.5,0.1,15.1,0,22.6-0.1c8.7-0.2,17.5-0.5,26-2.4c2.8-0.6,6.8-1.7,6.7-5.3c-0.2-5.4-1.2-11-1.9-16.3
		c-0.1-1.6-1.4-2.9-3-3C570.3,372,568.5,373.4,568.7,375L568.7,375z"/>
	<path style="clip-path:url(#SVGID_00000163755022376273240420000017274541881376356020_);fill:#211715;" d="M567.4,121.6
		c-4.7-2.6-9.3-5.6-13.7-8.8c-5.1-3.9-9.9-9.2-12-15.5c-0.5-1.6-2.1-2.5-3.7-2c-0.5,0.1-0.9,0.4-1.3,0.7c-2.8,3.2-6.1,6-9.8,8.2
		c-1.6,0.9-3.2,1.7-5,2.3c-0.8,0.3-1.6,0.5-2.4,0.6c-0.3,0.1-0.7,0.1-1,0.2c-0.4,0-1.4-0.2-0.4,0.1l1.3,0.8c0.3,0.4,0.6,0.8,0.6,1.3
		l0-0.3c-0.2,0.2,0-0.2,0.1-0.5c0.2-0.8,0.4-1.7,0.7-2.5c0.5-1.6,1.1-3.3,1.8-4.9c0.9-2.4-2.3-4.7-4.4-3.4
		c-10.8,7.2-20.7,15.9-32.4,21.8c-3.4,1.7-0.4,6.9,3,5.2c11.6-5.9,21.6-14.6,32.4-21.8l-4.4-3.4c-1.2,2.7-2.1,5.5-2.7,8.4
		c-0.4,1.5,0,3.1,1,4.2c1.4,1.3,3.5,0.9,5.2,0.6c7.9-1.4,15.3-6.8,20.4-12.8l-5-1.3c4.3,13.2,16.9,21.3,28.4,27.9
		C567.8,128.6,570.8,123.5,567.4,121.6L567.4,121.6z"/>
	<path style="clip-path:url(#SVGID_00000163755022376273240420000017274541881376356020_);fill:#211715;" d="M486,119.7
		c-1,0.5-2,1-3,1.4l0.7-0.3c-1.4,0.7-3,1.1-4.5,1.4l0.8-0.1l-0.1,0c-0.8,0-1.5,0.3-2.1,0.9c-1.2,1.2-1.2,3.1,0,4.2
		c0.6,0.6,1.3,0.9,2.1,0.9c1.6-0.2,3.2-0.6,4.7-1.2c1.5-0.6,3-1.3,4.5-2c0.7-0.4,1.2-1,1.4-1.8c0.4-1.6-0.5-3.2-2.1-3.7c0,0,0,0,0,0
		C487.6,119.2,486.7,119.3,486,119.7L486,119.7z"/>
	<path style="clip-path:url(#SVGID_00000163755022376273240420000017274541881376356020_);fill:#FFDA71;" d="M462.1,110.2
		c-0.1-1.7,0.7-3.4,2-4.5c2.7-2.4,5.7-4.4,9-6c0-0.1,0-0.1,0.1-0.2c2.7-8.9,7.8-17,14.8-23.1c9.1-8.1,21.1-12.3,33.3-11.9
		c5.2,0.3,10,0.2,15.1,1.9c4.5,1.5,10.2,3.5,14.1,6.3c8.2,6.1,14.4,14.5,18,24.1c0.3,0.7,0.5,1.4,0.7,2.1c3.8,1.7,7.4,3.9,10.5,6.7
		c1.4,1.2,2.2,3.1,1.9,4.9c0,1.7-0.8,3.2-2.1,4.2c-8.4,5.7-37.4,8.8-57.6,8.8c-20.6,0-49.1-3.1-57.5-8.8c-1.4-0.9-2.2-2.5-2.1-4.2
		C462.2,110.4,462.1,110.3,462.1,110.2z"/>
	<path style="clip-path:url(#SVGID_00000163755022376273240420000017274541881376356020_);fill:#211715;" d="M515.8,66.2
		c-7,3-11.4,10.7-13.3,17.8c-1.9,7-3.1,14.2-3.4,21.5c-0.2,3.8,5.8,3.8,6,0c0.3-6.4,1.3-12.8,3-19c1.5-5.9,4.7-12.5,10.8-15.1
		c1.4-0.8,1.9-2.7,1.1-4.1C519,65.9,517.2,65.5,515.8,66.2L515.8,66.2z"/>
	<path style="clip-path:url(#SVGID_00000163755022376273240420000017274541881376356020_);fill:#211715;" d="M523.9,70.7
		c4.7,2.3,7.5,8.5,9.3,13.2c2.7,7,4.1,14.4,4.1,21.8c0,3.8,5.9,3.8,6,0c0-8.4-1.6-16.7-4.7-24.4c-2.3-5.8-5.7-12.8-11.6-15.7
		C523.5,63.9,520.5,69,523.9,70.7z"/>
	<path style="clip-path:url(#SVGID_00000163755022376273240420000017274541881376356020_);fill:#211715;" d="M569.1,102.3
		c2.6,1.3,11.8,5.4,9.2,9.5c-1,0.9-2.1,1.6-3.4,2c-1.7,0.7-3.4,1.2-5.2,1.7c-9.7,2.4-19.6,3.9-29.6,4.4c-10.5,0.8-21.1,0.9-31.6,0.3
		c-10.5-0.4-20.9-1.7-31.1-3.9c-3.8-0.9-7.8-1.7-10.9-3.7c-1.3-0.9-1.7-2.7-0.8-4.1c0.1-0.2,0.3-0.4,0.4-0.5
		c2.5-2.4,5.4-4.3,8.6-5.7c3.4-1.7,0.4-6.9-3-5.2c-5.3,2.7-13.2,6.8-12.3,13.9c0.2,2.8,1.8,5.3,4.2,6.7c1.7,0.9,3.4,1.7,5.2,2.3
		c10.4,3.6,22,4.7,33,5.6c12,1,24,1.1,36,0.3c11.5-0.7,23.2-1.8,34.3-5c4.3-1.2,10.7-3,12.1-7.8c1-3.3,0.2-6.9-2.2-9.4
		c-2.9-2.7-6.2-4.9-9.8-6.6C568.7,95.4,565.7,100.5,569.1,102.3L569.1,102.3z"/>
	<path style="clip-path:url(#SVGID_00000163755022376273240420000017274541881376356020_);fill:#211715;" d="M555.9,100.7
		c-3.8,1.2-7.7,2-11.7,2.6c-5.4,0.9-10.8,1.5-16.2,1.9c-10.1,0.5-20.2,0.2-30.2-1.1c-4.1-0.4-8.2-1-12.2-1.9
		c-3.7-0.9-5.3,4.8-1.6,5.8c3.6,0.8,7.3,1.4,11,1.8c5.2,0.7,10.5,1.1,15.8,1.5c10.8,0.6,21.7,0,32.5-1.7c4.8-0.6,9.6-1.6,14.2-3
		C561.1,105.3,559.5,99.5,555.9,100.7L555.9,100.7z"/>
	<path style="clip-path:url(#SVGID_00000163755022376273240420000017274541881376356020_);fill:#211715;" d="M572.8,101.5
		c-2-8.4-6-16.2-11.6-22.8c-2.9-3.5-6.3-6.6-10.1-9.1c-4-2.4-8.4-4.3-12.8-5.6c-5.3-1.8-10.7-2-16.2-2.3c-4.5-0.3-9,0.1-13.4,1.1
		c-9.2,2.1-17.7,6.7-24.5,13.3c-7.3,7.2-12.4,16.3-14.6,26.3c-0.8,3.7,4.9,5.3,5.8,1.6c3.5-16.5,15.7-29.7,31.8-34.7
		c3.9-1.2,7.9-1.8,12-1.8c4.6-0.1,9.3,0.3,13.8,1.1c8.4,1.7,16.1,5.9,22.1,12c6,6.3,10.1,14,12.1,22.4
		C567.9,106.8,573.6,105.2,572.8,101.5L572.8,101.5z"/>
	<path style="clip-path:url(#SVGID_00000163755022376273240420000017274541881376356020_);fill:#FFDA71;" d="M517.9,56.8
		c-2.3,1.3-3.7,3.8-3.5,6.4c0,1.4,0.6,2.6,1.5,3.6c1.5,1.4,3.5,2.1,5.6,1.7c3-0.4,5.5-1.4,6.5-3.4c1.2-2.2,1-5-0.5-7
		C524.9,54.6,520.1,55.2,517.9,56.8z"/>
	<path style="clip-path:url(#SVGID_00000163755022376273240420000017274541881376356020_);fill:#211715;" d="M516.4,54.2
		c-1.5,0.9-2.8,2.2-3.7,3.7c-0.9,1.7-1.3,3.6-1.2,5.6c0.3,4.4,3.9,7.9,8.3,8.1c2,0.1,4.1-0.2,6-1c2.1-0.6,3.8-2,4.9-3.9
		c1.2-2.2,1.5-4.8,0.9-7.3c-0.6-2.2-2.1-4.2-4-5.4C524,52,519.7,52.1,516.4,54.2c-1.4,0.8-1.9,2.6-1.1,4.1c0.8,1.4,2.7,1.9,4.1,1.1
		c0.2-0.1,0.4-0.2,0.6-0.3c0.1-0.1,0.3-0.1,0.4-0.2c-0.7,0.4-0.5,0.2-0.2,0.1c0.5-0.2,1-0.2,1.5-0.4c-0.8,0.2-0.5,0.1-0.2,0
		c0.1,0,0.2,0,0.3,0c0.3,0,0.6,0,0.9,0c0.1,0,0.3,0,0.4,0c-0.8,0-0.5-0.1-0.2,0c0.3,0.1,0.6,0.2,0.9,0.2c0.6,0.2-0.6-0.3-0.1,0
		c0.1,0.1,0.2,0.1,0.3,0.2c0.1,0.1,0.3,0.2,0.4,0.3c0.5,0.3-0.4-0.4-0.1-0.1c0.2,0.2,0.5,0.4,0.7,0.6l0.1,0.1
		c0.2,0.2,0.2,0.2-0.1-0.1c0.1,0.1,0.3,0.4,0.4,0.5c0.1,0.1,0.3,0.4,0.3,0.6c0-0.2-0.2-0.5-0.1-0.1c0.1,0.2,0.1,0.4,0.2,0.6
		c0,0.1,0.2,0.7,0.1,0.2c-0.1-0.5,0,0.2,0,0.2c0,0.2,0,0.4,0,0.5c0,0.3,0.1,0.6,0,0c0,0.2-0.1,0.5-0.1,0.7c0,0.2-0.1,0.5-0.2,0.7
		c0.3-0.4,0.1-0.1,0,0.1c-0.1,0.1-0.1,0.2-0.2,0.4c-0.3,0.5,0.4-0.4,0.1-0.1c-0.1,0.1-0.2,0.2-0.3,0.3c-0.1,0.1-0.5,0.4-0.1,0.1
		c0.4-0.3-0.1,0-0.1,0.1c-0.1,0.1-0.3,0.2-0.5,0.3c-0.2,0.1-0.3,0.2-0.5,0.2c0-0.1,0.7-0.3,0.1,0c-0.3,0.1-0.6,0.2-1,0.3
		c-0.3,0.1-0.7,0.2-1,0.2c-0.2,0-0.4,0.1-0.5,0.1l-0.4,0.1l0.3,0c-0.4,0.1-0.8,0.1-1.2,0c-0.7,0,0.1,0,0.1,0c0,0-0.4-0.1-0.5-0.1
		c-0.1,0-0.3-0.1-0.4-0.1c-0.1,0-0.6-0.2-0.1,0c0.5,0.2,0,0-0.1-0.1c-0.2-0.1-0.3-0.2-0.5-0.3c-0.1-0.1-0.2-0.1-0.3-0.2
		c-0.4-0.3,0.5,0.4,0.2,0.2c-0.1-0.1-0.3-0.3-0.4-0.4l-0.1-0.1c-0.2-0.2-0.2-0.2,0.1,0.1c-0.1,0-0.2-0.4-0.3-0.4
		c-0.1-0.1-0.2-0.3-0.2-0.5c0.2,0.4,0.2,0.4,0.1,0.1c0-0.1-0.1-0.2-0.1-0.3c0-0.2-0.1-0.3-0.1-0.5c0.1,0.5,0.1,0.6,0.1,0.2v-0.2
		c0-0.4,0.1-0.8,0.1-1.2c0,0.8,0,0.3,0,0.1c0-0.2,0.1-0.3,0.1-0.5s0.1-0.3,0.1-0.5c0.1-0.5-0.3,0.6-0.1,0.1c0.1-0.3,0.3-0.5,0.4-0.8
		c0.2-0.4-0.2,0.2-0.2,0.2c0.1-0.1,0.3-0.3,0.4-0.4c0.2-0.2,0.5-0.4,0.7-0.6c0.2-0.2,0.3-0.1-0.2,0.2c0.2-0.1,0.4-0.3,0.6-0.4
		c1.4-0.9,1.9-2.7,1.1-4.1C519.6,53.9,517.8,53.4,516.4,54.2z"/>
</g>
<path class="st12" d="M98.4,175.3h1.4v0.1c1.6-1.9,2.9-3.4,4.4-5.5c-1.1-0.1-1.6-0.1-2.4-0.1h-3.4V175.3z"/>
<rect x="93.3" y="198.7" class="st12" width="13" height="4.5"/>
<rect x="93.3" y="189.6" class="st12" width="13" height="4.3"/>
<path class="st12" d="M185.6,168.7h9.1c-2.3-1.8-3.1-2.5-5-4.6C188.1,166.2,187.4,167,185.6,168.7L185.6,168.7L185.6,168.7z"/>
<path class="st12" d="M249.1,197c-2,0-3.4,1-3.4,2.6c0,2.3,2.6,3.6,6.8,3.6c1.1,0,1.4,0,3-0.2C254.6,199,252.4,197,249.1,197
	L249.1,197z"/>
<rect x="246.6" y="92" class="st12" width="12" height="15.6"/>
<path class="st12" d="M289.1,188.2c0,4.6,2,8.3,4.5,8.3c1.9,0,3.8-2.4,5.9-7.2c2.2-5.1,4-12.7,4.7-19.1c-3,0.3-5.1,1-7.4,2.7
	C292.1,176.3,289.1,182.1,289.1,188.2z"/>
<path class="st12" d="M359.4,198.7c0,2.1,2,3.5,5.2,3.5c2.1,0,3.8-0.6,4.6-1.8c0.5-0.7,0.7-1.5,0.7-3.1v-1.5
	c-1.8-0.5-2.8-0.8-4.6-0.8C361.7,195,359.4,196.4,359.4,198.7L359.4,198.7z"/>
<path class="st12" d="M195.4,185.9h-12.5c0,0.8-0.1,1.2-0.2,2.3h12.7V185.9z"/>
<rect x="187.1" y="199.3" class="st12" width="9" height="4.5"/>
<rect x="183.1" y="179.5" class="st12" width="12.4" height="2.3"/>
<path class="st13" d="M27.5,115.2c-7.1,6.6-14.2,11.3-22.7,15c4.2,5,6.1,8.1,8.8,13.7c6.1-3.6,10.4-6.6,15.7-11.1
	c5.7-4.9,8.7-8.3,13.1-14.6c-0.1,2.3-0.3,6.1-0.3,7.9v10.2c0,4.4-0.2,7.5-0.7,10.8h16.3c-0.5-3.7-0.7-7.2-0.7-11v-10.4
	c0-0.5-0.1-3-0.3-7.8c7.8,11.1,16.9,18.8,30.9,26.5c3.1-6.5,4.8-9.4,8.6-14.4c-9.9-4.1-16-7.7-22.6-13.4c-4-3.6-7.1-6.9-10.2-11
	h17.1c5.2,0,8.9,0.2,12.3,0.6V91.4c-3.3,0.4-6.7,0.6-12.3,0.6H56.9v-9.5h19c6,0,9.2,0.1,12,0.5V68.4C85.2,68.8,82,69,75.8,69H57
	v-1.6c0-3,0.2-6.6,0.5-8.9H41.7c0.3,2.3,0.5,5.5,0.5,8.9V69H25.5c-6.3,0-9.3-0.1-12.3-0.6v14.7c3.2-0.4,6-0.5,12.4-0.5h16.6V92H20.4
	c-5.6,0-8.6-0.2-12.2-0.6v14.7c3.8-0.5,6.7-0.6,12.3-0.6h15.6C33.5,109.3,31.1,112,27.5,115.2L27.5,115.2z"/>
<path class="st13" d="M115.8,122.7c-5.1,3.5-10.6,6.4-16,8.6c4.1,4.8,6.2,8.1,8.9,13.7c13.8-7.4,21.9-14.5,28.9-25.2
	c-0.2,3.3-0.2,5.7-0.2,7.8v9.5c0,4.1-0.2,6.9-0.7,10.1h16c-0.5-3.7-0.7-6.6-0.7-10.1v-9.8c-0.1-2.9-0.2-4.7-0.2-5.2
	c-0.1-1.2-0.1-1.4-0.1-2.4c3.8,5.5,6.9,8.9,11.9,13.2c5.6,4.8,10.6,8.1,19,12.4c2.9-6.1,4.7-9.1,8.6-14.1
	c-14.4-5.3-23.8-11.5-31.5-21h17c5.1,0,8.7,0.2,12.1,0.6V96.5c-2.8,0.4-5.5,0.5-11.4,0.5h-5.8c2.3-3.9,4.2-7.9,6.1-12.8l-14.5-3.3
	c-1.9,6.2-4.3,11.8-7,16.1h-4.5V80.6h22.1c5.2,0,8.1,0.1,10.9,0.5V66.7c-3.1,0.4-6.4,0.6-11.9,0.6h-21v-2.1c0-2.9,0.1-4.5,0.4-6.9
	h-15.5c0.3,2.3,0.5,4,0.5,6.7v2.3h-19.5c-5.4,0-8.5-0.2-11.8-0.6v14.5c3-0.4,5.8-0.5,10.9-0.5h20.4V97h-15.7l10.5-2.6
	c-1.3-4.4-3-8.2-5.7-13.5l-13.8,3.6c2.8,5.2,3.7,7.2,5.4,12.5H114c-6.2,0-8.7-0.1-11.8-0.5v14.4c3.5-0.4,6.7-0.6,11.9-0.6h15.1
	C125.1,115.4,121.2,119,115.8,122.7L115.8,122.7z"/>
<path class="st13" d="M205.9,132.2c0,5.3-0.2,10.2-0.7,15h15v-4H267c5,0,9.1,0.2,13.7,0.7v-14.6c-4.5,0.5-7.9,0.6-13.7,0.6h-46.8V92
	h12.2v20.2c0,3.2-0.1,6.1-0.3,8.5c3.1-0.2,5.7-0.3,8.8-0.3h24c3.1,0,5.5,0.1,8.2,0.3c-0.3-3.6-0.4-6.9-0.4-9.4V91.8h0.9
	c4.7,0,7.8,0.2,11.1,0.6V78.3c-3.1,0.4-6.3,0.6-11.1,0.6h-0.9v-9c0-4.2,0.2-7.3,0.6-10.6H258c0.4,3.2,0.5,5.8,0.5,10.5v9.1h-12v-9
	c0-4.1,0.1-7,0.5-10.6h-15.2c0.4,3.4,0.6,6.4,0.6,10.8V79h-12.2v-7.1c0-5.6,0.2-9.4,0.6-12.5h-15.4c0.4,4,0.6,7.6,0.6,12.6h-0.1v7
	c-5.5-0.1-7.4-0.2-10.7-0.6v14.2c3.2-0.4,5.5-0.5,10.7-0.6L205.9,132.2L205.9,132.2z M246.6,92h12v15.6h-12V92z"/>
<path class="st13" d="M322.2,84.7c-1.1,0-1.4,0-4.1-0.1l0.1,14.4c3-0.4,4.9-0.6,9.6-0.9l7.5-0.5c2.4,17.2,7.6,30.3,15.7,40.1
	c5.4,6.5,10.2,9.5,15,9.5c3.7,0,6.5-1.7,8.7-5.1c2.8-4.4,4.3-10.1,5.5-20.8c-5.1-2.5-7.5-4-12.5-8.1c-0.6,10.2-1.8,16.1-3,16.1
	c-0.3,0-1.9-1.4-2.7-2.3c-2.4-2.9-4.6-6.3-6.4-10.3c-2.6-5.9-4.4-12.1-5.5-20l17.8-1c3.2-0.3,4.2-0.3,6.1-0.3c1.4,0,2.3,0,4.1,0.2
	l-0.1-14.7c-3,0.5-5.7,0.8-11.2,1.2l-2.6,0.1l10.4-7.5c-5.4-6.9-8.8-10.6-13.8-15.3l-11.6,7.7c4.9,5.1,9.2,10.2,12.6,15.3l-13.3,0.8
	c-0.5-6.8-0.6-10.4-0.6-15.8c0-3.9,0.1-5.7,0.5-8l-15.9,0.3c0.4,2.4,0.6,5,0.6,8c0.2,7.3,0.4,12.8,0.7,16.5l-5.1,0.3
	C327.2,84.6,323.8,84.7,322.2,84.7L322.2,84.7z"/>
<path class="st13" d="M301.5,104c-0.2,3-0.2,5-0.2,10.1h0.1v21.1c0,5-0.2,8.2-0.6,11.7h15.6c-0.4-3.7-0.6-6.7-0.6-11.7V81.3
	c3.3-7.3,5.8-13.5,7.6-18.8l-14.8-4.8c-0.5,3.4-1.6,7.4-3.5,12c-4,10.2-8.9,18-16.7,26.4c3,5.8,4.1,8.9,6,16.4
	C297.2,109.6,297.9,108.8,301.5,104z"/>
<path d="M391.6,136.5c3.6,2.1,8.6,3.1,16.5,3.1c4,0,7.2-0.2,13.3-0.8c3.1-0.3,3.3-0.4,4.6-0.4l-0.6-7.7c-4.3,1.5-11.3,2.3-18.4,2.3
	c-9.1,0-13-1.8-13-5.9s4.2-7.6,12.5-10.7c6.4-2.3,13.9-4.4,18.8-5.4l-2.4-7.1c-0.9,0.3-1.2,0.5-2.2,0.8c-7.3,2.4-12.2,4.1-14.7,5
	c-1.9-5.8-3.6-13.9-3.8-17.7l-7.4,1.1c0.3,0.9,0.3,1,0.9,3.7c1.4,6.9,2.4,10.7,3.8,15.3c-3.7,1.9-5.5,3-7.7,4.9
	c-3.3,2.7-5.1,6.3-5.1,10.1C386.7,131.1,388.5,134.6,391.6,136.5L391.6,136.5z"/>
<path d="M6.2,180.1v7.5c2.6-0.2,5.5-0.4,8.7-0.4h33.7c3.4,0,6,0.1,8.6,0.4v-7.5c-2.2,0.3-4.8,0.4-8.6,0.4H14.9
	C11.2,180.5,8.6,180.4,6.2,180.1z"/>
<path d="M98.8,158.6h-6.5c0.2,1.2,0.3,2.4,0.3,4.2v1.9h-3c-2.1,0-3.4-0.1-4.8-0.3v5.7c1.4-0.1,2.7-0.2,4.8-0.2h3v5.5h-4.3
	c-2.4,0-3.6-0.1-5-0.3v5.7c1.3-0.1,2.7-0.2,4.5-0.2v0.1h6.8c-1.6,1.4-2.7,2.3-4.8,3.8c-2.8,2.1-4,2.8-7.5,4.5c1.4,2,2.1,3.3,2.7,5.3
	c1.3-0.8,1.7-1,2.6-1.6v12.1c0,2.6-0.1,4.2-0.3,6h6v-2.5h12.9v2.6h6.1c-0.2-1.9-0.3-3.4-0.3-6.1v-14.3c0-3,0-4.4,0.2-5.9
	c-1.2,0.1-2.8,0.2-5.6,0.2h-8.9c1.6-1.4,2.6-2.4,4.3-4.1h7.7c2.7,0,3.7,0.1,5.2,0.3v-5.7c-1.3,0.1-2.6,0.2-5.3,0.2h-2.9
	c2.3-2.8,4.8-6.2,6.7-9.3c1-1.6,1.2-2,1.8-2.7l-5.6-2.9c-0.6,1.8-1.8,3.9-4.2,7.9v-3.9c-1,0.1-2.1,0.2-3.7,0.2h-3.2v-1.9
	C98.5,160.9,98.6,159.8,98.8,158.6z M106.3,203.2h-13v-4.5h13V203.2z M106.3,189.6v4.3h-13v-4.3H106.3z M101.8,169.8
	c0.8,0,1.3,0,2.4,0.1c-1.5,2.1-2.8,3.6-4.4,5.5v-0.1h-1.4v-5.5H101.8z"/>
<path d="M80.3,187l0.3,1.1l4.3-1.5c-1.1-3.8-1.8-5.6-3.8-10.1l-3.9,1.4c0.7,1.9,0.9,2.3,1.6,4.2c-2.1,0.1-4,0.2-5.6,0.3
	c2.6-3.4,6.7-9.3,9.1-13.3c0.8-1.3,1-1.7,1.5-2.3l-5.2-2.8c-0.7,2-2.4,5.2-5.3,9.7c-1-1.2-1.3-1.6-2.4-2.8c1.5-2.2,3.1-5,5.1-8.8
	c0.5-0.9,0.8-1.4,1.1-2l-5.5-2c-0.5,2.1-2.2,5.6-4.2,8.9l-1.8-1.9l-3.1,4.9c3.1,2.9,5,5,7.6,8.4c-0.8,1.2-1.8,2.6-3,4.2h-1.7
	c-1.5,0-2,0-3-0.2l0.6,5.8c0.7-0.1,2.4-0.2,5.3-0.3c1.4-0.1,2.4-0.1,3-0.2v17.2c0,2.8,0,4.2-0.3,6h6.2c-0.2-1.9-0.3-3.1-0.3-6v-17.6
	C78.1,187.2,78.3,187.2,80.3,187L80.3,187z"/>
<path d="M62.5,205.7l4.9,2.4c1.4-5,2.1-9.4,2.5-16.6l-5-1.1C64.4,197.8,63.9,201.4,62.5,205.7L62.5,205.7z"/>
<path d="M84.2,203.8c-0.5-6-0.9-8.5-1.9-13.4l-4.1,0.8c0.8,3.7,1.3,7.9,1.6,13.7L84.2,203.8z"/>
<path d="M160.9,173.7c2.7-0.3,3.5-0.4,4-0.5l-0.3-6.8c-3.8,1-9.2,1.5-15.5,1.5c-4.9,0-7.9-0.2-10.5-0.9l-0.1,6.8
	c4,0.4,7.4,0.6,10.2,0.6C152.9,174.4,157.3,174.2,160.9,173.7L160.9,173.7z"/>
<path d="M138.9,200.3c2.5,3.3,7,4.9,14.1,4.9c3.8,0,7.3-0.4,11.8-1.1c1.3-0.2,1.5-0.2,2.3-0.3l-0.6-7.2c-3.5,1.3-8.5,2.1-13.5,2.1
	c-5.9,0-9-1.7-9-4.9c0-2.4,1.2-4.8,4-8.1l-5.6-2.5c-3.5,4.1-5.2,7.9-5.2,11.6C137.2,196.8,137.9,198.9,138.9,200.3z"/>
<path d="M131.1,186.8c-2.3,5.1-2.4,5.5-3,7.5c0-1.4,0.1-1.9,0.1-3.1c0.1-4.9,0.3-8.3,0.9-12.5c0.9-7.2,2.2-13.6,3.6-16.9l-7.5-0.8
	c-0.2,1.6-0.3,2.1-0.9,5.3c-1.6,8.4-2.3,14.8-2.3,22.1c0,5.7,0.4,10.1,1.5,16.9c0.2,1.3,0.2,1.7,0.3,2.7l6.8-0.6
	c-0.1-0.7-0.1-1.2-0.1-1.5c0-4,2-10.5,5.1-17.1L131.1,186.8L131.1,186.8z"/>
<path d="M205.4,197.6h6.4c-0.2-1.5-0.2-2.6-0.2-6V169c0-2.9,0.1-4.4,0.3-5.9V163h-6.5c0.2,1.6,0.3,3.2,0.3,6v22.6
	C205.8,194.8,205.6,196,205.4,197.6z"/>
<path d="M214.8,210c7,0,8.5-1.2,8.5-6.5V166c0-3.4,0-5.2,0.3-6.8h-6.6c0.2,1.8,0.3,3.6,0.3,7v36.4c0,1.5-0.5,1.8-2.6,1.8
	c-1.8,0-4.5-0.3-6.7-0.6c0.9,2.2,1.1,3.1,1.5,6C213.3,210,213.4,210,214.8,210L214.8,210z"/>
<path d="M181.2,164.3c-2.9,2.7-5.2,4.4-9.4,6.7c1.9,1.8,2.7,2.8,4.1,5.1c0.5-0.4,0.7-0.5,1-0.7c0.1,1.7,0.2,2.7,0.2,5
	c0,12-1.4,18.5-5.3,24.4c1.7,1.4,3,2.9,4.6,5c2.5-4.2,3.9-7.8,4.9-12.5c0.1,0.5,0.1,0.9,0.1,1.6v7.2c0,1.9-0.1,3.2-0.3,4.5h5.9v-2.5
	h8.8v1.7h6c-0.1-1.3-0.2-2.6-0.2-4.5v-6.7c0-1.8,0-2.7,0.2-4.1c-1.3,0.1-2.4,0.2-3.9,0.2h-13.2c-1.4,0-2,0-3-0.1
	c0.1-0.6,0.2-1.1,0.3-2.2h15.3c1.5,0,2.3,0,3.9,0.1c-0.1-1.1-0.2-2.2-0.2-4.2V179c0-1.7,0.1-3,0.2-4.2c-1.6,0.1-2.5,0.2-4.5,0.2
	h-14.4c-2.1,0-2.9,0-4.7-0.1c1.3-0.8,3.1-2.2,4.9-3.7v2c1-0.1,1.6-0.2,3.3-0.2h8c1.3,0,2.2,0.1,3.2,0.2v-2.6
	c1.5,0.9,2.4,1.5,4.7,2.8c0.9-2.2,1.5-3.4,3-5.5c-6-2.8-9.4-5.2-12.5-8.8H186C184.8,160.9,183.5,162.3,181.2,164.3L181.2,164.3z
	 M187.1,199.3h9v4.5h-9V199.3z M183.1,179.5h12.4v2.3h-12.4V179.5z M182.9,185.9h12.5v2.3h-12.7
	C182.8,187.1,182.9,186.7,182.9,185.9z M189.6,164.1c1.9,2.1,2.7,2.8,5,4.6h-9.2C187.3,167,188.1,166.2,189.6,164.1z"/>
<path d="M261.6,201.2c-0.8-2.4-1.5-3.7-2.6-5.1c-2.3-3-5.8-4.6-9.8-4.6c-5.7,0-9.8,3.4-9.8,8.1c0,2.5,1.2,4.9,3.4,6.5
	c2.2,1.7,6.2,2.6,11,2.6c5.3,0,10.1-1.1,13.8-3.2c5-2.8,7.7-7.1,7.7-12.5c0-7.7-6.3-12.7-16-12.7c-4.2,0-6.7,0.6-11.9,2.6l-0.3-0.2
	c0.6-0.3,1.4-0.8,2.3-1.5c1.2-0.7,5.3-3.8,6.3-4.6c1.9-1.6,6.1-5.3,8.9-7.9c1.6-1.5,2-1.8,3-2.3l-3.5-5c-0.9,0.4-1.5,0.5-3.5,0.7
	c-5.5,0.4-12.5,0.7-17.3,0.7c-3.1,0-4.8-0.1-6.7-0.3l0.3,6.8c1.1-0.2,1.4-0.2,2.7-0.3c10.3-0.5,13.9-0.7,16.1-1l0.1,0.1
	c-0.3,0.3-0.9,0.9-1,1c-4.3,4.4-11.7,10.7-17,14.7c-3.7,2.8-6,4.3-8,5.3l3.9,6.1c6.8-6.2,15.1-9.5,23.4-9.5c6.9,0,11.3,2.9,11.3,7.3
	C268.4,197,266.3,199.4,261.6,201.2L261.6,201.2z M252.6,203.2c-4.2,0-6.8-1.3-6.8-3.6c0-1.6,1.4-2.6,3.4-2.6c3.2,0,5.4,2,6.4,6
	C253.9,203.2,253.6,203.2,252.6,203.2L252.6,203.2z"/>
<path d="M316,198.5c-2.7,1.5-6.1,2.4-11.3,3.1c1.9,2.4,2.5,3.6,3.5,6.6c4-0.7,6.2-1.3,8.9-2.4c8.7-3.5,13.8-11.3,13.8-21.1
	c0-12.8-8.9-21-22.5-21c-8.1,0-14.8,2.7-19.6,7.9c-4.1,4.4-6.3,10.2-6.3,16.4c0,9.1,4.6,15.7,11.1,15.7c4.6,0,8.3-3.3,11.5-10.6
	c2.9-6.4,4.9-14.2,6.1-22.9c2.5,0.2,3.9,0.7,5.7,1.7c4.6,2.7,7,7.1,7,12.5C324,190.4,321,195.8,316,198.5L316,198.5z M299.5,189.3
	c-2.1,4.8-4,7.2-5.9,7.2c-2.5,0-4.5-3.7-4.5-8.3c0-6.1,2.9-11.9,7.7-15.3c2.3-1.7,4.4-2.4,7.4-2.7
	C303.5,176.6,301.8,184.2,299.5,189.3z"/>
<path d="M375.6,169.1c0-4,0.1-6.7,0.4-8.3l-7.1,0.2c0.1,0.6,0.2,1.5,0.2,2.7c0,2.3,0.1,5.2,0.1,8.5c-2,0.1-3.2,0.1-5.2,0.1
	c-4.7,0-7.6-0.2-10.3-0.9l-0.2,6.3c0.1-0.1,0.2-0.1,0.3-0.1s0.3,0,0.6,0.1c0.1,0,0.5,0,1,0.1c0.3,0,0.9,0.1,1.7,0.1
	c2.7,0.2,5,0.3,7.1,0.3c1.5,0,2.8,0,5.1-0.1c0.3,7.8,0.3,10.6,0.5,12c-1.6-0.6-3-0.8-5.1-0.8c-6.9,0-11.7,3.8-11.7,9.3
	c0,5.8,4.6,9.3,12,9.3c5.5,0,9.5-2,10.8-5.3c0.3-0.8,0.5-2,0.5-3.2v-0.8c0.4,0.2,1.7,1.1,3.6,2.3c1.6,1,3.3,2.5,4.3,3.6l2.7-6.8
	c-0.6-0.3-0.9-0.5-1.6-1c-3.4-2.4-4.8-3.2-8.9-5.1c-0.6-9.5-0.6-9.6-0.6-12.8v-1.2c3-0.3,6-0.8,7.9-1.2c0.7-0.1,1.2-0.2,1.6-0.3
	l-0.2-6.4l-0.5,0.1c-0.7,0.3-1.1,0.4-1.3,0.5c-2.2,0.6-4.7,1.1-7.7,1.4L375.6,169.1L375.6,169.1z M369.9,197.3
	c0,1.6-0.2,2.4-0.7,3.1c-0.8,1.2-2.5,1.8-4.6,1.8c-3.2,0-5.2-1.4-5.2-3.5c0-2.3,2.3-3.7,5.9-3.7c1.8,0,2.8,0.3,4.6,0.8L369.9,197.3
	L369.9,197.3z"/>
<path d="M348.5,187.1c-0.5,1.5-0.6,1.6-0.7,1.8c-0.4,0.9-0.8,1.7-1.1,2.5c-0.3,0.9-0.6,1.5-0.7,1.9c-0.3,0.7-0.5,1.2-0.7,1.6h-0.1
	c0.1-0.6,0.1-0.7,0.1-1.2v-0.9c0-0.6,0-1.6,0.1-2.9c0-9.9,2.2-23.5,4.5-28.4l-7.7-0.8v0.2c0,0.6-0.2,2.2-0.6,4.2
	c-0.8,4.3-1.3,7-1.5,8.1c-0.8,4.9-1.1,9.9-1.1,15c0,6,0.4,11.4,1.5,18c0.2,1.3,0.2,1.6,0.3,2.2l6.9-0.4c-0.1-1-0.1-1.1-0.1-1.5
	c0-3.7,2.2-10.7,5.6-17.3L348.5,187.1L348.5,187.1z"/>
<g>
	<path class="st13" d="M768.2,419.1H10.5c-5.8,0-10.5-4.7-10.5-10.5V266.3c0-5.8,4.7-10.5,10.5-10.5h757.7c5.8,0,10.5,4.7,10.5,10.5
		v142.2C778.7,414.4,774,419.1,768.2,419.1L768.2,419.1z"/>
	<g>
		<path class="st14" d="M96.4,340.4c-2.2,0.1-3.3,0.1-4.9,0.3v-6.8c1.7,0.2,3.2,0.3,6.4,0.3h38.6c3.2,0,4.7-0.1,6.3-0.3v6.8
			c-1.8-0.2-3.3-0.3-6.5-0.3h-18.6v18.4c2.1-0.8,3.1-1.3,4.8-2.3c-1.5-1.7-2.2-2.7-3.9-5.4l5.7-2.3h-1c-2.1,0-3.2,0.1-4.4,0.2v-7.1
			c1.3,0.2,2.4,0.2,4.7,0.2h9.6c1.8,0,3.2,0,4.1-0.2l3.9,4.3c-0.2,0.3-0.7,1.2-1.3,2.5c-1.6,2.9-3.3,5.4-5.5,7.8
			c2.8,1.2,4.9,1.8,9,2.5c-1.7,2.7-2.6,4.5-3.6,7.9c-5.3-1.8-8.3-3.1-11.3-5.1c-2.7,1.9-4.6,3-8.4,4.8c-0.8-2.2-1.3-3-2.4-4.9
			c0,2.2,0.1,3.6,0.3,5.1h-8.5c0.2-1.3,0.2-2.4,0.3-5.2c-4.6,0.9-6,1.1-14.6,2.3c-0.8,0.1-1.4,0.2-2.4,0.5l-1.7-8.1
			c0.5,0.1,0.8,0.1,1.1,0.1c0.6,0,1.6-0.1,4.1-0.2L96.4,340.4L96.4,340.4z M137.6,327.6c0,2.4,0.1,3.8,0.2,5.1c-0.6,0-2.1,0-4.6-0.1
			h-30.9c-2.6,0-3.9,0.1-5.5,0.2c0.2-1.4,0.2-2.8,0.2-5.2V321c0-2.4-0.1-3.8-0.2-5.2c1.8,0.2,3.2,0.2,5.8,0.2H132
			c2.7,0,4-0.1,5.8-0.2c-0.2,1.4-0.2,2.7-0.2,5.2L137.6,327.6L137.6,327.6z M104.3,342.2h5.7v-1.8h-5.7
			C104.3,340.4,104.3,342.2,104.3,342.2z M104.3,348.6h5.7v-1.9h-5.7C104.3,346.7,104.3,348.6,104.3,348.6z M104.3,355.5
			c1.1-0.1,2.9-0.3,5.7-0.7v-1.7h-5.7L104.3,355.5L104.3,355.5z M105.2,322.6h24.2v-1.7h-24.2V322.6z M105.2,328.1h24.2v-1.6h-24.2
			V328.1z M125.5,348.7c1.2,1.8,1.6,2.4,2.8,3.7c1.3-1.3,2-2,3.1-3.7H125.5z"/>
		<path class="st14" d="M167.9,318c0-1.5-0.1-2.3-0.3-3.4h9.3c-0.2,1.1-0.3,2-0.3,3.2v0.3h15.5c2.7,0,4.2-0.1,6.1-0.3v7.6
			c-1.7-0.2-3.2-0.3-6-0.3h-39.2c-2.8,0-4.2,0.1-5.9,0.3v-7.6c1.9,0.2,3.6,0.3,6.4,0.3H167.9L167.9,318z M185.3,358.9
			c1.2,0.1,1.6,0.1,2,0.1c1,0,1.3-0.2,1.3-1v-10.7h-31.9v13c0,3.3,0.1,4.8,0.3,6.6h-8.9c0.2-1.5,0.3-3.9,0.3-6.6v-14.6
			c0-1.7-0.1-3.4-0.2-5c1.9,0.2,3.6,0.2,6.1,0.2h37.2c2.7,0,4.1-0.1,5.6-0.2c-0.2,1.5-0.2,3-0.2,5v12.9c0,4.4-0.4,5.6-2,6.6
			c-1.3,0.9-3.8,1.3-7.6,1.3c-1.1,0-2.8-0.1-4.3-0.1c-0.1-2-0.2-2.7-0.6-4.5h-14.6v2.1h-8.1c0.2-1.2,0.2-2.3,0.2-4.4v-7.7
			c0-1.4-0.1-2.3-0.2-3.2c1.3,0.1,2.5,0.2,4.5,0.2h17.1c2.2,0,3.1,0,4.2-0.2c-0.1,1-0.2,1.8-0.2,3.3L185.3,358.9L185.3,358.9z
			 M154.9,330.1c0-1.7-0.1-2.4-0.2-3.8c1.7,0.1,2.9,0.2,5.6,0.2h25.4c2.4,0,3.7-0.1,5.3-0.2c-0.2,1.2-0.2,2.1-0.2,3.8v5.4
			c0,1.8,0.1,2.6,0.2,3.8c-1.7-0.1-3-0.2-5.4-0.2h-25.3c-2.3,0-3.7,0.1-5.5,0.2c0.2-1.3,0.2-2.2,0.2-3.8L154.9,330.1L154.9,330.1z
			 M163,334h19.4v-2.2H163V334z M167.8,356h10.1v-2h-10.1V356z"/>
		<path class="st14" d="M227.3,350.6c-3.2,7.1-6.9,10.2-12,10.2c-7.4,0-12.6-7.1-12.6-17.2c0-6.5,2.2-12.4,6.4-16.9
			c4.9-5.3,11.9-8.1,20.1-8.1c7.4,0,14,2.5,18.1,6.8c3.6,3.8,5.4,9.1,5.4,15.4c0,7.2-2.7,13.8-7.4,17.9c-3.8,3.4-8.1,5.2-15.9,6.4
			c-1.3-4-2.4-6-4.7-9.1c5.2-0.4,8.6-1.3,11.6-2.8c4.3-2.3,6.6-6.9,6.6-12.9c0-4.7-1.7-8.5-4.9-10.9c-1.4-1.1-2.7-1.6-4.7-1.9
			C232.2,336.9,230.3,344.1,227.3,350.6L227.3,350.6z M217.8,330.3c-3.7,3.1-6,8.3-6,13.2c0,3.9,1.5,7,3.4,7c1.4,0,2.8-1.9,4.5-6.2
			c1.9-5,3.6-11.4,4.2-16.9C221.5,327.8,219.7,328.6,217.8,330.3L217.8,330.3z"/>
		<path class="st14" d="M266.4,322.7c-0.9-1.9-1.7-3.2-3.3-5.7l8.1-1.7c1.7,2.6,2.7,4.3,4.2,7.4h3.7c-0.8-2.3-1.5-3.9-2.9-6.4
			l8.4-1.5c1.7,3.4,2.3,5,3.3,7.9h3.3c1.4-2.4,2.7-5.2,3.4-7.7l8.5,1.8c-0.8,1.7-1.9,3.8-3.1,5.9h1.1c3.4,0,5-0.1,6.9-0.2
			c-0.2,1.3-0.2,2.5-0.2,4.7v6.2c0,1.8,0.1,3.1,0.3,4.5h-8.4V330h-33.2v7.8h-8.4c0.2-1.3,0.3-2.5,0.3-4.6v-6.1c0-2-0.1-3.3-0.2-4.7
			c2,0.2,3.4,0.2,6.8,0.2L266.4,322.7L266.4,322.7z M288,360.2c0,5.4-1.9,6.6-10.5,6.6c-0.9,0-2.4-0.1-5-0.2c-0.5-3.2-1.1-5-2.4-8.1
			c3,0.3,5.2,0.4,6.7,0.4c2.2,0,2.6-0.2,2.6-1.2v-5.3h-13.5c-3.2,0-5.8,0.1-7.6,0.3v-8.4c2.2,0.3,4.8,0.4,7.5,0.4h13.6
			c0-1-0.1-1.9-0.2-2.6h3c1.4-0.8,2.3-1.5,3.8-2.8h-11.5c-2.7,0-4.2,0.1-5.9,0.2V332c1.8,0.2,3.3,0.2,5.9,0.2h16.6
			c2.2,0,3.3-0.1,4.4-0.2l4,4.6c-0.6,0.5-0.8,0.7-1.7,1.5c-2,2-4.5,4.1-7.8,6.6h10.3c3,0,6-0.2,7.8-0.4v8.4
			c-1.8-0.2-4.7-0.3-7.9-0.3H288L288,360.2L288,360.2z"/>
		<path class="st14" d="M313.3,318.8c1.1,0.2,1.5,0.2,2.8,0.2c6.9,0,14.2-0.8,16.9-1.8l4.7,8.5c-2.5,1.4-4.7,3.3-7,6
			c-4.4,5-6.6,10.1-6.6,15c0,5.4,3,8.8,7.9,8.8c3.8,0,7.2-2.4,8.8-6.2c1.4-3.5,2-7.3,2-12.9c0-5.9-0.9-11.6-2.6-15.5l9.4-2.6
			c2.2,8,8,16.6,14.4,21l-4.7,9.2l-0.5-0.5c-0.1-0.1-0.4-0.4-0.8-0.8c-2.5-2.4-5.4-6.1-7-9.2c0.3,2.4,0.3,3.4,0.3,5.2
			c0,6-1.4,10.8-4.2,14.7c-3.4,4.7-8.9,7.4-15,7.4c-4,0-8-1-10.8-2.9c-4.4-3-7.2-8.8-7.2-15.1c0-5.7,2.2-11.5,6.1-16.7
			c0.9-1.2,1.7-2,3.3-3.7c-2.4,0.5-3.8,0.7-7.2,0.9c-2.1,0.2-2.2,0.2-3,0.4L313.3,318.8L313.3,318.8z M355.3,314.8
			c1.5,2.5,2.7,5.3,3.7,8.9l-4.4,1.4c-0.9-3.3-2.1-6.2-3.7-9L355.3,314.8L355.3,314.8z M361.2,322.8c-1-3.4-2-5.9-3.5-8.6l4.3-1.2
			c1.3,2,2.8,5.3,3.6,8.4L361.2,322.8L361.2,322.8z"/>
		<path class="st14" d="M367.8,328.5c0.2,0.1,0.4,0.1,0.5,0.1c1.8,0,7-0.4,10.7-0.9c0.9-5.8,1.3-9,1.3-10.9v-0.9l10,0.9
			c-0.2,0.7-0.3,0.9-0.3,1.3c-0.1,0.2-0.1,0.7-0.2,1l-0.4,2c-0.5,2.8-0.9,5.1-1,6c0.9-0.1,1.6-0.1,2.4-0.1c3.4,0,6,0.7,7.9,2.2
			c2.8,2.3,3.9,5.7,3.9,11.9c0,8.6-1.3,15.8-3.5,19.7c-0.8,1.3-2.2,2.5-3.5,3.3c-1.1,0.5-2.5,0.8-4.3,0.8c-2.5,0-5-0.4-8.8-1.4
			c0.2-1.6,0.2-2.2,0.2-3.2c0-2.4-0.2-3.9-0.8-6.6c3.2,1.3,6,2,7.6,2c1.2,0,1.9-0.7,2.5-2.5c0.8-2.4,1.5-8,1.5-12.3
			c0-2.3-0.3-3.7-1-4.4c-0.6-0.7-1.4-0.9-3.3-0.9c-0.5,0-1,0-2.2,0.1c-2,9.1-5.3,18.6-9.8,28.1c-0.4,1-0.5,1.2-0.9,2l-9.1-4.8
			c3.5-4.7,8.1-15.6,10.4-24.6c-3.5,0.5-7,1.1-8.6,1.6L367.8,328.5L367.8,328.5z M404.4,317c2.2,2.4,4,5,5.5,7.9l-5.3,2.5
			c-1.8-3.5-3.2-5.5-5.5-8.1L404.4,317L404.4,317z M411.7,326.5c3.5,4.9,6.6,12.1,8.5,19.7l-9.1,4.3c-1.2-7-4.4-15.9-7.5-20.2
			L411.7,326.5z M411.7,313.6c2,2.2,3.6,4.3,5.5,7.7l-5.1,2.5c-1.9-3.5-3.4-5.7-5.4-7.9L411.7,313.6L411.7,313.6z"/>
		<path class="st14" d="M422.7,321.2c0.9,0,1.7,0,2.1,0c1.4,0,3.4-0.1,9.5-0.5c8-0.5,13.4-0.8,23.9-1.2l5.7-0.2l2.3-0.1
			c1.9,0,2.2-0.1,2.5-0.1c0.4,0,0.6-0.1,1.3-0.2l0.5,10c-0.8-0.1-1-0.1-1.5-0.1c-3.9,0-8.9,1.5-12.7,3.9c-5.5,3.4-8.8,8-8.8,12.6
			c0,3.2,1.5,5.4,4.7,6.9c2.2,1.1,7.1,2,10.6,2c0.4,0,0.8,0,1.7-0.1l-1.3,10.5c-0.8-0.2-0.9-0.2-2-0.3c-6.3-0.5-10.5-1.5-14-3.1
			c-6.5-3-9.9-8.1-9.9-15.2c0-4.6,1.5-8.8,4.7-12.5c1.4-1.8,2.8-2.9,5.4-4.7l-2.6,0.3c-1.2,0.1-3.2,0.3-13.5,1.1
			c-5.2,0.5-5.4,0.5-7.8,1L422.7,321.2L422.7,321.2z M462,333.9c2.2,2.5,3.9,5,5.4,8l-5.3,2.4c-1.7-3.5-3.2-5.7-5.4-8.2L462,333.9
			L462,333.9z M469.5,330.7c2,2.2,3.5,4.4,5.4,7.8l-5.2,2.4c-2-3.7-3.4-5.8-5.3-8L469.5,330.7L469.5,330.7z"/>
		<path class="st14" d="M479.7,322.1c1.9,0.2,3.8,0.3,6.3,0.3c3.2,0,7.4-0.2,9.9-0.4c-1.2-3-1.8-4.5-2.3-5.5l9.7-1.2
			c0.3,1.8,0.7,3,1.7,5.8c5.3-0.7,11.8-2,15-3.1l0.8,8.1c-0.7,0.1-2.1,0.4-4.1,0.8c-3.2,0.7-3.3,0.7-8.8,1.6c0.4,1,1,2.5,1.3,2.9
			c7.7-1.4,10.4-2,12.9-2.9l0.8,8.1c-0.8,0.1-3.1,0.6-6.8,1.3c0,0-2.6,0.4-3.3,0.6c2.3,4,3.8,6.2,7.1,10.2l-8.1,4.2
			c-3.3-1.7-6.8-2.4-11.6-2.4c-6.2,0-9.5,1.3-9.5,3.6c0,2,2.9,3,8.8,3c6.4,0,13.2-1.3,17.6-3.4l1.3,9.4c-0.8,0.1-2.1,0.4-3.9,0.8
			c-5.3,1.2-10.4,1.7-15.5,1.7c-8.4,0-14.1-1.8-16.8-5.3c-1.3-1.7-2-3.9-2-6.1c0-3.9,2.5-7.4,6.6-9.1c3.3-1.4,7-2,11.9-2
			c2.9,0,5.2,0.2,7.6,0.7c-0.6-0.8-1.4-2.2-2.5-3.9c-4.7,0.6-11.1,1-19.1,1.2c-3.3,0.1-3.5,0.1-4.8,0.3l-0.4-8.2
			c1.6,0.2,2.7,0.2,5.7,0.2c5.3,0,10.6-0.3,15.1-0.8c-0.2-0.4-0.6-1.4-1.3-2.9c-4.9,0.5-7.4,0.6-14.5,0.6c-2.5,0.1-2.9,0.1-4.2,0.1
			L479.7,322.1L479.7,322.1z"/>
		<path class="st14" d="M534.8,317.7c2.3,0.3,4.4,0.4,8,0.4c4.9,0,11.1-0.2,16.7-0.7c2.4-0.2,3.2-0.3,4.2-0.8l4.5,6.7
			c-1,0.6-3.9,3-8.9,7.3c-2.9,2.5-3.9,3.3-7.7,6c3.1-0.8,4.7-1,7.6-1c5.2,0,8.9,1.2,11.9,3.8c2.7,2.4,4,5.6,4,9.6
			c0,5.6-2.6,10-7.7,13c-3.8,2.2-9.2,3.5-14.7,3.5c-9.4,0-15.1-3.7-15.1-9.9c0-5.2,4.6-8.9,11-8.9c4,0,7.5,1.5,9.9,4.3
			c1.1,1.2,1.7,2.3,2.5,4.4c3-1.3,4.4-3.2,4.4-6c0-3.9-3.8-6.3-9.9-6.3s-12.1,1.8-17.1,5.1c-1.7,1.1-3.5,2.5-5.3,4.2l-5.2-8.4
			c5.1-2.4,16.8-11.5,23.7-18.3c-2.9,0.3-5.2,0.4-13,0.8c-1.5,0.1-2.5,0.2-3.7,0.3L534.8,317.7L534.8,317.7z M548.5,353.8
			c-1.3,0-2.2,0.7-2.2,1.8c0,1.5,1.8,2.4,4.8,2.4c0.7,0,0.8,0,1.8-0.2C552.3,355.3,550.7,353.8,548.5,353.8L548.5,353.8z"/>
		<path class="st14" d="M597.1,328.5c-0.3,1.4-0.5,2.5-0.7,3.4c-1.1,5.2-2,8.6-3.5,12.6c-1.7,4.7-2.9,7.1-5.8,12.1
			c-2.9-2.4-5.3-4.1-8-5.4c3.2-4.8,5.3-9.3,7-15.1c0.9-3.3,1.5-6.2,1.9-10L597.1,328.5L597.1,328.5z M611.4,315.2
			c-0.3,1.9-0.4,4.6-0.4,7.9v35.1c0,3.3-0.9,5.4-2.7,6.5c-1.4,0.9-3.5,1.3-7.3,1.3c-1.9,0-4.5-0.1-6.7-0.2c-0.4-3.3-1-5.4-2.5-8.7
			c3.6,0.4,5.4,0.5,7.6,0.5c1.8,0,2.4-0.3,2.4-1.4V323c0-3.2-0.1-6-0.4-7.8L611.4,315.2L611.4,315.2z M623.5,326
			c0.4,3.5,1,6.1,2.4,10c2,5.9,4.2,10.3,7.4,14.6c-3.2,1.7-5.3,3.3-7.8,5.7c-5-7.5-8-15.2-10.3-25.8c-0.2-0.9-0.3-1.2-0.5-2
			L623.5,326L623.5,326z"/>
		<path class="st14" d="M686.2,333.2c-0.3,0.7-0.3,0.7-0.9,2.9c-1.5,6-3.7,11.1-6.9,16.1c3,2.5,6,4.3,10,6c-2.3,3.1-3.3,5-4.8,8.5
			c-4.7-2.5-7.5-4.6-10.8-7.9c-3.4,3.2-6.4,5.3-11.4,7.9c-1.3-2.6-2.5-4.4-4.2-6.2c-1.5,2.4-2.3,3.5-4.5,6.1
			c-2.2-2.4-3.9-3.9-6.9-5.9c3.2-3.2,4.5-5,6.1-8.5c-3.3,1.8-6.2,3-12.2,5.2c-1.5,0.5-2,0.8-2.7,1.2l-1.8-9c1.5-0.2,3.4-0.7,6.2-1.5
			v-12.4h-1.4c-1.9,0-2.8,0.1-4,0.2V328c1.2,0.2,2,0.2,3.9,0.2h1.4v-6.6c0-3.3-0.1-4.6-0.3-6.4h8.9c-0.3,1.8-0.3,3.1-0.3,6.4v6.7
			h1.8c1.7,0,2.2,0,2.9-0.2v8c-0.9-0.1-1.8-0.2-3.3-0.2h-1.4v9.5c1.4-0.5,1.8-0.7,3.4-1.5v5.9c0.9-2.8,1.5-5.4,1.9-8.5
			c0.4-3.1,0.7-10.1,0.7-15.1c0-6.9,0-7.8-0.2-10c1.6,0.2,3.4,0.2,6.2,0.2H680c2.8,0,4.9-0.1,6.8-0.3v8.6c-1.9-0.2-4-0.3-6.8-0.3
			h-16.3v5h14.5c2.3,0,3.4-0.1,4.4-0.2L686.2,333.2L686.2,333.2z M658.3,358.7c3.4-1.6,6.3-3.5,9.2-6.1c-2-3-3.4-5.6-4.6-8.8
			C662,349.9,660.6,354.3,658.3,358.7L658.3,358.7z M668.8,337c1.1,3.5,2.2,6.1,4.1,8.9c1.8-2.9,2.8-5.5,3.6-8.9H668.8L668.8,337z"
			/>
	</g>
</g>
</svg>
