<?xml version="1.0" encoding="UTF-8"?>
<svg id="_レイヤー_2" data-name="レイヤー 2" xmlns="http://www.w3.org/2000/svg" viewBox="0 0 778.65 419.05">
  <defs>
    <style>
      .cls-1 {
        fill: none;
      }

      .cls-1, .cls-2, .cls-3, .cls-4, .cls-5, .cls-6, .cls-7, .cls-8, .cls-9, .cls-10 {
        stroke-width: 0px;
      }

      .cls-3 {
        fill: #7abee6;
      }

      .cls-4 {
        fill: #957f6e;
      }

      .cls-5 {
        fill: #211715;
      }

      .cls-6 {
        fill: #afd8f0;
      }

      .cls-7 {
        fill: #85807f;
      }

      .cls-8 {
        fill: #87000c;
      }

      .cls-9 {
        fill: #febe69;
      }

      .cls-10 {
        fill: #fff;
      }
    </style>
  </defs>
  <g id="_レイヤー_1-2" data-name="レイヤー 1">
    <g>
      <g>
        <path class="cls-10" d="M573.56,74.74c1.38-1.28,3.22-1.95,5.1-1.87,2.41-.08,4.67,1.18,5.88,3.27,2,3.47,1.91,9.85.57,13.81-.95,2.8-2.51,7.08-6.26,10.15-1.67,1.39-3.84,2.02-6,1.73l-.58-.1c-.56,1.91-1.25,3.78-2.06,5.6-1.53,4.14-9.97,18.67-20.63,24.32.15,2.04.41,4.08.78,6.1.58,3.19.38,6.04,4.83,7.64.14.05,3.77,1.74,7.45,3.44-3.98,5.08-12.92,14.49-33.81,14.49s-29.12-8.69-33.33-13.88c3.86-1.88,7.83-3.99,7.99-4.05,4.44-1.61,4.25-4.45,4.82-7.64.32-1.85.57-3.55.72-5.34-5.26-2.29-9.94-6.17-14.38-11.48-4.67-5.64-8.13-12.18-10.18-19.21-2.3.49-4.69-.11-6.49-1.62-3.75-3.07-5.31-7.35-6.26-10.15-1.34-3.95-1.43-10.34.57-13.81,1.21-2.09,3.47-3.35,5.88-3.27,1.88-.08,3.72.59,5.1,1.87,0,0-10.57-39.72,44.8-39.72s45.49,39.71,45.49,39.71Z"/>
        <path class="cls-1" d="M736.27,96.37c3.81-8.78,1.9-23.66.38-31.08-.18-.9-.39-1.8-.64-2.68-.75-2.75-1.75-5.43-3-7.99-5.69-11.48-15.34-20.51-27.18-25.42-6.68-2.83-13.91-4.11-21.16-3.75-24.21-1.33-47.31,16.88-51.99,39.84-1.27,6.19-1.11,16.78.05,21.71,0,0,1.55,6.7,2.23,8.74"/>
        <path class="cls-4" d="M642.21,172.28c-13.46,2.23-22.05-8.45-21.99-16.15.22-6.48,1.14-12.91,2.74-19.19,2.13-7.62,3.66-21.02,3.66-39.61-.91-27.42,6.3-47.31,17.67-58.2,6.86-6.56,22.3-15.5,39.66-15.5,8.64-.14,17.22,1.51,25.19,4.83l3.85,1.56,3.88,2.27c3.35,1.96,4.54,3.64,7.99,6.94,8.65,8.29,14.66,23.2,15.62,36.55.28,3.85.82,13.05.56,20.81.01,13.35,1.88,26.63,5.54,39.46,2.22,7.49,5.2,17.13,2.8,24.57-2.92,9.08-13.41,14.66-22.51,11.42"/>
        <path class="cls-10" d="M703.31,63.55c-13.63,12.41-42.06,26.59-63.26,33.6-1.19-.72-2.56-1.08-3.95-1.03-2.35-.08-4.55,1.15-5.72,3.18-1.94,3.37-1.86,9.58-.56,13.43.93,2.72,2.43,6.89,6.09,9.87,1.75,1.47,4.08,2.05,6.31,1.58,1.99,6.84,5.36,13.2,9.9,18.69,4.32,5.17,8.87,8.94,13.99,11.17-.15,1.74-.39,3.4-.7,5.19-.56,3.1-.37,5.87-4.69,7.43-.06.02-.81.37-1.96.9,4.19,5.01,12.15,12.28,28.67,12.28s23.62-6.28,27.87-11.18c-2.29-1.08-4.17-1.96-4.28-2-4.32-1.56-4.15-4.33-4.69-7.43-.35-1.98-.6-3.95-.76-5.94,10.37-5.5,18.57-19.62,20.05-23.65.79-1.77,1.46-3.59,2.01-5.45l.56.1c2.09.28,4.21-.33,5.83-1.68,3.65-2.99,5.16-7.15,6.09-9.87,1.3-3.84,1.39-10.06-.56-13.43-1.17-2.03-3.37-3.26-5.72-3.18-1.45-.06-2.89.34-4.11,1.13-6.48-3.83-13.44-9.36-18.2-16.78-3.1-5.17-5.85-10.55-8.21-16.1"/>
        <path class="cls-5" d="M738.25,96.59c.05,13.67,1.97,27.27,5.7,40.42,2.84,9.6,7.13,22.44-2.25,29.86-3.97,3.17-9.28,4.11-14.1,2.49-3.39-1.16-4.85,4.21-1.48,5.36,10.81,3.7,23.27-3.23,26.18-14.21,1.68-6.33.29-13.17-1.37-19.35-1.81-6.74-3.84-13.35-5.03-20.25-1.33-8.04-2.02-16.17-2.09-24.31-.05-3.58-5.62-3.59-5.56,0h0Z"/>
        <path class="cls-5" d="M715.46,34.69c1.65,1.01,3.17,2.23,4.52,3.63,1.63,1.63,3.34,3.2,4.87,4.93,2.9,3.39,5.31,7.17,7.16,11.23,3.63,8.02,5.64,16.68,5.94,25.48.3,5.54.47,11.09.3,16.64-.11,3.58,5.45,3.58,5.56,0,.16-5.22.02-10.43-.25-15.63-.15-4.41-.61-8.8-1.39-13.14-1.83-9.94-6.06-19.29-12.31-27.24-1.68-2.07-3.63-3.87-5.51-5.75-1.81-1.9-3.86-3.55-6.09-4.94-3.08-1.84-5.88,2.97-2.81,4.8h0Z"/>
        <path class="cls-5" d="M709.88,25.78c-8.95-3.62-18.57-5.28-28.22-4.87-9.93.55-19.6,3.39-28.24,8.29-6.39,3.44-11.96,8.22-16.33,14.01-4.52,6.34-7.84,13.46-9.78,21-2.81,10.81-3.98,21.97-3.47,33.13.12,3.57,5.68,3.59,5.56,0-.52-16.57,1.5-34.47,10.69-48.71,3.44-5.27,8.02-9.71,13.39-13,7.47-4.76,15.9-7.79,24.69-8.88,10.29-1.06,20.68.46,30.24,4.4,1.48.4,3-.47,3.42-1.94.37-1.48-.49-2.98-1.94-3.42h0Z"/>
        <path class="cls-5" d="M623.84,97.33c0,7.77-.24,15.56-.97,23.29-.39,5.01-1.19,9.97-2.39,14.85-1.72,6.4-2.73,12.96-3.01,19.58-.1,5.17,1.93,10.15,5.6,13.79,5.23,5.39,12.59,7.25,19.88,6.12,1.47-.42,2.34-1.94,1.94-3.42-.44-1.46-1.95-2.31-3.42-1.94-5.18.86-10.46-.79-14.23-4.45-1.47-1.47-2.64-3.21-3.45-5.13-.74-1.95-.98-4.05-.71-6.12.4-5.9,1.37-11.74,2.89-17.45,1.15-4.87,1.94-9.82,2.36-14.8.81-8.08,1.06-16.21,1.07-24.32,0-3.58-5.56-3.59-5.56,0h0Z"/>
        <path class="cls-5" d="M725.77,120.23c-.72,3.1-1.72,6.14-2.99,9.06.33-.81-.12.25-.25.53-.2.42-.42.84-.64,1.26-.54,1.02-1.11,2.03-1.72,3.01-3.09,5.27-7.05,9.98-11.71,13.93-2.47,2.12-5.39,3.63-8.54,4.43-3.48.81-2.01,6.18,1.48,5.36,6.77-1.58,12.42-6.5,16.84-11.65,3.75-4.22,6.89-8.96,9.32-14.06.13-.29.25-.58.38-.87.02-.04.42-1,.24-.58-.17.39.02-.02.05-.09.14-.31.27-.62.4-.94.18-.43.35-.87.52-1.3.83-2.15,1.5-4.37,1.99-6.63.72-3.49-4.64-4.98-5.36-1.48h0Z"/>
        <path class="cls-5" d="M638.66,121.55c2,8.81,6.11,17,11.98,23.86,5.75,6.71,13.17,12.05,22.07,13.38,1.47.36,2.97-.49,3.42-1.94.4-1.48-.47-3-1.94-3.42-8.07-1.2-14.4-5.86-19.62-11.95-5.2-6.18-8.82-13.52-10.55-21.41-.79-3.49-6.16-2.01-5.36,1.48h0Z"/>
        <path class="cls-5" d="M676.54,135.49c2.74,1.42,5.8,2.13,8.89,2.07,3.25.13,6.44-.83,9.08-2.72,1.09-1.09,1.09-2.85,0-3.93-1.1-1.04-2.83-1.04-3.93,0,.95-.74-.14.05-.45.21-.24.13-.9.32-.06.06-.25.08-.49.19-.73.27-.31.1-.63.19-.95.26-.35.14-.73.21-1.11.21l.3-.04c-.12.02-.23.03-.35.04-.2.02-.4.04-.61.05-.49.03-.97.05-1.46.04-.44,0-.87-.02-1.31-.05-.2-.01-.4-.03-.6-.05s-.8.03-.15-.01c-.66-.04-1.31-.18-1.92-.43-.27-.08-.53-.18-.8-.27-.66-.22.54.26-.06-.02-.33-.15-.65-.32-.98-.49-1.33-.78-3.03-.33-3.81,1-.78,1.33-.33,3.03,1,3.81h0Z"/>
        <path class="cls-5" d="M683.76,114.87c.4,1.43.71,2.89.95,4.35l-.1-.74c.03.2.03.4.02.6l.1-.74c-.01.09-.04.18-.07.27l.28-.67c-.03.06-.06.12-.1.17l.44-.56c-.04.05-.09.1-.14.14l.56-.43c-.11.07-.23.13-.35.18l.66-.28c-.19.08-.38.14-.58.17l.74-.1c-.18.02-.36.02-.55,0l.74.1c-.21-.03-.41-.08-.61-.11-.36-.12-.74-.13-1.11-.05-.37.02-.72.13-1.03.33-1.33.77-1.77,2.48-1,3.8,0,0,0,0,0,0,.36.63.96,1.09,1.66,1.27.52.07,1.02.2,1.54.22.81,0,1.62-.19,2.34-.57.94-.44,1.64-1.28,1.9-2.29.17-.79.16-1.61-.02-2.4-.23-1.4-.56-2.79-.93-4.17-.41-1.48-1.94-2.35-3.42-1.94,0,0,0,0,0,0-1.46.43-2.32,1.94-1.94,3.42h0Z"/>
        <path class="cls-5" d="M700.91,65.77c2.95,6.74,6.11,13.67,10.64,19.51,4.56,5.7,10.14,10.5,16.44,14.18,3.07,1.85,5.87-2.95,2.81-4.8-5.85-3.38-11-7.84-15.18-13.14-4.19-5.56-7.13-12.21-9.91-18.56-.78-1.32-2.48-1.76-3.81-1-1.29.8-1.73,2.47-1,3.81h0Z"/>
        <path class="cls-5" d="M701.34,61.58c-6.37,5.51-13.32,10.3-20.73,14.31-8.49,4.83-17.27,9.15-26.29,12.92-4.84,2.03-9.76,3.9-14.74,5.57-3.38,1.13-1.93,6.5,1.48,5.36,9.36-3.17,18.5-6.93,27.39-11.24,8.87-4.17,17.43-8.97,25.61-14.37,3.94-2.6,7.69-5.48,11.21-8.62,2.67-2.41-1.28-6.33-3.93-3.93h-.01Z"/>
        <path class="cls-5" d="M643.02,95.97c-3.05-2.73-7.43-3.39-11.15-1.67-2.6,1.32-4.48,3.73-5.12,6.58-1.77,6.51-.1,14.11,3.63,19.67,2.53,3.76,6.51,7.14,11.35,6.52,1.52-.05,2.73-1.27,2.78-2.78,0-1.53-1.25-2.77-2.78-2.78-3.57.46-5.95-2.48-7.5-5.34-1.35-2.41-2.2-5.06-2.5-7.81-.23-2.68-.21-5.88,1.36-8.15-.36.52.1-.1.17-.17,0,0,.59-.52.29-.3.45-.35.98-.59,1.54-.7,1.4-.38,2.89-.05,4,.87,2.67,2.38,6.61-1.54,3.93-3.93h0Z"/>
        <path class="cls-5" d="M730.83,99.9c1.06-.88,2.46-1.22,3.8-.91.63.1,1.23.36,1.74.74-.27-.2.85,1.04.46.46,1.56,2.28,1.59,5.47,1.36,8.15-.3,2.74-1.15,5.4-2.5,7.81-1.55,2.86-3.92,5.81-7.5,5.34-1.53,0-2.77,1.25-2.78,2.78.04,1.52,1.26,2.74,2.78,2.78,7.91,1.03,12.74-7.55,14.71-13.93,1.76-5.7,1.74-14.63-3.84-18.29-3.85-2.36-8.8-1.9-12.15,1.12-2.68,2.39,1.27,6.31,3.93,3.93h0Z"/>
        <path class="cls-5" d="M661.27,102.39c-.73,2.36-.25,7.8,4.22,8.26,5.91-.03,6.23-6.61,4.24-9.7-1.63-2.53-6.43-3.58-8.46,1.44Z"/>
        <path class="cls-5" d="M708.65,102.39c.73,2.36.25,7.8-4.22,8.26-5.91-.04-6.23-6.61-4.24-9.7,1.64-2.53,6.43-3.58,8.46,1.44Z"/>
        <path class="cls-5" d="M646.68,176.11c1.35-.47,2.65-1.15,3.95-1.74,2.03-.93,4.06-1.86,6.08-2.81,1.59-.74,3.18-1.48,4.78-2.21.16-.08.33-.15.49-.23.13-.06.39-.17-.21.09-.73.32-.04.03.15-.05.37-.15.74-.3,1.1-.47,1.55-.72,2.83-1.9,3.67-3.39.67-1.39,1.09-2.88,1.25-4.42.35-2.28.74-4.55.95-6.85-.01-1.53-1.25-2.77-2.78-2.78-1.52.03-2.75,1.26-2.78,2.78-.24,2.85-.72,5.68-1.42,8.45-.09.35.26-.37.03-.09-.08.12-.15.24-.21.37-.31.53.18-.08-.16.22-.12.1-.22.22-.34.32.34-.32.08-.05-.03.02-.29.18-.75.45-.94.54-.34.16-1.04.43-1.53.65-3.39,1.56-6.77,3.14-10.16,4.7-.88.4-1.76.8-2.64,1.2l-.84.37c-.66.29.66-.24.12-.05-1.46.44-2.31,1.95-1.94,3.42.42,1.47,1.94,2.34,3.42,1.94h0Z"/>
        <path class="cls-5" d="M702.83,153.79c.19,2.15.5,4.27.86,6.4.13,1.13.34,2.25.62,3.35.4,1.4,1.17,2.67,2.23,3.68.6.55,1.27,1.02,1.99,1.39.48.24.97.45,1.46.64.98.38-.63-.31-.26-.12,3,1.55,6.14,2.9,9.19,4.34,1.43.68,2.85,1.38,4.32,1.99,1.48.4,3.01-.47,3.42-1.94.37-1.48-.49-2.98-1.94-3.42,1.4.58,0-.03-.33-.18-.66-.31-1.31-.62-1.96-.93-1.77-.84-3.54-1.67-5.31-2.51-1.37-.65-2.74-1.3-4.11-1.94-.15-.07-.3-.14-.45-.21l-.12-.05c-.19-.09-.48-.2-.67-.28-.03-.01-.52-.22-.19-.07-.28-.13-.56-.28-.83-.45-.07-.04-.5-.34-.22-.13.25.19-.04-.04-.08-.07-.16-.16-.62-.72-.27-.22-.17-.24-.29-.52-.46-.76s.08.19.09.22c-.06-.19-.13-.37-.19-.56-.08-.25-.14-.51-.19-.77-.13-.61-.21-1.23-.3-1.84-.29-1.88-.59-3.67-.76-5.56-.04-1.52-1.26-2.74-2.78-2.78-1.53.01-2.77,1.25-2.78,2.78h0Z"/>
        <path class="cls-7" d="M500.33,58.88c-3.45,3.1-6.73,6.37-9.84,9.81l-7.22,6.06c-1.38-1.28-3.22-1.95-5.1-1.87-.75.02-1.49.13-2.2.35-1.64-5.8-2.38-11.82-2.21-17.85.46-16.81,8.72-32.44,22.33-42.31,9.32-6.85,20.63-10.46,32.2-10.28,12.08-.15,23.85,3.78,33.42,11.16,10.09,7.62,20.24,20.72,21.12,41.43.22,6.01-.51,12.01-2.15,17.79-.65-.17-1.33-.27-2-.29-1.88-.08-3.72.59-5.1,1.87l-7.16-5.68c-2.31-5.82-7.53-12.25-12.98-16.93-2.44-2.19-5.23-3.94-8.26-5.2l-8.97-1.1c-6.05,2.55-14.58,7.9-19.37,10.56-.81.4-1.79.06-2.19-.75-.15-.31-.2-.67-.14-1.01.12-1.05.05-2.12-.21-3.15-.32-1.3-1.33-1.86-2.11-1.45-4.27,2.49-8.24,5.45-11.84,8.84Z"/>
        <path class="cls-5" d="M485.24,72.78c-3.11-2.78-7.58-3.45-11.36-1.7-2.66,1.34-4.58,3.81-5.22,6.72-1.82,6.68-.1,14.47,3.72,20.16,2.59,3.85,6.65,7.3,11.6,6.66,1.52-.05,2.73-1.27,2.78-2.78,0-1.53-1.25-2.77-2.78-2.78-3.7.48-6.17-2.57-7.78-5.53-1.4-2.49-2.28-5.23-2.58-8.06-.23-2.75-.23-6.06,1.4-8.42-.38.54.7-.66.5-.51.48-.35,1.02-.6,1.6-.73,1.46-.4,3.03-.06,4.19.91,2.67,2.38,6.61-1.54,3.93-3.93h0Z"/>
        <path class="cls-5" d="M575.53,76.71c1.1-.93,2.58-1.28,3.98-.96.66.11,1.27.38,1.81.77-.21-.16.87,1.04.5.51,1.63,2.36,1.64,5.68,1.4,8.42-.31,2.83-1.19,5.58-2.58,8.06-1.61,2.96-4.07,6.01-7.78,5.53-1.53,0-2.77,1.25-2.78,2.78.04,1.52,1.26,2.74,2.78,2.78,8.09,1.05,13.03-7.73,15.05-14.27,1.8-5.82,1.79-14.97-3.92-18.71-3.93-2.41-8.98-1.94-12.4,1.14-2.68,2.39,1.27,6.31,3.93,3.93h0Z"/>
        <path class="cls-5" d="M570.45,97.68c-.74,3.19-1.77,6.3-3.07,9.31.33-.83-.13.27-.25.53-.22.46-.45.91-.68,1.36-.56,1.07-1.16,2.12-1.79,3.15-3.17,5.38-7.22,10.19-11.97,14.24-2.56,2.21-5.59,3.79-8.87,4.62-3.49.81-2.01,6.18,1.48,5.36,6.96-1.62,12.76-6.69,17.31-11.98,3.85-4.34,7.07-9.21,9.57-14.45.13-.29.25-.58.38-.87.01-.03.42-1,.23-.58s.06-.12.1-.21c.14-.31.27-.63.4-.94.18-.43.35-.87.51-1.3.85-2.19,1.52-4.45,2.02-6.74.72-3.49-4.64-4.98-5.36-1.48h0Z"/>
        <path class="cls-5" d="M480.89,99c2.07,9.12,6.34,17.59,12.45,24.67,5.88,6.81,13.45,12.22,22.51,13.57,1.47.36,2.97-.49,3.42-1.94.4-1.48-.47-3-1.94-3.42-8.23-1.23-14.72-5.95-20.06-12.14-5.43-6.39-9.21-14.02-11.01-22.21-.79-3.49-6.16-2.01-5.36,1.48h0Z"/>
        <path class="cls-5" d="M559.8,9.24c-16.67-10.62-37.55-12.18-55.62-4.16-14.44,6.69-25.46,19.07-30.42,34.19-3.43,11-3.67,22.75-.7,33.88.89,3.47,6.26,2,5.36-1.48-4.18-16.37-1.23-34.23,9.76-47.37,10.07-12.43,25.42-19.37,41.4-18.72,9.75.19,19.24,3.12,27.4,8.46,3.01,1.95,5.8-2.86,2.81-4.8h0Z"/>
        <path class="cls-5" d="M583.53,73.15c2.35-9.16,2.64-18.74.84-28.03-1.52-7.74-4.69-15.07-9.31-21.47-2.26-3.12-4.84-6-7.68-8.59-2.64-2.4-6.59,1.52-3.93,3.93,10.58,9.77,16.6,23.52,16.62,37.92,0,4.98-.65,9.94-1.91,14.76-.85,3.48,4.51,4.96,5.36,1.48h0Z"/>
        <path class="cls-5" d="M519.79,113.29c2.81,1.46,5.94,2.18,9.1,2.12,3.32.13,6.58-.85,9.28-2.78,1.09-1.09,1.09-2.85,0-3.93-1.1-1.04-2.83-1.04-3.93,0,.94-.73-.17.07-.47.23-.24.13-.9.31-.09.07-.25.08-.5.19-.76.27-.69.21-1.4.37-2.11.48.4-.07.22-.03-.07,0-.21.02-.41.04-.62.05-.5.03-1,.04-1.51.04-.45,0-.9-.02-1.35-.05-.21-.01-.41-.03-.62-.05-.12-.01-.87-.15-.17-.02-.67-.13-1.32-.24-1.97-.44-.28-.08-.55-.18-.82-.27-.66-.23.52.26-.08-.03-.34-.16-.67-.33-1-.5-1.33-.78-3.03-.33-3.81,1-.78,1.33-.33,3.03,1,3.81h0Z"/>
        <path class="cls-5" d="M527.26,92.13c.41,1.47.73,2.97.98,4.48l-.1-.74c.03.21.03.41.02.62l.1-.74c-.01.09-.04.19-.07.28l.28-.66c-.03.06-.06.12-.1.18l.43-.56c-.04.05-.09.1-.15.14l.56-.43c-.11.07-.23.13-.35.19l.66-.28c-.19.08-.39.14-.6.17l.74-.1c-.19.02-.37.02-.56,0l.74.1c-.21-.03-.42-.08-.63-.11-.36-.12-.74-.13-1.11-.05-.37.02-.72.13-1.03.33-1.33.78-1.77,2.48-1,3.8.36.63.96,1.09,1.66,1.27.52.07,1.03.2,1.57.23.82,0,1.63-.2,2.36-.58.95-.44,1.66-1.29,1.92-2.31.17-.8.16-1.63-.02-2.43-.24-1.44-.58-2.87-.95-4.29-.2-.69-.66-1.29-1.27-1.66-1.33-.78-3.03-.33-3.81.99-.38.65-.48,1.42-.28,2.15h0Z"/>
        <path class="cls-5" d="M504.06,79.32c-.75,2.43-.26,8.02,4.34,8.49,6.08-.04,6.41-6.79,4.36-9.97-1.68-2.6-6.61-3.68-8.7,1.47Z"/>
        <path class="cls-5" d="M552.77,79.32c.75,2.43.26,8.02-4.34,8.49-6.08-.04-6.41-6.79-4.36-9.97,1.68-2.6,6.61-3.68,8.7,1.47Z"/>
        <path class="cls-5" d="M543.76,49.35c4.38,2.01,8.31,4.87,11.56,8.42,3.51,3.47,6.35,7.55,8.4,12.04.45,1.45,1.95,2.3,3.42,1.94,1.47-.42,2.34-1.94,1.94-3.42-2.27-5.29-5.51-10.11-9.56-14.21-3.63-4.03-8.04-7.29-12.96-9.58-1.33-.73-3-.29-3.81,1-.76,1.33-.32,3.02,1,3.81h0Z"/>
        <path class="cls-5" d="M492.46,70.65c5.25-6.06,11.2-11.48,17.72-16.14.72-.49,1.45-.96,2.2-1.41.21-.1.41-.22.6-.35.36-.29.29.05.02-.12-.49-.12-.96-.29-1.42-.5.03.25.08.49.15.73-.03,1.04.01,2.07.12,3.1.31,1.23,1.11,2.27,2.22,2.89,2.15,1.15,4.06.02,5.93-1.05,1.71-.98,3.41-1.99,5.12-2.98,4.03-2.45,8.2-4.65,12.49-6.58,1.32-.78,1.76-2.48,1-3.81-.8-1.29-2.47-1.73-3.8-1-3.82,1.71-7.54,3.65-11.14,5.8-1.78,1.02-3.55,2.07-5.33,3.1-.78.34-1.52.76-2.2,1.26-.04.04-.43.19-.43.24,0,0,1.39.5,1.42.5.28.05-.02.85.19-.1.04-.27.05-.55.02-.83-.05-2.41-.84-5.35-3.46-6.11-2.06-.6-3.89.7-5.54,1.76-3.52,2.34-6.85,4.96-9.95,7.83-3.45,3.09-6.74,6.37-9.85,9.81-2.39,2.65,1.53,6.61,3.93,3.93h0Z"/>
        <path class="cls-5" d="M494.13,153.17c2.53-1.17,5.03-2.42,7.51-3.7.84-.43,1.68-.87,2.53-1.3.2-.1.4-.2.59-.3.14-.08.4-.25-.25.12.46-.25.98-.39,1.45-.63,2.36-1.19,4.03-3.41,4.55-6,.61-2.95,1.05-5.93,1.3-8.92,0-1.53-1.25-2.78-2.78-2.78-1.52.04-2.74,1.26-2.78,2.78-.21,2.5-.58,4.99-1.1,7.45-.1.45-.24.87-.38,1.3.2-.65.06-.15-.04.03s-.6.78-.12.25c-.14.15-.29.3-.43.45-.23.2-.22.19.05,0-.13.09-.26.18-.4.27-.56.33-1.15.61-1.76.84-3.63,1.7-7.12,3.68-10.76,5.36-1.32.78-1.76,2.48-1,3.81.8,1.3,2.47,1.74,3.8,1h0Z"/>
        <path class="cls-5" d="M567.47,148.03c-2.35-1.08-4.69-2.16-7.03-3.25-1.49-.7-2.97-1.45-4.5-2.05-.83-.33.13.08-.29-.12-.27-.13-.54-.27-.79-.43-.13-.08-.26-.17-.39-.26.27.21.28.22.05.02-.14-.15-.29-.3-.43-.44.5.5-.01-.04-.12-.23s-.2-.7-.18-.35c.09.22.09.21,0-.02-.04-.12-.08-.24-.12-.36-.07-.24-.13-.49-.18-.74-.51-2.44-.87-4.91-1.09-7.39-.03-1.52-1.26-2.75-2.78-2.78-1.53.02-2.76,1.25-2.78,2.78.25,2.98.68,5.94,1.29,8.87.5,2.62,2.2,4.86,4.58,6.07.46.23.95.43,1.44.62.95.37-.73-.35-.26-.12.19.09.39.18.58.27.9.42,1.8.83,2.7,1.25,2.49,1.15,4.97,2.3,7.46,3.45,1.33.74,3.01.3,3.81-1,.76-1.33.31-3.02-1-3.8h0Z"/>
        <path class="cls-10" d="M439.31,190.5c-1.67,4.86-3.04,9.82-4.12,14.84-2.88,12.49-7.33,102.41-7.33,120.55h204.74c-.83-12.81-1.83-28.35-1.83-28.35-1.29-14.97-7.61-81.32-10.5-93.8-3.59-15.54-7.6-29.9-24.88-41.03-4.05-2.65-8.34-4.93-12.8-6.8-4.17-1.76-13.43-5.34-19.76-7.31-3.9,5.03-12.78,14.73-34,14.73s-30.68-10.35-34.38-15.22c-6.72,2.9-14.91,6.57-19.63,8.56-5.12,2.15-10.05,4.7-14.76,7.64-9.76,6.04-17.11,15.3-20.76,26.18Z"/>
        <path class="cls-5" d="M558.92,150.39c6.55,1.83,12.97,4.07,19.24,6.71,7.47,2.76,14.47,6.67,20.74,11.57,5.69,4.7,10.2,10.67,13.15,17.43,2.51,6.07,4.39,12.38,5.63,18.83.72,3.33,1.17,6.73,1.63,10.11.03.24.07.49.1.73.07.49-.04-.3.05.39.08.61.16,1.21.24,1.82.16,1.24.32,2.48.47,3.72.34,2.72.66,5.44.97,8.16,1.43,12.36,2.71,24.75,3.94,37.13.95,9.52,1.87,19.04,2.71,28.57.06.66.12,1.32.17,1.98.04,1.52,1.26,2.74,2.78,2.78,1.53-.01,2.77-1.25,2.78-2.78-.77-8.94-1.64-17.87-2.51-26.8-1.24-12.57-2.52-25.13-3.95-37.67-1.07-9.43-2-18.96-3.77-28.3-2.5-13.2-6.95-26.64-16.53-36.43-6.29-6.43-14.33-11.22-22.55-14.73-6.38-2.73-12.92-5.2-19.53-7.33-1.42-.46-2.86-.89-4.31-1.27-3.48-.89-4.95,4.48-1.48,5.36h0Z"/>
        <path class="cls-5" d="M493.99,145.3c-4.83,2.07-9.62,4.2-14.43,6.31-4.43,1.94-8.91,3.77-13.22,5.95-9.17,4.65-17.5,10.73-23.34,19.32-4.88,7.17-7.55,15.53-9.59,23.89-.95,3.94-1.65,7.93-2.08,11.96-1.3,11.72-2.02,23.51-2.76,35.28-.91,14.58-1.7,29.16-2.35,43.75-.49,10.66-1,21.34-1.13,32.01-.01.7-.02,1.41-.02,2.11,0,3.58,5.56,3.59,5.56,0,0-9.59.5-19.19.91-28.77.62-14.29,1.35-28.58,2.2-42.86.74-12.45,1.52-24.9,2.71-37.32.2-2.1.42-4.21.68-6.3.05-.39.1-.78.15-1.18,0-.03-.1.67,0,.01.03-.21.06-.41.09-.62.1-.64.2-1.29.32-1.92,1.25-7.24,3.44-14.29,6.51-20.98,4.09-8.3,10.5-15.24,18.44-19.98,8.53-5.23,18.02-8.82,27.16-12.83,2.33-1.02,4.66-2.03,7-3.04,1.32-.78,1.76-2.48,1-3.81-.8-1.29-2.47-1.73-3.81-1h0Z"/>
        <path class="cls-5" d="M492.06,149.52c5.55,7.44,13.5,12.72,22.51,14.95,7.76,1.85,15.8,2.17,23.68.95,5.99-.8,11.74-2.85,16.89-6,3.71-2.36,6.97-5.35,9.66-8.83,1.04-1.11,1.04-2.83,0-3.93-1.09-1.08-2.84-1.08-3.93,0-.93,1.2-1.92,2.35-2.97,3.44-.59.61-1.21,1.19-1.85,1.76-.66.59-1.35,1.15-2.08,1.67-4.26,3-9.12,5.06-14.24,6.03-11.71,2.42-25.48,1.22-35.45-5.63-.83-.54-1.61-1.15-2.35-1.81-.76-.65-1.49-1.34-2.19-2.06-.61-.63-1.19-1.27-1.75-1.94-.27-.31-.52-.64-.78-.95-.1-.13-.2-.26-.3-.38.55.7.08.11-.03-.04-.81-1.29-2.47-1.72-3.81-1-1.32.78-1.76,2.48-1,3.81h0Z"/>
        <path class="cls-5" d="M462.66,204.99v119.3c0,3.58,5.56,3.58,5.56,0v-119.3c0-3.58-5.56-3.59-5.56,0Z"/>
        <path class="cls-5" d="M587.71,204.99v119.3c0,3.58,5.56,3.58,5.56,0v-119.3c0-3.58-5.56-3.59-5.56,0Z"/>
        <path class="cls-3" d="M705.52,176.18c-5.68,2.58-11.86,3.83-18.1,3.66-18.17,0-25.99-8.81-29.82-13.71-14.25,5.1-34.04,13.11-41.12,20.47-8.62,8.98-11.12,17.2-13.5,26.46-4.56,17.03-7.78,34.39-9.62,51.93-1.38,13.5,6.87,29.18,18.81,32.09l86.6,16.17,3.49,16.23c.22,2.05,2.07,3.54,4.12,3.32.04,0,.08,0,.11-.01,11.82-1.6,24.32-7.09,36.22-12.13,7.09-3.06,13.74-7.07,19.75-11.92,11.33-9.59,14.35-23.3,13.15-44.81-.35-12.85-5.87-41.31-8.37-50.34-2.69-9.73-4.88-17.48-13.51-26.46-6.32-6.58-23.97-14.11-37.78-19.26-2.82,3.51-6.39,6.35-10.44,8.31Z"/>
        <path class="cls-5" d="M655.84,168.36c4.83,6.21,11.54,10.69,19.14,12.74,10.8,2.89,23.76,2.14,33.63-3.39,3.54-2.01,6.68-4.65,9.26-7.8,1.04-1.1,1.04-2.83,0-3.93-1.09-1.07-2.84-1.07-3.93,0-4.75,5.74-11.48,9.5-18.86,10.52-9.62,1.62-20.39.36-28.47-5.33-1.4-1.01-2.71-2.14-3.9-3.38-1.04-1.07-2.02-2.2-2.93-3.37-1.09-1.08-2.84-1.08-3.93,0-1.05,1.1-1.05,2.83,0,3.93Z"/>
        <path class="cls-5" d="M628.31,226.29c2.17,17.6,2.43,35.4,5.26,52.94.42,1.47,1.94,2.34,3.42,1.94,1.46-.44,2.31-1.95,1.94-3.42-2.74-17.04-2.95-34.35-5.06-51.46-.05-1.52-1.26-2.74-2.78-2.78-1.53,0-2.77,1.25-2.78,2.78h0Z"/>
        <path class="cls-5" d="M612.91,294.4c-8.84-2.26-14.25-11.37-16.16-19.75-1.2-5.28-.57-10.46.08-15.77.75-6.23,1.73-12.44,2.88-18.61,1.87-10.01,4.14-19.98,6.86-29.79,2.68-9.69,7.47-19.4,15.9-25.22,4.96-3.27,10.2-6.09,15.66-8.41,5.82-2.62,11.76-4.94,17.75-7.13,1.46-.44,2.31-1.95,1.94-3.42-.42-1.47-1.94-2.34-3.42-1.94-11.08,4.06-22.44,8.38-32.5,14.64-4.5,2.8-8.45,6.41-11.63,10.65-3.5,4.68-6.18,9.93-7.92,15.51-1.6,4.93-2.78,10-4,15.03-1.31,5.4-2.51,10.82-3.56,16.27-1.25,6.45-2.3,12.94-3.15,19.46-.8,6.1-1.67,12.1-.64,18.22,1.83,10.96,9.1,22.74,20.44,25.63,3.47.89,4.95-4.48,1.48-5.36Z"/>
        <path class="cls-5" d="M778.4,263.93c-.41-7.92-1.36-15.81-2.84-23.61-1.31-7.86-2.79-15.72-4.62-23.48-1.92-8.14-4.23-16.53-8.81-23.62-2.62-4.21-5.95-7.92-9.84-10.99-3.78-2.74-7.81-5.11-12.04-7.09-8.43-4.12-17.11-7.69-25.99-10.69-3.39-1.16-4.85,4.21-1.48,5.36,7.13,2.42,14.13,5.22,20.98,8.37,4.49,2.01,8.84,4.33,13,6.95,3.5,2.3,6.56,5.22,9,8.62,5,6.8,7.42,14.86,9.42,22.95,1.77,7.18,3.16,14.46,4.44,21.75,1.47,8.4,2.96,16.94,3.21,25.47.11,3.57,5.67,3.59,5.56,0h0Z"/>
        <path class="cls-10" d="M654.84,224.06c12.53.1,16.2-5.87,19.38-10.4,3.41-4.85,3.58-10.81,2.29-16.91-.79-3.7-1.74-7.7-2.45-11.76-1.51-10.05-6.53-20.39-16.43-24.42-5.25-2.07-10.91-2.9-16.54-2.43-23.19,1.91-35.31,12.98-34.76,34.47.24,7.31,2.25,14.46,5.88,20.81,2.54,4.26,8.28,8.91,14.18,11.45"/>
        <path class="cls-5" d="M667.82,212.12c.76-.22,1.53-.4,2.32-.52,1.08-.28,1.88-1.21,1.99-2.32.08-.37.07-.75-.05-1.11l-.28-.67c-.24-.41-.59-.76-1-1l-.66-.28c-.48-.13-.99-.13-1.48,0-.78.12-1.56.3-2.32.52-1.45.45-2.3,1.95-1.94,3.42l.28.67c.24.41.59.76,1,1l.66.28c.48.13.99.13,1.48,0h0Z"/>
        <path class="cls-5" d="M652.56,197.65c.76-.3,1.55-.51,2.36-.63l-.74.1c.37-.05.75-.07,1.13-.04,1.12.02,2.13-.66,2.54-1.71.17-.33.26-.7.24-1.07,0-.74-.29-1.45-.81-1.97l-.56-.43c-.43-.25-.91-.38-1.4-.38-.27-.02-.53-.02-.8,0-.53.04-1.06.12-1.58.22-.63.13-1.25.31-1.84.54-1.45.45-2.3,1.95-1.94,3.42.2.7.65,1.29,1.27,1.66l.67.28c.48.13.99.13,1.48,0h0Z"/>
        <path class="cls-5" d="M671.03,194.58c.59-.22,1.2-.36,1.83-.43l-.74.1c.44-.07.88-.09,1.32-.07,1.52-.04,2.74-1.26,2.78-2.78,0-.74-.29-1.45-.81-1.97l-.56-.43c-.43-.25-.91-.38-1.4-.38-.77-.02-1.53.05-2.28.2-.55.07-1.09.2-1.6.4-1.08.28-1.88,1.2-1.99,2.32-.08.37-.07.75.05,1.11.2.7.65,1.29,1.27,1.66l.67.28c.48.13.99.13,1.48,0h0Z"/>
        <path class="cls-5" d="M635.65,198.08c-2.95-1.57-6.55-1.2-9.12.94-2.54,2.23-3.14,6.02-2.49,9.18.7,2.94,2.33,5.57,4.64,7.52,2.34,2.09,5.29,3.36,8.41,3.64,1.53,0,2.78-1.25,2.78-2.78-.04-1.52-1.26-2.74-2.78-2.78-.67-.06.22.08-.36-.05-.3-.07-.6-.13-.9-.21-.25-.07-.49-.15-.73-.23-.12-.04-.23-.09-.35-.13.25.1.28.12.1.03-.45-.26-.92-.47-1.36-.76-.19-.13-.38-.26-.57-.39.39.27.03.03-.14-.12-.38-.32-.74-.65-1.08-1.01-.18-.19-.35-.38-.52-.58-.54-.61.27.41-.21-.25-.3-.42-.58-.86-.83-1.31-.12-.22-.23-.45-.34-.69.23.51-.1-.29-.13-.4-.08-.24-.14-.48-.2-.73-.02-.09-.14-.83-.1-.49s-.02-.42-.02-.5c0-.29,0-.59.03-.88-.05.5.03-.09.07-.27.06-.26.14-.51.22-.76.16-.52-.17.2.14-.3.02-.04.48-.69.16-.3.16-.18.33-.35.51-.5-.43.41.05,0,.17-.07.5-.31-.38.06.16-.07.22-.05.43-.12.65-.17-.65.15-.02.01.16,0,.23,0,.46,0,.68.03-.7-.06.11.05.27.1.68.2-.2-.14.28.1,1.33.78,3.03.33,3.81-1,.78-1.33.33-3.03-1-3.81h0Z"/>
        <path class="cls-5" d="M654.84,226.84c6.46,0,12.86-1.56,17.5-6.29,4.39-4.48,7.47-10.17,7.68-16.52.14-4.31-.94-8.52-1.85-12.7-.83-3.82-1.36-7.72-2.33-11.5-1.73-6.72-5.12-13.39-10.57-17.85-6.37-5.22-15.08-7.13-23.18-6.68-6.38.26-12.68,1.6-18.61,3.96-10.4,3.9-17.82,13.19-19.32,24.19-1.35,8.3-.49,16.81,2.48,24.68,1.44,4.18,3.75,8.01,6.77,11.24,3.33,3.34,7.26,6.02,11.57,7.91,1.33.73,3,.29,3.81-1,.76-1.33.32-3.02-1-3.81-3.46-1.49-6.65-3.54-9.44-6.06-2.45-2.3-4.39-5.09-5.7-8.18-2.72-6.23-3.91-13.01-3.48-19.79.54-9.52,4.67-17.71,12.94-22.37,4.61-2.44,9.63-4.02,14.8-4.67,6.8-1.03,14.14-.89,20.48,2.09,5.48,2.58,9.36,7.55,11.57,13.1,1.09,2.82,1.88,5.75,2.36,8.73.68,4.08,1.68,8.1,2.51,12.16.93,3.71.86,7.6-.2,11.28-.57,1.53-1.36,2.96-2.34,4.26-.28.4-.56.79-.84,1.18-.24.36-.51.71-.8,1.04-1.37,1.77-3.12,3.22-5.12,4.22-3.05,1.34-6.36,1.96-9.69,1.82-3.58,0-3.58,5.56,0,5.56h0Z"/>
        <path class="cls-5" d="M650.74,175.3c-.07.73-.24,1.44-.49,2.12l.28-.67c-.16.35-.36.68-.59.98l.43-.56c-.45.55-.97,1.04-1.54,1.46l.56-.43c-.65.55-1.36,1.02-2.13,1.39l.66-.28c-.22.09-.45.15-.68.18l.74-.1c-.14,0-.27,0-.41,0-1.54,0-2.78,1.24-2.79,2.77,0,.74.29,1.45.82,1.98.54.5,1.24.79,1.97.81,1.26.01,2.49-.39,3.5-1.14.81-.55,1.59-1.14,2.33-1.78.73-.63,1.34-1.38,1.8-2.22.48-.95.78-1.98.9-3.04.12-.36.13-.74.05-1.11-.02-.37-.13-.72-.33-1.03-.77-1.33-2.48-1.77-3.8-1,0,0,0,0,0,0-.63.36-1.09.96-1.27,1.66h0Z"/>
        <path class="cls-5" d="M660.69,174.34c0,.35-.02.71-.07,1.06l.1-.74c-.1.7-.29,1.39-.56,2.04l.28-.67c-.29.69-.67,1.33-1.12,1.92l.43-.56c-.44.56-.94,1.06-1.51,1.49l.56-.44c-.33.26-.68.48-1.05.67l.66-.28c-.1.04-.21.07-.32.08l.74-.1c-.05,0-.1,0-.15,0l.74.1-.07-.02.66.28-.06-.03.56.44-.05-.04.43.56-.04-.05.28.66-.03-.07c-.21-.69-.66-1.28-1.27-1.66-1.33-.78-3.03-.33-3.8,1-.39.64-.49,1.42-.28,2.14.24.78.76,1.44,1.45,1.85.73.38,1.57.49,2.36.3.61-.14,1.19-.41,1.69-.79,1.11-.76,2.08-1.7,2.88-2.78,1.36-1.85,2.1-4.09,2.1-6.39,0-1.54-1.25-2.78-2.78-2.78s-2.78,1.25-2.78,2.78h0Z"/>
        <path class="cls-6" d="M638.91,244.79c9.22,0,18.42-.85,27.49-2.54,5.02-1.42,9.82-3.52,14.27-6.24l-.58-.64c-8.17-9.27-20.82-12.99-34.48-13.35-4.85-.13-9.85.25-14.23,2.33-6.64,3.15-10.84,9.58-14.35,16.18,7.04,2.48,14.41,3.92,21.87,4.26Z"/>
        <path class="cls-10" d="M686.77,242.73l-5.45-6-.79-2.22c-1.51-4.21-.93-10.68,4.24-11.69,1.06-2.66,3.34-3.8,6.02-4.66,5.81-1.85,12,1.09,15.08,6.4,3.49,6.01,3.35,14.32-3.04,18.44"/>
        <path class="cls-5" d="M687.05,285.2c1.98.03,3.93.53,5.68,1.47.51.28,1.01.59,1.49.92,0,0,.7.51.31.21.21.16.42.34.63.52.45.38.87.79,1.27,1.22.22.23.43.47.64.71.06.07.54.66.25.28.69.9,1.29,1.86,1.8,2.88.14.28.28.57.4.86-.18-.43.09.26.12.34.18.51.35,1.02.48,1.54.07.26.13.52.18.78.02.1.16.94.13.69s.05.59.06.7c.02.27.03.53.03.8,0,.54-.03,1.07-.08,1.61-.06.65.08-.25-.05.33-.08.35-.15.71-.24,1.06-.41,1.48.46,3.01,1.94,3.42,1.48.41,3.01-.46,3.42-1.94,2.95-11.45-6.61-23.9-18.44-23.95-3.58-.02-3.58,5.55,0,5.56h0Z"/>
        <path class="cls-5" d="M704.23,245.39c6.16-4.09,8.06-11.72,5.7-18.57-2.44-7.07-9.18-12.8-16.99-11.92-4.15.46-8.82,2.43-10.57,6.51l1.66-1.27c-6.71,1.48-8.12,9.47-6.19,15.11.44,1.46,1.94,2.31,3.42,1.94,1.47-.42,2.34-1.94,1.94-3.42-.53-1.33-.73-2.76-.6-4.18.01-.19.02-.39.05-.58.06-.48-.07.35.03-.12.07-.37.17-.73.27-1.1.04-.13.08-.27.13-.39-.15.39.02-.02.05-.09.08-.16.17-.32.26-.47.03-.05.51-.65.2-.3.13-.14.75-.67.44-.45.16-.12.87-.46.59-.35.4-.15.82-.21,1.21-.38.76-.37,1.34-1.01,1.63-1.8.8-1.28,2.07-2.19,3.54-2.55,3.25-1.18,6.88-.58,9.57,1.6,1.46,1.18,2.63,2.68,3.43,4.37.66,1.4,1.09,2.9,1.29,4.44.35,3.64-.68,7.05-3.88,9.18-2.97,1.97-.19,6.79,2.81,4.8h0Z"/>
        <path class="cls-5" d="M688.74,240.76c-1.93-2.12-3.85-4.24-5.78-6.36-3.59-4.11-7.96-7.46-12.85-9.86-6.1-2.78-12.64-4.47-19.32-4.98-7.23-.68-15.04-.67-21.62,2.8-6.73,3.55-11.04,10.24-14.53,16.76-1.69,3.16,3.11,5.97,4.8,2.81,2.77-5.17,5.96-10.62,11.01-13.87,5.59-3.6,12.54-3.53,18.94-3.06,5.97.33,11.83,1.71,17.33,4.07,4.61,2.13,8.72,5.2,12.08,9.01,2,2.2,4.01,4.41,6.01,6.61,2.41,2.66,6.34-1.29,3.93-3.93h0Z"/>
        <path class="cls-9" d="M712.16,325.1c-.4.88-1.14,1.56-2.05,1.89-13.7,5.12-30.59,6.38-51.15,3.55-33.38-5.45-48.16-38.91-48.16-38.91-4.11-13.25-4.67-28.22-2.87-42.34.34-1.92.88-3.8,1.6-5.61,1.11-2.86,4.31-4.31,7.19-3.25,7.14,2.55,14.61,4.02,22.18,4.37,9.22,0,18.42-.85,27.49-2.54,26.16-7.03,53.66-40.38,67.87-67.99.74-1.33,2.33-1.93,3.76-1.43,5.57,1.77,11.04,3.87,16.36,6.29,1.42.56,2.2,2.08,1.83,3.56-7.33,23.32-13.1,46.1-21.56,72.48-1.94,6.04-10.21,32.48-14.88,47.8,0,0-2.5,8.03-7.32,21.42-.08.25-.19.49-.3.72Z"/>
        <path class="cls-5" d="M666.41,245.13c8.2-2.3,15.89-6.15,22.65-11.34,7.79-5.82,14.94-12.45,21.32-19.8,6.62-7.52,12.64-15.55,18.02-24,2.52-3.95,4.89-7.98,7.11-12.11.3-.56.73-2.02,1.24-2.37.39-.27,1.34.23,1.74.35,1.98.63,3.94,1.34,5.88,2.09,1.97.75,3.92,1.52,5.86,2.34.84.36,1.68.71,2.5,1.1.77.37.89.28.67,1.03-1.51,5.19-3.17,10.33-4.69,15.51-3.12,10.62-6.1,21.29-9.21,31.92-4.77,16.31-10.02,32.48-15.07,48.71-4.24,13.6-8.3,27.23-13.06,40.68-.45,1.29-.9,2.58-1.37,3.86-.37,1.02-.53,1.19-1.55,1.55-2.05.73-4.13,1.37-6.25,1.91-4.42,1.13-8.92,1.89-13.46,2.28-5.17.43-10.35.51-15.53.25-5.41-.14-10.8-.72-16.11-1.73-14.42-3.07-26.27-11.99-35.29-23.36-.36-.46-.05-.05-.39-.51-.19-.25-.37-.49-.55-.74-.43-.58-.85-1.16-1.26-1.75-.71-1-1.4-2.03-2.06-3.07-1.03-1.6-2-3.25-2.9-4.91-.49-.84-.93-1.71-1.32-2.61-.03-.06-.06-.12-.09-.19-.04-.12.13.17.12.15-.23-.74-.44-1.48-.64-2.23-.72-2.68-1.31-5.4-1.76-8.14-.88-5.52-1.28-11.1-1.19-16.69.03-2.84.16-5.68.39-8.51.11-2.41.44-4.8,1-7.14.47-1.69.86-4.04,2.77-4.67.76-.21,1.57-.15,2.29.18,1.21.42,2.42.83,3.65,1.19,4.8,1.41,9.71,2.39,14.68,2.93,4.92.41,9.87.38,14.79-.08,5.61-.4,11.2-1.09,16.74-2.09,10.94-1.96,21.63-5.1,31.89-9.39,5.03-2.09,9.94-4.45,14.72-7.05,3.14-1.72.34-6.52-2.81-4.8-20.22,11.02-42.74,17.19-65.75,18.02-4.71.22-9.42-.06-14.06-.86-2.56-.46-5.09-1.04-7.6-1.74-2.37-.66-4.77-1.85-7.24-2.01-2.44-.12-4.82.82-6.51,2.59-1.83,1.93-2.61,4.81-3.2,7.34-.54,2.76-.87,5.55-.99,8.36-.21,2.83-.32,5.67-.33,8.52-.02,5.99.48,11.98,1.48,17.89.63,3.69,1.27,7.8,2.84,11.23,1.31,2.77,2.82,5.43,4.52,7.98,7.57,11.66,18.03,21.92,30.84,27.62,9.45,4.21,19.58,5.4,29.84,5.84,10.28.58,20.58-.4,30.57-2.91,2.16-.57,4.3-1.24,6.39-2.03,3.01-1.14,4.03-3.34,5.06-6.22,1.64-4.59,3.24-9.2,4.79-13.82,1.79-5.35,3.41-10.75,5.07-16.15,4.82-15.63,9.84-31.21,14.65-46.84,3.44-11.16,6.65-22.39,9.87-33.62,1.56-5.45,3.13-10.89,4.74-16.33.79-2.67,1.59-5.33,2.4-8,.76-2.47,2.37-5.57,1.7-8.18-.65-2.53-2.71-3.69-4.92-4.65-2.18-.95-4.38-1.86-6.6-2.72-2.03-.79-4.08-1.56-6.14-2.26-2.31-.78-4.68-1.59-7.02-.41-2.26,1.14-3.14,3.75-4.28,5.84s-2.34,4.17-3.57,6.23c-2.58,4.3-5.32,8.49-8.23,12.58-5.91,8.39-12.57,16.24-19.89,23.43-6.63,6.71-14.21,12.41-22.5,16.92-3.46,1.82-7.11,3.24-10.89,4.22-3.47.88-2,6.25,1.48,5.36h0Z"/>
        <path class="cls-10" d="M606.21,297.83c-.91-.62-1.81-1.29-2.7-2.01-7.42-6.03-8.69-14.08-8.36-22.43.74-4.81,4.42-10.86,7.29-12.17,3.88-1.78,6.12-1.88,10.12-1.67,4.99.36,10-.11,14.83-1.39,3.09-.8,6.27-1.17,9.46-1.11,3.32.03,5.07,1.65,5.3,4.69.25,3.44-3.04,6.62-7.13,7.84l-5.63,1.69c2.7.78,5.46,1.33,8.25,1.67,3.81.45,7.51.76,11.39,1.54,2.05.41,3.63,2.03,4,4.09.62,2.93-1.24,5.8-4.17,6.43-.43.09-.87.13-1.32.12l-4.39.14,1.25,2.68c.89,1.78.7,3.91-.49,5.5-1.09,7.39-8.81,9.9-15.55,10.26-7.83.6-15.64-1.47-22.15-5.87Z"/>
        <path class="cls-5" d="M635.76,272.27c4.69-1.49,9.69-5.43,9.14-10.9-.11-2.42-1.39-4.64-3.43-5.95-2.19-1.28-4.77-1.23-7.22-1.1-2.84.17-5.65.63-8.4,1.37-2.98.75-6.04,1.14-9.11,1.15-5.55.09-10.99-.75-16.06,2.16-4.06,2.32-6.72,7.72-7.87,12.05-.53,2.45-.67,4.97-.4,7.46.13,2.47.54,4.92,1.21,7.3,3.05,10.28,12.92,17.25,23.03,19.65,9.82,2.33,25.02,1.91,29.39-9.14.4-1.48-.47-3-1.94-3.42-1.48-.37-2.98.48-3.42,1.94-1.22,3.08-4.6,4.6-7.6,5.36-3.86.89-7.86,1.05-11.78.49-7.94-1.03-16.76-5.41-20.76-12.62-1.75-3.42-2.65-7.21-2.64-11.05-.14-1.86.06-3.73.58-5.52.64-1.91,1.56-3.72,2.72-5.36.77-1.26,1.91-2.25,3.28-2.82,1.73-.71,3.59-1.08,5.47-1.09,2.55-.02,5.08.22,7.63.13,2.74-.08,5.46-.4,8.14-.95,2.48-.66,5-1.16,7.55-1.48,1.26-.11,2.52-.15,3.79-.12.59-.01,1.17.14,1.68.43-.17-.13.18.18.17.17-.22-.24.13.18.18.28.13.27.21.56.26.86.1.6,0,1.22-.27,1.77-1.06,1.78-2.78,3.06-4.79,3.56-3.4,1.08-1.95,6.45,1.48,5.36h0Z"/>
        <path class="cls-5" d="M624.28,272.55c3.27,1.19,6.63,2.1,10.05,2.71,3.5.6,7.04.82,10.55,1.33,2.09.3,5.19.24,5.42,2.86.18,1.41-.81,2.7-2.22,2.88-.18.02-.36.03-.55.01-3.56.2-3.58,5.77,0,5.56,3.69-.21,6.98-2.2,8.01-5.9,1.11-3.68-.51-7.63-3.88-9.47-1.94-.8-3.99-1.28-6.08-1.41-2.3-.32-4.61-.56-6.92-.83-4.41-.53-8.74-1.57-12.92-3.1-1.48-.39-3,.47-3.42,1.94-.38,1.48.48,2.99,1.94,3.42h0Z"/>
        <path class="cls-5" d="M647.54,282.33c-3.53.34-7.09.24-10.59-.29-1.48-.18-3.34-.47-5.07-.79-1.59-.29-3.18-.62-4.75-.99-1.48-.41-3.01.46-3.42,1.94-.41,1.48.46,3.01,1.94,3.42h0c3.62.84,7.28,1.49,10.98,1.94,3.61.56,7.28.67,10.92.33,1.52-.05,2.73-1.26,2.78-2.78,0-1.53-1.25-2.77-2.78-2.78h0Z"/>
        <path class="cls-5" d="M642,289.34c-.13-.3.12.51.12.49.15.58.08-.12.05.48,0,.1-.1.89-.01.46-.02.08-.21.71-.13.51s-.23.38-.27.44c.25-.35-.35.27-.02,0-.36.29-.76.5-1.2.64-.85.31-1.76.46-2.67.44-.35,0-.7-.02-1.05-.05-.17-.01-.35-.03-.52-.05-.08,0-.8-.1-.42-.05.4.05-.29-.04-.36-.06-.26-.04-.52-.08-.77-.12-.5-.08-1-.17-1.5-.27-1.1-.21-2.2-.43-3.3-.67-1.95-.42-3.9-.87-5.83-1.37-3.47-.89-4.95,4.48-1.48,5.36,4.73,1.36,9.58,2.3,14.48,2.8,2.83.25,5.65-.53,7.94-2.2,3-2.37,3.17-6.33,1.75-9.61-.78-1.32-2.48-1.76-3.8-1-1.29.8-1.73,2.47-1,3.81h0Z"/>
        <path class="cls-10" d="M692.88,299.64c-1.59-1.6-3.39-2.96-5.36-4.06-1.52-.73-3.51-.93-6.52-.84-5.16.07-10.32-.18-15.45-.76-2.62-.37-5.1-1.68-7.74-1.55s-5.45,1.78-5.85,4.39c-.16,1.69.45,3.35,1.65,4.54,2.41,2.05,4.99,3.89,7.7,5.52l.46.26c-1.77,3.29-5.78,7.09-9.04,8.11-3.04,1.15-6.3,1.63-9.54,1.41-2.33-.15-5.19.07-6.68,1.06-1.61.98-2.5,2.81-2.29,4.68.22.93,1.72,2.25,2.4,2.92,1.54,1.51,5.11,2.29,9.47,2.57,4.14,8.28,14.33,13.02,24.94,11.95,8.65-1,20.87-4.1,24.11-6.14.91-.57,3.04-2.5,3.99-3,1.82-.97,6.35-2.31,10.81-3.89"/>
        <path class="cls-5" d="M659.86,304.75c-.93,2.04-2.29,3.85-3.98,5.32-1.64,1.5-3.64,2.57-5.8,3.1-2.39.63-4.86.87-7.32.71-2.59-.1-5.59.1-7.81,1.58-2.42,1.62-4.16,4.76-3.4,7.7.51,1.96,2.52,3.85,4.15,4.98,3.25,2.24,7.89,2.46,11.68,2.62,5.74.16,11.48-.18,17.15-1.04,1.48-.42,2.34-1.94,1.94-3.42-.44-1.46-1.95-2.31-3.42-1.94-4.36.6-8.75.9-13.14.89-2.14.02-4.29-.1-6.42-.36-.56-.08-1.33-.22-1.96-.36-.4-.09-.79-.19-1.18-.31s-.86-.3-.73-.24c-.25-.12-.5-.25-.74-.39-.13-.07-.25-.16-.37-.24.08.06.42.37.09.04-.48-.49-1.55-1.15-1.74-1.82.07.26.11-.12.15-.23.14-.36.36-.69.65-.95.64-.52,1.43-.82,2.25-.85,2.34-.33,4.71.14,7.06-.11,2.39-.25,4.74-.8,6.99-1.64,4.74-1.93,8.56-5.59,10.7-10.23.72-1.33.29-3-1-3.8-1.33-.76-3.02-.32-3.81,1h0Z"/>
        <path class="cls-5" d="M645.41,332.08c6.23,8.25,16.77,11.73,26.85,10.41,4.87-.64,9.69-1.59,14.44-2.84,3.3-.87,7.2-1.72,10.07-3.66,1.64-1.11,3.12-2.67,4.87-3.34,2.98-1.16,6.06-2.07,9.07-3.13,1.46-.44,2.31-1.94,1.94-3.42-.42-1.47-1.94-2.34-3.42-1.94-2.63.93-5.3,1.76-7.92,2.7-1.82.57-3.54,1.43-5.09,2.55-1.08.96-2.27,1.8-3.55,2.49-.15.07-.3.14-.45.2.12-.05.44-.17-.09.03-.33.13-.66.25-.99.37-.93.33-1.88.64-2.82.92-4.26,1.27-8.6,2.27-12.98,3.02-4.37.95-8.9.97-13.28.08-4.65-1-8.82-3.56-11.82-7.25-.81-1.29-2.47-1.72-3.81-1-1.32.78-1.76,2.48-1,3.81h0Z"/>
        <path class="cls-5" d="M694.85,297.67c-1.75-1.77-3.75-3.29-5.93-4.49-1.81-.81-3.76-1.22-5.74-1.22-5.32-.17-10.64.05-15.95-.54-2.47-.27-4.77-1.23-7.22-1.6-2.42-.42-4.92.03-7.05,1.27-4.54,2.78-4.91,8.58-1.27,12.31,2.47,2.32,5.23,4.3,8.21,5.9,3.11,1.79,5.91-3.01,2.81-4.8-1.32-.76-2.58-1.64-3.82-2.51-1.21-.72-2.32-1.59-3.32-2.58-1.1-1.23-1.2-2.59.2-3.52,1.89-1.25,4.14-.47,6.12.09,5.42,1.54,11.24,1.43,16.84,1.51,2.24.03,4.7-.27,6.88.35.92.31,1.78.79,2.54,1.4.97.72,1.85,1.57,2.75,2.38,2.65,2.4,6.6-1.53,3.94-3.93h0Z"/>
        <path class="cls-3" d="M701.67,292.58c-1.12.45-2.17.86-3.13,1.24-1.83.72-3.28,2.12-3.08,4.07l6.79,31.6c.22,2.05,2.07,3.54,4.12,3.32.04,0,.08,0,.11-.01,12.2-1.65,25.11-7.44,37.35-12.61l-13.26-40.7c-5.75,3.64-19.75,9.43-28.92,13.09Z"/>
        <path class="cls-5" d="M729.19,277.08c-5.52,3.45-11.71,5.95-17.68,8.48-3.22,1.36-6.46,2.68-9.7,3.98-3.33,1.33-7.72,2.36-8.88,6.25-.32,1.41-.26,2.88.16,4.26l1.07,4.96,3.13,14.55c.74,3.42,1.51,6.84,2.21,10.28.37,2.61,2.22,4.77,4.75,5.53,2.17.58,4.61-.1,6.76-.53,2.32-.46,4.6-1.04,6.87-1.7,9.4-2.91,18.59-6.46,27.51-10.63,7.44-3.33,14.98-7.75,20.87-13.44,10.4-10.05,12.56-24.65,12.39-38.49-.03-2.22-.12-4.43-.23-6.65-.19-3.56-5.76-3.58-5.56,0,.69,12.69.62,27.28-7.35,37.68-4.25,5.54-10.43,9.47-16.45,12.83-7.86,4.16-16.03,7.71-24.44,10.61-4.26,1.61-8.63,2.94-13.06,3.99-1,.23-2.02.44-3.03.62-.9.3-1.85.42-2.79.35-.64-.21-.67-.72-.79-1.32-.54-2.64-1.13-5.26-1.7-7.89-1.67-7.76-3.4-15.5-5-23.27-.03-.1-.06-.21-.07-.32,0-.19-.04.29.06.2.37-.43.83-.78,1.34-1.03.51-.23,1.09-.43,1.62-.64,3-1.19,6-2.41,8.99-3.64,6.29-2.61,12.61-5.23,18.64-8.4,1.08-.57,2.15-1.16,3.18-1.81,3.03-1.9.24-6.71-2.81-4.8h0Z"/>
      </g>
      <g>
        <path class="cls-8" d="M15.34,75.39c-3.03,0-4.45.09-8.15.38v-13.75c3.03.38,5.31.47,9.1.47h14.41c3.79,0,6.07-.09,9.1-.47v13.75c-2.75-.28-4.55-.38-7.87-.38h-1.23v14.88h1.9c3.03,0,4.08-.09,5.88-.28v12.99c-2.08-.19-3.98-.28-5.88-.28h-1.9v12.24c3.41-1.32,4.55-1.79,9.1-3.67l.29,13.28c-10.9,5.27-16.59,7.53-27.48,11.3-1.8.56-2.46.85-3.79,1.32l-3.32-14.97c2.94-.47,5.59-1.13,11.18-2.73v-16.76h-1.9c-2.46,0-4.36.09-6.54.38v-13.18c2.18.28,3.89.38,6.92.38h1.52v-14.88h-1.33ZM62.54,115.69c-.47,4.99-.85,6.97-1.99,10.26-3.7,10.45-12.13,17.51-26.92,22.32-2.18-5.08-3.89-7.72-7.68-12.05,8.34-2.17,14.69-5.27,18.2-8.95,2.84-2.92,4.08-6.21,4.55-11.58-1.14,0-3.41.09-6.92.28.09-3.11.19-6.03.19-9.51v-36.44c0-5.37,0-6.69-.19-9.42,2.37.28,4.26.38,9.19.38h30.61c4.45,0,6.54-.09,9.19-.38-.29,2.54-.38,4.9-.38,9.42v35.4c0,3.67.09,6.87.47,10.55q-1.14-.09-2.94-.09c-.57-.09-1.71-.09-3.51-.28l-2.46.09h-2.65v16.57c0,.94.47,1.22,1.99,1.22,1.04,0,1.9-.28,2.08-.66.47-.75.76-5.27.85-10.92,4.26,2.54,7.2,3.86,11.75,5.08-.85,11.02-1.61,14.31-3.7,16.48-2.08,2.17-5.31,2.83-13.36,2.83-10.99,0-13.46-1.41-13.46-7.72v-22.88h-2.94ZM55.81,76.71h20.66v-4.05h-20.66v4.05ZM55.81,90.46h20.66v-3.96h-20.66v3.96ZM55.81,104.2h20.66v-3.96h-20.66v3.96Z"/>
        <path class="cls-8" d="M129.45,84.24c1.9-1.51,3.22-2.92,4.55-5.08,1.52-2.35,2.27-4.61,2.65-7.72.28-2.17.57-5.46.57-7.16,0-1.32,0-1.69-.28-4.14,2.84.28,4.45.38,7.96.38h20.38c3.7,0,4.83-.09,7.39-.38-.28,1.98-.28,3.39-.28,6.69v12.52c0,1.6.19,1.69,2.37,1.69,2.84,0,2.84-.19,3.13-11.58,4.64,2.35,7.3,3.3,12.32,4.33-.85,18.46-2.08,19.87-17.72,19.87-11.94,0-13.93-1.22-13.93-8.66v-11.49h-7.96c-.85,8.19-2.75,13.28-6.63,17.89-1.61,1.88-2.46,2.73-6.07,5.37h34.78c2.94,0,4.83-.09,6.16-.38l6.92,7.91c-.85,1.13-1.33,1.69-2.27,3.3-6.44,10.17-8.91,13.28-14.97,18.93,6.44,2.35,12.51,3.86,20.94,4.99-2.84,5.08-4.08,8.47-5.88,15.25-10.99-2.35-19.81-5.46-28.24-10.17-7.96,4.61-14.69,7.44-25.02,10.26-1.52-5.65-3.13-9.13-6.16-13.47v1.41c0,4.8.19,8.85.57,12.24h-15.26c.38-3.2.66-7.81.66-12.24v-20.43c-1.23,1.22-3.6,3.3-5.31,4.61-1.52-6.5-2.75-10.08-5.21-15.35,5.4-3.67,9.76-7.72,15.83-14.69,4.36-5.08,6.07-7.34,7.39-9.89l6.63,5.18ZM132.68,66.26q-.85.85-3.13,3.2c-6.63,6.87-12.98,11.77-22.18,17.33-2.08-4.9-4.08-8.47-7.11-12.81,7.3-3.86,11.37-6.59,16.77-11.58,2.08-1.98,3.13-3.2,4.26-4.99l11.37,8.85ZM137.32,96.77c-2.08-2.92-2.94-4.05-5.31-6.5q-1.8,2.35-3.79,4.9-1.8,2.26-2.75,3.48-.85,1.04-1.33,1.69v32.67c7.68-1.51,12.79-3.11,18.58-5.93-3.98-3.86-6.63-7.06-10.71-12.81l12.23-4.52h-7.96c-3.41,0-5.31.09-7.87.38v-13.75c2.08.28,4.17.38,7.87.38h1.04ZM146.04,109.76c3.6,4.61,5.5,6.59,9.29,9.51,3.98-3.2,6.16-5.46,9.48-9.51h-18.76Z"/>
        <path class="cls-8" d="M205.94,72c0-4.99-.19-8.57-.57-12.62h15.45c-.38,3.11-.57,6.87-.57,12.52v7.06h12.23v-8.85c0-4.43-.19-7.44-.57-10.83h15.16c-.38,3.58-.47,6.5-.47,10.64v9.04h12.04v-9.13c0-4.71-.09-7.25-.47-10.55h15.26c-.38,3.3-.57,6.4-.57,10.64v9.04h.85c4.83,0,7.96-.19,11.09-.56v14.12c-3.32-.38-6.44-.56-11.09-.56h-.85v19.49c0,2.54.09,5.84.38,9.42-2.75-.19-5.12-.28-8.25-.28h-23.98c-3.13,0-5.69.09-8.81.28.19-2.45.28-5.27.28-8.47v-20.43h-12.23v37.85h46.82c5.78,0,9.19-.09,13.74-.56v14.6c-4.64-.47-8.72-.66-13.74-.66h-46.82v4.05h-14.97c.47-4.8.66-9.7.66-14.97v-40.3c-5.21.09-7.49.19-10.71.56v-14.12c3.32.38,5.21.47,10.71.56v-6.97ZM246.6,91.96v15.63h12.04v-15.63h-12.04Z"/>
        <path class="cls-8" d="M301.28,114.09c0-5.08,0-7.06.19-10.08-3.6,4.8-4.26,5.65-7.11,8.47-1.9-7.53-3.03-10.64-5.97-16.38,7.77-8.38,12.7-16.2,16.68-26.37,1.9-4.61,3.03-8.57,3.51-11.96l14.78,4.8q-2.75,7.91-7.58,18.83v53.86c0,4.99.19,8,.57,11.68h-15.64c.38-3.48.57-6.69.57-11.68v-21.19ZM350.09,96.67c1.14,7.91,2.94,14.12,5.5,19.96,1.8,3.96,3.98,7.44,6.44,10.26.76.94,2.37,2.26,2.75,2.26,1.23,0,2.37-5.93,3.03-16.1,5.02,4.14,7.39,5.65,12.51,8.1-1.23,10.73-2.75,16.38-5.5,20.81-2.18,3.39-5.02,5.08-8.72,5.08-4.83,0-9.57-3.01-14.97-9.51-8.06-9.79-13.27-22.88-15.73-40.11l-7.49.47c-4.74.28-6.63.47-9.57.94l-.1-14.41c2.75.09,3.03.09,4.08.09,1.52,0,4.93-.09,6.54-.19l5.12-.28q-.38-5.65-.66-16.48c0-3.01-.19-5.56-.57-8l15.92-.28c-.38,2.26-.47,4.14-.47,8,0,5.37.09,9.04.57,15.82l13.27-.75c-3.41-5.08-7.68-10.17-12.6-15.25l11.56-7.72c5.02,4.71,8.43,8.38,13.84,15.25l-10.42,7.53,2.56-.09c5.5-.38,8.25-.66,11.18-1.22l.09,14.69c-1.8-.19-2.75-.19-4.08-.19-1.9,0-2.94,0-6.07.28l-18.01,1.04Z"/>
        <path class="cls-2" d="M402.24,92.03c.23,3.79,1.93,11.92,3.75,17.69q3.7-1.36,14.73-4.97c1.02-.34,1.31-.45,2.16-.85l2.45,7.12c-4.95.96-12.4,3.11-18.77,5.42-8.3,3.05-12.45,6.67-12.45,10.74s3.87,5.88,13.02,5.88c7.11,0,14.1-.85,18.37-2.32l.63,7.74c-1.25,0-1.54.06-4.61.4-6.14.62-9.33.85-13.31.85-7.91,0-12.85-.96-16.49-3.11-3.13-1.86-4.95-5.37-4.95-9.44,0-3.79,1.82-7.4,5.06-10.11,2.22-1.86,4.04-2.99,7.73-4.86-1.42-4.58-2.39-8.36-3.81-15.31-.57-2.71-.62-2.83-.91-3.67l7.39-1.19Z"/>
        <path class="cls-2" d="M57.09,187.58c-2.62-.28-5.23-.4-8.64-.4H14.78c-3.18,0-6.14.17-8.7.4v-7.46c2.45.28,5,.4,8.7.4h33.67c3.81,0,6.43-.11,8.64-.4v7.46Z"/>
        <path class="cls-2" d="M69.82,191.53c-.4,7.18-1.08,11.64-2.5,16.55l-4.95-2.37c1.54-4.29,2.05-7.85,2.45-15.31l5,1.13ZM67.15,182.6q1.76-2.37,3.01-4.18c-2.56-3.39-4.55-5.54-7.56-8.42l3.07-4.86,1.76,1.87c2.05-3.33,3.7-6.84,4.15-8.93l5.52,1.98c-.34.57-.63,1.07-1.14,2.03-1.99,3.84-3.58,6.61-5.06,8.81,1.08,1.24,1.42,1.64,2.39,2.77,2.9-4.52,4.61-7.68,5.35-9.66l5.23,2.77c-.51.62-.74,1.02-1.54,2.32-2.45,3.96-6.48,9.89-9.1,13.33,1.65-.06,3.53-.17,5.63-.34-.68-1.92-.85-2.32-1.65-4.24l3.92-1.36c1.99,4.46,2.67,6.33,3.75,10.11l-4.27,1.47-.28-1.13c-1.99.23-2.16.23-3.41.34v17.57c0,2.94.06,4.12.34,5.99h-6.2c.28-1.75.34-3.17.34-5.99v-17.23c-.62.06-1.65.11-3.01.17q-4.44.17-5.4.4l-.57-5.76c1.02.17,1.54.23,2.96.23h.68l1.08-.06ZM82.22,190.4c1.02,4.86,1.37,7.4,1.88,13.45l-4.44,1.13c-.34-5.82-.8-10-1.59-13.73l4.15-.85ZM87.85,180.63c-1.76,0-3.18.06-4.55.23v-5.71c1.37.23,2.62.28,5,.28h4.27v-5.54h-2.96c-2.1,0-3.41.06-4.83.23v-5.65c1.37.23,2.73.28,4.83.28h2.96v-1.92c0-1.81-.11-2.99-.34-4.24h6.54c-.23,1.19-.34,2.26-.34,4.29v1.86h3.18c1.65,0,2.73-.06,3.7-.23v3.9c2.45-3.96,3.58-6.1,4.21-7.85l5.63,2.94c-.57.68-.8,1.07-1.82,2.66-1.93,3.11-4.38,6.5-6.65,9.27h2.9c2.67,0,3.98-.06,5.29-.23v5.71c-1.48-.23-2.5-.28-5.17-.28h-7.68c-1.71,1.7-2.73,2.66-4.32,4.12h8.87c2.79,0,4.38-.06,5.63-.23-.17,1.53-.23,2.94-.23,5.88v14.29c0,2.71.06,4.18.34,6.1h-6.14v-2.6h-12.91v2.54h-6.03c.23-1.75.34-3.39.34-6.05v-12.15c-.85.57-1.31.85-2.62,1.58-.62-2.03-1.25-3.28-2.73-5.25,3.47-1.69,4.72-2.43,7.51-4.46,2.1-1.53,3.24-2.43,4.83-3.79h-6.71ZM93.25,193.9h12.97v-4.29h-12.97v4.29ZM93.25,203.23h12.97v-4.52h-12.97v4.52ZM99.85,175.43c1.65-1.87,2.9-3.45,4.38-5.48-1.08-.06-1.65-.06-2.39-.06h-3.41v5.54h1.42Z"/>
        <path class="cls-2" d="M123.79,208.03c-.06-1.02-.11-1.36-.28-2.66-1.08-6.84-1.48-11.19-1.48-16.89,0-7.29.68-13.73,2.33-22.09.63-3.16.74-3.73.85-5.25l7.51.79c-1.37,3.33-2.67,9.66-3.58,16.89-.57,4.24-.8,7.57-.85,12.49,0,1.24-.06,1.7-.11,3.11.62-1.98.74-2.37,2.96-7.46l4.55,2.03c-3.13,6.55-5.06,13.11-5.06,17.12,0,.34,0,.79.06,1.53l-6.88.4ZM148.01,185.71c-2.84,3.28-4.04,5.71-4.04,8.14,0,3.22,3.13,4.92,9.04,4.92,5,0,9.95-.79,13.54-2.15l.57,7.18c-.8.06-1.02.11-2.33.34-4.55.74-8.02,1.07-11.77,1.07-7.05,0-11.6-1.58-14.1-4.92-1.08-1.41-1.71-3.5-1.71-5.54,0-3.67,1.71-7.46,5.23-11.64l5.57,2.6ZM138.63,167.01c2.56.68,5.57.9,10.52.9,6.31,0,11.72-.51,15.47-1.53l.34,6.84c-.45.06-1.31.17-4.04.51-3.64.45-7.96.68-12.17.68s-4.21,0-10.24-.62l.11-6.78Z"/>
        <path class="cls-2" d="M181.39,198.93c0-.73,0-1.07-.06-1.64-1.02,4.69-2.45,8.31-4.89,12.54-1.59-2.15-2.9-3.56-4.61-4.97,3.92-5.93,5.35-12.43,5.35-24.41,0-2.26-.06-3.33-.17-5.03-.34.23-.51.34-1.02.68-1.37-2.32-2.16-3.33-4.09-5.14,4.21-2.32,6.54-4.01,9.44-6.67,2.22-2.03,3.47-3.39,4.72-5.2h6.31c3.13,3.62,6.48,5.99,12.46,8.81-1.48,2.15-2.1,3.28-2.96,5.48-2.33-1.3-3.24-1.87-4.66-2.83v2.6c-1.02-.11-1.93-.17-3.24-.17h-7.96c-1.71,0-2.33.06-3.3.17v-1.98c-1.82,1.53-3.64,2.88-4.89,3.73,1.76.11,2.62.11,4.66.11h14.44c2.05,0,2.9-.06,4.49-.17-.11,1.24-.17,2.54-.17,4.24v9.32c0,1.98.06,3.05.17,4.24-1.59-.06-2.39-.11-3.92-.11h-15.3c-.11,1.07-.23,1.58-.34,2.2.97.06,1.65.06,3.01.06h13.25c1.54,0,2.62-.06,3.92-.17-.17,1.41-.17,2.32-.17,4.12v6.72c0,1.92.06,3.16.23,4.52h-5.97v-1.7h-9.1v2.49h-5.91c.17-1.3.28-2.6.28-4.52v-7.35ZM182.82,185.88c0,.85-.06,1.19-.17,2.26h12.74v-2.26h-12.57ZM195.38,181.76v-2.32h-12.4v2.32h12.4ZM193.79,168.7h.8c-2.28-1.81-3.07-2.54-5-4.63-1.65,2.09-2.33,2.88-4.15,4.63h8.36ZM187.08,203.79h8.99v-4.52h-8.99v4.52ZM211.93,163.05c-.23,1.47-.28,2.99-.28,5.88v22.6c0,3.39,0,4.46.23,5.99h-6.43c.23-1.64.29-2.83.29-6.05v-22.43c0-2.77-.11-4.41-.29-5.99h6.48ZM223.53,159.21c-.28,1.58-.34,3.39-.34,6.84v37.46c0,5.31-1.54,6.5-8.47,6.5-1.25,0-1.42,0-5.29-.17-.4-2.88-.63-3.84-1.48-5.99,2.16.34,4.95.57,6.65.57,2.1,0,2.62-.34,2.62-1.75v-36.44c0-3.39-.11-5.2-.34-7.01h6.65Z"/>
        <path class="cls-2" d="M247.42,182.94c5.17-2.03,7.68-2.6,11.94-2.6,9.72,0,15.98,4.97,15.98,12.71,0,5.37-2.67,9.66-7.73,12.49-3.7,2.09-8.53,3.22-13.76,3.22-4.78,0-8.76-.9-11.03-2.6-2.16-1.58-3.41-3.96-3.41-6.5,0-4.69,4.09-8.08,9.78-8.08,3.98,0,7.45,1.64,9.84,4.63,1.14,1.41,1.76,2.66,2.62,5.08,4.72-1.75,6.77-4.18,6.77-8.19,0-4.41-4.38-7.29-11.26-7.29-8.3,0-16.61,3.33-23.43,9.49l-3.87-6.1c1.99-.96,4.27-2.49,8.02-5.31,5.29-4.01,12.68-10.34,17-14.69.11-.11.68-.68,1.02-1.02l-.06-.06c-2.16.28-5.8.51-16.09.96-1.25.06-1.65.11-2.73.28l-.28-6.78c1.93.23,3.58.34,6.71.34,4.83,0,11.77-.28,17.29-.68,1.99-.17,2.62-.28,3.53-.74l3.53,4.97c-.97.51-1.36.85-2.96,2.32-2.84,2.6-7,6.27-8.93,7.91-1.02.85-5.12,3.9-6.25,4.63q-1.42.96-2.33,1.47l.11.11ZM249.12,197.01c-2.05,0-3.36,1.02-3.36,2.6,0,2.26,2.56,3.56,6.77,3.56,1.08,0,1.36,0,2.96-.23-1.02-3.9-3.18-5.93-6.37-5.93Z"/>
        <path class="cls-2" d="M305.14,193.11c-3.24,7.29-6.88,10.62-11.54,10.62-6.48,0-11.15-6.55-11.15-15.65,0-6.21,2.22-12.04,6.26-16.44,4.78-5.2,11.49-7.91,19.56-7.91,13.65,0,22.52,8.25,22.52,20.96,0,9.77-5.12,17.57-13.82,21.08-2.73,1.13-4.95,1.7-8.93,2.37-.97-2.99-1.65-4.24-3.47-6.61,5.23-.68,8.64-1.58,11.32-3.11,4.95-2.71,7.91-8.08,7.91-14.13,0-5.42-2.45-9.83-7-12.54-1.76-1.02-3.24-1.47-5.74-1.7-1.08,8.87-3.07,16.67-5.91,23.05ZM296.78,172.88c-4.78,3.39-7.73,9.21-7.73,15.26,0,4.63,1.99,8.31,4.49,8.31,1.88,0,3.81-2.37,5.86-7.23,2.16-5.08,4.04-12.71,4.72-19.1-2.96.34-5,1.13-7.34,2.77Z"/>
        <path class="cls-2" d="M340.85,208.37c-.06-.57-.06-.9-.29-2.2-1.08-6.61-1.54-12.04-1.54-17.97,0-5.08.34-10.06,1.08-14.97q.28-1.7,1.54-8.08c.4-1.98.63-3.62.63-4.18v-.23l7.68.79c-2.33,4.92-4.49,18.53-4.55,28.37q-.06,2.03-.06,2.94v.9c0,.45,0,.57-.06,1.19h.06q.28-.62.68-1.64c.11-.4.4-1.02.68-1.92q.51-1.19,1.08-2.54c.11-.17.17-.34.68-1.75l4.72,2.09c-3.36,6.55-5.63,13.56-5.63,17.29,0,.4,0,.45.11,1.53l-6.82.4ZM353.7,171.36c2.67.68,5.63.9,10.29.9,1.99,0,3.24,0,5.23-.11,0-3.33-.06-6.16-.06-8.48,0-1.24-.06-2.09-.17-2.71l7.11-.17c-.28,1.58-.4,4.29-.4,8.31v2.6c2.96-.34,5.46-.79,7.68-1.36q.34-.11,1.25-.45l.46-.11.23,6.38c-.57.06-.63.06-1.65.28-1.93.4-4.89.9-7.9,1.24v1.24c0,3.16,0,3.28.57,12.77,4.09,1.92,5.52,2.71,8.93,5.14.74.51,1.02.68,1.59.96l-2.73,6.84c-.97-1.13-2.67-2.6-4.27-3.62-1.93-1.24-3.24-2.09-3.58-2.32v.79c0,1.24-.17,2.37-.46,3.16-1.31,3.33-5.29,5.31-10.81,5.31-7.45,0-12-3.5-12-9.27s4.83-9.32,11.71-9.32c2.1,0,3.53.23,5.06.79-.17-1.41-.23-4.18-.46-12.04-2.27.06-3.64.11-5.12.11-2.1,0-4.38-.06-7.05-.28-.8,0-1.42-.06-1.71-.06-.51-.06-.85-.06-.97-.06-.28-.06-.46-.06-.57-.06-.06,0-.17,0-.34.06l.11-6.5ZM365.24,195.03c-3.64,0-5.91,1.41-5.91,3.73,0,2.09,2.05,3.5,5.23,3.5,2.1,0,3.75-.62,4.61-1.75.51-.68.74-1.53.74-3.05v-1.53c-1.88-.68-2.96-.9-4.66-.9Z"/>
      </g>
      <g>
        <rect class="cls-8" y="255.86" width="778.65" height="163.2" rx="10.48" ry="10.48"/>
        <g>
          <path class="cls-10" d="M58.3,329.34c0,11.17-.92,20.18-2.6,26.38-1.14,4.05-2.22,6.69-3.96,9.5-2.71-3.62-3.96-4.96-6.73-7.34,3.85-6.96,4.99-14.41,4.99-33.13,0-3.08-.11-5.99-.33-7.88,2.28.16,4.67.27,7.71.27h31.25c3.09,0,5.59-.11,7.11-.32v8.25c-1.74-.22-4.18-.32-7.11-.32h-30.33v4.59ZM71.7,343.86h-5.7c-2.17,0-4.78.11-6.51.27v-8.04c1.79.22,3.53.27,6.51.27h5.7v-4.15c0-2.48-.11-4.05-.33-5.99h9.22c-.22,1.78-.27,3.24-.27,5.99v4.15h7.11c3.2,0,4.88-.05,6.57-.27v8.04c-1.79-.16-4.29-.27-6.51-.27h-7.16v12.68h9.06c2.98,0,5.37-.11,7-.32v8.2c-1.68-.22-4.18-.32-6.89-.32h-26.32c-2.66,0-5.21.11-6.84.32v-8.15c1.79.16,4.12.27,6.57.27h8.79v-12.68Z"/>
          <path class="cls-10" d="M126.56,337.54v5.07h2.28c1.36,0,2.06-.05,3.26-.22v7.61c-1.09-.11-1.95-.16-3.2-.16h-2.33v4.26c1.95-.22,3.09-.38,6.51-.92l.05,7.12c-4.99,1.08-9.93,1.94-16.98,2.97-1.14.16-2.17.38-3.04.59l-.92-8.53h.87c.98,0,1.84-.05,6.08-.43v-5.07h-2.77c-1.25,0-2.17.05-3.15.16v-7.61c1.03.16,1.9.22,3.26.22h2.66v-4.15c-.65.05-1.25.11-1.57.16-2.12.16-2.44.22-4.34.59l-.87-7.82c.87.05,1.03.11,2.22.11,1.08-2.37,1.74-4.1,2.55-6.91h-.43c-.87,0-1.52.05-2.28.16v-5.72q-.11.43-.27,1.03c-.76,2.64-1.3,4.32-2.77,8.36v31.29c0,2.43.05,4.05.33,6.26h-8.19c.22-2.21.33-3.83.33-6.26v-13.54c0-2.27,0-3.18.11-5.02-.98,1.73-1.41,2.37-2.44,3.61-.98-4.69-1.52-6.47-2.82-9.98,2.17-2.64,3.8-5.56,5.32-9.28.92-2.32,1.84-5.29,2.28-7.39.05-.16.22-.97.49-2.37,0-.16.11-.54.22-1.08l7.71,2.32c1.57.16,2.6.21,5.21.21h6.51c3.09,0,4.34-.05,6.19-.27v7.88c-1.74-.16-3.04-.22-5.16-.22h-2.88c-.87,2.48-1.63,4.26-2.71,6.58,2.12-.16,2.66-.22,4.12-.32-.49-1.29-.71-1.89-1.41-3.56l4.99-1.83c1.9,3.72,2.82,5.67,3.91,8.69v-11.06c0-1.4-.05-2.21-.16-3.67h7.33c-.16,1.03-.22,1.94-.22,3.67v25.84c0,1.67.05,2.59.16,3.67h-7.27c.11-1.24.16-2.1.16-3.67v-10.74l-4.61,2.27c-.38-1.51-.49-2.1-.81-3.13l-1.46.22ZM149.78,358.59c0,5.83-1.9,7.07-10.96,7.07-.65,0-1.74,0-3.09-.05-.22-2.91-.6-4.64-1.68-7.82,2.55.32,4.45.49,6.19.49,1.63,0,2.01-.27,2.01-1.46v-34.86c0-3.08-.05-4.05-.27-6.1h8.14c-.27,1.89-.33,3.45-.33,6.58v36.15Z"/>
          <path class="cls-10" d="M185.87,352.38c-1.57-5.61-3.26-9.55-5.7-13.6-.33.32-.43.49-.87.92-1.25-1.4-1.63-1.83-2.6-2.75v20.67c0,1.78.05,3.4.16,5.07h-7.87v-3.02h-5.05v4.8h-8.19c.22-1.73.33-4.05.33-7.39v-28.7c0-3.34-.05-4.32-.22-5.88,1.46.16,1.84.16,4.67.16h1.19c1.14-2.81,1.68-4.64,2.28-7.55l8.63,1.03q-1.52,3.78-2.77,6.53h2.44c1.84,0,3.31-.05,4.56-.16q-.05.49-.16,1.67v5.88c2.17-2.97,4.45-7.39,5.64-11.12.49-1.4.76-2.59.92-3.78l8.57,1.24c-.27.49-.65,1.56-.98,2.64-.43,1.46-.6,1.89-1.03,3.08h9.98c2.28,0,3.47-.05,4.56-.22-.22,1.62-.22,2.21-.27,3.67,0,2.1-.05,3.4-.38,16.94-.16,6.04-.76,12.57-1.41,15.65-.87,3.99-1.9,5.61-4.12,6.58-1.57.7-4.67,1.13-7.92,1.13-1.08,0-2.22,0-4.01-.05-.38-3.35-.81-5.23-2.12-8.42,3.15.38,4.72.49,6.29.49,2.55,0,3.42-.43,3.91-2,.98-2.91,1.36-10.25,1.47-25.68h-9.55c-1.9,3.45-3.64,5.99-5.75,8.25l6.89-2.97c2.66,4.59,4.45,8.31,6.4,13.44l-7.92,3.45ZM163.89,337.28h5.15v-7.12h-5.15v7.12ZM163.89,352.33h5.15v-7.88h-5.15v7.88Z"/>
          <path class="cls-10" d="M224.4,318.28c-2.12,6.15-3.74,16.24-4.12,26.06l4.18,1.4c-1.41,4.86-2.12,9.71-2.12,15.11,0,1.03,0,1.51.16,2.64l-9.33.43c-.05-1.03-.05-1.46-.27-2.86-1.03-7.23-1.41-11.92-1.41-17.05,0-6.21.65-13,2.06-20.77.65-3.78.71-4.15.81-5.77l10.04.81ZM239.37,341.86c-2.5,3.18-3.63,5.5-3.63,7.45,0,2.48,2.44,3.83,7.05,3.83s9.39-.75,13.51-2.21l.54,9.55q-1.41.16-4.61.65c-2.93.43-6.29.7-9.39.7-5.05,0-8.41-.7-11.23-2.27-3.04-1.73-4.99-5.07-4.99-8.58,0-2.64.92-5.61,2.6-8.42.76-1.24,1.08-1.78,2.55-3.88l7.6,3.18ZM228.74,322.38c2.55.54,5.43.81,9.66.81,7.22,0,12.53-.43,16.17-1.35l.38,9.23c-.49,0-1.03.05-4.02.38-3.74.38-7.71.59-11.45.59-3.31,0-6.02-.11-9.33-.43-.43-.05-.81-.05-1.57-.11l.16-9.12Z"/>
          <path class="cls-10" d="M283.32,334.74c0-2.05-.05-3.29-.22-4.64h4.39c2.44-1.62,4.12-3.08,5.97-5.13h-18.23c-3.53,0-5.48.11-7.6.32v-8.47c2.28.27,4.12.32,7.43.32h23.44c3.26,0,4.07-.05,5.26-.27l4.78,5.29c-.98.86-1.41,1.29-2.12,2-6.24,5.99-8.52,7.82-14.27,11.71v.43h11.39c3.96,0,6.19-.11,8.25-.32v8.74c-2.33-.22-4.39-.32-8.19-.32h-11.45v14.03c0,5.61-2.33,7.01-11.72,7.01,0,0-1.79,0-5.37-.05-.6-4.21-1.03-5.83-2.33-8.96,3.04.43,4.94.54,8.08.54,2.17,0,2.5-.16,2.5-1.19v-11.38h-13.08c-3.58,0-5.97.11-8.14.32v-8.74c1.95.21,4.45.32,8.36.32h12.86v-1.56Z"/>
          <path class="cls-10" d="M336.5,318.34c0-1.29-.05-2.05-.27-3.18h9.17c-.22,1.03-.33,2.05-.33,3.18h14.54c3.31,0,4.88-.05,6.78-.32v7.72c-1.9-.22-3.69-.27-6.13-.27h-3.69c4.07,2.91,6.24,4.59,8.9,6.85l-4.72,4.32c-.16,1.46-.22,3.02-.22,5.34v17.27c0,2.75-.71,4.48-2.22,5.4-1.19.76-2.71,1.03-5.91,1.03-1.41,0-2.82-.05-5.91-.16-.43-2.59-.87-3.99-2.01-6.53,2.93.27,4.5.38,6.02.38s1.95-.22,1.95-1.29v-.92h-22.14v2.54c0,2.37.11,4.32.27,6.26h-8.84c.22-1.94.33-3.94.33-7.39v-16.67c0-2.91-.05-4.37-.22-5.72,1.19.05,2.44.11,5.97.11h27.02c1.3,0,1.68,0,3.26-.05-1.03-1.02-1.41-1.4-2.71-2.54-9.82.7-22.68,1.19-34.29,1.35-.65,0-1.57.11-2.28.16l-.65-7.07q1.95.11,9.06.16c.76-1.03,1.08-1.57,1.84-2.81h-6.62c-2.88,0-4.34.05-6.29.27v-7.72c1.9.27,3.53.32,6.95.32h13.4ZM352.45,342.35h-22.14v1.78h22.14v-1.78ZM330.31,351.52h22.14v-1.78h-22.14v1.78ZM338.02,325.46c-.87,1.35-1.19,1.78-2.01,2.81,5.81-.11,9.28-.22,12.48-.43-.71-.49-.98-.7-1.9-1.35l2.39-1.03h-10.96Z"/>
          <path class="cls-10" d="M369.92,321.84c.92.05,1.63.05,2.06.05,1.41,0,3.36-.11,9.28-.49,8.46-.54,12.42-.76,28.97-1.35,4.5-.16,4.99-.22,5.97-.43l.49,9.77c-.76-.11-.98-.11-1.52-.11-3.8,0-8.68,1.46-12.43,3.78-5.43,3.29-8.63,7.88-8.63,12.3,0,3.08,1.46,5.18,4.56,6.64,2.22,1.08,6.84,1.94,10.36,1.94.54,0,.87,0,1.63-.11l-1.25,10.31c-.76-.16-1.03-.16-2.01-.27-6.19-.59-10.26-1.46-13.73-3.02-6.4-2.97-9.71-7.93-9.71-14.78,0-4.48,1.52-8.52,4.61-12.19,1.41-1.73,2.71-2.81,5.32-4.59l-18.77,1.67c-2.12.22-2.66.27-4.67.7l-.54-9.82Z"/>
          <path class="cls-10" d="M436.45,317.53c-.6,3.4-1.25,17.8-1.25,26.82,0,5.4.22,7.01,1.14,8.47,1.03,1.62,3.36,2.59,6.35,2.59,5.59,0,9.93-3.29,12.05-9.12,1.08-2.91,1.68-5.77,2.17-9.77,4.01,3.13,5.81,4.26,9.28,5.67-2.06,8.09-3.85,12.03-6.84,15.32-4.29,4.64-9.93,6.96-17.04,6.96-5.53,0-9.66-1.35-12.59-4.1-3.09-2.97-4.12-6.42-4.12-13.97q0-1.4.27-12.25c.11-5.45.22-10.58.22-12.68,0-1.67-.05-2.54-.27-4.1l10.64.16Z"/>
          <path class="cls-10" d="M484.69,317.53c.33,1.83.49,2.43,1.09,4.37.71,2.43.76,2.59,1.63,5.61,3.85-1.02,4.99-1.29,7.87-1.89q-.05-1.24-.11-3.78c-.05-3.51-.11-4.15-.43-5.61h9.66c-.16,1.35-.22,2-.27,4.05v4.26c1.25-.11,1.57-.11,2.33-.11,5.21,0,9.6,2.21,11.72,5.94,1.03,1.73,1.57,4.05,1.57,6.47,0,4.05-1.9,7.98-5.1,10.41-2.71,2.16-6.62,3.29-10.96,3.29-2.22,0-5.1-.38-7.71-1.08-.27-4.1-.54-5.67-1.41-9.01,3.2,1.13,5.64,1.62,8.14,1.62,4.5,0,7.38-2,7.38-5.13,0-2.75-2.12-4.26-5.92-4.26-3.15,0-7.54.86-14.49,2.81,1.36,4.59,3.96,14.57,6.67,25.52.33,1.19.49,1.67,1.03,2.91l-10.2,2.32c-.16-2.43-1.08-7.12-2.88-14.89-.49-2.1-1.63-6.53-3.47-13.33-4.45,1.51-7.27,2.59-9.01,3.45l-2.82-8.9q1.57-.22,7.71-2.1c.81-.22,1.14-.32,1.84-.54-1.46-4.96-2.55-8.04-3.47-9.87l9.6-2.54Z"/>
          <path class="cls-10" d="M522.62,322.11c1.36.11,1.95.16,3.31.16,1.46,0,16.06-.38,21.11-.54-.05-3.45-.11-4.16-.38-5.72h9.6c-.22,1.89-.27,2.48-.27,5.5,9.01-.05,13.02-.16,15.19-.38l.05,8.85c-2.44-.22-3.53-.27-9.77-.27-2.88,0-3.25,0-5.43.05v7.99c1.57,2.86,2.17,5.4,2.17,9.01,0,6.04-3.15,11.33-8.95,14.95-2.66,1.62-5.75,2.86-10.91,4.37-1.52-3.83-2.71-5.83-5.16-8.52,5.48-.81,8.57-1.67,11.18-3.29,2.01-1.19,3.15-2.37,4.02-4.26-2.28,1.89-4.12,2.54-7.27,2.54-6.29,0-10.74-4.1-10.74-9.87,0-6.15,5.1-10.36,12.59-10.36,1.74,0,2.98.16,4.23.59v-1.67q0-.76-.05-1.29c-11.23.32-20.08.81-24.25,1.4l-.27-9.23ZM539.49,342.24c0,1.67,1.52,2.91,3.58,2.91,2.33,0,4.12-1.4,4.12-3.24,0-1.67-1.41-2.81-3.58-2.81-2.39,0-4.12,1.29-4.12,3.13Z"/>
          <path class="cls-10" d="M586.86,320.22c-.38,2.43-.6,5.83-.6,9.77,0,12.09,1.74,21.2,4.02,21.2.6,0,1.19-.7,1.74-2.1,1.19-3.02,2.17-6.1,2.82-9.33,2.5,2.97,3.96,4.21,7.54,6.8-1.14,4.16-2.44,7.39-4.12,10.41-2.01,3.56-4.94,5.5-8.25,5.5-3.04,0-5.64-1.56-7.76-4.64-2.82-3.99-4.29-9.39-4.99-17.97-.27-3.78-.49-8.31-.6-15.81-.05-1.83-.05-2.37-.22-3.83h10.42ZM611.88,322.17c7.05,8.47,11.01,18.34,12.53,31.4l-9.71,3.56c-.6-12.09-4.34-22.72-11.07-31.19l8.25-3.78Z"/>
          <path class="cls-10" d="M644.38,328.8c-.33,1.4-.54,2.48-.71,3.29-1.08,5.02-2.01,8.42-3.42,12.3-1.68,4.59-2.82,6.91-5.64,11.82-2.82-2.37-5.21-3.99-7.81-5.29,3.15-4.64,5.21-9.06,6.84-14.73.92-3.18,1.46-6.04,1.84-9.77l8.9,2.37ZM658.33,315.91c-.27,1.89-.38,4.48-.38,7.66v34.15c0,3.18-.87,5.23-2.6,6.37-1.41.92-3.42,1.29-7.11,1.29-1.84,0-4.45-.11-6.57-.22-.43-3.24-1.03-5.29-2.5-8.47,3.53.43,5.26.54,7.43.54,1.79,0,2.33-.32,2.33-1.35v-32.37c0-3.08-.11-5.83-.38-7.61h9.77ZM670.21,326.38c.43,3.45,1.03,5.93,2.33,9.71,1.95,5.77,4.12,9.98,7.27,14.24-3.09,1.67-5.21,3.24-7.65,5.56-4.88-7.34-7.87-14.78-10.04-25.09-.22-.92-.27-1.19-.49-2l8.57-2.43Z"/>
          <path class="cls-10" d="M731.58,333.39c-.27.65-.33.7-.87,2.86-1.47,5.83-3.64,10.79-6.78,15.65,2.98,2.48,5.86,4.21,9.82,5.88-2.22,3.02-3.26,4.86-4.72,8.31-4.56-2.48-7.33-4.48-10.58-7.66-3.31,3.13-6.29,5.18-11.18,7.71-1.3-2.54-2.44-4.26-4.07-6.04-1.52,2.37-2.28,3.4-4.45,5.94-2.17-2.32-3.8-3.78-6.78-5.77,3.09-3.08,4.45-4.91,5.97-8.25-3.26,1.73-6.08,2.91-11.99,5.07-1.46.54-1.95.76-2.66,1.13l-1.79-8.74c1.52-.22,3.31-.65,6.02-1.46v-12.03h-1.36c-1.84,0-2.71.05-3.91.21v-7.88c1.19.16,2.01.22,3.85.22h1.41v-6.47c0-3.18-.05-4.48-.33-6.26h8.68c-.27,1.78-.33,3.02-.33,6.21v6.53h1.74c1.63,0,2.12,0,2.88-.16v7.77c-.92-.11-1.79-.16-3.26-.16h-1.36v9.23c1.41-.54,1.74-.7,3.36-1.46v5.77c.92-2.7,1.46-5.29,1.84-8.25.38-3.02.71-9.87.71-14.68,0-6.74,0-7.61-.16-9.77,1.57.16,3.36.22,6.02.22h18.12c2.71,0,4.83-.11,6.67-.32v8.42c-1.9-.22-3.91-.32-6.62-.32h-15.95v4.86h14.22c2.22,0,3.31-.05,4.34-.22l3.47,3.94ZM704.29,358.16c3.36-1.56,6.19-3.45,8.95-5.93-1.95-2.91-3.31-5.45-4.5-8.53-.92,5.94-2.28,10.25-4.45,14.46ZM714.54,337.06c1.08,3.45,2.17,5.94,4.02,8.69,1.74-2.86,2.77-5.4,3.53-8.69h-7.54Z"/>
        </g>
      </g>
    </g>
  </g>
</svg>