<?xml version="1.0" encoding="UTF-8"?>
<svg id="_レイヤー_2" data-name="レイヤー 2" xmlns="http://www.w3.org/2000/svg" viewBox="0 0 144 144">
  <defs>
    <style>
      .cls-1 {
        fill: #87000c;
      }

      .cls-1, .cls-2 {
        stroke-width: 0px;
      }

      .cls-2 {
        fill: #fff;
      }
    </style>
  </defs>
  <g id="_レイヤー_1-2" data-name="レイヤー 1">
    <rect class="cls-1" width="144" height="144"/>
    <g>
      <path class="cls-2" d="M25.73,27.62c4.18-.42,6.8-.84,13.8-2.41,21.33-4.39,29.38-5.54,39.95-5.54s19.66,2.2,25.93,6.59c8.16,5.75,12.86,15.16,12.86,25.93,0,15.37-8.99,28.65-24.47,36.08-10.56,5.02-20.81,7.43-39.21,9.1-2.51-9.41-3.35-11.4-7.42-18.93,12.86-.1,21.86-1.25,29.8-3.66,8.26-2.41,14.12-6.27,17.99-11.71,2.3-3.14,3.35-6.48,3.35-10.46,0-4.18-1.25-7.53-3.87-10.14-3.35-3.45-8.16-5.02-15.48-5.02-11.08,0-23.74,2.3-40.26,7.42-3.87,1.15-6.59,2.2-8.99,3.35l-3.97-20.6Z"/>
      <g>
        <path class="cls-2" d="M36.59,104.31c-.87,2.1-1.74,7.6-1.72,10.86l1.72.58c-.69,2.19-.94,3.98-.94,6.81,0,.13.02.42.07.92l-3.78.16c0-.18-.02-.29-.02-.42,0-.07-.02-.27-.04-.49l-.11-.85c-.4-3.15-.49-4.36-.49-6.77,0-3.15.2-5.12.89-9.03.18-1.01.27-1.61.27-1.94v-.11l4.16.29ZM46.62,104.24c-.13-.27-.16-.31-.38-.65l1.72-.49c.56.92,1.03,2.01,1.52,3.46l-1.76.63c-.16-.69-.56-1.83-.92-2.59-.07.47-.11,1.52-.11,3.42,1.74-.22,2.86-.45,3.62-.71l.13,3.57c-.31.02-.36.02-.83.13-.74.16-1.81.31-2.81.42.02,1.45.07,2.59.2,4.76,1.41.63,2.46,1.21,3.6,2.03.11.07.25.16.42.27l-1.41,3.78c-.47-.58-1.56-1.43-2.66-2.1v.18c0,1.9-1.94,3.17-4.8,3.17-3.28,0-5.23-1.56-5.23-4.16,0-1.34.6-2.5,1.7-3.28.85-.6,2.03-.92,3.44-.92.47,0,.8.02,1.3.11l-.02-.6-.04-1.16c-.02-.92-.02-1.05-.04-1.85-.49.02-.78.02-1.3.02q-1.01,0-3.95-.13c-.2-.02-.34-.02-.38-.02-.07,0-.16,0-.27.02l.04-3.6c.94.22,2.46.36,4.24.36.45,0,.85,0,1.54-.04v-2.99c-.02-.49-.04-.76-.11-1.03h3.55ZM43.42,118.56c-.56-.18-.89-.25-1.39-.25-1.01,0-1.63.4-1.63,1.03,0,.58.58.96,1.47.96,1.07,0,1.56-.4,1.56-1.3l-.02-.45ZM50.44,106.56c-.42-1.27-.96-2.52-1.52-3.49l1.65-.51c.63,1.01,1.09,2.01,1.52,3.37l-1.65.63Z"/>
        <path class="cls-2" d="M63.31,106.25c.78.09,1.52.11,2.55.11,1.27,0,2.99-.07,4-.16-.47-1.23-.74-1.83-.94-2.23l3.91-.47c.11.71.27,1.23.69,2.32,2.14-.29,4.76-.83,6.05-1.25l.31,3.26q-.42.09-1.65.34c-1.3.27-1.32.29-3.55.65.18.42.42,1.01.51,1.16,3.11-.56,4.18-.8,5.21-1.18l.34,3.28q-.51.07-2.75.54s-1.05.18-1.34.25c.92,1.61,1.54,2.5,2.86,4.11l-3.28,1.7c-1.32-.69-2.75-.98-4.69-.98-2.48,0-3.84.51-3.84,1.45,0,.83,1.16,1.23,3.53,1.23,2.57,0,5.32-.54,7.1-1.39l.51,3.78q-.47.07-1.56.31c-2.12.47-4.18.69-6.26.69-3.4,0-5.67-.71-6.77-2.12-.51-.67-.83-1.59-.83-2.46,0-1.56,1.03-2.99,2.66-3.69,1.32-.56,2.84-.83,4.78-.83,1.18,0,2.08.07,3.08.27-.25-.34-.58-.87-1.03-1.59-1.9.25-4.47.4-7.68.49-1.34.04-1.41.04-1.94.11l-.16-3.31c.65.07,1.07.09,2.3.09,2.14,0,4.29-.11,6.1-.31-.07-.18-.25-.58-.51-1.18-1.97.2-2.99.25-5.83.25-1.01.02-1.16.02-1.68.04l-.2-3.28Z"/>
        <path class="cls-2" d="M98.3,104.15c.13.76.2,1.01.45,1.81.29,1.01.31,1.07.67,2.32,1.59-.42,2.06-.54,3.24-.78q-.02-.51-.04-1.56c-.02-1.45-.04-1.72-.18-2.32h3.98c-.07.56-.09.83-.11,1.68v1.76c.51-.04.65-.04.96-.04,2.14,0,3.95.92,4.83,2.46.42.71.65,1.68.65,2.68,0,1.68-.78,3.31-2.1,4.31-1.12.89-2.73,1.36-4.51,1.36-.92,0-2.1-.16-3.17-.45-.11-1.7-.22-2.35-.58-3.73,1.32.47,2.32.67,3.35.67,1.85,0,3.04-.83,3.04-2.12,0-1.14-.87-1.76-2.44-1.76-1.3,0-3.11.36-5.96,1.16.56,1.9,1.63,6.03,2.75,10.57.13.49.2.69.42,1.21l-4.2.96c-.07-1.01-.45-2.95-1.18-6.17-.2-.87-.67-2.7-1.43-5.52-1.83.63-2.99,1.07-3.71,1.43l-1.16-3.69q.65-.09,3.17-.87c.34-.09.47-.13.76-.22-.6-2.06-1.05-3.33-1.43-4.09l3.95-1.05Z"/>
      </g>
    </g>
  </g>
</svg>