<?xml version="1.0" encoding="UTF-8"?><svg id="_イヤー_2" xmlns="http://www.w3.org/2000/svg" viewBox="0 0 92.21 9.49"><defs><style>.cls-1{fill:#fff;}</style></defs><g id="_イアウト"><g><g><g><path class="cls-1" d="M36.11,4.98c-.14-.16-.37-.2-.56-.1l-.88,.49c-.12,.07-.2,.18-.22,.31-.02,.13,0,.26,.09,.37,.24,.29,.49,.65,.77,1.1-1.21,.1-1.45,.11-2.67,.14,.53-1.06,1.01-2.2,1.44-3.4,.04-.12,.03-.26-.03-.38-.07-.11-.18-.19-.31-.22l-.99-.18c-.22-.04-.44,.09-.51,.31-.46,1.45-1.12,3.04-1.53,3.91-.34,0-.57,0-.74,0-.13,0-.26,.06-.34,.15-.09,.1-.13,.23-.11,.36l.12,.92c.03,.23,.23,.4,.46,.39h.1c2.28-.1,4.43-.19,5.99-.4,.07,.14,.13,.27,.18,.38,.07,.16,.23,.26,.41,.26,.06,0,.12-.01,.18-.04l1.06-.46c.11-.05,.2-.14,.24-.26,.04-.12,.04-.24-.02-.35-.64-1.28-1.3-2.29-2.14-3.3Z"/><path class="cls-1" d="M36.18,.49c-.09-.2-.31-.31-.53-.25l-.9,.25c-.12,.03-.23,.12-.28,.23-.06,.11-.06,.25-.01,.37,.41,1.03,1.21,2.52,2.62,3.75,.08,.07,.19,.11,.3,.11,.01,0,.03,0,.04,0,.12-.01,.23-.07,.31-.17l.68-.84c.15-.19,.12-.47-.06-.62-1.02-.85-1.82-2.03-2.16-2.83Z"/><path class="cls-1" d="M30.21,4.97s.03,0,.05,0c.11,0,.22-.04,.3-.11,1.15-1.01,2.06-2.32,2.63-3.8,.04-.12,.04-.25-.02-.36-.06-.11-.16-.2-.29-.23l-.91-.24c-.21-.05-.43,.05-.52,.25-.47,1.06-1.23,2.04-2.14,2.76-.19,.15-.22,.42-.08,.61l.67,.93c.07,.1,.19,.17,.31,.18Z"/></g><path class="cls-1" d="M57.3,.69h-7.69c-.23,0-.42,.19-.42,.42v.93c0,.23,.19,.42,.42,.42h5.85c-.3,.63-.67,1.19-1.45,1.66,.02-.15,.03-.29,.04-.49,0-.12-.04-.23-.12-.31-.08-.08-.19-.13-.3-.13h-1.05c-.23,0-.42,.18-.42,.41-.03,1.78-.47,3.15-2.52,4.06-.12,.05-.21,.16-.24,.29-.03,.13,0,.26,.09,.36l.64,.77c.08,.1,.2,.15,.32,.15,.06,0,.12-.01,.18-.04,2.77-1.36,3.14-3.31,3.31-4.42l.68,.68c.14,.14,.37,.16,.53,.05,1.52-1,2.27-2.39,2.58-4.34,.02-.12-.02-.25-.1-.34-.08-.09-.2-.15-.32-.15Z"/><path class="cls-1" d="M65.79,1.81h-3c.04-.53,.06-.63,.08-1.05,0-.11-.04-.21-.11-.29-.08-.08-.18-.12-.29-.12h-1.09c-.26,0-.48,.21-.48,.47,0,.34-.02,.47-.05,1h-2.23c-.27,0-.48,.22-.48,.48v.85c0,.27,.22,.48,.48,.48h2.02c-.15,.77-.51,2.63-2.53,3.93-.12,.08-.2,.2-.22,.35-.02,.14,.02,.28,.12,.38l.65,.73c.16,.18,.44,.21,.64,.07,2.65-1.83,3.14-4.55,3.29-5.46h1.78v.57c0,.88-.11,2.26-.18,2.59-.09,.43-.17,.54-.75,.54-.23,0-.49-.02-.78-.05-.14-.02-.28,.03-.39,.13-.1,.1-.16,.24-.15,.38l.05,.93c.01,.24,.19,.43,.43,.45,.34,.04,.72,.06,1.12,.06,.61,0,1.64,0,2.11-1.14,.41-1.01,.45-3.82,.45-4.6v-1.2c0-.27-.22-.48-.48-.48Z"/><path class="cls-1" d="M75.06,1.5h-2.78V.73c0-.22-.18-.39-.39-.39h-1.12c-.22,0-.39,.18-.39,.39v.77h-2.66c-.22,0-.39,.18-.39,.39v3.16c0,.22,.18,.39,.39,.39h1.06c.22,0,.39-.18,.39-.39v-1.78h4.25c-.05,2.35-1.64,3.87-4.72,4.15-.12,.01-.23,.08-.3,.18-.07,.1-.08,.23-.04,.34l.36,1.01c.06,.16,.2,.26,.37,.26,.01,0,.03,0,.04,0,4.26-.44,6.33-2.88,6.33-7.06v-.28c0-.22-.18-.39-.39-.39Z"/><g><path class="cls-1" d="M79.14,3.92c.07,.04,.14,.06,.22,.06,.03,0,.06,0,.09-.01,.1-.03,.19-.09,.25-.18l.6-1.04c.05-.09,.07-.2,.04-.3-.03-.1-.09-.19-.19-.24-.9-.52-1.71-.87-2.79-1.21-.18-.06-.38,.02-.47,.19l-.49,.93c-.05,.1-.06,.22-.02,.32,.04,.11,.12,.19,.23,.23,.97,.36,1.72,.73,2.52,1.24Z"/><path class="cls-1" d="M84.67,2.28l-.98-.66c-.11-.07-.24-.09-.36-.05-.12,.04-.21,.14-.24,.26-.49,1.67-1.24,3.01-2.12,3.78-.96,.85-2.4,1.39-4.28,1.59-.11,.01-.21,.07-.28,.16-.07,.09-.09,.21-.07,.32l.27,1.25c.04,.18,.2,.31,.39,.31,.02,0,.04,0,.06,0,3.6-.56,6.29-1.88,7.75-6.5,.05-.16-.01-.35-.15-.45Z"/></g><path class="cls-1" d="M92.01,4.53c-.94-.52-2.29-1.2-4.4-1.87V.73c-.01-.22-.19-.4-.41-.4h-1.28c-.22,.01-.4,.19-.4,.41l.05,8.09c0,.22,.18,.4,.4,.4h1.28c.22-.01,.4-.19,.4-.41l-.03-4.14c1.1,.43,2.2,1.01,3.34,1.78,.09,.06,.21,.08,.32,.05,.11-.03,.2-.1,.25-.21l.63-1.25c.1-.19,.03-.42-.16-.53Z"/><g><path class="cls-1" d="M46.08,.42l1-.4c.08-.03,.17-.02,.23,.04,.13,.11,.25,.25,.72,.91,.08,.12,.04,.29-.09,.35l-1.04,.46c-.1,.05-.22,.01-.28-.08-.16-.24-.39-.62-.63-.91-.1-.12-.05-.3,.09-.36Z"/><path class="cls-1" d="M46.67,9.49c-.5,0-.99-.29-1.24-.57-1.38-1.51-1.51-4.22-1.56-5.73h-4.49c-.2,0-.36-.16-.36-.36v-.91c0-.2,.16-.36,.36-.36h4.43c0-.23-.02-.67-.03-.94,0-.1,.03-.19,.1-.26,.07-.07,.16-.11,.26-.11h1.05c.2,0,.36,.16,.36,.36v.95h2.31c.2,0,.36,.16,.36,.36v.91c0,.2-.16,.36-.36,.36h-2.27c.06,.91,.17,2.49,.68,3.66,.16,.34,.3,.5,.44,.52,.16,.02,.44-.21,.69-.53,.07-.09,.18-.13,.3-.12,.13,.02,.25,.11,.3,.24,0,0,.27,.43,.47,.78s-.08,.69-.21,.85c-.38,.45-1.17,.91-1.57,.91Zm-2.81-6.39h0Zm-4.44,6.15c-.08,0-.16-.03-.23-.08-.08-.06-.12-.15-.13-.24l-.1-1.02c0-.1,.02-.19,.08-.27,.06-.08,.15-.12,.25-.13,.18-.01,.38-.03,.59-.05,.22-.02,.44-.04,.62-.05v-1.89h-.95c-.2,0-.36-.16-.36-.36v-.91c0-.2,.16-.36,.36-.36h3.58c.2,0,.36,.16,.36,.36v.91c0,.2-.16,.36-.36,.36h-.92v1.75c.36-.04,.61-.06,.81-.08,.2-.02,.34-.03,.48-.05,.1-.02,.21,.01,.29,.08,.08,.07,.13,.17,.13,.27v.88c.02,.17-.11,.33-.28,.36-.91,.18-4.05,.51-4.18,.52-.01,0-.03,0-.04,0Z"/></g></g><g><path class="cls-1" d="M7.46,.34h1.31c.2,0,.36,.16,.36,.36V8.85c0,.2-.16,.36-.36,.36h-1.31c-.2,0-.36-.16-.36-.36V.7c0-.2,.16-.36,.36-.36Z"/><path class="cls-1" d="M17.8,.34h-1.31c-.2,0-.36,.16-.36,.36V5.55L12.39,.5s-.02-.03-.03-.04h0l-.02-.02h0l-.02-.02h0l-.02-.02h-.01l-.02-.02h-.03v-.02h-.07l-.02-.02h-1.36c-.2,0-.36,.16-.36,.36V8.85c0,.2,.16,.36,.36,.36h1.31c.2,0,.36-.16,.36-.36V4.01l3.74,5.05s.06,.07,.09,.09h0l.02,.02h.03l.02,.02h.04s.06,.03,.09,.03h1.31c.2,0,.36-.16,.36-.36V.7c0-.2-.16-.36-.36-.36Z"/><path class="cls-1" d="M5.61,7.18H2.04V.7c0-.2-.16-.36-.36-.36H.36c-.2,0-.36,.16-.36,.36V8.85H0c0,.1,.04,.19,.1,.25h.01c.07,.07,.15,.11,.25,.11H5.61c.2,0,.36-.16,.36-.36v-1.31c0-.2-.16-.36-.36-.36Z"/><path class="cls-1" d="M25.05,.34h-5.24c-.1,0-.19,.04-.25,.1h-.01c-.06,.08-.1,.16-.1,.26h0V8.85h0c0,.1,.04,.19,.1,.25h.01c.07,.07,.15,.11,.25,.11h5.24c.2,0,.36-.16,.36-.36v-1.31c0-.2-.16-.36-.36-.36h-3.57v-1.38h3.57c.2,0,.36-.16,.36-.36v-1.31c0-.2-.16-.36-.36-.36h-3.57v-1.38h3.57c.2,0,.36-.16,.36-.36V.7c0-.2-.16-.36-.36-.36Z"/></g></g></g></svg>