<?xml version="1.0" encoding="utf-8"?>
<!-- Generator: Adobe Illustrator 28.1.0, SVG Export Plug-In . SVG Version: 6.00 Build 0)  -->
<svg version="1.1" id="_レイヤー_2" xmlns="http://www.w3.org/2000/svg" xmlns:xlink="http://www.w3.org/1999/xlink" x="0px"
	 y="0px" viewBox="0 0 144 144" style="enable-background:new 0 0 144 144;" xml:space="preserve">
<style type="text/css">
	.st0{fill:#87000C;}
	.st1{fill:#FFFFFF;}
</style>
<g id="_レイヤー_1-2">
	<rect class="st0" width="144" height="144"/>
	<path class="st1" d="M23.6,39.7c4.4-0.4,7.1-0.9,14.4-2.5c22.3-4.6,30.7-5.8,41.8-5.8s20.5,2.3,27.1,6.9c8.5,6,13.4,15.8,13.4,27.1
		c0,16.1-9.4,29.9-25.6,37.7c-11,5.2-21.8,7.8-41,9.5c-2.6-9.8-3.5-11.9-7.8-19.8c13.4-0.1,22.8-1.3,31.1-3.8
		C85.8,86.5,92,82.4,96,76.8c2.4-3.3,3.5-6.8,3.5-10.9c0-4.4-1.3-7.9-4-10.6C92,51.6,86.9,50,79.3,50c-11.6,0-24.8,2.4-42.1,7.8
		c-4,1.2-6.9,2.3-9.4,3.5L23.6,39.7L23.6,39.7z"/>
</g>
</svg>
